<?xml version="1.0" encoding="utf-8"?>
<!-- Generator: Adobe Illustrator 24.1.0, SVG Export Plug-In . SVG Version: 6.00 Build 0)  -->
<svg version="1.1" id="Calque_1" xmlns="http://www.w3.org/2000/svg" xmlns:xlink="http://www.w3.org/1999/xlink" x="0px" y="0px"
	 viewBox="0 0 181 169" style="enable-background:new 0 0 181 169;" xml:space="preserve">
<style type="text/css">
	.st0{fill:#878686;}
	.st1{fill:#F2783A;}
</style>
<g>
	<path class="st0" d="M18.4,117.6c-0.1,0.3,0,0.6,0.1,0.8C18.7,118.2,18.8,117.9,18.4,117.6z"/>
	<path class="st0" d="M41.4,39.8c-0.1,0.2-0.2,0.3-0.4,0.3c0,0-0.1,0.1-0.1,0.1c0.1,0.2,0.4,0.2,0.5,0.5c0.1,0.6,0.4,0.3,0.7,0.1
		c0-0.6,0.1-1,1.9-1c0.3,0,0.4-0.3,0.4-0.3C44,39.2,43.8,39,44.5,39c0.3,0,0.6-0.1,0.8-0.4c0.6-0.6,1.5,0,1.9-0.7
		c0.6,1.1,1.4,0.1,1.9,0.1c0.8-0.1,1.7-0.6,2.5-0.7c1.9-0.3,3.7-0.8,5.7-1.4c0.8-0.3,1.5-0.3,2.2,0.1c0.7,0.4,1.1,0.6,1.5-0.1
		c0.3-0.4,0.6-0.8,1-0.8c1,0,1.8-0.4,2.6-0.6c1.2-0.3,2.5-0.6,3.3-1.5c0.1-0.1,0.4-0.3,0.6,0c0.3,0.8,0.8,0.6,1.2,0.4
		c1.4-0.4,2.9,0,4.3-0.8c0.1,0,0.3,0,0.4,0c0.4,0.3,1,0,1.4,0c1.4-0.1,2.6-0.7,4-0.8c1.8-0.3,3.7-0.1,5.5-0.7c0.6-0.1,0.8,0,0.6,0.6
		c-0.1,0.4,0.3,0.7,0.3,1c0.8,0.1,1.8,0.3,1.9-1c0.7-0.3,0.4-1.2,1.2-1.4c0.7-0.1,1.5-0.6,2.3-0.4c0.7,0.1,1,0.3,0.8,1
		c-0.1,0.6,0,0.8,0.1,1.1c0.1,0.4,0.3,0,0.4,0c0.7-0.3,0.8-0.1,1.4,0.7c0.1,0.3,0.4,0.6,0.7,0.4c0.6-0.1,1-0.3,1.7-0.1
		c0.6,0,0.7-1,1.2-1.2c0.1-0.1,0.3-0.1,0.6-0.1c0.4,0,0.3-0.3,0.1-0.4c-0.4-0.4-0.3-1,0-1.4c0.3-0.3,0.7-0.3,0.8-0.7
		c0.1-0.3,0.3-0.3,0.6-0.3c0.8,0.3,1.8,0,2.6,0c0.3,0,0.6,0,0.4,0.6c-0.1,0.7-0.4,1.1-1.1,1.2c-0.3,0-0.6,0.6-0.4,0.7
		c0.3,0.1,0.3,0.8,1,0.6c0.4-0.1,0.8-0.4,1.4-0.1c0.4,0.1,0.7-0.7,1.2-0.7c0.3,0,0.3-0.4,0.3-0.7c0-1.1,0.7-1.8,1.7-2.1
		c0.3-0.1,0.4-0.8,0.7-0.4c0.4,0.7,0.8,0,1.2,0s0.3-0.3,0.1-0.4c-0.3-0.3-0.6-0.6-0.1-0.8s0.8-0.3,1.1,0.3c0,0.1,0.3,0.3,0.3,0.1
		c-0.3-0.7,0.8-0.4,0.7-1c0-0.1,0-0.2,0-0.2c0,0.1,0,0.2,0.1,0.2c0.4,0.1,0-0.6,0.4-0.6c0.1,0,0.3,0.1,0.4,0.1
		c0.1-0.4,0.4-0.4,0.7-0.3c0.3-0.7-0.7-0.3-0.7-0.8c0-0.3,0-0.6-0.4-0.3c-0.3,0.3-0.6,0.4-0.6,0.8c0,0.2,0,0.3,0,0.5
		c-0.1-0.1-0.2-0.1-0.4-0.1c-0.7,0.1-1.2-0.3-1.5-1.1c-0.1-0.3-0.3-0.7-0.6-1c-0.1-0.3-0.6-0.6-0.7,0c-0.3,1-1,1.1-1.8,1
		c-0.3-0.1-0.7,0-1,0c-0.8,0-1.9,0.1-2.6-0.7c-0.3-0.1-0.4-0.1-0.7,0c-1.7,1-2.1,0.8-3.2-0.7c-0.1-0.3-0.3-0.7-0.7-0.6
		c-0.1,0.1-0.4,0.4-0.4,0.7c0,0.8-0.4,1.1-1,1.2c-0.7,0.1-1.4,0-2.1,0.3c-0.1,0-0.6-0.3-0.8-0.4c0-0.1,0.1-0.4,0.3-0.6
		c0.4-0.7,0.8-1.4,1.5-1.7c0.3-0.1,0.4-0.4,0.3-0.7c-0.3-0.7-0.1-0.7,0.4-0.4c1.8,0.7,3.7,0.8,5.7,0.7c1.9-0.1,3-0.1,4.8,0.3
		c1.4,0.4,2.8,0.8,4.3,0.7c0.8,0,1,0.1,1.1,0.8c0,0.1,0.1,0.8,0.6,0.1c0-0.1,0.4-0.1,0.6-0.3c0.3-0.3,1-1.4,0.8-1.7
		c-0.3-0.6-0.7-0.7-1.2-0.7c0,0-0.1,0-0.3,0c-1.1,0-2.1-0.1-3-0.6c-0.3-0.1-0.7-0.1-1-0.1c-0.7,0-1.2-0.3-1.8-0.4
		c-1.5-0.4-3-0.8-4.7-0.4c-1.4,0.4-2.9,0.3-4.3-0.1c-0.8-0.3-1.7-0.6-2.5-0.6c-0.8,0-1.8-0.1-2.6-0.3c-0.8-0.1-1.7,0.6-2.6,0.1
		c-1.1,0.6-2.3,0.1-3.6,0.3c-1,0-1.8-0.4-2.8-0.4c-1.4,0.1-2.8-0.4-4.1-1.1c-0.4-0.1-0.6-0.1-0.7,0.3c-0.4,1.1-0.8,2.2-1.4,3.2
		c-0.5,0.7-0.8,1.5-1.1,2.3c0.3-0.2,0.9-0.3,1-0.7c0.1,0.1,0.3,0.3,0.4,0.4c0.1,0.1,0.3,0.3,0.4,0.1c0.1,0,0.1-0.3,0.1-0.4
		c-0.6-0.7,0-1.4,0.1-2.1c0.3-0.7,0.7-0.8,1.2-0.7c2.8,0.7,3.2,0.6,1,3.2c-1,1.2-1.8,2.8-2.8,4.1c-0.3,0.6-0.6,1.1-1.4,1.2
		c-1,0.1-1.7-0.4-1.5-1.4c0.1-0.4,0.1-0.6,0.1-1c0-0.1,0-0.2,0-0.3c-0.8,1.2-1.1,2.8-2.7,3.4c0.1,0.4,0,0.6-0.4,0.3
		c-0.4-0.4-0.7-0.6-1.2-0.1c-0.1,0.1-0.4,0.3-0.7,0.1c-0.4-0.3-0.8,0.1-1.1,0.4c0.4,0.1,0.8,0.4,1.2,0.4c0.3,0,0.6,0,0.7-0.1
		c0.6-0.3,1.2-0.1,1.8-0.1s0.6,0.3,0.4,0.7c-0.1,0.8-1,0.8-1.5,1.2c-0.6,0.4-0.6-0.3-0.8-0.3c-0.3,0-0.7-0.1-1,0.1
		c-0.6,0.6-1.1,0.6-1.8,0.3c-0.4-0.1-1-0.1-1,0.6c0,0.8-0.3,1.1-1.1,0.8c-0.4-0.1-0.8,0.1-0.8,0.4c-0.3,1.2-0.4,0.3-0.6,0
		c-0.1-0.3-0.4-0.3-0.6-0.1c-0.7,0.3-1.5,0.6-2.3,0.7c-0.8,0-1.9-0.1-2.5,0.4c-0.7,0.7-1.5,0-2.2,0.4c-0.7,0.3-1.7-0.1-1.9,0.8
		c0,0.1-0.3,0.3-0.4,0.1c-0.6-0.6-1.1,0-1.7,0.1c-0.7,0.3-1.4-0.3-2.1,0.3c-0.4,0.4-1,0.4-1.5,0.4c-0.3,0-0.7-0.3-1,0.4
		c-0.3,0.6-0.6-0.3-1-0.3c-0.1,0-0.3,0-0.3,0.1c-0.3,0.7-0.8,0.4-1.2,0.6c-0.8,0.4-1.9-0.1-2.6,0.8c-0.3,0.4-1,0-1.4-0.6
		c-0.3-0.3-0.4-0.4-0.7-0.7c-0.4-0.3-0.8,0-1.2-0.1c-0.3,0-0.1,0.6,0,0.8c0.3,0.3,0.6,0.6,0.6,0.8c0,0.2,0.1,0.3,0.2,0.5
		c0.1,0,0.1,0,0.2,0.1C41.1,39.4,41.5,39.4,41.4,39.8z M107.3,26.3c0.1,0.1,0.3,0.1,0.4,0.3c0,0.1-0.1,0.3-0.3,0.1
		c-0.3,0-0.3-0.1-0.3-0.3L107.3,26.3z M103.7,26.9c-0.1,0.1-0.3,0.3-0.4,0.1c-0.3,0-0.6-0.3-0.4-0.6c0.1-0.3,0.4-0.3,0.6-0.1
		C103.7,26.5,103.9,26.6,103.7,26.9z M102.6,25.9c0-0.3-0.4-0.6,0-0.6c0.4-0.1,0.8-0.3,1,0.3c0,0.1-0.1,0.3-0.3,0.3
		C103,25.9,102.9,25.9,102.6,25.9c0,0.1,0,0.4-0.3,0.6c0,0-0.3-0.1-0.3-0.3C102.2,25.9,102.5,25.9,102.6,25.9z M98.1,25.1
		c0.3,0.3,0.1,0.3,0,0.4l-0.1-0.1C97.9,25.2,98.1,25.2,98.1,25.1z M96.8,25.9c0.1-0.4,0.6-0.6,1-0.3c0,0.1,0.1,0.1,0.3,0.1
		c0.1,0.1,0.4,0,0.4,0.3c0,0.3-0.3,0.4-0.4,0.6c-0.1,0-0.1,0.1-0.3,0.1c-0.1,0-0.3,0-0.3-0.3C97.2,26.3,96.7,26.6,96.8,25.9z
		 M104.4,20.3c0.1,0.1,0.3,0.1,0.3,0.3c0,0.1-0.1,0.1-0.3,0.1c-0.1,0-0.3-0.1-0.3-0.1C104.1,20.3,104.3,20.3,104.4,20.3z M90.2,27.7
		l-0.1-0.1c0.1-0.1,0.1-0.1,0.3-0.1C90.3,27.6,90.3,27.7,90.2,27.7z M96.5,30.2c0,0,0,0.1-0.1,0.3c-0.1,0-0.1-0.1-0.1-0.1
		C96.4,30.2,96.4,30.2,96.5,30.2z M95.2,29.6c0.3-0.1,0.6,0,0.7,0.3c-0.7,0.4-1,1.1-1.5,1.2c-0.1,0-0.3,0-0.4-0.1s-0.1-0.3,0-0.4
		C94.3,30.3,94.8,29.9,95.2,29.6z M94.3,26c0.1,0.6-0.6,0.8-1,1.2c-0.4,0.4-0.6,0.4-1.5-0.3c-0.3-0.1-0.6-0.1-0.8-0.1
		c-0.3,0-0.7,0.1-0.7-0.3s0.4-0.7,0.7-0.7c0.3,0,0.7,0,1,0c0.3,0,0.6,0,0.8,0c0.1,0,0.1,0,0.1,0C93.5,25.9,94.2,25.8,94.3,26z
		 M88.4,20.9c0.3-0.6,1-0.6,1.5-0.6c1,0,1.8-0.3,2.8-0.1c0.6,0,0.7,0.3,0.4,0.7c-0.8,1.4-1.8,2.6-3.6,2.8c-0.7,0.1-1-0.8-1.7-0.3
		c0,0-0.1-0.1-0.1-0.3C87.3,22.3,88.1,21.6,88.4,20.9z M88.8,25.2c0.1,0,0.3,0,0.3,0.1c-0.1,0.4-0.3,0.8-0.4,1.2
		c-0.1,0.3-0.4,0.3-0.7,0.3c-0.6-0.1-0.8,0.1-0.7,0.8c0.1,0.4-1.1,1.4-1.5,1.4c-0.3-0.1-0.6-0.1-0.7-0.3c-0.4,0-0.3-0.3-0.1-0.6
		c0.1-0.1,0.4-0.3,0.7-0.4c0.4-0.1,0.6-0.4,0.1-0.7c-0.3-0.1-0.4-0.3-0.7-0.4c-0.1-0.1-0.1-0.3,0-0.4c0.6-0.3,0.7-0.8,1-1.2
		c0.1-0.1,0.6-0.6,0.8-0.3C87.4,25.4,88.1,25.2,88.8,25.2z M79.4,29.4c0.1-0.7,1.2-0.7,1.1-1.7c-0.1-0.7,1-1,0.7-1.8
		c1-0.8,1.4-2.2,2.2-3.2c0.3-0.4,0.7-0.8,0.8-1.2c0.3-0.7,1-0.8,1.4-0.8c0.3,0,1,0,1.1,0.6c0.1,0.4,0,0.7-0.3,1.1
		c-1,1.4-1.9,2.8-2.9,4.3c-0.4,0.6-0.8,0.8-1.5,0.8c-0.3,0-0.7-0.1-1,0.1c-0.1,0.1-0.4,0.3-0.3,0.6c0.1,0.1,0.3,0,0.4,0
		c0.3,0.3,0.8-0.3,1,0.3c0.1,0.4-0.4,1-0.7,1.1c-0.6,0.3-1.2,0.3-1.8,0.4c-0.4,0-0.7-0.1-0.7-0.1C79,29.5,79.4,29.5,79.4,29.4z
		 M73.6,29.5c0.7-0.3,1.1-1,1.8-1c0.4,0.1,0.8,0.4,1.4,0.1c0.1-0.1,0.4,0,0.4,0.1c0.1,0.7,0.8,1,1.1,1.4c-0.4,0.1-1,0.1-1.4,0.4
		C76.4,31,75.7,31,75.3,31c-0.7-0.1-1-0.1-1.1,0c-0.1,0.1-0.3,0.4-0.4,0c0-0.4,0.1-0.8-0.1-1.2C73.5,29.8,73.6,29.5,73.6,29.5z"/>
	<path class="st0" d="M75.9,24.1c-0.1,0-0.2,0.1-0.2,0.2c-0.4,0.4-0.6,0.9-0.6,1.3c0,0,0,0,0-0.1C75.5,25.1,75.7,24.6,75.9,24.1z"/>
	<path class="st0" d="M16.4,31.7c-0.1,0.1-0.3,0.3-0.4,0.4c0.3-0.1,0.5-0.3,0.8-0.4C16.6,31.7,16.4,31.6,16.4,31.7z"/>
	<path class="st0" d="M48.1,135.3c0.3,0.3,0.8,0,0.8-0.4c-0.1-1.1,0.3-2.1,0.1-3.2c0-0.7-0.4-1.4-1-1.9c-0.1,0-0.3-0.3-0.1-0.4
		c0,0,0.1,0,0.1-0.1c0.1,0,0.1,0,0.2-0.1l0,0c0.5-0.4,0.4-1.2,0.3-1.8c-0.4-1.8-0.3-3.9-1.2-5.5c0-0.1,0-0.4,0-0.6
		c-0.6-2.6-1.2-5.4-1.9-8c-0.3-1-0.4-1.8-0.4-2.6c0-1,0.1-1.8-0.1-2.8c-0.4-1.4-0.7-2.6-0.8-4c-0.1-2.2-1.1-4.3-1.1-6.6
		c0.1-0.6,0-1.2-0.3-1.8c-0.8-1.5-0.7-3.2-0.8-4.7c0-0.1,0.1-0.3,0.1-0.3c0.1-0.1,0.3,0,0.4,0.1c0.8,1.4,2.6,1.7,3.3,3.2
		c1.1,0.4,2.1,0.8,3.2,1.2c0.3,0.1,0.4,0,0.7-0.1c0.4-0.3,0.6-0.4,0.1-0.8c-0.4-0.6-1-0.7-1.5-1c-0.6-0.3-0.6-0.7-0.6-1.1
		c0-0.6,0.6-0.1,0.7-0.4c0.3-0.4,0.4,0.1,0.7,0.3c0.4,0.1,0.7,0,1-0.3c0.3-0.3,0.1-0.6-0.1-0.8c-0.6-0.6-0.8-1.1-1.4-1.7
		c-0.4-0.4-0.7-0.7-0.3-1.2l0.7-1.2c0.4-0.3,0.6-0.8,0.7-1.2c0.1-1.2,1.4-1.9,1.2-3.3c0-0.1,0.1-0.1,0.1-0.3
		c1.2-1.7,2.1-3.3,2.9-5.1c0.3-0.8,0.8-1.4,1.1-2.2c0.1-0.4,0.3-1.1,0.1-1.4c-0.1-0.3-0.4-0.3-0.6,0c-0.4,0.4-0.7,1-1,1.5
		c-0.1,0.4-0.7,0.7-0.6,1.4c0,0.7-1.2,0.1-1.4,0.7c-0.3,1.1-1.4,1.9-1.2,3.3c0,0.4-0.7,1.1-1.1,1.7c0,0.1-0.3,0.1-0.4,0.1
		c-1.1-0.8-2.2-1.4-3.2-2.3c-0.4-0.4-0.4-0.8-0.3-1.4c0.1-0.6,0.8-1,0.4-1.5c0.6-0.4,0.4-1.4,1.1-1.5c0.4,0,1.1,0,1.4,0.6
		c0,0.1,0.4,0.1,0.6,0.1c0.3-0.7,1-0.1,1.2-0.4c0.3-0.3,0.3-0.7,0.1-1c-0.1-0.4-0.4-0.7-0.8-0.8c-0.3-0.1-0.6-0.4-0.8-0.7
		c-0.1-0.4-0.3-0.7,0-1.1c0.1-0.4,0.4,0,0.7,0c0.8,0.1,1.4-0.6,2.1-0.6c-0.1-0.6-0.6-1-0.8-1.4c-0.1,0-0.3,0-0.3-0.1
		c-0.3-0.3-0.4-0.7,0-1.1c0.6-0.6,0.7-1.2,1-1.8c0.3-0.6-0.3-1.1,0.1-1.7c0.1-0.1-0.8-0.3-1,0c-0.4,0.7-1.1,1.2-1.2,2.1
		c0,0.4-0.3,0.8-0.8,0.8c-0.6-0.1-2.5-1.4-2.6-1.9c0-0.3-0.1-0.6,0-0.7c0.3-0.7,0.4-1.4,1-1.9c0.3-0.3,0.7-0.6,0.7-1.1
		c0-0.1,1.7-0.8,1.7-0.8c0.6,0.8,0.8,0,1.1-0.3c0.3-0.3-0.1-0.6-0.4-0.7c-0.8-0.8-1-1.2-0.1-2.1c0.4-0.4,0.6-0.8,0.8-1.4
		c0.1-0.3-0.1-0.7-0.6-0.7c-0.4,0-0.7,0.3-0.8,0.6c-0.3,0.6-0.7,0.8-1.1,1.4c-0.4,0.6-1,0.6-1.5,0c-0.4-0.4-1-0.7-1.4-1
		c-1.2-0.8-1.2-0.8-0.8-2.2c0-0.1,0.1-0.4,0.3-0.7c0.4-0.7,0.7-1.2,1.7-1c1,0.3,1.2-0.4,0.7-1.1c-0.6-0.8-0.4-1.4,0-2.1
		c0.1-0.1,0.1-0.3,0.3-0.4c0.3-0.7,0.6-1.5,0.7-2.2c0-0.1,0-0.3-0.1-0.4c-0.1-0.1-0.4,0-0.4,0.1c-0.1,0.4-0.7,0.6-0.8,1
		c-0.3,0.8-1.1,1-1.5,1.5c0,0.3-0.4,0.3-0.6,0.1C44,50.1,44,49.8,44,49.5c0.1-0.1,0.1-0.4,0.3-0.6c0.7-1,1.1-1.9,1.8-2.9
		c0.7-1,1.2-1.9,1.7-3c0.1-0.3,0.3-0.7,0.1-0.7c-0.4-0.1-0.8-0.4-1.2-0.1c-0.3,0.1-0.7,0.4-0.7,0.7c-0.3,1-1.2,1.5-1.1,2.6
		c0,0.1-0.1,0.4-0.3,0.4c-1.1,0.1-1.1,1.4-1.7,1.9c-0.3,0.3-0.4,1-1,1c-0.4,0-0.4-0.7-0.6-1c0-0.1-0.1-0.1-0.1-0.1
		c-0.7-0.8-0.8-1-0.4-1.5c0.3-0.7,0.7-1.5,1.5-1.2c0.8,0.1,1.1-0.1,1.5-0.7c0.4-0.6,0-0.8-0.3-1.2c-0.3-0.1-0.4-0.3-0.3-0.7
		c0.1-0.3,0.6-0.6,0.3-1c-0.3-0.4-0.8,0-1.1-0.3c-0.1-0.1-0.3-0.1-0.4-0.3c0,0.7-0.7,1-1,1c-0.3,0.1-0.8-0.4-1.1-0.8
		c-0.2-0.3-0.1-0.5,0-0.7c0,0,0,0,0,0c-0.1,0-0.3,0-0.4,0.1c-0.4,0.6-1,0.4-1.2-0.1c-0.3-0.6-0.7-0.7-1.1-0.6
		c-1,0.3-1.1-0.8-1.8-1.1c-0.1,0,0-0.3,0.1-0.3c0.8-0.3,1.1-1.1,1.8-1.4c0.1,0,0.3-0.4,0.1-0.4c-0.4,0-0.4-0.2-0.4-0.4
		c0.3,0.1,0.6,0.1,0.9-0.3c0.2,0.1,0.5,0.3,0.6,0c0-0.3,0.1-0.7,0.4-0.8c0.1-0.1,0.4-0.1,0.4,0c-0.1,0.7,0.4,0.6,0.7,0.6
		c0.7,0.3,1.5-0.3,2.2-0.3c1.4,0,2.8-0.3,4-0.8c0.6-0.3,1.2-0.3,1.9-0.4c1.7-0.3,3.4-0.3,5.1-1c0.3-0.1,0.6-0.1,0.8-0.1
		c1.8,0.1,3.4-0.6,5.1-0.4c0.4,0.1,0.8-0.1,0.8-0.4c0-0.4-0.1-0.7,0.4-0.3c0.7,0.4,1.1,0.3,1.4-0.6c0-0.3,0.1-0.4,0.4-0.4
		c0.4,0,0.6-0.3,0.6-0.7c0.3,0,0.7,0,0.8,0c0.7,0.8,1.5,0.1,2.3,0.1c0.1,0,0.3-0.1,0.3-0.3c0-0.3-0.3-0.3-0.4-0.1
		c-0.3,0.3-0.6,0.1-0.7-0.1c-0.3-0.3-0.8,0.7-1-0.1c-0.4,0.1-1.1,0-1.4,0.6c-0.7,0.1-1.7-0.4-2.6,0.6c-0.3,0.6-0.6,0.6-0.8,0.1
		c-0.1-0.3-0.4-0.3-0.7-0.1c-0.6,0.1-1.1,0.3-1.5,0.6c-0.4,0.3-0.6-0.7-0.8-0.3c-0.6,0.8-1.7,0-1.9,1c-0.7-0.3-1.1,0.4-1.7,0.3
		c-1.1-0.1-2.1,0.4-3.2,0.3c-0.3,0-0.4,0.1-0.7,0.3c-1.1,0.7-1.8,0.7-3.2,0.6c-0.3,0-0.4,0.1-0.6,0.1c-1.8,0.4-3.6,1.2-5.7,0.7
		c-0.7-0.1-1.4,0-2.1,0.1c-0.6,0-0.6,0.4-0.6,0.8c0.1,0,0.1-0.1,0.3-0.1c0.3-0.1,0.4-0.1,0.7,0c0.4,0.2,0.1,0.5,0,0.7
		c-0.1-0.1-0.2-0.2-0.4-0.2c-0.6,0.3-0.4-0.1-0.4-0.4c-0.1,0.1-0.2,0.2-0.3,0.3c-0.9-0.9-1.5-2-2.5-2.9c-0.3-0.3-0.4-0.6-0.8-0.6
		c-1.2,0-2.3-0.6-3.6-0.4c-1.5,0.1-2.9,0-4.3,0c-0.9-0.1-1.8-0.1-2.7-0.3c0,0,0.1,0.1,0.3,0.1c-0.1,0.1-0.1,0.3-0.3,0.3
		c-0.6,0.4-1.2,0.6-1.8,0.3c-0.7-0.3-1.2-0.4-1.7,0.3c-1.2,0.3-2.2,1.2-3.6,1.4c-0.3,0-0.6,0-0.8,0c-0.1,0-0.3,0-0.3-0.1
		c-0.1,0,0-0.3,0-0.3c0.5-0.3,0.9-0.7,1.3-1.1c-0.9,0.5-1.6,1.1-2.1,2.2c-0.3,0.6-0.6,1.4-1.2,1.7c-0.8,0.4-0.7,1.1-0.6,1.8
		c0,0.7,0.6,0.8,1.1,0.3c0.1-0.1,0.3-0.4,0.3-0.4c0.3,0.1,0.1,0.4,0.1,0.6c-0.1,0.7-0.1,1.1,0.3,1.8c0.6,0.7,0,1.5-1,1.8
		c-1.2,0.4-1.5,0.7-1.1,1.9c0.7,2.2,0.8,4.6,0.8,6.9c-0.1,1.4,0.1,2.8,0.1,4.1c0,1.8,0.3,3.4,0.6,5.2c0.1,0.8,0.3,1.8,0.6,2.8
		c0.3,1.2,0.4,2.6,0.4,4c0,0.7,0,1.4,0.1,2.1c0.3,1.2,0.3,2.6,0.3,3.9c0,0.6-0.1,1.2,0,1.8c0.4,1.5,0.3,3.2,0.6,4.7
		c0.3,1.5-0.1,3.2,0.4,4.8c-0.4,0.7,0.3,1.2,0.3,1.8c0,1.2,0.6,2.3,0.4,3.4c0,1.2,1,2.2,0.3,3.4c-0.1,0.1,0.1,0.4,0.3,0.6
		c0.3,0.3,0.3,0.7,0.3,1c0,1,0.4,1.9,0,3c-0.3,0.4-0.3,1.1,0.3,1.7c0.4,0.4,0.4,0.8,0.3,1.2c-0.1,0.7,0,1.2,0.3,1.9s0.7,1.4,0.7,2.1
		c0,0.7,0.1,1.5-0.7,1.9c-0.6,0.3-0.4,0.8,0,1.2c0.2,0.2,0.3,0.3,0.3,0.4c0,0,0,0,0,0c0.3,0,0.3,0.3,0.3,0.6c0,0.1,0,0.4-0.3,0.6
		c-0.1,0-0.4-0.1-0.3-0.3c0.1-0.1,0.1-0.3,0-0.5c-0.4,0.3-0.4,0.7-0.2,1c0.3,0.4,0.1,0.8,0,1.2c-0.1,0.2-0.1,0.5-0.2,0.7
		c0,0,0,0,0,0c0,0,0.1,0.1,0.1,0.3l-0.1,0.1c0,0,0-0.1,0-0.1c0,0.3,0,0.6,0,1c0,1.1,0.1,2.2,0.3,3.3c0.1,0.7-0.3,1.5,0.3,1.9
		c0,0,0,0,0.1,0.1c0-0.2,0.1-0.3,0.2-0.5c0.3-0.4,0.4-0.8,0.3-1.4c0-0.3,0.3-0.8-0.6-0.7c-0.3,0-0.3-0.6-0.1-0.8
		c0-0.1,0.3-0.3,0.4-0.3c0.4-0.1,0.7,0.1,0.8,0.4c0,0.3,0,1.5,0.1,2.1c0.3,0.7,0.1,1.5,0.4,2.3c0.1,0.4,0,0.7-0.3,0.8
		c-0.1,0.1-0.6-0.1-0.7-0.3c-0.2-0.3-0.4-0.6-0.6-0.9c-0.2,0.3-0.5,0.5-0.3,0.8c0.1,0,0.1,0.1,0.1,0.1c0,0.8,0.4,1.5,0.6,2.3
		c0.1,0.4-0.3,1-0.1,1.2c0.3,0.4-1,0.4-0.1,0.8c0.4,0.1,0.6,0.7,0.6,1.1c0.1,2.2,0.8,4.4,0.7,6.8c0,0.3,0,0.6,0.1,0.7
		c0.6,1.2,0.7,2.6,1.2,3.9c0.3,0.4,0.3,0.8,1,1c0.4,0,0.4,0.4,0.1,0.6c-0.6,0.6-0.1,1.1-0.3,1.5c-0.3,0.6-0.3,1.1-0.3,1.7
		c0,0.4,0.1,0.7,0.4,0.8c0.1-0.6,1-0.1,1.1-0.7c0.1-0.4,0.1-1,0-1.1c-0.8-0.4-0.3-1.2-0.6-1.8c-0.3-0.4,0.1-1,0-1.2
		c0-0.4-0.6-0.8-0.7-1.2c-0.3-1.1-0.7-2.1,0.3-3c-0.7-0.6,0.1-1.1,0.1-1.7c0.1,0,0.1,0,0.1-0.1c0-0.2,0-0.3-0.1-0.3
		c0.1-0.2,0.2-0.5,0.4-0.4c0.7,0.6,0.4,0,0.4-0.3c0-0.1,0-0.3-0.1-0.3c-0.6-0.4-0.7-0.7-0.1-1.4c0.3-0.3,0.1-1-0.1-1.4
		c-0.4-0.6,0.7-0.8,0.4-1.4c0-0.1-0.1-0.3-0.1-0.4c0.3-0.7-0.8-0.6-0.7-0.8c0.4-0.4,0.4-1,0.4-1.4c0.1-0.4,0.1-1,0-1.2
		c-0.6-0.8-0.1-1.7-0.1-2.5c0-0.8-0.1-1.5-0.1-2.3c0-1.5-0.7-2.9-0.4-4.4c0-0.4-0.3-0.8-0.6-1.1c-0.6-0.6-0.8-1.2-0.8-2.1
		c0-0.7,0-1.4-0.7-1.9c-0.1-0.1-0.3-0.3-0.1-0.6c0.1-0.3,0.3-0.7,0.3-1c-0.1-1.5-0.3-3-0.8-4.6c-0.1-0.1-0.4-0.4-0.3-0.6
		c0.6-0.8,0-1.4-0.4-1.9c-0.3-0.4-0.1-0.7-0.1-1c0.1-1.2,0.1-2.3-0.1-3.6c-0.3-1.2-0.4-2.5-0.4-3.7c-0.1-1.2-0.4-2.5-0.6-3.6
		c-0.3-1.4-0.6-2.8-0.6-4.1c0-1.8-0.6-3.4-0.4-5.1c0.1,0,0-0.1,0-0.3c-0.3-1.7-0.6-3.3-0.6-5c0-1,0-1.8-0.3-2.6
		c-0.3-0.8,0-1.8,0-2.8c0-0.1-0.1-0.3-0.1-0.4c-0.1-1-0.3-2.1-0.4-3c0-0.8,0-1.7-0.1-2.5c-0.1-0.7-0.1-1.5-0.1-2.3
		c0-0.7-0.4-1.4-0.4-2.2c0-1.5-0.4-3.2-0.4-4.8c0-0.7,0.3-1.4,0-1.9c-0.6-1-0.1-2.1-0.6-3.2c-0.3-1-0.1-1.9-0.3-2.9
		c0-0.3,0-0.6,0.3-0.4c0.6,0.1,0.6-0.1,0.7-0.6c0.1-0.4,0.4-0.7,0.8-1c1.9-1.1,3.7-2.3,5.9-3.2c1.5-0.6,2.8-0.6,4.1-0.1
		c1.2,0.4,2.2,1.1,2.9,2.1c0.1,0.1,0.1,0.4,0.3,0.3c0,0,0-0.3,0-0.4c-0.6-0.7,0.6-1.7-0.4-2.3c-0.7-0.6-1.5-0.6-2.2-1
		c-0.7-0.3-1.2-0.1-1.8-0.4c-0.6-0.1-1-0.4-1.5,0.1c-0.4,0.6-1-0.7-1.5-0.1c-0.4,0.4-0.8-0.3-1.2,0.1c-0.6,0.7-1.2,0.4-1.9,0.4
		c-0.1,0-0.3-0.1-0.4-0.1c0,0,0.1-0.1,0.3-0.3c0.1-0.3,0.4-0.6,0.7-0.7c1.1-0.7,2.5-0.8,3.6-1.5c0.8,0.3,1.5,0,2.3-0.1
		c1.4-0.1,2.8-0.1,4.1-0.7c0.7-0.1,1.2-0.3,1.8,0c0.3,0.1,0.7,0.1,1.1,0.1c1.1-0.3,1.8,0.4,2.5,1c0.4,0.3,0.6,0.6,0.6,1
		c0,0.3,0,0.4-0.3,0.6c-0.3,0-0.4-0.1-0.4-0.4c0-0.7-0.6-0.7-1-0.6s-0.7,0.3-0.4,0.8c0.1,0.4-0.1,0.7-0.6,0.8
		c-0.6,0.1-0.4,0.7-0.6,1.1c0,0.1,0.4,0.4,0.8,0.4c0.6,0,1.1,0.3,0.8,0.8c-0.4,1-0.1,1.7,0.3,2.3c0.3,0.4,0.3,1,0.4,1.5
		c0.1,0.3,0,0.4-0.3,0.4c-0.3,0-0.4,0-0.6,0c-0.6,0-1,0.1-1.1,0.7c-0.1,0.4,0.3,0.7,0.6,0.8c0.4,0.1,0.7,0.7,1,1
		c0.6,0.6,0.1,1.1,0,1.7c-0.1,0.6-0.7,0.1-1,0.1c-0.1,0-0.3,0-0.4,0.1c-0.3,0.1-0.7,0.1-0.7,0.6c0,0.3,0.3,0.4,0.6,0.6
		c1.4,0.4,1.5,1.7,1.7,2.9c0,1-0.1,1.8,0.1,2.8c0.1,0.4-0.3,0.8-0.7,0.7c-0.3-0.1-0.6-0.1-0.8-0.4c-0.8-0.7-1.8-1.1-2.8-1.7
		c-0.3-0.3-0.7-0.3-1-0.3c-0.3,0-0.4,0.1-0.4,0.3c0,0.3,0.4,0.4-0.3,0.7c-0.6,0.3,0.3,0.4,0.4,0.7c0.3,0.3,0.6,0.4,1,0.6
		c0.4,0.1,0.8,0.4,1.1,0.7c0.4,0.6,0.7,1.2,1.5,1.2c0.3,0.8,1.7,0.7,1.7,1.8c0,0.1,0.1,0.1,0.3,0.1c0.3-0.1,0.3,0,0.3,0.3
		c0,0.6,0.1,1.1,0.6,1.5c0.6,0.4-0.4,1.1,0.1,1.7c0.1,0,0.1,0.1,0.1,0.1c0.3,1.2,0.6,2.6,0.8,3.9c0.4,1.5,0.3,3,0.6,4.6
		c0,0.8,0.1,1.5-0.3,2.2c-0.4,0.4-0.1,0.8,0.3,1.2c0.4,0.3,1,0.6,0.8,1.1c-0.1,0.7,0,1.1,0.3,1.7c0.1,0.4,0.1,0.8-0.1,1.1
		c-0.6,0.8-0.6,1.5,0.6,1.9c0.1,0,0.3,0.3,0.3,0.4c0.1,1.1,0.8,2.1,1.1,3.3c0.1,1.1,0.6,2.1-0.4,3c-0.4,0.4-0.3,0.7,0.3,1.1
		c0.6,0.4,1.4,1,1.4,1.8c0,1.2,0.4,2.5,0.3,3.7c-0.1,0.4-0.1,1,0.6,1c0.1,0,0.1,0.1,0,0.3c-0.6,0.4-0.1,1.2-0.3,1.8
		c0,0.3,0.1,0.6,0.4,0.4c1-0.3,0.6,0.4,0.4,0.7c-0.6,1.2-0.6,1.2,0.6,1.8c0.1,0.1,0.3,0.3,0.3,0.4c-0.1,0.1-0.3,0-0.4,0
		c-0.4-0.1-0.7,0.1-0.4,0.4c0.7,0.7-0.3,1.9,0.7,2.5c0,1.4,0.8,2.8,0.6,4.3c-0.1,0.7,0,1.1,0.8,1.1c0.4,0,0.6,0.3,0.1,0.6
		c-0.6,0.4-1,1-0.1,1.5c0.1,0,0.1,0.4,0,0.6c-0.7,0.8-0.3,1.4,0.1,2.1c0.1,0.1,0.3,0.4,0.3,0.6c-0.3,1.4,0.7,2.5,0.4,3.7
		c-0.1,0-0.1,0.1,0.1,0.2c0,0,0,0-0.1,0.1c0,0.1,0,0.3,0.1,0.4c0-0.1,0.1-0.1,0.1-0.3c0,0,0,0,0,0c0.3,0.2,0.3,0.2,0.3,0.5
		c0.4,0.1,0.3,0.6,0.3,0.8c-0.1,1-0.8,1.9,0.6,2.6c0.1,0,0.1,0.1,0.1,0.3c0,1.4,0.8,2.5,1,3.9c0.1,0.3,0,0.7,0.1,1
		c0.4,1.1,0.6,1.8,0.3,2.8c0,0.4,0,0.7,0.1,1.1c0.6,0.8,0.3,1.9,0.7,2.9c0.1,0.3,0,0.4-0.1,0.6C47.2,134.6,47.7,135,48.1,135.3z
		 M48.4,84.7c0.1,0,0.1,0.1,0.1,0.1c0,0.1-0.1,0.3-0.3,0.4c0,0-0.1-0.1-0.3-0.3C48.1,84.7,48.3,84.7,48.4,84.7z M49.6,66.9
		c0.1,0,0.1,0.1,0.3,0.1c0,0.1-0.1,0.1,0,0c-0.3,0.1-0.3,0-0.4,0C49.5,66.9,49.6,66.9,49.6,66.9z M47.6,61.5
		C47.4,61.4,47.6,61.4,47.6,61.5c-0.1,0-0.1,0-0.3,0.1l-0.1-0.1C47.3,61.5,47.4,61.4,47.6,61.5z M19.4,124.6c0,0,0-0.1-0.1-0.3
		l0.1-0.1C19.4,124.3,19.6,124.4,19.4,124.6z M20,126.2c0-0.1,0-0.3,0-0.4c-0.1-0.4-0.4-0.7,0-0.8c0.4-0.1,0.7,0.4,0.8,0.7
		c0.1,0.1-0.1,0.4,0,0.7c0.1,0.4,0.1,0.7-0.3,0.7S19.7,126.9,20,126.2z M21.2,129c0,0.1-0.1,0.1-0.1,0.3c0,0.1,0.1,0.3,0.1,0.7
		c0,0.1-0.1,0.3-0.3,0.3c-0.3,0-0.6,0-0.6-0.3c-0.1-0.4-0.1-0.8,0.1-1.1c0.1-0.1,0.3-0.3,0.4-0.3C21.2,128.6,21.4,128.7,21.2,129z
		 M20.8,113.7c0,0,0,0.1,0.1,0.3l-0.1,0.1C20.8,113.9,20.7,113.8,20.8,113.7z M20.4,122.6c0.1,0.1,0.1,0.4,0.3,0.6
		c0.1,0.3,0.4,0.6,0,0.8c-0.1,0.1-0.4,0.4-0.6,0.1c-0.1-0.3-0.7-0.3-0.6-0.8v-0.1c0-0.1,0-0.3,0-0.3c0.1-0.6-0.1-1.2,0.6-1.2
		C20.4,121.7,20.1,122.3,20.4,122.6z M19,113.2c-0.1,0-0.1,0.1-0.3,0.1c-0.1-0.1-0.1-0.3-0.1-0.4s0-0.3,0-0.4c-0.1,0-0.1,0-0.1-0.1
		c-0.1,0-0.3-0.1-0.3-0.3c0,0,0-0.1,0.1-0.1s0.3,0.1,0.3,0.3c0,0,0,0.1,0,0.3c0.1,0,0.3,0.1,0.4,0.3C19,113,19.2,113.1,19,113.2z
		 M16.4,37.9l0.1-0.1c0.1,0,0.3,0,0.1,0.3C16.5,38.2,16.5,38.1,16.4,37.9z M47.4,83.4c0.1,0.3,0.1,0.6,0,0.7
		c-0.7,0.7-0.6,1.5-0.6,2.3c0,0.6-0.4,0.7-0.8,0.3c-0.4-0.4-0.8-0.6-1.2-0.7c-0.6-0.1-0.8-0.4-0.8-1c0-0.4,0.1-1-0.6-0.8
		c0.3-0.8,0.1-1.8,0.7-2.6c0-0.1,0.1-0.1,0.3-0.1C45.5,82.2,46.9,82.5,47.4,83.4z M40,59.4c0,0.3-0.4,0.8-0.6,1.1
		c-0.3,0.3-0.6,0.3-0.8,0c-0.3-0.3-0.4-0.4-0.7-0.7c-0.1-0.1-0.1-0.4-0.1-0.4c0.7-0.7,0.6-1.8,1.1-2.5c0.1-0.1,0.3-0.3,0.4-0.3
		c0.3,0,0.6-0.4,0.7-0.1c0.1,0.3,0.7,0.4,0.7,0.8c-0.1,0.3-0.3,0.7-0.3,0.8C40.5,58.7,39.7,58.9,40,59.4z M39.8,64.7
		c0.1,0,0.4,0,0.4,0.1c0.3,0.6,0.7,0.8,1.4,0.8c0.6,0.1,0,1,0.4,1.2c0,0.3,0,0.6-0.1,0.4c-0.3,0-0.7,0.1-0.8,0
		c-0.4-0.7-1.2-1-1.5-1.7c-0.1-0.1-0.1-0.4-0.1-0.6C39.4,65,39.6,64.7,39.8,64.7z M41.5,75c0.3-0.3,0.4-0.7,0.6-1
		c0.3-0.4,0.4-0.8-0.1-1.2c-0.1-0.1-0.3-0.4-0.1-0.7c0-0.3,0.1-0.6,0.6-0.4c1.1,0.4,1.9,1,2.6,1.9c0.1,0.3,0,0.6,0,0.8
		c-0.1,1-1,1.8-1.2,2.8c0,0-0.1,0.1-0.3,0.1s-0.3,0-0.3-0.3c-0.6-0.3-1-0.7-1.4-1C41.4,75.9,41.2,75.4,41.5,75z M46.1,69.9
		c0.3,0.1,0.3,0.4,0.3,0.7c0,0.3,0,0.7-0.4,0.6c-1.1-0.4-1.7-1.2-2.3-2.1c-0.1-0.1-0.1-0.4,0-0.6c0.1-0.3,0.4-0.1,0.6,0
		C44.7,69,45.4,69.5,46.1,69.9z M45.2,60.4c0.1,0.3,0.1,0.7,0,0.8c-0.8,0.6-0.4,1.8-1.2,2.3c-0.3,0.3-0.3,0.6-0.3,0.8
		c0,0.1-0.1,0.3-0.1,0.3c-1.1-0.8-2.2-1.2-3-2.5c-0.1-0.1-0.1-0.4,0-0.6c0.4-0.7,0.7-1.5,1.1-2.3c0.4-0.8,0.4-0.8,1.2-0.4
		c0.1,0.1,0.3,0.4,0.6,0.3C44.7,58.7,44.7,59.8,45.2,60.4z M42.6,51.6c0.1,0,0.3,0,0.4,0.1c0.3,0.4,0.6,0.8,0.3,1.4
		c-0.1,0.1-0.3,0.4-0.4,0.7c-0.1,0.7-0.7,1.2-1.2,1.2c-0.4,0-0.8-0.7-0.8-1C41.1,53,41.8,52.1,42.6,51.6z M40.7,51.4
		c0.3,0.7,0,1.1-0.7,1.4c-0.3,0.1-0.6,0.3-0.8,0c-0.1-0.1-0.4-0.1-0.6-0.3c-1.2-0.6-1.2-0.7-0.8-1.8c0.3-0.6,0.6-1.1,1.1-1.4
		c0.6-0.4,0.8-0.3,1.2,0.4C40.4,50.3,40.8,50.7,40.7,51.4z M38.7,46.3l0.1-0.1c0.1,0.1,0.1,0.1,0.1,0.3
		C38.9,46.5,38.9,46.5,38.7,46.3z M37.8,44.3c0.3-0.1,0.1-0.6,0.4-0.8c0.3-0.1,0.7-0.3,0.8,0c0.3,0.6,0.7,0.7,1.2,0.8
		c0,0,0.1,0.1,0.1,0.3c0,0.3-0.1,0.4-0.3,0.3c-0.4,0-0.7,0.8-1.4,0.6c-0.4-0.1-0.1,0.4-0.3,0.6c-0.1,0.1-0.3,0.4-0.3,0.3
		c0-0.6-0.6-0.4-0.8-0.8C37.1,44.7,37.5,44.5,37.8,44.3z M37.8,48.5c0,0,0,0,0,0.1c-0.1,0.1-0.1,0.3-0.3,0.3
		c-0.4,0.4-0.7,0.7-0.8,1.2c0,0.4-0.3,0.3-0.6,0.1c-0.3-0.3-0.4-0.7-1-1c-0.3-0.1-0.4-0.6-0.3-0.8c0.3-0.6,0.6-1.1,1.1-1.4
		C36.3,47,37.6,48.1,37.8,48.5z M34.5,41.4c0,0,0.1-0.1,0.4-0.3c0.3,0.3,0.4,0.7,0.7,0.8c0.3,0.3,0.8,0.3,0.8,0.7
		c-0.1,0.6-0.6,1-0.4,1.5c0.1,0.3-0.6,0.3-0.8,0.1C34.5,44,34.1,41.9,34.5,41.4z M34.5,55.4c-0.3-0.8-0.8-1.5,0-2.2
		c0.1,0,0-0.3,0-0.3c-0.1-0.3-0.3-0.4-0.1-0.6c0.1,0,0.3,0,0.4,0.1c0.4,0.3,0.6,0.6,0.4,1.1S35,54.9,35,55.4c0,0.1-0.1,0.4-0.4,0.4
		C34.6,55.8,34.5,55.6,34.5,55.4z M35,56.4c1-0.3,1.5-0.8,1.9-1.7c0.1-0.6,0-0.6-0.4-0.6c-0.1,0,0-0.4,0.1-0.6
		c0.1-0.1,0.3-0.3,0.4-0.1c0.7,0.4,0.7,1.2,1.2,1.7c-0.4,0.8,0,1.8-0.8,2.5c-0.3,0.1-0.3,0.4-0.1,0.7c0.1,0.3-0.1,0.6-0.4,0.7
		c-0.3,0.1-0.7,0.1-0.8-0.3c-0.4-0.7-1.1-1-1.4-1.7C34.6,56.7,34.5,56.5,35,56.4z M35.7,62.6c-0.7-0.3-0.7-0.8-0.4-1.5
		c0.1-0.1,0.1-0.1,0.3-0.3c0,0,0.1,0,0,0.3c0.4,1,1.2,1.5,2.1,2.2c0.1,0.1,0.3,0.3,0.3,0.4s0,0.3-0.1,0.4c-0.1,0.1-0.3,0.1-0.4,0
		c-0.3-0.3-0.3-0.8-0.8-0.7C36.5,62.9,36.1,62.7,35.7,62.6z M36.5,67.3c-0.1,0-0.3-0.1-0.3-0.3c0-0.1,0.1-0.3,0.3-0.3
		c0.3-0.1,0.3,0.1,0.3,0.3C36.8,67.2,36.8,67.4,36.5,67.3z M37.2,71.9c-0.3-1-0.1-1.9-0.4-2.8c0-0.3,0.1-0.4,0.3-0.6
		c0.7-0.3,1.4-0.3,1.8,0.3c0.6,0.4,1,1,1.7,1.2c0.3,0.1,0.6,0.6,0.7,1c0.3,0.7-0.7,0.4-0.7,0.7c0,0.7-0.7,1.2-0.6,2.1
		c0.1,0.7,0,0.7-0.7,0.4C38.2,73.8,37.5,73,37.2,71.9z M38.2,77.8c-0.1-0.3-0.1-0.6-0.1-0.8c0-0.4,0.3-0.3,0.6-0.3
		c0.1,0,0.4-0.1,0.4,0c0.7,1.2,2.1,1.8,3.3,2.5c0.4,0.3,0.6,0.6,0.4,0.8c-0.3,1-0.6,1.8-1,2.6c-0.1,0.3-0.4,0.6-0.6,0
		c0-0.1,0-0.4-0.1-0.4C39.3,81.2,38.9,79.4,38.2,77.8z M40.4,86.2c0-0.7-0.4-1.2-1.1-1.7c-0.3,0-0.3-0.4-0.1-0.6
		c0,0,0.1-0.1,0.3-0.1c0.3,0.7,1-0.3,1.2,0.1c0.3,0.6,0.8,0.8,1.2,1.1c1.4,1,2.3,2.3,3.4,3.4c0.3,0.4,0.4,1,0.6,1.4
		c0.3,0.4-0.1,0.6-0.4,0.8c-0.3,0.3-0.4,0-0.6-0.1c-1-1-2.1-1.7-3.2-2.3C40.9,87.7,40.4,87.3,40.4,86.2z"/>
	<path class="st0" d="M17.4,113.4l0.1,0.1c0.1-0.1,0.3-0.1,0.3-0.1C17.6,113.2,17.5,113.4,17.4,113.4z"/>
	<path class="st0" d="M40.9,40.2C40.8,40.2,40.8,40.2,40.9,40.2c0-0.1,0.1-0.1,0.1-0.1c0,0,0.1-0.1,0.1-0.1c0.1-0.3-0.1-0.5-0.3-0.8
		c-0.1,0-0.1,0-0.2,0.1c0,0.1,0,0.1,0,0.3s0.1,0.3,0.3,0.4c-0.1,0-0.4,0-0.4,0c-0.2,0.1-0.3,0.2-0.4,0.3
		C40.3,40.3,40.6,40.3,40.9,40.2z"/>
	<path class="st0" d="M22.9,31.3C22.9,31.3,22.9,31.3,22.9,31.3C22.9,31.3,22.9,31.3,22.9,31.3C22.9,31.3,22.9,31.3,22.9,31.3z"/>
	<path class="st0" d="M76.3,23.2C76.3,23.2,76.3,23.2,76.3,23.2c0.1,0,0.1,0,0.1-0.1C76.4,23.1,76.3,23.1,76.3,23.2z"/>
	<path class="st0" d="M17.8,111.1c-0.1,0.1,0,0.2,0,0.2C17.7,111.2,17.7,111.1,17.8,111.1z"/>
	<path class="st0" d="M17.8,31.6c0.7,0.6,1.4,0.1,2.1-0.3c1-0.1,2,0.3,3,0c-0.4-0.1-0.9-0.1-1.3-0.3c-0.7-0.1-1.4-0.1-1.9,0
		c-0.8,0.3-1.5,0.3-2.3,0.6c-0.1,0-0.3,0.1-0.4,0.2C17.1,31.8,17.5,31.8,17.8,31.6z"/>
	<path class="st0" d="M18.3,107.7c-0.3,0-0.3,0.2-0.2,0.3c0,0,0.1,0,0.1-0.1C18.3,107.9,18.3,107.8,18.3,107.7z"/>
	<path class="st0" d="M76.3,23.2c-0.1,0.3-0.3,0.6-0.4,0.9C76.3,23.9,76.7,23.8,76.3,23.2z"/>
	<path class="st0" d="M168,32.4c-1.2-0.3-1.2-0.6-1.5,0.8c-0.3,1,0,2.1-0.8,3c-0.3,0.3,0.1,0.8-0.4,1.1c-0.4,0.1-1-0.1-1.4,0
		c-0.6,0.1-1,0-1.4-0.1c-1.1-0.3-2.1-0.6-3.2-0.6c-0.7,0.1-1.2-0.3-1.9-0.4c-0.6-0.1-1.2,0.1-1.8-0.4c-0.4-0.6-1.4,0-1.9-0.3
		c-0.6-0.1-1.1-0.7-1.8-0.8c-0.4-0.3-1,0-1.5-0.1c-2.2-0.6-4.4-1.1-6.8-0.8c0,0.6,0.3,0.8,0.8,1c1.9,0.3,3.9,0.7,5.8,1
		c0.3,0.1,0.6,0.1,0.8,0.3c1.7,1,3.7,0.7,5.4,1.7c0.3,0.1,0.6,0.1,0.7,0c0.8-0.4,0.8,0.1,0.8,0.7c0.3,0.1,0.3,0.4,0.3,0.7
		c0.3,0.3,0.7,0.8,1,0c0.3-0.7,1-0.8,1.5-0.6c1.1,0.4,2.1,0.6,3.2,0.6c0.4,0,0.7,0.1,1,0.3c0.3,0.1,0.4,0.6,0.3,0.8
		c-0.7,1.8-0.8,3.9-1.5,5.7c-0.3,0.7-0.8,1.5-1,2.2c-0.6,2.2-1.7,4.3-2.2,6.5c-0.4,1.5-1.2,2.9-1.4,4.4c0,0.4,0.3,1-0.6,0.8
		c-0.4,0.7-1,1.2-0.8,2.1c0.1,0.4-0.3,0.4-0.4,0.6c-0.3,0.1-0.4,0-0.6-0.1c-0.1-0.1-0.4-0.4-0.4-0.6c-0.1-0.7-0.6-1.1-1.1-1.5
		c-0.6-0.3-0.8-0.8-0.3-1.5c0.6-0.8,0.3-1.2-0.8-1.2c-1,0-1.2-1-1.8-1.5c-0.3-0.3,0-0.7,0.3-0.8c1.2-0.7,1.8-2.1,2.8-2.9
		c0.3-0.1,0.3-0.6,0.1-0.7c-0.4-0.6,0.4-0.8,0.4-1.2c0.1-0.4,0.3-0.6,0.7-0.4c0.7,0.1,1.1-0.4,1-0.8c-0.3-0.8,0.3-1.1,0.8-1.2
		c0.6-0.1,0.8-0.4,0.8-1c0-0.7,0.3-1.2,1.1-1.4c0.1-0.1,0.3-0.4,0.4-0.7c0,0,0-0.1,0-0.3c-0.1-0.3-0.3-0.1-0.4,0
		c-0.1,0.1-0.4,0.4-0.7,0.3c-0.4-0.3-0.7-0.4-1.1-0.1c-0.4,0.3-0.7,0.7-0.7,1.1c0,1-0.4,1.5-1.5,1.4c-0.3-0.1-0.4,0.1-0.6,0.4
		c-0.1,0.3-0.4,0.6-0.6,1c-0.3,1.1-1,1.9-1.9,2.5c-0.7,0.3-0.7,1.1-1.4,1.5c-0.6,0.3-1,0.6-1.2-0.1c-0.1-0.1-0.3-0.1-0.4-0.3
		c-0.7-0.4-0.6-1-0.3-1.5c0.6-1,1.5-1.7,1.8-2.8c1.1-0.1,1.2-1.5,2.2-1.8c0.3,0,0.3-0.3,0.3-0.6c-0.3,0-0.3-0.1-0.3-0.4
		c0-0.1,0.1-0.1,0.1-0.1c0.1,0.1,0.1,0.4,0.1,0.6c1.1-0.8,1.7-1.9,2.3-3c0.3-0.3,0.3-0.7,0.7-0.7l0.3-0.3c-0.3-0.8,0.6-1.4,0.7-2.1
		c0,0,0-0.1,0-0.3c-0.3-0.1-0.3-0.4-0.3-0.7c-0.4,0.1-0.8,0.1-1,0.6c-0.1,0.3-0.1,0.8-0.6,0.1c-0.1,0.1-0.4,0.1-0.4,0.3
		c-0.1,0.6-0.4,1.1-1,1.4c-0.3,0.1-0.4,0.6-0.4,0.8c0.1,0.8-0.4,1.2-1,1.5c-0.6,0.3-0.8,1.1-1.7,1.1c-0.3,0-0.6,0.1-0.7,0.4
		c-0.7,1-1.4,2.1-2.1,3c-0.4,0.6-1.2,0.7-1.7,0.1c-0.6-0.8-1.1-1.7-1.8-2.3c-0.3-0.1-0.1-0.4,0-0.7c0.3-0.6,0.7-1.1,1.2-1.2
		c0.6-0.1,0.7-0.6,1-1c0.3-0.4,0.6-1,1.1-1.2c0.8-0.6,1.5-1.1,1.8-2.2c0.1-0.7,0.4-1.1,0.3-1.8c0-0.1,0-0.4-0.1-0.4
		c0,0-0.1,0.1-0.1,0.3c-0.3,0.6-1.1,0.7-1.1,1.4c-0.8-0.4-0.7,0.7-1.1,0.8c-0.1,0-0.3,0.4-0.3,0.6c0.1,0.6,0.7,1.5-0.7,0.6
		c-0.4-0.3-0.7,0.3-1,0.6c-0.1,0.3-0.1,0.6,0.1,0.7c0.4,0.3,0,0.7-0.1,0.8c-0.1,0.1-0.4-0.1-0.6-0.1c0,0.3,0,0.4,0,0.6
		c-0.1,0.1,0,0.3-0.3,0.3c-0.1,0-0.1-0.1-0.1-0.3c0-0.3,0-0.4,0.3-0.6c-0.1-0.3-0.4-0.3-0.7-0.1c-0.3,0.3-0.7,0.6-1.1,0.8
		c-1,0.6-1.5,0.4-1.9-0.7c-0.3-0.6-0.4-1.1-1-1.5c-0.6-0.4-1-1-0.6-1.7c-0.6-1.2,0-2.6-0.7-3.9c-0.4-0.7-0.1-0.8,0.4-1
		c0.4-0.1,0.8-0.6,1.4-0.1c0.7,0.4,1.1-0.1,1.5-0.6c-0.4-0.6-1-0.3-1.5-0.3c-1.4-0.1-2.3-0.8-2.5-1.9c-0.4-2.2-0.7-4.6-1-6.8
		c0-0.1,0-0.4,0.1-0.4c1-0.1,1.7-1.1,2.8-0.6c0.3,0.1,0.6,0.1,0.8,0.1c0.6,0,0.8-0.6,1-0.8c0.3-0.4-0.4-0.4-0.7-0.7
		c-0.1-0.1-0.4,0-0.7,0c-1-0.3-1.9,0-2.9-0.3c-0.8-0.3-1.9-0.8-2.8,0.3c-0.7-0.3-1.2-0.1-1.9,0c-0.7,0.1-1.2-0.1-1.8,0.4
		c0,0.1-0.1,0-0.3,0c-1.4-0.3-2.6,0.3-4,0.1c-0.1,0-0.1,0.1-0.3,0.1c-0.3,0.3-0.6,0.6-0.3,1c0.3,0.4,0.6,0.3,0.8,0
		c0.1-0.1,0.4-0.6,0.6-0.1c0,0.4,0.1,0.4,0.4,0.4c0.3,0,0.6-0.4,0.8,0c0.3,0.3,0.3,0,0.6-0.1c0.8-0.3,1.9-0.7,2.6-0.3
		c0.7,0.4,1.4,0.4,2.1,0.4c0.8,0.1,1,0.3,1.1,1.1c0.1,1.8,0.3,3.4,0.8,5.2c0.1,0.3,0.1,0.6,0.1,0.8c0,1.4,0.4,2.6,0.6,3.9
		c0,1.2,0.7,2.6-0.4,3.9c-0.1,0.1-0.1,0.4,0,0.6c1,1.5,1.2,3.2,1.5,4.8c0,0.6,0.4,1.1,0.3,1.8c0,0.3-0.1,0.4-0.3,0.4
		c-0.1,0-0.4,0-0.4-0.1c-0.3-0.8-1-1.4-1.2-2.1c-0.1-0.7-0.4-0.4-0.7-0.1c-0.1,0.1-0.6,0.1-0.6,0c0.6-0.7-0.4-0.8-0.4-1.2
		c0.1-1.1-0.6-1.8-1.2-2.6c-0.3-0.4-0.4-0.8-0.8-0.6c-0.4,0.3,0.3,0.6,0.3,0.8c0.1,1.1,0.3,1.5,0.8,2.1c0.4,0.3,0.7,0.6,0.7,1.1
		c0,0.6,0.3,1.1,0.8,1.5c0.3,0.3,0.6,0.6,0.6,0.8c0.3,1.1,1.7,1.8,1.7,3.2c1.1,1.2,1.4,2.8,2.2,4.1c0.4,0.7,0.8,1.4,0.4,2.2
		c-0.1,0.4,0,0.6,0.1,0.8c0.3,1,0.8,1.9,1,3c0.1,1,0.7,2.1-0.7,2.8c-0.4,0.1-0.3,0.7,0,1C143.2,65,143,65,143,67c0,0,0,0.1,0,0.3
		c0.1,0.4,0.6,0.7,0.3,1c-0.3,0.3-0.7-0.1-1-0.3c-0.1,0-0.3-0.1-0.4-0.1c-0.3,0-0.7-0.6-1-0.1c-0.3,0.4,0,0.8,0.1,1.2
		c0.3,0.4,0.4,0.8,0.8,1c1.2,0.6,1.7,1.7,2.2,2.8c0.6,1.1,1,2.3,0.7,3.7c-0.1,0.7-0.1,1.4,0.1,2.1c0.3,0.8,0.4,1.7,0.6,2.6
		c0.1,1,0.1,1.8,0.4,2.6c0.3,1,0.1,1.8,0.4,2.6c0.1,0.4-0.3,0.7,0.1,1.1c0.6,0.4,0.6,1.1,0.3,1.7c-0.3,0.4-0.1,0.8,0,1.2
		c0.4,1.4,0.3,2.9,0.7,4.4c0.1,0.4-0.1,1,0.1,1.4c0.4,0.7,0.4,1.7,0.1,2.5c-0.3,0.7-0.3,1.5,0,2.2c0.1,0.1,0.3,0.6,0.4,0.4
		c0.4-0.3,0.8,0.1,1.1,0c0.4-0.1,0.4-0.6,0.3-1c0-0.1-0.1-0.3-0.3-0.4c-0.4-0.7-0.1-0.6,0.4-0.6c0.6,0,0.6-0.7,0.4-1
		c-0.3-1.1-0.6-2.3-0.3-3.6c0-0.1-0.1-0.3-0.1-0.4c-0.3-0.7-0.3-1.5-0.3-2.3c0-0.8-0.8-1.5-0.3-2.5c-0.6-0.7,0.1-1.4-0.3-2.1
		c-0.3-0.6,0.3-1.5-0.3-1.9c-0.8-0.7,0.3-1.4-0.1-1.9v-0.1c-0.4-1.1-0.4-2.2-0.7-3.3c-0.3-1.1,0.1-2.3-0.7-3.3
		c-0.1-0.1,0-0.3,0.1-0.4c0.1-0.1,0.3-0.1,0.4-0.1c0.1,0,0.3,0.1,0.4,0.3c0.3,0.6,0.8,0.8,1.1,1.5c0.3,0.6,0.7,0.8,1.2,0.7
		c0.6,0,0.8-0.6,0.7-1c0-0.4-0.1-0.7,0.3-1.1c0.4-0.3,1-0.1,1.1-0.7c0,0,0.1,0,0.3,0c-0.3,0.6,0.6,1.1-0.1,1.5
		c-0.4,0.3-0.4,0.6-0.4,1c0,0.6,0,1-0.1,1.5c-0.3,1.7-0.8,3.3-1.1,5.1c-0.1,0.7,0,0.8,1,1c0.3-0.3,1-0.4,0.3-1.4
		c0-0.1,0.1-0.3,0.3-0.4c0.6-0.8,0.7-1.8,0.8-2.9c0.1-0.4,0-1.1,0.4-1.4c0.6-0.3,0.3-1,0.1-1.2c-0.3-0.7,0-1,0.3-1.5
		c0.6-0.8,1.1-1.7,1.2-2.5c0-1,0.7-1.7,0.4-2.6c-0.1-0.1-0.1-0.3,0-0.4c1.2-1.2,0.8-3.3,2.2-4.7c0.4-0.4,0.6-1.2,0.7-1.8
		c0.4-1.7,1.1-3.2,1.7-4.7c0.4-0.8,0.8-1.7,0.8-2.8c0-0.4,0-1.1,0.7-1.4c0.3-0.1,0.4-0.4,0.4-0.7c-0.3-0.8,0.3-1.2,0.7-1.8
		c0.6-0.7,0.8-1.4,0.4-2.2c-0.1-0.4,0.1-0.8,0.4-1.1c0.1,0,0.1,0.6,0.4,0.3c0.1-0.1,0.4-0.4,0.3-0.7c-0.1-0.7,0.1-1.2,0.6-1.8
		c0.1-0.1,0.3-0.4,0.3-0.7c-0.1-1.2,1.5-1.9,0.8-3.3c0.8-0.8,0.8-1.9,1.1-2.9c0.1-0.7,0.3-1.2,0.7-1.8c0.3-0.4,0.6-0.8,0.1-1.4
		c-0.3-0.4,0-2.5,0.3-2.6c0.7-0.3,0.4-0.4,0-0.7c-0.3-0.1-0.3-0.1,0.3-0.3c0.1,0,0.3,0.1,0.3,0C169.3,33.9,168.8,32.7,168,32.4z
		 M153,35.8c-0.1-0.1-0.1-0.1-0.1-0.3c0,0,0.1,0,0.3,0.1C153.1,35.8,153,35.8,153,35.8z M156.7,40.1c0,0,0.1,0.1,0.3,0.1
		c0,0.1-0.1,0.3-0.3,0.3l-0.1-0.1C156.6,40.3,156.6,40.1,156.7,40.1z M152,45.8c0,0.1,0.1,0.3,0,0.4c0,0-0.1-0.1-0.1-0.3L152,45.8z
		 M139.7,22.6c0.3,0,0.4,0.1,0.4,0.3L140,23c-0.3,0-0.4-0.1-0.6-0.3C139.3,22.6,139.6,22.6,139.7,22.6z M152,60.1
		c0.1,0.1,0.1,0.3,0,0.4l-0.1-0.1C151.9,60.3,152,60.3,152,60.1z M150.6,57.1c0.3-0.1,0.6-0.1,0.7,0.1c0.3,0.7,0.6,1.2,0.4,2.1
		c0-0.1,0,0.1-0.1,0.3c-0.1,0.1-0.4,0-0.6-0.1c-0.4-0.3-0.8-0.7-0.6-1.2c0-0.1,0.1-0.3,0-0.4C149.9,57.4,150.4,57.2,150.6,57.1z
		 M150.4,63.7c0,0,0.1,0,0.3,0c0.7,0.4,0.4,1.1,0.8,1.5c-0.1,0.4-0.4,0.8-0.7,0.8c-0.4,0-0.8-0.4-0.8-0.7
		C149.9,64.8,150.2,64.3,150.4,63.7z M148.3,52.7c0.3-0.1,0.6,0.1,0.7,0.4c0.3,0.4,0.6,0.8,0.8,1.1c0.1,0.1,0.3,0.3,0.1,0.6
		c-0.1,0-0.3,0.3-0.7,0.3c-0.4,0.1-0.7-0.1-0.8-0.4c-0.1-0.4,0-0.8-0.3-1.2C148,53.2,148,52.8,148.3,52.7z M148.4,62.1
		c-0.4-0.3-1,0.3-1.1-0.1c-0.1-0.3,0.6-0.3,0.6-0.8c0-0.3-0.4-0.7,0-1c0.3-0.3,0.4-1,1.1-0.7c0.4,0.1,1,0.4,0.8,1.1
		c0.1,0.4,0,0.8-0.1,1.2C149.2,62.5,149.2,62.6,148.4,62.1z M149.5,68.7c0,0.1-0.1,0.4-0.3,0.1c-0.1,0.3-0.4,0.1-0.7,0
		c-0.6-0.3-0.4-1-0.7-1.4c0,0,0-0.3,0.3-0.1C148.8,67.6,149.4,68,149.5,68.7z M147.9,54.1c0.1,0,0.3,0.1,0.3,0.3
		c0,0.1,0,0.3-0.3,0.1c-0.1,0-0.4-0.1-0.7-0.3C147.5,54.1,147.6,54.1,147.9,54.1z M145.2,43.3c0.3,0.1,0.3,0.3,0.3,0.6
		c0,0,0,0.3-0.3,0.1c-0.1-0.1-0.3-0.3-0.3-0.6C145,43.3,145.1,43.2,145.2,43.3z M142.2,44.8c-0.4-0.4-0.4-1-0.4-1.4
		c0-0.1,0-0.6,0.4-0.6c0.1,0.1,0.6,0.3,0.6,0.4c-0.1,0.6,0.1,0.7,0.4,1.1c0.4,0.4-1,0.1-0.6,0.8C142.2,45.2,142.3,45,142.2,44.8z
		 M144.8,55.4c0.4-0.4,0-1,0-1.4c-0.7-0.4-0.8-1.1-1.2-1.7c-0.4-0.6-0.3-1.2-1-1.7c-0.1-0.1-0.1-0.3,0-0.6c0.1-0.4,0.1-0.8,0-1.2
		c-0.1-0.1-0.3-0.4,0-0.6c0-0.1,0.3,0.1,0.4,0.1c0.4,0.1,0.7,0.4,0.7,0.8s0.1,0.7,0.3,1.1c0.1,0.3,0.3,0.3,0.4,0
		c0.3-0.7,0.7-1.2,0-1.9c-0.1-0.1-0.1-0.7-0.6-0.7c-0.4-0.1-0.4-0.3-0.1-0.6c0-0.1,0.1-0.1,0.1-0.3c0.6-0.8,0.6-0.8,1.2-0.1
		c0.6,0.4,1.1,0.8,1.4,1.5c0.3,0.6,0.6,1.1,0.4,1.8c0,0.7-0.1,1-0.7,0.4c-0.3-0.3-0.6-0.4-0.8-0.1c-0.3,0.3-0.7,0.7-0.4,1.1
		c0.3,0.6,0.1,1-0.3,1.4c-0.3,0.4,0.3,0.7,0.1,1.1c0.3-0.1,0.6-0.3,0.6-0.3c1.1,0.3,2.2,2.3,2.1,3.3c0,0.4-0.6,0.7-0.8,0.4
		C145.9,57,145.4,56.1,144.8,55.4z M146.1,64.8c-0.4-0.7-0.3-1.4-0.6-2.1c0-0.3,0.1-0.4,0.1-0.8c0.3,0.1,0.4,0.3,0.6,0.4
		c0.3,0.3,0.4,0.7,0.7,1.1c0.4,0.6,0.1,1-0.1,1.4C146.5,65.2,146.2,65.1,146.1,64.8z M150.4,76.7c-0.4,0.3-0.6-0.1-0.7-0.3
		c-0.8-1-1.5-1.9-2.2-2.9c0.3-0.8-0.8-0.7-0.8-1.4c0-0.6,0-1.1-0.3-1.7c0-0.1,0.1-0.3,0.1-0.4c0.1,0,0.3,0,0.4,0.1
		c0.4,0.4,0.8,0.8,1.1,1.4c0.3,0.4,0.7,0.8,1.1,1.1c1.2,0.7,1.4,2.1,1.7,2.9C150.9,76.1,150.8,76.4,150.4,76.7z M151.7,72.7
		c-0.1,0-0.3,0-0.4,0c-0.1-0.1-0.1-0.3-0.3-0.4c-0.1-0.4-0.7-0.7-0.4-1.2c0-0.1,0.1-0.1,0.3-0.1c0.4,0.1,1.1,1.1,1.1,1.5
		C152,72.5,151.9,72.7,151.7,72.7z M153.4,75c0,0-0.1,0-0.1-0.1c0-0.1,0.1-0.3,0.3-0.3c0.1,0,0.3,0.1,0.3,0.3
		C153.7,75,153.7,75.2,153.4,75z M154.1,70.9c0,0-0.3,0-0.3-0.1c-0.8-0.8-1.7-1.7-1.9-2.9c-0.1-0.6,0.6-0.7,0.7-1.1
		c0.1,0,0.3,0,0.3,0.1V67c0.3,1.2,1,2.2,1.5,3.2C154.8,70.7,154.4,70.7,154.1,70.9z M155.9,66.2c-0.3,0.6-0.6,1-0.6,1.5
		c0,0.1-0.1,0.3-0.3,0.3c-0.1,0-0.3,0-0.3-0.1c-0.1-0.1-0.1-0.4-0.3-0.7c-0.3-0.4-0.4,0.1-0.6,0.1c-0.1,0,0-0.3-0.1-0.6
		c0.3-0.4,0-1-0.1-1.7c0-0.6-0.3-1,0.3-1.4c0.3-0.3,0-0.4-0.1-0.4c-0.3,0-0.4-0.8-1-0.1c0,0.1-0.8-1.1-0.7-1.4
		c0.1-0.6,0.8-0.8,1.4-0.6c0.3,0.1,0.4,0.4,0.7,0.6c0.3,0.1,0.6,0.1,0.4,0.4c-0.1,0.3-0.4,0-0.6,0c-0.4,0-0.1,0.3-0.1,0.4
		c0.1,0.4,0.3,0.3,0.6,0.3c0.4,0.1,1.1,0.1,1.2,0.6C156.4,65.4,156.4,65.4,155.9,66.2z M157.5,62.9l0.1-0.1c0.1,0.1,0.1,0.1,0.1,0.3
		C157.5,63,157.5,62.9,157.5,62.9z"/>
	<path class="st0" d="M30.2,139.3c-0.3,0.1-0.7,0-0.8,0.4c-0.1,0.1-0.1,0.1-0.3,0.1c-0.1-0.1-0.1-0.1-0.1-0.3c0-0.4,0.6-0.8,0.1-1.4
		c-0.4-0.6-0.4-1.1-0.3-1.7c0-0.3-0.1-0.6-0.6-0.7c-0.4-0.1-0.6-0.4-0.1-0.7c0.4-0.3,0.3-0.6,0.3-1s-0.1-0.6-0.1-1
		c0.1-2.1-0.3-2.9-1.8-4.4c0,0.3,0,0.4,0,0.6c0,0.1,0.1,0.3-0.1,0.3c-0.1,0-0.1-0.1-0.1-0.3c0-0.3,0-0.4,0.3-0.6
		c0.1-0.1-0.1-0.7,0.4-0.4c0.1,0.1,0.4,0.4,0.6,0.6c0.1,0.1,0.3,0.1,0.3,0v-0.1c-0.3-0.6-0.3-1-0.8-1.2c-0.3-0.1-0.7-0.1-1,0
		c-0.1,0,0.3,0.6-0.3,0.4c-0.1,0-0.3-0.4-0.1-0.6c0.4-1,0.1-1.8-0.1-2.8c0-0.4-0.1-0.8,0.4-1c0.6-0.1,0.4,0.6,0.4,0.8
		c0,0.7-0.1,1.2,0.1,1.9c0.1,0.3,0.4,0.6,0.7,0.4c0.3,0,0.6-0.1,0.4-0.6c-0.3-0.6,0.1-1,0.1-1.5c0-0.6-0.4-1.2-0.3-1.8
		c0-0.6,0-0.6-0.7-0.3c-0.3,0.3-0.7,0.7-0.4,0.1c-0.3-0.3-0.7-0.7-0.4-1.2c0.3-0.6,0.1-0.8-0.1-1.1c-0.5-0.5-0.4-1.1,0-1.6
		c0.1,0.4,0.3,0.7,0.3,1.1c0,0.3,0.3,0.7,0.7,0.6c0.4-0.1,0.4-0.6,0.3-0.8c-0.3-0.6-0.7-1.2-0.7-1.9l-0.1-0.1c-0.1,0-0.3,0-0.3,0.1
		c-0.1,0.1-0.1,0.2-0.2,0.3c0-0.4,0.5-0.8,0-1.3c-0.6-0.6,0.1-1.1,0.1-1.7c0-0.6-0.1-1-0.4-1.4c-0.3-0.4-0.6-0.8-0.6-1.4
		c-0.1-1.2-0.1-1.2-1.2-0.7c-0.8,0.4-0.8,0.7-0.3,1.2c0.1,0.1,0.1,0.6,0.3,0.7c0.7,0.4,0.6,0.7,0,1.1c-0.6,0.3-0.4,0.4,0.1,0.8
		c0.1,0.1,0.1,0.3,0.3,0.4c-0.8,0.6-0.1,1.2-0.4,1.8c-0.3,0.6-0.1,0.8,0.6,0.8c0.1,0,0.3,0.4,0.1,0.7c-1,1.5-0.3,3-0.1,4.6
		c0,1.5,0.4,3,0.4,4.4c-0.1,1.9,0.8,3.6,1,5.5c0,0.7,0.3,1.4,0.3,2.1c-0.1,0.8,0,1.4,0.4,2.1c0.3,0.6,0.3,1.1,0.3,1.8
		c0,1-0.1,1.9,0.3,2.9c0.4,0.6,0.6,1.2,0.8,1.9c0.1,0.7,1.2,0.8,1.8,0.4c0-0.1,0.1-0.3,0.1-0.3c-0.4-0.6,0.3-1.1,0.1-1.7
		c-0.1-0.6,0-0.8,0.4-1.1c0.7-0.6,1.1-1.1,0.8-2.2C30.7,139.3,30.7,139,30.2,139.3z M27,135.3c0.1-0.3,0.3-0.4,0.4-0.6
		c0,0.1,0.1,0.3,0.1,0.4c0,0.3,0,0.6-0.3,0.7c-0.1,0-0.3,0-0.3,0C26.9,135.7,26.9,135.5,27,135.3z M27.3,137.4l-0.1-0.1
		c0-0.1,0.1-0.3,0.3-0.3c0.1,0,0.1,0.1,0.3,0.1C27.7,137.2,27.6,137.4,27.3,137.4z M28.8,141.5c0,0.1,0,0.3-0.1,0.3
		c-0.3,0.1-0.4,0-0.3-0.3l0.1-0.1C28.7,141.4,28.7,141.4,28.8,141.5z M28,139.5c0.1,0.3,0.3,0.6,0.4,0.8c0,0.1-0.1,0.1-0.1,0.3
		c-0.3-0.3-0.4-0.4-0.4-0.8C28,139.6,28,139.5,28,139.5z M28.9,143.5c-0.1,0.1-0.3,0.1-0.4,0.1c-0.6-0.1-0.3-0.8-0.6-1.1
		c0.1,0,0.1-0.1,0.3-0.1C28.4,142.3,29.1,143.3,28.9,143.5z"/>
	<path class="st0" d="M147.2,134.6C147.2,134.6,147.1,134.6,147.2,134.6c-0.1-0.1-0.1,0-0.1,0C147.1,134.6,147.1,134.6,147.2,134.6z
		"/>
	<path class="st0" d="M153.7,128.4c0.1-0.1,0.3-0.3,0.3-0.4c0.1-0.7,0.6-1,1.1-1.1c0.3-0.1,0.4-0.4,0.1-0.7c-0.6-0.4-0.1-0.8,0.1-1
		c1-0.7,2.1-1.2,3-1.9c-0.3-0.1-0.4-0.3-0.1-0.6c0,0,0.1,0,0.3,0c0,0.1-0.1,0.4-0.1,0.6c0.8-0.1,1.2-1,1.8-1.5c0.4-0.3,0.4-1,0-1.4
		c-0.4-0.4-0.8-0.4-1.4,0c-0.6,0.4-1.1,1-1.8,1.1c-0.3,0.1-0.6,0.3-0.6,0.6c-0.1,0.6-0.7,0.8-1.1,0.8c-0.8,0.1-1.1,0.8-1.4,1.4
		c-0.1,0.1-0.1,0.6-0.4,0.7c-0.6,0.4-1.2,0.6-1.5,1c-0.4,0.6-1.2,0.4-1.4,1.1c0,0.3-0.3,0-0.4-0.1c-0.1-0.4-0.4-0.7-0.8-0.7
		c-0.8-0.1-0.8-0.6-0.3-1.1c0.1-0.1,0.1-0.3,0-0.4c-0.1-0.1-0.3,0-0.4,0.1c-0.4,0.6-1.4,0.7-1.1,1.7c0,0.1-0.1,0.3-0.3,0.3
		c-0.6,0.1-1,0.7-1.2,1.2c-0.3,0.6-1.1,0.4-1.4,1.1c-0.3,0.6-1,1-1,1.7c0,0.3-0.4,0.6-0.1,0.8c0.4,0.4,0.7,0.8,1.1,1.2
		c0,0,0.3,0,0.4-0.1c0.1-0.3,0.4-0.7,0.6-1c0-0.3,0-0.8,0.3-0.7c0.8,0.3,0.8-1.1,1.7-1c0.3,0,0.7-0.4,0.7-0.8c0-1,0.7-0.9,1.3-0.8
		c0,0,0,0,0,0c0.3,0.7-0.8,1-0.4,1.7c0.1,0.3-0.3,0.1-0.4,0.1c-0.1-0.1-0.3-0.1-0.3,0.1c-0.1,0.8-1.1,1.2-1.1,2.2
		c-0.1,1.1-1.4,1.1-1.9,1.8c-0.1,0.3-0.3,0.6-0.4,0.8c-0.4,0.7-0.7,1.5-1.2,2.1c-0.4,0.4-0.4,1,0.1,1.2c0.6,0.3,0.8,0.6,1.2,1
		c0.3,0.3,0.6,0.3,0.7-0.1c0.4-1.2,0.7-2.5,1.5-3.4c0.4-0.4,0-0.8-0.1-1.2c0,0-0.1,0-0.1,0c0,0,0,0,0,0c-0.1,0-0.2,0-0.3-0.1
		c-0.1,0-0.1-0.3-0.1-0.3c0-0.1,0.1-0.1,0.3,0c0.1,0.1,0.1,0.2,0.2,0.3c0.4-0.4,0.8-0.7,1.4-0.3c0.3,0.1,0.6,0,0.4-0.4
		c-0.1-0.6,0.3-1.1-0.1-1.7c0,0,0.1-0.1,0.1-0.3c0.1,0,0.3,0,0.3,0.1c0.3,0.1,0.4,0.6,0.6,0.6c0.6,0,0.1-0.4,0.1-0.7
		c0,0,0.1,0,0.3-0.1c0.4-0.4,0.8-0.7,1.2-1.1c0.3-0.4,1.1-0.6,0.8-1.4C152.7,129,153.2,128.7,153.7,128.4z M159.6,121.7
		c0.1,0,0.1,0.1,0.1,0.3c0,0.1,0,0.4-0.3,0.4c-0.1,0-0.3-0.1-0.3-0.3C159.3,121.9,159.3,121.8,159.6,121.7z M157.9,121.8
		c0,0.1,0.1,0.3,0,0.4c0,0,0-0.1-0.1-0.3L157.9,121.8z M155.7,123.9c0,0.1-0.1,0.1-0.1,0.1c-0.1,0-0.1-0.1-0.3-0.1
		C155.5,123.9,155.6,123.9,155.7,123.9z M147.5,128.7c-0.3,0-0.6-0.1-0.6-0.6c0-0.1,0-0.3,0.3-0.3c0.3,0.1,0.8,0.1,0.8,0.7
		C148,128.7,147.6,128.7,147.5,128.7z M149.8,128.3c-0.1,0-0.1,0-0.1,0.1c0-0.1,0-0.1,0-0.2c0-0.1,0.1-0.1,0.1-0.3
		C149.9,128,149.9,128.1,149.8,128.3z M151.3,128.8c0,0,0-0.1,0-0.3c0,0,0.1-0.1,0.3-0.1c0.1,0,0.1,0,0.1,0.1
		C151.6,128.7,151.5,128.8,151.3,128.8z"/>
	<path class="st0" d="M163.6,97.7c-0.4-0.4-0.7-0.3-0.8,0c-0.6,0.8-1.4,1.5-1.2,2.8c0,0.1,0,0.4-0.1,0.3c-0.4-0.6-0.6,0-0.8,0.1
		c-0.6,0.1-0.6,0.4-0.3,1c0.1,0.1-0.3,0.3-0.4,0.4c-0.4,0.3-0.8,0.6-1.2,0.8c-0.3,0.3-0.8,0.6-0.4,1.2c0.1,0.3-0.1,0.4-0.4,0.6
		c-1,0.4-2.2,0.7-2.6,1.8c-0.3,1-1.4,1.5-1.2,2.6c0,0.3-0.3,0.6-0.6,0.6c-0.8,0-1.2,0.8-1.9,1c-0.3,0-0.6,0.3-0.7,0.6
		c-0.4,0.8-1.2,1.2-1.8,1.9c-0.7,0.8-2.2,1.2-1.9,2.9c0.1,0.1-0.1,0.3-0.3,0.1c-0.1-0.1-0.4,0-0.6,0.1c-0.6,0.8-1.5,1.2-2.2,1.9
		c-0.4,0.4-0.7,0.7-1.1,1.1s-1,0.8-1.1,1.2c-0.3,0.8-0.7-0.1-1,0.3c-0.6,1-1.9,1.4-1.9,2.8c0,0.3-0.3,0.1-0.3,0.1
		c-1.2,0.6-1.2,0.6-1.7,1.7c0,0.3,0,0.6-0.3,0.6c-0.7,0.1-1,0.7-1.4,1.2c-0.3,0.4-1,0.8-1.7,1c-0.3,0-0.4,0.4,0,0.4
		c0.6,0,0.4,0.3,0.4,0.6c-0.1,0.3-0.3,0.4-0.6,0.3c-0.1-0.1-0.4-0.3-0.6-0.1c-0.3,0.3,0,0.6,0.1,0.7c0.5,0.4,0.2,0.7,0,1
		c-0.3-0.2-0.6-0.4-0.9-0.5c-0.3-0.3-0.6-0.3-0.7,0c-0.3,0.4-1,0.7-0.3,1.4c0.1-0.3,0.4-0.3,0.7,0c0.3,0,0.7,0.4,1,0.3
		c0.4-0.1-0.1-0.8,0.2-1.1c0.4,0.1,0.6,0.2,0.6-0.4c0-0.3,0-0.6,0.3-0.6c0.3,0,0.4,0.1,0.4,0.4c0.1,0.4,0.1,0.3,0.4,0
		c0.6-0.7,0.8-1.5,1.5-2.1c0.8-0.6,1.4-1.2,1.7-2.1c0.1-0.4,0.3-0.7,0.8-0.7c0,0,0,0,0,0c0,0.2,0,0.3,0.1,0.4l0.1-0.1
		c0-0.2,0-0.4-0.2-0.4c0.4-0.5,0.9-0.9,1.4-1.3c0.7-0.4,1.8-0.4,1.8-1.7c0-0.1,0.3-0.3,0.4-0.3c0.7,0,0.8-0.4,1.1-0.8
		c0.1-0.3,0.3-0.4,0.4-0.6c1-0.4,1.4-1.4,2.3-1.9c0.3-0.1,0.7-0.6,0.8-1c0.6-1.1,1.2-1.9,2.3-2.2c0.4-0.1,0.4-0.4,0.4-0.7
		c0-0.3,0.1-0.6,0.4-0.7c0.8-0.4,1.2-1.2,1.7-1.9c0.3-0.4,0.7-0.7,1-1.1c0.6-0.8,1.8-0.3,2.1-1.1c0.4-0.8,0.8-1.5,1.5-2.1
		c0.3-0.3,0.6-0.6,0.7-0.8c0.3-1,1.1-1.5,1.8-2.1c0,0,0,0,0,0c0,0,0,0,0,0c0,0.3-0.1,0.6,0.3,0.6c0.3,0,0.3-0.3,0.3-0.6
		c0-0.1-0.1-0.1-0.3-0.3c0,0.1-0.1,0.2-0.2,0.2c0.1-0.1,0-0.3-0.4-0.6c0.4-1.1,2.1-3,2.9-3.4c0.1,0,0.1,0,0.3,0c1,0,1.1,0,0.7-0.8
		c-0.1-0.4,0.1-0.4,0.3-0.6c0.1-0.1,0.6,0.1,0.6-0.3c0-0.1-0.3-0.3-0.3-0.3c0.1-0.3,0.3-0.4,0.6-0.3c0.1,0.1,0.4,0.3,0.6,0
		c0.1-0.1,0-0.4-0.1-0.6C164,98.2,163.9,97.9,163.6,97.7z"/>
	<path class="st0" d="M111.4,109.9c0.3-0.4,0-1.4-0.6-1.7c-0.1,0-0.4,0-0.4,0.1c0,0.8-1,0.7-1.2,1.4c-0.1,0.4-0.4,0.3-0.7,0
		c-0.1-0.3-0.4-0.4-0.4-0.8c0-0.6-0.4-0.6-0.7-0.4c-1.1,0.8-2.5,1.7-3.4,2.8c-0.7,0.7-1.2,1.4-1.9,2.2c-1.1,1.4-1.8,3-3.2,4.3
		c-0.3,0.3-0.3,0.7-0.3,1c0,1.2,0.3,1.4,1.5,1.1c0.4-0.1,0.6-0.4,0.8-0.7c0.8-1,1.5-2.2,2.2-3.3c0.4-0.6,1.1-1,1.2-1.7
		c0.1-0.8,1.1-0.6,1.2-1.4c0-0.4,0.7-0.4,1-0.1c0.3,0.3,0,0.6-0.1,0.7c-0.6,0.7-0.8,1.7-1.7,2.2c-1,0.4-0.7,1.7-1.5,2.2
		c-0.3,0.3-0.1,0.8-0.7,1.1c-0.4,0.1-0.6,1.2-0.1,1.8c0.4,0.6,0.7-0.1,1.1-0.1c0.6,0,0.7-0.3,1-0.8c0.3-0.7,0.6-1.4,1.2-1.9
		c0.4-0.4,0.8-1,1-1.5c0.4-1.7,1.9-2.5,2.8-3.7C110.1,111.6,110.8,110.8,111.4,109.9z"/>
	<path class="st0" d="M63.3,139c-0.3-0.3-0.6,0-0.7,0.1c-0.6,0.6-1,1-1.7,1.2c-0.6,0.3-0.6,0.4,0.1,0.8c0.3,0.1,0.4,0.3,0.3,0.6
		c-0.1,0.4-0.3,1-0.8,0.8c0,0,0,0,0,0.3c0,0.4-0.3,0.4-0.7,0.4c-0.3-0.1-0.1-0.3-0.1-0.4c0.1-0.6,0.4-0.4,0.8-0.3
		c0.1-1-0.4-1.5-1.2-2.5c-0.6-0.4-0.3-0.7-0.3-1.1c0.1-0.8,0.8-1.1,1.2-1.7c0.1-0.1,0.4-0.6,0.3-0.7c0,0,0,0,0,0
		c0.1-0.1,0.6,0.1,0.6-0.3c0-0.1-0.3-0.3-0.3-0.3c-0.3,0.1-0.4,0.3-0.7,0.4c0,0,0.1,0,0.1,0c-0.1,0.1-0.2,0.2-0.4,0.2
		c-0.3,0-0.6,0-1,0c0.1-0.4,0-0.7-0.4-1.1c0,0-0.1,0-0.1,0.3c0,0.3-0.1,0.6,0.1,0.8c-0.3,0-0.6,0-0.8,0c-0.1,0-0.3-0.3-0.6-0.1
		c-0.3,0.3-0.1,0.4,0,0.7c0.6,0.8,0.1,1.4-0.3,2.1c-0.1,0.3-0.1,0.3,0.3,0.4c0.1,0,0.3,0.1,0.1,0.3c-0.7,0.4,0,1-0.3,1.4
		c-0.1,0.4-0.3,0.8-0.3,1.2c0.1,0.8-0.8,0.3-0.8,1c0,0.8-0.4,1.1-1.1,1.2c-0.4,0.1-1,0.3-1.1,0.8c-0.3,1-0.4,2.1,0,3
		c0.1,0.4,0.6,0.4,0.8,0c0.7-0.8,1.4-1.7,2.3-2.2c0.4-0.4,1.4-0.8,1.1-1.8c-0.1-0.3,0.3-0.3,0.4-0.1c0.3,0.3,0.8,0.1,0.6,0.7
		c-0.1,0.4-0.3,0.7-0.4,1.1c-0.3,0.7-0.4,1.5-0.1,2.3c0,0.3,0.3,0.6,0.4,0.7c0.4,0.1,0.6-0.1,0.8-0.4c0.3-0.3,0.1-0.6,0-0.8
		c-0.1-0.6,0.3-0.6,0.6-0.6c0-0.3-0.6-0.6-0.1-0.8c1-0.7,1.2-1.9,2.1-2.8c0.6-0.6,0.8-1.5,1.5-2.2C64.1,141.4,63.9,139.7,63.3,139z"
		/>
	<path class="st0" d="M98.8,112.1c-0.3-0.6-0.7-1-1-1.4c-0.1-0.3-0.4-0.3-0.6,0c-0.4,0.7-0.6,1.7-1.8,1.5c-0.1,0-0.1,0.3-0.1,0.4
		c0,0.3,0.1,0.7,0.1,1c0,0.1-0.4,0.3-0.6,0.3c-0.4,0-0.1-0.3-0.1-0.4c0.1-0.3,0.3-0.4-0.3-0.6c-0.7-0.6-1.2-1.1-1.1-2.1
		c0-0.1-0.1-0.3-0.3-0.3c-0.3,0-0.3,0.1-0.4,0.3c-0.3,0.6-0.7,1.1-1,1.8c-0.1,0.3-0.1,0.4-0.4,0.3c-0.3-0.1-0.6-0.1-0.6,0.1
		c-0.3,1.7-1.8,2.3-2.6,3.4c-0.1,0.3-0.8,0.6-0.7,1.1c0.3,0.7,0.3,1.5,1,1.9c0.4,0.3,0.7,0.1,0.8-0.1c0.7-1.2,1.7-2.3,2.8-3.2
		c0.4-0.3,0.6-0.6,1-0.3c0.3,0.3-0.1,0.6-0.3,0.8c0,0.1-0.3,0.3-0.4,0.4c-0.4,0.6-0.7,1.1-0.8,1.8c0,0.7,0.4,1,1,1.2
		c0.6,0.3,0.7-0.3,0.8-0.6c0.6-1.1,1.7-2.1,2.2-3.3c0.1-0.3,0.1-0.4,0.4-0.6c1.1-0.7,1.5-1.9,2.5-2.8
		C98.6,113,98.9,112.6,98.8,112.1z M93.5,115.3c-0.1,0-0.1-0.1-0.1-0.1c0.1-0.1,0.1-0.1,0.3-0.1C93.5,115.2,93.5,115.3,93.5,115.3z"
		/>
	<path class="st0" d="M85,118.9c0.7-0.7,1.4-1.4,1.8-2.3c0.1-0.4,0.3-1,0.6-1c1-0.1,0.7-0.7,0.7-1.2c0-0.1,0-0.6,0.1-0.4
		c0.8,0.7,0.8-0.4,1.2-0.6c0.6-0.3,0.7-1.1,1.4-1.5c0.4-0.3,0.3-1.2-0.3-1.7c-0.6-0.6-0.6,0.3-0.8,0.4c-0.6,0.4-1.1,0.7-1.5,1.2
		c-0.1,0.3-0.4,0.1-0.4-0.1c-0.1-0.1,0-0.3,0-0.4c0.4-0.8-0.1-1.4-0.7-1.9c-0.3-0.4-0.7-0.1-0.8,0.1c-0.3,1.2-1.4,1.7-2.1,2.5
		c-0.8,1-1,1-1.1,2.1c-0.1,0.3-0.3,0.4-0.7,0.6c-0.8,0.3-1.4,1-1.4,1.9c-0.4,0.8,0.3,1.1,0.6,1.4c0.4,0.3,0.6,0.1,0.8-0.1
		c0.7-0.7,0.7-0.7,1.1,0.1c0.1,0.3,0.1,0.6,0.4,0.8C84.1,119,84.5,119.3,85,118.9z M84.3,115.7c0.1-0.1,0.1-0.4,0.3-0.6
		c0.6-1.2,1.7-1.9,2.6-2.8c0.1-0.1,0.3-0.1,0.3,0c0,0,0,0.1,0,0.3l-0.1,0.1c-1,0.8-1.8,1.9-2.6,2.9c-0.1,0.1-0.3,0.1-0.4,0.3
		C84.3,115.9,84.1,115.9,84.3,115.7z"/>
	<path class="st0" d="M54.6,90.3c0.8-1.5,1.1-3.3,1.9-5c0.4-0.8,1-1.5,1.4-2.3c0.3-0.4,0.1-0.8-0.3-0.8c-0.3-0.1-0.7-0.3-1,0.3
		c0.1,0,0.4-0.1,0.6,0.3c0,0-0.1,0.3-0.3,0.3c-0.3-0.1-0.3-0.4-0.3-0.6c-0.6,0.3-0.6,1-1,1.7c-0.4,0.7-1.4,1.2-1,2.3
		c-0.7,0.6-1,1.4-1.1,2.2c0,0.1-0.3,0.3-0.4,0.1c-0.1,0-0.3,0.1-0.3,0.3c0.3,0.8-0.3,1.4-0.7,2.1c-0.3,0.3-0.4,0.6-0.1,0.8
		c0.6,0.7,0.4,1.2-0.3,1.5c-0.7,0.3-0.8,0.7-0.4,1.4c0.3,0.4-0.1,1.9-0.4,1.9c-0.8,0-0.7,0.6-0.8,1.1c-0.1,0.3-0.7,0.6,0,1
		c0.1,0.1,0.1,0.3,0,0.3c-1,0-0.6,0.6-0.4,0.8c0.1,0.4,0.1,0.8-0.3,1.4c-0.1,0.1,0,0.3-0.1,0.4c-0.3,0.6-0.1,1.2-0.4,1.8
		c0.8,0.3,0.4,0.7,0.3,1.1c0,0.1,0.1,0.3,0.3,0.4c0.8,0.4,1.2,0.4,1.8-0.6c0.3-0.6,0.4-1,0.7-1.4c0.1-0.3,0.1-0.4-0.1-0.6
		c-0.3-0.3-0.4,0-0.6,0.1c-0.4,0.6-0.4,0.4-0.6-0.1c0-0.3-0.1-0.6,0.1-0.8c0.4-0.4,0.7-1,0.6-1.7c0-0.6-0.4-1,0.1-1.4
		c0.6-0.4,0-1,0.1-1.5c0.3-1.2,1.4-2.2,1.1-3.6l0.1-0.1c0.6,0.1,0.6-0.4,0.7-0.8C53.9,91.9,54.2,91,54.6,90.3z"/>
	<path class="st0" d="M116.6,110.3c0-0.1-0.3,0-0.3,0c-0.3,0.3-0.6,0.4-1,0.6c-0.1,0.1-0.3,0.3-0.1,0.6c0.4,0.7-0.1,0.7-0.6,0.7
		c-0.6,0-1.1-0.1-1.2,0.7c-0.1,0.1-0.3,0.3-0.4,0.3c-1.1,0.4-1.9,1-2.2,2.2c-0.1,0.6-0.4,0.8-1,1c-0.6,0.1-1,0.6-1,1.2
		c0,0.4,0.1,0.7,0.1,0.8c0.6,1,0.6,1,1.4,0.3c0.6-0.6,1.4-0.8,1.7-1.5c0.3-0.7,1-1.1,1.2-1.7c0.4-0.7,0.8-1.5,1.5-1.8
		c0.8-0.3,1.1-1.4,2.1-1.4c0.3,0,0.6-0.3,0.4-0.6C117,111.3,117.1,110.6,116.6,110.3z"/>
	<path class="st0" d="M79.9,109.5c-0.3-0.3-0.7-0.3-1,0.3c-0.7,1.1-1.2,2.3-2.2,3.2c-0.8,0.7-0.8,1.9-1.7,2.6v0.3
		c0.1,0.4,0,1.1,0.6,1.5c0.3,0.3,0.7,0.6,1.1,0.6c0.3,0,0.6-0.3,0.6-0.7c0.1-1.7,1-2.9,2.1-4c0.3-0.4,0.7-0.7,1-1.2
		C80.8,110.9,80.8,110.3,79.9,109.5z"/>
	<path class="st0" d="M79.2,143.7c-0.1,0-0.4,0.1-0.4,0.4c0,0.3,0.3,0.3,0.4,0.3c0.1,0.1,0.4,0.1,0.4,0.3c0,0.3-0.1,0.4-0.4,0.4
		c-0.7-0.1-1,0.7-1.4,0.8c-1,0.3-0.6,0.8-0.7,1.4c-0.1,0.4-0.3,0.7-0.7,0.8c-0.8,0.3-1.4,0.8-1.9,1.2c-1.1,0.8-0.7,1.9-0.4,3
		c0,0.1,0.1,0.4,0.3,0.4c0.3,0.1,0.4-0.1,0.6-0.3c0.4-0.6,0.6-1.4,1.1-1.9c0.7-0.7,0.8-0.8,1.4-2.3c0-0.1,0.1-0.3,0.1-0.3
		c0.6,0.3,1.2-1,1.8,0c0,0.1,0.3,0.1,0.6,0.1c0.4,0,0.7-0.3,0.6-0.7c0-0.1-0.1-0.4-0.3-0.6c-0.6-1.1-0.6-1.1,0.4-1.9
		c0.7-0.7,0.7-1-0.1-1.8C80.1,143.7,79.9,144.3,79.2,143.7z M78.6,147c0-0.1-0.1-0.1-0.1-0.3l0.1-0.1
		C78.6,146.8,78.7,146.9,78.6,147z"/>
	<path class="st0" d="M70.2,143.7c0.1-0.1,0.3-0.4,0.3-0.4c-0.1-0.3-0.4,0-0.6,0c-0.8-0.1-0.8-0.1-1.1,0.6c-0.3,0.4-0.4,0.8-1,0.4
		c-0.1,0-0.4,0-0.4,0.1c0.1,0.8-0.6,1.1-1.1,1.4c-0.8,0.3-0.6,1.1-1.1,1.5c-1.4,0.8-1.5,2.5-2.5,3.6c-0.1,0.3-0.1,0.6-0.1,0.6
		c0,0.7,0,1.1,0.3,1.4c0.1,0.3,0.3,0.6,0.4,0.6c0.3,0,0.3-0.3,0.4-0.4c0.7-0.7,0.7-1.8,1.4-2.5c0.6-0.4-0.3-1,0-1.5
		c0.7,0.3,1.1-0.1,1.4-0.6c0.4-0.8,1.2-1.5,1.7-2.3C68.5,145,69.5,144.6,70.2,143.7z"/>
	<path class="st0" d="M119.6,23.8c-0.1-0.3-0.4-0.1-0.7-0.1c-1-0.1-1.9,0.3-2.9,0.3c-0.8,0.1-1.7,0.1-2.5,0.3c-0.4,0-0.8,0-0.3,0.7
		c0.4,0.6,0,0.7-0.4,0.7c0,0,0,0.1,0,0.3c0.3,0,0.3,0.1,0.3,0.4c0,0.1-0.1,0.1-0.1,0.1c-0.1-0.1-0.1-0.4-0.1-0.6c-0.3,0-0.4,0-0.7,0
		c-0.1,0.4,0,1-0.3,1.4c-0.1,0.4,0,0.4,0.4,0.3c0.4-0.1,0.7-0.1,1-0.6c0.1-0.3,0.7-0.7,0.8-0.7c0.7,0.1,0.6-0.1,0.4-0.6
		c0-0.3,0-0.4,0-0.7s-0.1-0.6,0.1-0.6c0.3,0,0.3,0.3,0.4,0.4c0.3,0.4,0.6,1,0.6,1.4c0.1,0.4,0.4,0.4,0.4,0.3c0.4-1.1,1.5-0.8,2.3-1
		c0.4-0.1,0.4-0.4,0.4-0.7c-0.2,0-0.5,0-0.5-0.3c0.2,0,0.4,0.1,0.5,0.3c0.3,0,0.4,0,0.6,0.1C119.6,24.7,118.9,24.1,119.6,23.8z
		 M117.7,24.4c0,0,0.1-0.3,0.3-0.3c0.1,0.1,0.1,0.3,0.1,0.4C117.8,24.6,117.7,24.6,117.7,24.4z"/>
	<path class="st0" d="M121.1,25.6c0.3,0.2,0.6,0.2,0.8-0.1c0.3-0.3,0.4-0.6,0.4-1c-0.4-0.1-0.3-0.6-0.3-1l0.1-0.1
		c0.3,0.3,0.1,0.7,0.1,1v0.1c0.6-0.6,1.2-0.1,1.8-0.1c0.4,0,1,0.3,1.2-0.3c-0.1,0-0.3-0.1-0.3-0.3s0.1-0.3,0.1-0.1
		c0.1,0.1,0.1,0.3,0.1,0.4c0.6-0.1,1.1-0.1,1.5-0.1c0.3,0,0.4-0.1,0.4-0.4c0-0.6-0.6-1.1-1.1-1.1c-0.3,0-0.4,0.1-0.7,0.1
		c-0.8,0.1-1.7,1-2.6,0c0,0-0.3,0.1-0.4,0.1c-0.4,0.1-1,0.3-1.4,0.4c-0.8,0.4-1.1,1-1,2.1c0,0,0,0,0,0c-0.1,0-0.4,0-0.6,0.1
		c-0.1,0-0.4,0.1-0.3,0.4c0.1,0.3,0.4,0,0.6-0.1c0.1-0.1,0.1-0.3,0.3-0.4C120.4,25.4,120.7,25.6,121.1,25.6z M121.2,25.1
		c0,0,0.3,0.1,0.3,0.3c-0.1,0.1-0.3,0.1-0.4,0.1C121.1,25.3,121,25.1,121.2,25.1z"/>
	<path class="st0" d="M56.5,106.2c0-0.1,0.1-0.4,0.3-0.6c0.7-0.4,0.7-1.2,1.1-1.8c0.1-0.1,0.3-0.3,0.1-0.4c-0.3-0.4-0.6-1-1.1-1
		c-0.7,0,0,0.6-0.3,0.8c0,0.1-0.1,0.1-0.1,0.3c-0.4,0.6-0.7,1.2-1.1,1.9c-0.1,0.3-0.3,0.6,0.3,0.7c0.6,0.1,0.6,0.4,0.1,0.6
		c-0.7,0.4-0.8,1.1-1.1,1.8c-0.1,0.3,0.7,0.3,0.6,0.7c-0.1,0.4-0.6,0-0.8,0.1v0.3c0.4,0.6,0,0.7-0.4,1c-0.4,0.3-0.4,0.6-0.1,1
		c0.1,0.1,0.1,0.4,0.3,0.6c0.6,0.4,0.4,0.8,0.1,1.2c-0.1,0.3-0.4,0.6-0.6,0.8c-0.1,0.3,0,0.4,0.3,0.6c0.1-0.4,0.4-0.3,0.6-0.3
		c0.1-0.1,0.4-0.1,0.3-0.3c-0.6-0.6,0-1.2-0.1-1.8c-0.1-0.8,0-1.7,0.4-2.3c0.3-0.3,0.6-1,0.4-1.1c-0.6-0.6,0.1-1,0.3-1.2
		C56.1,107.3,56.7,106.9,56.5,106.2z"/>
	<path class="st0" d="M152.4,122.8c-1,0.3-1.5,1.2-2.5,1.4c-0.3,0-0.3,0.1-0.1,0.4c0.1,0.1,0.3,0.4,0.4,0.6c0.1,0.1,0,0.6,0.4,0.6
		s0.8-0.1,1.1-0.4c0-0.1-0.4-0.7,0.1-0.8c-0.1-0.1-0.1-0.3-0.1-0.4c-0.1-0.3,0-0.4,0.3-0.4c0,0,0.1,0.3,0.1,0.4c0,0.1,0,0.3,0,0.4
		c0.1,0,0.3-0.1,0.4-0.1c-0.4-0.8,0.4-0.7,0.7-1c0.3-0.3,0.8-0.6,0.3-1c-0.7-0.6-0.1-0.6,0.3-0.7c1.1-0.3,1.2-0.6,0.6-1.5
		c0-0.1-0.1-0.4-0.3-0.6c-0.3-0.3-0.4-0.6-0.8-0.4c-0.3,0.1-0.6,0.4-0.4,0.8c0.4,0.8-0.6,1.4-0.1,2.2
		C152.8,122.5,152.7,122.8,152.4,122.8z"/>
	<path class="st0" d="M132,105.4c0-0.3-0.1-0.6-0.6-0.4c-1.5,0.4-3,0.7-4.6,0c-0.3-0.1-0.6,0-0.7,0.3c-0.3,0.4-0.1,0.7,0,1
		c0.3,0.6,1.1,0.3,1.2,0.8c0.6,0.1,0.4-0.7,0.7-0.4c0.3,0.1,0.1,0.7,0.7,0.7c0.3,0,0.6,0,0.7-0.1c0.3-0.3,0.7-0.3,1-0.3
		C131.2,106.8,132,105.9,132,105.4z"/>
	<path class="st0" d="M131.3,132.1c-0.1,0.4-1.4-0.1-1.1,1c0.1,0.3-0.4,0.4-0.8,0.6c-0.3,0.1-0.7,0.1-0.7,0.6c0,0.7-0.4,0.8-0.8,1.1
		c-0.6,0.3-0.8,0.7-0.8,1.4c0,0,0,0,0,0c-0.6,0-0.3,0.7-0.6,0.8c-0.8,0.3-1.1,1-1.4,1.7c0,0.1-0.1,0.4-0.3,0.4c-1,0.1-0.4,0.7-0.1,1
		c0,0.1,0.3,0.1,0.4,0.4c0.4-0.3,0.7-0.6,1.2-0.8c0.6-0.6,0-0.4-0.3-0.6c-0.4-0.1-0.3-0.4,0-0.6c0.8-0.6,1.2-1.4,1-2.3
		c0.3,0.1,0.4,0.3,0.7,0.7c0.6,0.3,1.2-0.1,1.1-0.8c0-0.4,0-0.6,0.3-0.7c0.4-0.3,0.4-0.8,0.8-1c0.4-0.1,0.4-0.3,0.6-0.7
		c0.1-0.7,0.8,0.1,1.1-0.3c0.1-0.1,0.4-0.4,0.3-0.6C131.6,133,131.9,132.4,131.3,132.1z"/>
	<path class="st0" d="M150.5,89.5c0.1,0.3,1.4,0.8,1.7,0.7c0.6-0.3,0.4-0.8,0.3-1.2c-0.1-0.6-0.1-0.8,0-1.4c0.3-0.7,0.1-1.2-0.6-1.5
		c-0.4,0.3-0.7,0.6-1,0.8C150.1,87.6,149.9,88.5,150.5,89.5z"/>
	<path class="st0" d="M123.6,141.1l-0.8,1.4c-0.7-0.3-0.7,0.3-1,0.6c-0.4,0.6-0.1,0.8,0.3,1.1c0.3,0.1,0.3,0.4,0.4,0.6
		c0.3,0.3,0.4,0.7,0.8,0.6c0.4-0.1,0.4-0.7,0.6-1c0-0.3,0-0.6,0-0.8c0-0.6,0.1-1,0.8-1.2c0.6-0.1,0.7-0.7,0.4-1.2
		c-0.4,0-0.8,0-1.1-0.3C123.7,140.6,123.6,140.7,123.6,141.1z M124.4,141.4c0.1,0,0.3,0,0.3,0.1c0,0.1-0.1,0.3-0.3,0.3l-0.1-0.1
		C124.3,141.5,124.3,141.5,124.4,141.4z"/>
	<path class="st0" d="M74.6,144.8c0.7-0.6,1.5-1.1,1.5-2.2c-0.3,0.6-1.7,0.1-1.5,1.5c0.1,0-0.1,0.1-0.1,0.1c-0.7-0.4-1,0.3-1.5,0.6
		c-0.7,0.6-0.3,1.1-0.6,1.7c-0.3,0.4-0.1,1.2-0.3,1.2c-0.7,0-0.8,0.8-1.2,0.8c-0.4,0.1-0.3,0.3-0.1,0.6c0.3,0.4,0.7,0.4,1.1,0.1
		c0.4-0.3,0.6-0.7,0.7-1.2c0.1-0.4,0.3-0.7,0.3-1.1c0-0.4,0-0.4,0.3-0.4c0.6,0,0.6-0.4,0.7-0.7C74.1,145.4,74.2,145.1,74.6,144.8z"
		/>
	<path class="st0" d="M24.3,110.9c-0.3-0.8,0.4-1.8,0-2.3c-0.6-0.6-0.6-1.1-0.4-1.8c0-0.3-0.3-0.4-0.6-0.6c-0.1,0.4,0,0.7-0.1,0.8
		c-0.7,0.6-0.6,1.4-0.6,1.9c0,0.7,0.4,1.2-0.3,1.8c-0.1,0.1-0.1,0.1,0,0.3C22.7,111.6,24.4,111.3,24.3,110.9z M23.2,109
		c0.3-0.1,0.3,0,0.4,0.1c0,0.3-0.1,0.3-0.3,0.4c-0.1,0-0.3,0-0.3-0.1C22.9,109.2,23,109,23.2,109z"/>
	<path class="st0" d="M159,133.2c-0.1-0.1-0.3,0-0.3,0.1c-0.1,0.8-0.8,0.6-1.3,0.9c-0.1-0.4-0.1-0.6,0-0.9c-0.4,0.3-0.4,0.6-0.1,0.9
		c0,0-0.1,0-0.1,0.1c0,0.3-0.3,0.4-0.6,0.7c-0.8,0.4-1.1,1-0.7,1.8c0.1,0.4,0.1,0.6,0.4,0.1c0.8-1.1,1.9-1.9,3.3-2.3
		c0.1-0.1,0.3-0.3,0.1-0.4C159.6,133.8,159.3,133.5,159,133.2z"/>
	<path class="st0" d="M50.1,56.3c0.6,0.3,0.4-0.3,0.7-0.4c0.8-0.7,0.8-1.9,1.4-2.6c0.4-0.6,0.1-1-0.1-1.4c-0.3-0.4-0.3-0.3-0.4,0
		c-0.4,0.7-0.7,1.7-1.4,2.1c-0.6,0.4-0.6,0.7-0.6,1.1c0,0.1,0,0.3,0,0.4C49.6,55.8,49.8,56.1,50.1,56.3z"/>
	<path class="st0" d="M87.4,144.3c0,0.1,0,0.3-0.1,0.3c-0.6,0.4-0.8,1.5-1.9,0.7c-0.1-0.1-0.4,0.1-0.6,0.3c-0.6,0.4-0.3,1.1-0.6,1.7
		c-0.1,0.3,0.3,0.3,0.4,0.3c1,0.1,1.2-0.8,1.9-1.1c0.1-0.1,0.4,0,0.4-0.3c0-0.6,0.8-0.8,0.7-1.4C87.6,144.6,87.6,144.4,87.4,144.3z"
		/>
	<path class="st0" d="M51.4,65c0.3,0,0.4-0.1,0.6-0.3c0.7-0.8,1.4-1.8,1.7-2.9c0.1-0.1,0.1-0.3,0.1-0.3c-0.1-0.1-0.3-0.1-0.4,0
		c-0.1,0.1-0.4,0.3-0.7,0.4c-1.1,0.7-1.2,0.8-1.1,2.2c0,0.3-0.1,0.4-0.3,0.4C51.3,64.8,51.3,65.1,51.4,65z"/>
	<path class="st0" d="M59,115.7c-0.1-0.1-0.1-0.4-0.4-0.4s-0.6,0.1-0.6,0.3c0.1,0.8-0.6,1.4-0.6,2.1c0.1,0.3-0.3,0.7,0.3,1
		c0.6,0.1,0.6-0.4,0.7-0.6C59,117.4,59.4,116.7,59,115.7z"/>
	<path class="st0" d="M30.9,133.8c0.3,0,0.6,0,0.6-0.3c0.1-0.4,0-1,0.1-1.1c0.3-1.1-0.4-1.4-1.1-2.1c-0.3-0.1-0.4,0-0.4,0.3
		c0.1,1,0.6,1.8,0.4,2.8C30.5,133.7,30.6,133.8,30.9,133.8z"/>
	<path class="st0" d="M145.9,23.6c0.8,0,1.1-0.3,1-0.7c-0.1-1.4-0.1-1.4-1.4-0.7c-0.1,0-0.4,0.1-0.6,0.1c-0.3,0-0.3,0.3-0.1,0.6
		C145.1,23.3,145.4,23.7,145.9,23.6z"/>
	<path class="st0" d="M70.5,149.5c0.3,0.6-0.7,0.7-0.7,1.2c-0.1,0.1-0.1,0.1-0.3,0.1c-1-0.1-0.8,0.4-0.8,1.1
		c0.1,0.4,0.3,0.4,0.7,0.3c1-0.4,1.2-1.2,1.7-2.1C71.3,149.8,70.9,149.5,70.5,149.5z"/>
	<path class="st0" d="M57.2,123.6c0-0.7,0.1-1.4,0.4-2.1c-0.1-0.1,0.1-0.6-0.3-0.6c-0.6,0-0.8,0.1-0.7,0.6c0.4,0.7-0.1,1.2-0.3,1.8
		c0,0-0.3-0.6-0.4-0.3c-0.1,0.3-0.1,0.6,0,0.8c0.1,0.3,0.6,0.4,0.8,0.4C57.1,124.1,57.2,123.9,57.2,123.6z"/>
	<path class="st0" d="M48.3,135.6c-0.3-0.1-0.6-0.4-0.6,0c-0.3,0.3-0.3,0.6-0.1,0.8c0.1,0.4,0.7,0.8,0.7,1.4c0.4-0.1,0-0.7,0.4-1
		c0.1-0.1,0.3-0.1,0.4-0.1c0.1-0.1,0.3-0.3,0.1-0.6C49.1,135.7,49,135.2,48.3,135.6z"/>
	<path class="st0" d="M126.5,108.3c-0.7-0.3-1.5,0.1-1.7,0.8c0,0.3,0.6,0.8,0.7,0.7c0.6-1,1.5-0.7,2.2-1.2
		C127.3,108.4,126.9,108.1,126.5,108.3z"/>
	<path class="st0" d="M59,80.1c0.7-0.1,0.7-1,1-1.4c0.1-0.3,0.3-0.6,0.3-0.8c0-0.4,0-0.7-0.3-0.8c-0.4,0-0.7,0.1-0.7,0.6
		c0,0.3,0,0.6-0.1,0.8C59,79,58.9,79.6,59,80.1z"/>
	<path class="st0" d="M23,101.8c-0.1,0-0.3-0.1-0.4-0.1c-0.1,0-0.3,0.1-0.3,0.1c-0.1,0,0,0.1,0,0.3c0.1,0.3,0.3,0.6,0.7,0.6
		c0.7,0,1.1-0.3,1.1-1c0-0.4-0.7-1.2-1.2-1.2c0,0.1-0.1,0.4-0.4,0.3c0.3,0.1,0.6,0.4,0.7,0.7c0.1,0.1,0.3,0.1,0.4,0.3
		C23.4,101.9,23.2,101.8,23,101.8z"/>
	<path class="st0" d="M58.1,99.6c0.3,0.6,0.3,1.2,0.3,1.8c0,0.1,0.1,0.3,0.1,0.4c0-0.1,0-0.3,0-0.4c0.7-0.7,0-1.5,0.6-2.2
		c0.3-0.3,0.1-0.6-0.1-0.7c-0.3-0.3-0.4,0-0.6,0.3C58.2,99,57.9,99.4,58.1,99.6z"/>
	<path class="st0" d="M50.3,45.5c0-0.1,0-0.3-0.1-0.3c-0.3-0.1-0.6-0.3-0.8,0c-0.4,0.6-1,1-1.7,1.2c-0.1,0-0.3,0.1-0.1,0.3
		c0.1,0.3,0.1,0.4,0.3,0.6c0.3,0,0.4-0.1,0.4-0.4c0.4-0.4,1.2-1,1.9-1.2L50.3,45.5z"/>
	<path class="st0" d="M29.5,124.7c-0.1,0-0.3-0.1-0.4,0c-0.1,0.1-0.1,0.3-0.1,0.4c0.1,0.7,0.7,1.2,1,1.8c0,0.1,0.1,0.1,0.3,0
		c0.1-0.1,0.3-0.3,0.1-0.4c-0.3-0.1-0.6-0.3-0.3-0.6C30.3,125.2,29.9,124.8,29.5,124.7z"/>
	<path class="st0" d="M59,133c0,0,0.1,0.4,0.3,0.1c0.3-0.3,0.8-0.4,0.7-1.1c-0.1-0.4-0.3-0.8-0.7-0.8c-0.6,0-0.4,0.6-0.4,0.8
		c0,0,0,0.1,0,0.3C59,132.4,58.9,132.7,59,133z"/>
	<path class="st0" d="M128.4,109.2c0.3,0.1,0.4,0.4,0.7,0.3c0.3-0.1,0.4-0.6,0.6-0.8c0-0.1-0.1-0.3-0.3-0.4
		c-0.1-0.1-1.2,0.1-1.7,0.3C128,108.7,128.3,109,128.4,109.2z"/>
	<path class="st0" d="M53.2,49.1c-0.3,0-0.6,0.1-0.6,0.4c0,0.4,0.3,0.7,0.7,1c0.1,0.1,0.6-0.6,0.6-1C53.9,49.1,53.5,49.1,53.2,49.1z
		"/>
	<path class="st0" d="M31.7,135.6c0-0.3,0-0.6,0.1-0.7c0.1-0.1,0-0.3-0.1-0.3c-0.4-0.1-1,0.4-0.8,0.7c0.3,0.6,0.1,1.4,1,1.7
		c0-0.3,0-0.4-0.1-0.7C31.3,136,31.3,135.9,31.7,135.6z"/>
	<path class="st0" d="M161,132c-0.1-0.1-0.3-0.1-0.4,0c-0.1,0.3-0.6,0.4-0.8,0.7c-0.1,0.1-0.1,0.3,0.1,0.4c0.7,0.3,1.2,0,1.2-1
		C161,132,161,131.9,161,132z"/>
	<path class="st0" d="M84.8,102.9c0.1,0.1,0.3,0.1,0.4,0.3c0-0.1,0.1-0.4,0.1-0.4c0-0.3,0-0.4-0.1-0.6c0-0.3-0.1-0.6-0.4-0.6
		c-0.1,0-0.4,0.1-0.6,0.3c-0.3,0.3,0,0.6,0.1,0.7C84.5,102.6,84.7,102.8,84.8,102.9z"/>
	<path class="st0" d="M64.8,31.7c-0.1-0.1-0.3-0.1-0.4-0.1s-0.1,0-0.1,0c-0.3,0-0.6,0-0.6,0.3c0,0.3,0.1,0.4,0.4,0.4
		c0.1,0,0.4,0.1,0.7,0.1c0.3-0.1,0.7-0.1,0.7-0.6C65.5,31.6,65.1,31.8,64.8,31.7z"/>
	<path class="st0" d="M31.8,137c-0.1,0.4-0.4,0.6-0.6,0.8c-0.6,0.4,0.4,0.4,0.3,0.8c-0.1,0.1-0.3,0.4,0,0.4c0.3,0.1,0.3-0.1,0.3-0.4
		c0-0.4,0.1-1,0.3-1.4C32.1,137.1,32,137,31.8,137z"/>
	<path class="st0" d="M155,137.1c0-0.1,0-0.3-0.1-0.4c-0.3-0.3-0.4,0.1-0.6,0.3c-0.1,0.1-0.3,0-0.4,0c-0.1,0-0.3,0.1-0.3,0.1
		c-0.1,0.3,0,0.4,0.1,0.4c0.3,0,0.4,0.1,0.6,0.1C154.8,137.7,155,137.5,155,137.1z"/>
	<path class="st0" d="M23.7,105c-0.1-0.3-0.4-0.6-0.8-0.3c-0.3,0.3-0.6,0.6,0,0.8c0.1,0,0.3,0,0.3-0.1
		C23.4,105.4,23.8,105.4,23.7,105z"/>
	<path class="st0" d="M30.2,127.4c-0.1,0-0.3,0.1-0.1,0.1c-0.1,0.4,0.1,1,0.6,1h0.1c0.3-0.3-0.1-0.4-0.1-0.7
		C30.6,127.7,30.5,127.4,30.2,127.4z"/>
	<path class="st0" d="M133.5,99.7c0-0.3-0.3-0.6-0.6-0.4c-0.4,0.3-0.1,0.6,0,0.8v0.1C133.2,100.3,133.7,100.3,133.5,99.7z"/>
	<path class="st0" d="M58.7,67.4c0,0.1,0.1,0.3,0.3,0.3c0.3,0,0.3-0.1,0.3-0.4c0-0.1-0.1-0.3-0.3-0.4C58.7,66.9,58.7,67.2,58.7,67.4
		z"/>
	<path class="st0" d="M155,137.9c-0.1,0-0.4,0.1-0.4,0.4c0,0.3,0.3,0.4,0.6,0.4c0.4,0,0.1-0.3,0.1-0.4
		C155.3,138.2,155.5,137.9,155,137.9z"/>
	<path class="st0" d="M20.5,94.2c0,0.4,0.3,0.4,0.6,0.6c0.1,0.1,0.3,0.1,0.4-0.1c0-0.3-0.1-0.4-0.6-0.6
		C20.8,93.9,20.5,94.1,20.5,94.2z"/>
	<path class="st0" d="M83.4,33.2c0.1,0,0.4,0,0.4-0.4c-0.3,0.1-0.6,0.1-0.8,0l-0.1,0.3C82.9,33.5,83.2,33.4,83.4,33.2z"/>
	<path class="st0" d="M63.2,125.1c-0.1-0.1-0.4-0.3-0.4-0.1c-0.1,0.3-0.3,0.6-0.4,0.8l0.1,0.1C62.9,125.8,63.2,125.5,63.2,125.1z"/>
	<path class="st0" d="M29.2,148.8c0,0.1,0.1,0.1,0.3,0c0.3-0.3,0.4-0.6,0.4-1C29.1,147.9,29.2,148.3,29.2,148.8z"/>
	<path class="st0" d="M71.2,142.3c-0.1,0.1,0,0.3,0.1,0.3c0.3,0,0.4-0.3,0.6-0.6c-0.1-0.1-0.1-0.3-0.1-0.1
		C71.4,141.9,71.3,142.2,71.2,142.3z"/>
	<path class="st0" d="M67.4,30.2c0.1-0.1,0.3-0.1,0.4-0.1c-0.3-0.1-0.4-0.4-0.6-0.6s-0.3-0.1-0.3,0C66.9,29.9,67.2,30.1,67.4,30.2z"
		/>
	<path class="st0" d="M53.9,114.8c0.3,0.4,0.4,0.8,0.8,0.6c0.1,0,0.1-0.1,0.1-0.1C54.7,114.5,54.2,114.9,53.9,114.8z"/>
	<path class="st0" d="M160.1,130.9c0.1,0,0.3-0.1,0.3-0.4c0-0.3,0-0.4-0.3-0.4c-0.3,0-0.1,0.3-0.1,0.4
		C160.1,130.6,159.7,130.9,160.1,130.9z"/>
	<path class="st0" d="M93.5,101.1c-0.1,0.1,0,0.4,0.1,0.4c0.1,0.1,0.3,0,0.3-0.1c0-0.3-0.1-0.3-0.1-0.4
		C93.6,101,93.5,101,93.5,101.1z"/>
	<path class="st0" d="M57.9,127.7c0.3,0,0.4-0.1,0.6-0.4c0-0.1,0-0.1-0.1-0.1c-0.2,0-0.4,0.1-0.5,0.3
		C57.8,127.6,57.8,127.7,57.9,127.7z"/>
	<path class="st0" d="M58.4,127.2C58.4,127.2,58.4,127.2,58.4,127.2C58.4,127.2,58.4,127.2,58.4,127.2z"/>
	<path class="st0" d="M92,101.8c-0.1,0.1-0.1,0.3-0.3,0.4c0.1,0,0.3,0,0.6-0.1c0.1,0,0.4-0.1,0.3-0.4
		C92.4,101.4,92.1,101.7,92,101.8z"/>
	<path class="st0" d="M30.2,147.3c-0.1,0-0.3,0.1-0.3,0.3c0,0,0,0.1,0,0.3c0,0,0.1,0,0.1-0.1c0.1,0,0.3-0.1,0.3-0.3
		C30.3,147.5,30.3,147.3,30.2,147.3z"/>
	<path class="st0" d="M61.4,127.6c-0.1,0-0.3,0.1-0.3,0.3c0,0,0,0.1,0.1,0.1c0.1,0,0.3-0.1,0.3-0.3S61.4,127.4,61.4,127.6z"/>
	<path class="st0" d="M82.3,33.5c0-0.1-0.1-0.3-0.4-0.1c0,0-0.1,0-0.1,0.1c0,0.1,0.1,0.3,0.3,0.3C82.2,33.8,82.3,33.6,82.3,33.5z"/>
	<path class="st0" d="M60.5,129.2c0.1,0,0.3-0.1,0.3-0.3c0-0.1-0.1-0.3-0.4-0.3c-0.1,0.1-0.3,0.3-0.1,0.4
		C60.4,129.2,60.4,129.2,60.5,129.2z"/>
	<path class="st0" d="M26.3,122.5c0,0.1,0.1,0.1,0.3,0.3c0-0.1,0-0.3,0-0.3c0-0.1,0.1-0.4,0.1-0.6c-0.1,0-0.3,0-0.3,0
		C26.3,122.1,26.3,122.3,26.3,122.5z"/>
	<path class="st0" d="M65.2,131.7c0.1,0.1,0.1,0.1,0.3,0.1c0.1,0,0.3-0.1,0.3-0.3c0-0.1-0.1-0.3-0.4-0.3
		C65.2,131.5,65.1,131.6,65.2,131.7z"/>
	<path class="st0" d="M161.2,133.7c0,0,0,0.1,0.1,0.1c0.1-0.1,0.3-0.3,0.4-0.6c-0.1-0.1-0.1-0.1-0.3-0.1
		C161.4,133.2,161.2,133.4,161.2,133.7z"/>
	<path class="st0" d="M156.3,134.1c0.1-0.3,0-0.3-0.1-0.4c-0.1,0-0.3,0-0.3,0.1c-0.1,0.1,0,0.4,0.1,0.4S156.3,134.1,156.3,134.1z"/>
	<path class="st0" d="M60.3,112.7c0-0.1,0-0.3-0.1-0.4c0,0-0.1,0.1-0.1,0.3c0,0.3,0,0.4,0.1,0.4C60.1,113,60.3,112.8,60.3,112.7z"/>
	<path class="st0" d="M77.1,141.2l-0.1-0.1c-0.1,0-0.3,0-0.3,0.1s0,0.3,0.1,0.3S77.1,141.4,77.1,141.2z"/>
	<path class="st0" d="M130.2,108.5c0,0.1,0.1,0.1,0.3,0.3c0.1-0.1,0.1-0.3,0.1-0.3c0-0.3-0.1-0.3-0.3-0.1
		C130.2,108.4,130.2,108.5,130.2,108.5z"/>
	<path class="st0" d="M61.1,135.5c0.1,0.1,0.1,0.1,0.3,0.1c0,0,0.1-0.1,0.1-0.3c0-0.1,0-0.1-0.1-0.3
		C61.2,135.2,61.1,135.3,61.1,135.5z"/>
	<path class="st0" d="M55.4,59c0,0,0.1-0.1,0.1-0.3c0-0.1,0-0.1-0.1-0.3c-0.1,0.1-0.3,0.3-0.3,0.6C55.3,59,55.3,59,55.4,59z"/>
	<path class="st0" d="M76.5,142.1c-0.1,0-0.3,0-0.3,0.1c-0.1,0.1-0.1,0.3-0.1,0.4c0.1-0.1,0.3-0.1,0.4-0.3
		C76.7,142.3,76.8,142.1,76.5,142.1z"/>
	<path class="st0" d="M54.5,61c0,0,0,0,0.1,0.1c0,0,0.1-0.1,0.4-0.3c-0.1,0-0.3-0.1-0.3-0.1C54.6,60.7,54.5,60.8,54.5,61z"/>
	<path class="st0" d="M22.2,106.9c0.1,0,0.3-0.1,0.3-0.3c0-0.1,0-0.1-0.1-0.3c-0.1,0.1-0.1,0.3-0.3,0.4L22.2,106.9z"/>
	<path class="st0" d="M79.9,143c0.1,0.1,0.4,0.1,0.6,0.1c0-0.1,0.1-0.4-0.3-0.4C80.1,142.8,79.9,142.9,79.9,143z"/>
	<path class="st0" d="M158.9,130.3l0.1,0.1c0.1,0,0.3-0.1,0.3-0.3c0-0.1-0.1-0.1-0.3-0.1C159,130.2,158.9,130.2,158.9,130.3z"/>
	<path class="st0" d="M56.1,125.2l0.1-0.1c0-0.3-0.1-0.4-0.3-0.3c-0.3,0-0.3,0.1-0.1,0.3C56,125.1,56,125.2,56.1,125.2z"/>
	<path class="st0" d="M31.6,146.9c-0.1,0-0.3,0-0.3,0.1v0.3c0.3,0.1,0.3,0,0.4-0.1C31.7,147,31.7,146.9,31.6,146.9z"/>
	<path class="st0" d="M60.3,147.9c0,0.1,0,0.3,0.1,0.4c0,0.1,0.1,0.1,0.3,0.1c0.1,0,0.1-0.1,0-0.3C60.5,148,60.4,148,60.3,147.9z"/>
	<path class="st0" d="M121.9,113.7c-0.1-0.1-0.1-0.3-0.4-0.3l-0.1,0.1c0,0.1,0.1,0.3,0.3,0.3S121.8,113.7,121.9,113.7z"/>
	<path class="st0" d="M56.5,126.2c0-0.1,0.1-0.1,0.1-0.1c0-0.1-0.1-0.1-0.1-0.3C56.4,126.1,56.4,126.2,56.5,126.2z"/>
	<path class="st0" d="M57.6,128.7l0.1-0.1c-0.1,0-0.1-0.1-0.3-0.1C57.5,128.7,57.6,128.7,57.6,128.7z"/>
	<path class="st0" d="M21.8,101.1c0-0.1,0.1-0.1,0.1-0.1c0-0.1-0.1-0.1-0.1-0.3c0,0,0,0.1,0,0.1C21.7,101,21.8,101,21.8,101.1z"/>
	<path class="st0" d="M21.7,100.8C21.8,100.7,21.8,100.7,21.7,100.8C21.7,100.8,21.7,100.8,21.7,100.8z"/>
	<path class="st0" d="M51.3,64.5c0,0,0-0.1-0.1-0.1c-0.1-0.1-0.3-0.1-0.4,0c0.1,0,0.1,0.1,0.3,0.1S51.2,64.5,51.3,64.5z"/>
	<path class="st0" d="M58.2,67.7c0-0.1,0.1-0.1,0.1-0.1c0-0.1-0.1-0.1-0.1-0.3C58.1,67.6,58.1,67.7,58.2,67.7z"/>
	<path class="st0" d="M46.9,132.4c0,0.1-0.1,0.3-0.1,0.3l0.1,0.1c0.1-0.1,0.1-0.1,0-0.3C46.9,132.5,46.9,132.5,46.9,132.4z"/>
	<path class="st0" d="M46.9,132.4c0,0,0,0.1,0,0.1C47,132.5,47,132.5,46.9,132.4z"/>
	<path class="st0" d="M157.5,133.4c0.1-0.1,0.3-0.1,0.4-0.1c0,0,0-0.1-0.1-0.1C157.7,133.1,157.5,133.2,157.5,133.4z"/>
	<path class="st0" d="M110.9,23.6c0.1,0,0.1,0.1,0.3,0.1c-0.1-0.1-0.1-0.3-0.1-0.3L110.9,23.6z"/>
	<path class="st0" d="M25.6,116.4l0.1-0.1c-0.1,0-0.1-0.1-0.3-0.1C25.5,116.3,25.5,116.4,25.6,116.4z"/>
	<path class="st0" d="M25.5,116.1C25.4,116.3,25.5,116.3,25.5,116.1L25.5,116.1z"/>
	<path class="st0" d="M56.7,70.1c0.1,0,0.1,0.1,0.1,0.1c0.1,0,0.1-0.1,0.3-0.1C57,69.9,56.8,69.9,56.7,70.1z"/>
	<path class="st0" d="M57.1,56.4L57,56.5c0,0.1,0.1,0.1,0.1,0.3C57.2,56.7,57.2,56.5,57.1,56.4z"/>
	<path class="st0" d="M31.8,135.6c0,0.3,0,0.6,0,0.7C32.3,136,32.3,135.9,31.8,135.6z"/>
	<path class="st0" d="M52.8,51.6l0.1-0.1c0-0.1-0.1-0.1-0.1-0.3C52.7,51.3,52.8,51.4,52.8,51.6z"/>
	<path class="st0" d="M62.2,109.8c0.1,0,0.1-0.1,0.3-0.1c-0.3,0-0.3,0-0.4,0C62.2,109.7,62.2,109.8,62.2,109.8z"/>
	<path class="st0" d="M62.5,109.7C62.5,109.7,62.3,109.5,62.5,109.7L62.5,109.7z"/>
	<path class="st0" d="M72.4,141.7c0-0.1,0-0.1,0-0.3c-0.1,0-0.1,0-0.1,0c0,0.1,0,0.3,0,0.3C72.3,141.8,72.4,141.8,72.4,141.7z"/>
	<path class="st0" d="M73.4,141.4c0,0.1,0,0.3,0,0.3c0,0.1,0.1,0.1,0.1,0c-0.1-0.1-0.1-0.1,0-0.3C73.4,141.4,73.4,141.4,73.4,141.4z
		"/>
	<path class="st0" d="M58.5,80.7l0.1,0.1c0.1,0,0.1-0.1,0.3-0.1C58.6,80.5,58.5,80.5,58.5,80.7z"/>
	<path class="st0" d="M57.5,81.1l-0.1,0.1c0.1,0,0.1,0.1,0.3,0.1C57.8,81.2,57.6,81.2,57.5,81.1z"/>
	<path class="st0" d="M23.2,106.2c0-0.3,0-0.4,0-0.7c-0.1,0-0.1,0-0.3,0C22.9,105.8,22.9,106.1,23.2,106.2z"/>
	<path class="st0" d="M21.6,143.5l0.1,0.1c0.1,0,0.1-0.1,0.3-0.1C21.9,143.3,21.8,143.3,21.6,143.5z"/>
	<path class="st0" d="M75.9,34.3c0.1,0,0.1,0.1,0.4,0c0,0-0.1-0.1-0.3-0.1L75.9,34.3z"/>
	<path class="st0" d="M63.8,90.9c-0.1,0-0.1,0.1-0.3,0.1l0.1,0.1C63.7,91,63.8,91,63.8,90.9z"/>
	<path class="st0" d="M29.8,146.1c-0.1,0-0.3,0.1-0.3,0.1c0,0.1,0.1,0.1,0.1,0.1C29.8,146.4,29.8,146.2,29.8,146.1z"/>
	<path class="st0" d="M94.1,102.5c0-0.1,0.1-0.1,0.1-0.3c-0.1,0-0.1,0-0.3,0.1L94.1,102.5z"/>
	<path class="st0" d="M92.7,32.8c-0.3-0.1-0.3,0-0.3,0.1s0.1,0.1,0.1,0.1C92.7,33.1,92.7,32.9,92.7,32.8z"/>
	<path class="st0" d="M30.3,148.4c0.1,0.1,0.1,0.1,0.4,0c-0.1-0.1-0.1-0.1-0.3-0.1L30.3,148.4z"/>
	<path class="st0" d="M70.2,149.2c-0.1,0-0.3,0.1-0.1,0.1c0.1,0.1,0.3,0.1,0.4,0.1C70.5,149.4,70.3,149.2,70.2,149.2z"/>
	<path class="st0" d="M84.8,32.7l0.1,0.1c0.3,0,0.4-0.1,0.4-0.3C85.2,32.5,85,32.5,84.8,32.7z"/>
	<path class="st0" d="M76.1,24.9c0,0-0.1-0.1,0-0.4C76,24.7,76,24.7,76,24.7c0,0.1,0,0.3,0,0.3C76,25.1,76.1,25.1,76.1,24.9z"/>
	<path class="st0" d="M162.6,41.8c0.6-0.1,0.8,0.6,1.4,0.1v-0.1c-0.4-0.4-0.7-0.7-1.2-0.6c-0.1,0-0.3,0-0.3,0.1
		C162.4,41.5,162.5,41.8,162.6,41.8z"/>
	<path class="st0" d="M160.1,50.7c0,0.4-0.1,0.7-0.3,1.1c-0.1,0.1,0,0.3,0.1,0.3c0.1,0,0.1,0,0.1-0.1c0.1-0.4,0.3-0.7,0.4-1.1
		c0.1-0.1,0-0.3-0.1-0.4C160.1,50.3,160.1,50.6,160.1,50.7z"/>
	<path class="st0" d="M156,54.6c-0.4,0.3,0.1,0.6,0.1,0.8c0,0,0,0.1,0,0.3c-0.3,0-0.6-0.3-0.8-0.3c-0.3,0-0.4,0.1-0.4,0.4
		c0,0.4,0.3,0.6,0.6,0.7c0.3,0.1,0.6,0.1,0.8-0.1c0.3-0.3-0.1-0.4-0.1-0.7c0,0,0,0,0,0c0.4,0,0.7-0.3,0.6-0.7
		C156.7,54.7,156.1,54.5,156,54.6z"/>
	<path class="st0" d="M158.4,53.4c0,0-0.1-0.1-0.3-0.1c-0.1,0-0.1,0.1-0.1,0.3c0.1,0.1,0.1,0.4,0.1,0.6c0,0-0.1,0.1-0.4,0.3
		c-0.3,0.4-0.1,0.8-0.1,1.2h0.3c0.3-0.4,0.8-0.7,0.4-1.2c0-0.1-0.1-0.1-0.1-0.3C158.5,53.8,158.5,53.5,158.4,53.4z"/>
	<path class="st0" d="M162.1,41.8c-0.1,0-0.1-0.1-0.1-0.3c-0.1,0-0.1,0-0.3,0.1c-0.1,0.1-0.1,0.3,0,0.3
		C161.9,42.1,161.9,41.9,162.1,41.8z"/>
	<path class="st0" d="M157.5,59.6c0,0.1,0.1,0.1,0.1,0.3c0-0.3,0-0.3,0-0.4L157.5,59.6z"/>
	<path class="st0" d="M157.7,59.9C157.8,59.7,157.7,59.7,157.7,59.9L157.7,59.9z"/>
	<path class="st0" d="M160.7,42.9c0-0.1-0.1-0.1-0.1-0.3c0,0.1,0,0.3,0,0.4L160.7,42.9z"/>
	<path class="st0" d="M105.5,105c0.4,0.3,0.4-0.3,0.6-0.4c0.1-0.1,0-0.3,0-0.4c0-0.8-0.3-1.5-0.3-2.3c0-0.7,0.4-1.5-0.4-2.1
		c0.2-0.5,0.2-1,0.2-1.5l-1.5-0.3c0,0.2,0.2,0.4,0.2,0.6c0.1,1.4-0.1,2.6,0.4,3.9c-0.3,0.4,0,0.7,0.3,1.1c0.3,0.3,0.3,0.7,0.1,1
		C105,104.8,105.4,104.8,105.5,105z"/>
	<path class="st0" d="M84,100.1c-0.3,0.1-0.3,0.4-0.3,0.7c0,0.6,0.3,0.8,0.7,0.8c0.3,0,0.6-0.3,0.6-0.7c0.1-0.7-0.1-1.9-0.7-2.6
		c0-0.1,0-0.3,0-0.4c0.6-1.2,0-2.5-0.1-3.7c-0.1-1.7-0.7-3.3-0.7-5c0-0.7-0.1-1.2-0.3-1.9c-0.1-1.2-0.1-2.4-0.3-3.7l-1.7-0.2
		c0,0.8-0.1,1.6,0.4,2.2c0.3,0.4,0.3,1,0.1,1.4c-0.3,0.6,0.3,1.2,0,1.8c0.7,1.1,0.6,2.5,0.8,3.7c0.1,0.8-0.7,1.9,0.8,2.2
		c0,0,0,0.8-0.3,1.1c-0.4,0.3-0.6,0.7-0.3,0.8c1,0.8,0.1,2.3,1.2,3.2C84.4,100,84.1,100,84,100.1z"/>
	<path class="st0" d="M122.1,101.4c0.3-0.1,0.4-0.4,0.4-0.8c0-0.8-0.3-1.7-0.6-2.3c0-0.3-0.3-0.4-0.3-0.7c-0.1-0.9-0.1-1.7-0.1-2.5
		l-1.4,0.4c0.1,0.8,0.3,1.5,0.7,2.2c0.4,0.8-0.4,1.9,0.6,2.8c0.1,0.1-0.1,0.1-0.3,0.3c-0.3,0.3-0.1,0.7,0.1,1
		C121.5,101.8,121.8,101.5,122.1,101.4z"/>
	<path class="st0" d="M132.7,100.4c0.1,0,0.2-0.1,0.2-0.2C132.9,100.3,132.7,100.3,132.7,100.4z"/>
	<path class="st0" d="M128.3,93.2l-1.6,0.4c0,0.2-0.1,0.4-0.1,0.6c0.4,0.7,0,1.2,0.1,1.9c0.3,1,0.3,1.2-0.1,2.5
		c0,0.1,0.1,0.4,0.1,0.6c0,0.8-0.4,1.5-1.2,1.5c-0.7,0-1.1,0.1-1.5,0.6c-0.8,0.6-0.7,1.1,0.1,1.5c0.4,0.1,0.8,0.3,1.2,0
		c1.2-0.6,2.5-1,3.6-1.8c0.4-0.4,1.1-0.6,1.5-0.3c0.9,0.4,1.5,0.2,2.2-0.2c-0.5-0.8-1.3-0.6-1.9-0.4c-0.6,0.1-1.2,0.3-1.7,0.7
		c-0.3,0.4-0.7,0.1-0.8-0.3c-0.3-0.4-0.1-0.7,0-1.1c0.3-1.1,0.7-2.2,0.1-3.4c-0.1-0.1-0.1-0.3-0.1-0.4
		C128.5,94.7,128.4,93.9,128.3,93.2z"/>
	<path class="st0" d="M132.7,100.4C132.7,100.4,132.7,100.4,132.7,100.4C132.7,100.5,132.7,100.5,132.7,100.4
		C132.7,100.5,132.7,100.5,132.7,100.4z"/>
	<path class="st0" d="M132.7,100.5c0,0,0,0.1,0.1,0.2C132.8,100.6,132.8,100.6,132.7,100.5z"/>
</g>
<g>
	<path class="st1" d="M107.4,68.4c0.1,0,0.1,0.1,0.2,0.1c0-0.1,0.1-0.1,0.2-0.1C107.6,68.2,107.5,68.2,107.4,68.4z"/>
	<path class="st1" d="M124.6,66.4C124.6,66.4,124.6,66.5,124.6,66.4c0.1,0,0.2-0.1,0.3-0.1C124.8,66.3,124.7,66.3,124.6,66.4z"/>
	<path class="st1" d="M133.5,73.5c-0.3-0.1-0.6-0.3-0.8-0.3s-0.3,0.1-0.3,0.4c0,0.1,0.3,0.4-0.1,0.4c-0.1,0-0.3-0.3-0.3-0.4
		c-0.1-1,0.1-1.7,0.6-2.5c0.1-0.3,0.4-0.4,0-0.4s-1,0-0.8-0.7c0.1-0.7,0.1-1.2,1-1.4c0,0,0.1,0,0.3,0c0.4-0.1,0.4-0.6,0.4-0.8
		c0-0.4-0.1-0.6-0.6-0.4c-0.3,0.1-0.4,0-0.4-0.3c0-0.3,0-0.7-0.1-1s-0.3-0.6-0.7-0.1c-0.1,0.1-1.1,0-1.1,0c-0.1-1-1.2-0.7-1.7-1.4
		c-0.1-0.4-0.8-0.7-1.4-0.7c0,0.1-0.1,0.3-0.3,0.3c-0.3,0.4-0.4,0.4-0.7,0c-0.4,0-0.7,0-0.4-0.6c0,0,0,0,0,0c0.2,0,0.3,0,0.6,0
		c0.1,0,0.3-0.1,0.3-0.3c-0.1-0.1-0.1-0.3-0.3-0.4c-0.4-0.3-0.5-0.3-0.7,0.2c-0.1-0.1-0.3-0.2-0.4-0.2c-0.4-0.1-0.7,0.3-0.7,0.6
		c0,0.4-0.1,1,0.7,1c1,0,0.4,0.6,0.3,1c0.1,0,0.3,0,0.4,0c0.1,0,0.1,0.1,0.3,0.1c-0.3,0.3-0.4,0.6-0.7,0.8c-0.1,0.1-0.3,0-0.4-0.3
		c-0.1,0-0.2,0.1-0.3,0.1c0.1,0,0.1,0,0.2,0c0.1,0.1,0.1,0.1,0.3,0.3c-0.3,0.1-0.6,0.1-0.8,0.1c0,0-0.1-0.1,0-0.2
		c-0.5,0.3-1,0.7-1.3,1.2c-0.6,0.6-0.7,1.7-1.9,1.5c-0.1,0-0.6,0.7-0.4,1.1c0.1,0.4,0.6,0.6,1,0.4c0.8-0.3,1.9-0.4,2.1-1.5
		c0-0.4,0.1-0.4,0.4-0.6c1-0.6,2.1-1.1,3-1.7c0.4-0.3,1-1,1.4-0.4c0.3,0.3-0.4,1-0.7,1.5c-0.1,0-0.1,0.1-0.3,0.1
		c-1,0.3-1.4,1.2-1.8,1.9c-0.6,0.8-1,0.8-1.7,0.8c0.1,0.1,0.3,0.3,0.3,0.4c0.4,0.8,0.4,0.8,1.4,0.6c0.1-0.1,0.6-0.4,0.7-0.1
		c0.3,0.6,1.5,0.6,1.5,1.2c0,0.4-0.7,0.8-1.1,1.2c-0.1,0.1-0.3,0.1-0.3,0.3c-0.1,0.4-0.1,0.7,0.3,1c0.7,0.4,1.5,0.4,1.1,1.5
		c-0.1,0.1,0.3,0.3,0.6,0.4c1,0.3,1,0.4,0.7,1.2c-0.1,0.4-0.4,0.7-0.4,1.1c-0.1,1.5-1.4,2.1-2.5,2.6c-0.3,0.1-0.8,0.1-1.1,0
		c-1.1-0.6-2.2-1.1-2.6-2.3c-0.1-0.4-0.3-0.7-0.6-1c-1.2-1.4-2.2-3-2.6-4.7c-0.7-2.5-0.7-5.1,1-7.3c0.4-0.6,0.8-1,1.2-1.5
		s0.8-1.2,1.8-1.2c0.4,0,0.6-0.4,0.7-0.7c0.1-0.3,0.3-0.6,0-0.8c-0.3-0.1-0.4,0.1-0.7,0.3c-0.3,0.1-0.6,0.4-1,0.6
		c-1.1,0.6-1.9,1.2-2.5,2.3c-0.6,1-1.1,1.8-1.7,2.6c-0.8,1.2-0.6,2.8-0.8,4.1c1.1,1.9,0.8,4.4,2.1,6.3c0.3,0.6-0.3,0.7-0.6,1
		c-0.3,0.3-0.4-0.1-0.6-0.3c-1.4-1.5-2.2-3.3-3.3-5c-0.4-0.6-0.8-1.2-1.1-1.9c-0.6-1.5-1.5-2.9-2.3-4.4s-1.8-3-1.1-5
		c0.1-0.1,0.1-0.3,0-0.4c-0.6-0.4-0.6-1.1-0.6-1.8c0-0.6-0.3-0.8-0.6-1.2c-0.3-0.4-1.4-0.6-1.8-0.1c-0.6,0.6,0,0.8,0.3,1.2
		c0,0,0.3,0,0.3,0.1c0.4,0.7,0.7,1.5,0.6,2.3c0,0.3-0.4,0.1-0.6-0.1h-0.1h-0.1c0,0.8-0.1,1.7,0,2.3c0.1,0.7-0.8,1.4,0,2.1
		c0.1,0.3-0.1,0.3-0.3,0.3c0,0-0.1,0.1-0.2,0.1c0,0,0,0,0,0c0,0.1,0.1,0.1,0.1,0.3c1.1-0.3,1-0.1,1.7,0.7c0.8,0.8,0.8,1.9,1.4,2.8
		c1.2,2.1,2.5,4.4,4,6.3c0,0.1,0.1,0.1,0.1,0.3c0.1,0.6,0.7,1.1,0.6,1.5c-0.1,0.4-1,0-1.4,0.1c-2.3,0.4-4.6,1.2-6.9,1.8
		c-0.3,0-0.6,0.1-0.8,0.1c-0.4,0.1-1,0.1-1.4,0.3c0-0.6,0.3-1,0.3-1.4c0.1-0.8,0.4-1.7,0.8-2.3c0.1-0.3,0.3-0.7,0.3-1
		c-0.3-1.5,0.8-2.8,1.4-4c0.4-1,0.7-1.9,0.4-3c-0.1-0.7-0.4-1.4-0.4-2.2c0,0-0.1,0-0.3-0.1c0,0-0.1,0-0.1,0c0,0-0.1,0.1-0.1,0.2
		c0.3,1.1-0.6,1.9-0.8,3c-0.1,0.7-0.1,1.2-0.4,1.9c-0.4,1.1-0.8,2.2-1.1,3.3c-0.3,1.2-0.8,2.2-1.4,3.3c-0.1,0.1-0.1,0.3-0.3,0.4
		c-0.1-0.1-0.3-0.3-0.4-0.4c0,0,0-0.1,0-0.3c-0.7-2.5-1.5-4.8-1.1-7.4c0,0-0.1-0.1-0.1-0.3c-0.1-1.4-0.3-2.6-0.6-4
		c-0.4-1.5-0.4-3.2-1.1-4.6c0-0.1,0-0.3,0-0.4c0.4-0.7,0-1.1-0.3-1.5c-0.7-1.2-0.8-2.8-1.5-4.1c-0.3-0.4-0.1-1.1-0.3-1.7
		c-0.1-0.6-0.6-0.7-1-0.8c-0.4-0.3-0.3,0.4-0.7,0.4c0,0.3-0.1,0.6,0,0.7c0.1,0.4,0.1,0.6-0.4,0.7c-1.5,0.3-3-0.1-4.6,0.4
		c-0.6,0.1-0.8-0.4-0.7-0.7c0.3-1-0.1-1.8,0-2.8c0-0.3,0-0.7-0.1-1c-0.1-0.4,0-0.7,0-1c-0.1-0.7,0.6-0.7,0.8-0.7
		c0.4,0,0.7,0.4,0.6,0.8c-0.3,0.7,0.6,1.1,0.3,1.7c-0.3,0.6,0,1,0.1,1.5c0.1,0.7,0.6,0.7,1,0.6c0.3-0.1,0.6-0.3,0.6-0.8
		c0-0.6-0.1-1.2-0.3-1.8c-0.1-0.6-0.4-1-0.6-1.5c-0.1-0.4,0-0.8,0.6-1c0.4,0,0.8,0.1,1,0.6c0.3,0.7,0.4,1.4,0.4,2.2
		c-0.1,1,0.1,1.8,1.2,2.2c0.1-0.4-0.1-1.1,0.3-1.2c1.1-0.3,0.6-1,0.4-1.5c-0.4-1.2-0.8-2.3,0.1-3.4c0.1-0.1,0-0.6-0.1-0.6
		c-0.4-0.1-1-0.3-1.4-0.6c-0.4-0.1-0.7,0.3-1,0.4c-0.4,0.1-1,0.4-1.5,0.3c-0.6,0-1.2-0.1-1.9,0.4c-0.4,0.3-1.2,0.3-1.8-0.1
		c-0.3-0.3-0.4-0.1-0.7,0c-0.7,0.3-1.4,1-2.2,0.1c-0.3-0.1-0.4,0.1-0.6,0.3c-0.1,0.3-0.1,0.6-0.3,0.8c-0.1,0.1-0.3,0.4-0.6,0
		c-0.6-1-1.2-1.8-2.2-2.3c-0.7-0.4-1.4-0.7-2.1-1.2c-1.5-1.1-2.8-1-4.1,0.4c-0.6,0.4-1,0.8-1.2,1.4c-0.1,0.3-0.4,0.4-0.6,0.6
		c-0.7,0.6-0.7,1.2-0.1,1.8c1.5,1.5,2.6,3.3,4.3,4.6c0.7,0.6,1.4,1.4,1.7,2.3c0.1,0.6,0,0.8-0.6,0.8c-0.8,0-1.5,0-2.2,0
		c-0.4,0-0.7,0-0.6,0.6c-0.8,0.7,0.1,1.4,0.4,1.7c0.8,1-0.1,2.3,1,3c0.1,0,0,0.1,0,0.3c-0.1,0-0.1,0.1-0.1,0.1
		c-0.4,0.7-0.3,1.4,0.1,2.1c0.1,0.3,0.6,0.7,0.3,0.8c-0.8,0.6-0.1,1.1-0.1,1.5c0,0.7,0.4,1.4,0.1,2.1c0,0.1,0.1,0.3,0.3,0.3
		c0.6,0,0.4,0.4,0.4,0.7c-0.1,0.8-0.1,1.5,0.3,2.3c0.1,0.3,0.1,0.8,0,1.2c-0.1,0.3-0.3,0.6-0.1,0.8c0.4,1.1,0.4,2.2,0.7,3.3
		c0.3,1.2,0.4,2.5,0.4,3.7l1.5-0.7c-0.1-0.3,0.4-0.7-0.1-1.1c-0.4-0.3,0.1-0.8,0-1.4c-0.6-2.9-1.2-5.9-1.4-8.8
		c-0.1-2.2-0.6-4.6-0.8-6.8c-0.1-1.1-0.1-2.2-0.6-3.3c-0.3-0.4,0-0.7,0.6-0.7c1.1,0,2.2-0.1,3.3-0.3c0.6,0,1.1,0,1.7-0.3
		c1.1-0.4,2.2-0.7,3.3-0.6c1.2,0.1,2.5,0,3.6-0.4c0.8-0.3,1.7-0.4,2.5-0.6c1-0.1,1.7,0.4,2.1,1.2c0.3,0.4,0.4,1,0.6,1.5
		c0.1,0.6,0.1,1.1,0.4,1.5c0.6,0.8,0.7,1.8,0.6,2.8c-0.1,1,0.7,1.8,0.7,2.8c0,0.3,0.7-0.1,0.7,0.3c0.1,0.3-0.4,0.3-0.4,0.7
		c0.1,0.3,0,0.6,0.3,0.7c0.3,0.3,0.1,0.4,0.1,0.7c0,0.7-0.4,1.2-0.1,2.1c0.3,0.7,0,1.5,0,2.3c0,0.4,0,0.7,0.3,1
		c0.4,0.6,0.4,1.2,0.6,1.8c0.3,0.8,0,1.9,0.7,2.6c-0.3,0.6,0.8,1.1-0.1,1.7c0,0,0,0.1,0,0.3c0.3,1.1,0.3,2.2,0.7,3.3
		c0.4,0.8,0.8,1.7,0.6,2.6c0,0.3,0,0.7,0.6,0.8c0.1,0.1,0.6,0.1,0.3,0.3c-1,0.7-0.1,1.1,0.1,1.7c0.3,0.6,0.7,1,0.1,1.5
		c-0.6,0.4-0.4,0.8,0,1.2c0.3,0.3,0.3,0.6,0.3,0.8c0,0.7-0.3,1.7,0.6,2.2c0.1,0.1,0.1,0.6,0,0.7c-0.1,0.4,0.1,0.7,0.1,1
		c0,0,1.4-0.3,1.2-1c0-0.4-0.1-0.7-0.3-1c-0.1-0.1-0.3-0.3-0.1-0.6c0.4-0.8,0.1-1.5-0.6-2.1c-0.3-0.3-0.4-1.1-0.3-1.1
		c1.1-0.3,0.1-0.7,0.1-1.1c0-1-0.3-1.9-0.3-2.9c0-0.7-0.7-1-0.4-1.8c0.4-1,0.1-1.1-1.1-1.4c-0.3-0.1-0.6-0.6-0.4-0.8
		c0.1-0.6,0.4-0.1,0.6,0c0.7,0.3,1.2-0.1,1.9,0c1.1-1.2,2.9-0.4,4.1-1.4h0.1c0.4,0.6,0.8,0.3,1.2,0c1.4-0.8,3-0.7,4.6-1.2
		c0.6-0.1,1.5,0.1,2.2,0.1c0.6,0,1.1,0.1,1.4,0.7c0.3,0.7,0,1.4,0.6,1.9c0,0,0,0.3,0,0.4c0.1,0.7-0.1,1.5,0.6,2.1
		c-0.4,0.8,0.1,1.5,0.3,2.3c0,0.4,0.1,0.7,0.1,1.1c-0.1,1.4,0.3,2.8,0.3,4.1l1.4-1.1c0-0.7-0.3-1.2-0.3-1.9c0-1.8-0.6-3.4-0.4-5.2
		c0-0.3,0-0.7-0.1-1c-0.6-0.8,0-1.8-0.1-2.6c0,0,0.1-0.1,0.1-0.3c0.4,0.1,0.8-0.3,0.8-0.3c0.6,0.3,1,0.4,1.7,0.3
		c0,0,0.1,0.3,0.1,0.4c-0.1,0.6,0.4,0.6,0.7,0.7l0.3-0.1c0-0.4,0-0.7,0.4-0.4c0.4,0.3,0.8,0.6,1.2,0.8c0.6,0.6,0.6,1.2,0.8,1.8
		c-1,0.6-0.3,1.2,0,1.8c0.1,0.4,0,0.7-0.1,1c-0.1,0.6-0.4,1.1-0.3,1.7c0.3,1.2,0.7,2.5,0.3,3.7l1.7-1.5c-0.1-0.8-0.1-1.8-0.4-2.6
		c0-0.1,0-0.3,0-0.4c0.4-1.2,0.1-2.6,0.1-3.9c0-1,0.1-1.7,1.1-1.9c0.6-0.1,1-0.6,1-1.2c-0.1-1.2,0.1-2.6,0.8-3.7
		c0.1-0.3,0.1-0.7,0.1-1c0-0.8,0.4-1.7,1.1-2.2c0.6-0.4,1-1.1,1.7-1.4C134.2,74.2,134,73.7,133.5,73.5z M80.8,56.6
		c-0.6-0.1-0.3-0.6-0.4-1c0.6-1-0.1-1.7-0.8-2.2c-1.4-1.1-2.5-2.3-3.4-3.9c-0.3-0.4-0.6-1,0.3-1.2c0.3-0.1,0.4-0.4,0.7-0.7
		c0.6-0.6,1.2-0.6,1.8-0.3c0.7,0.3,1.2,0.6,1.8,1.2c0.3,0.6,1,0.6,1.4,1.1c1.4,1.5,1.7,2.5,0.8,4.3c-0.3,0.8-0.6,1.5-1.1,2.2
		C81.5,56.5,81.2,56.8,80.8,56.6z M88.8,55.1c0,0.3,0,0.4,0,0.4c0,1.7,0,1.7-1.7,1.8c-1.2,0.1-2.6,0-3.9,0.7c-0.4,0.1-0.6,0-0.7-0.3
		c-0.1-0.3-0.4-0.4-0.1-0.8c1.1-1.4,1.7-2.9,2.2-4.6c0.1-0.3,0.3-0.7,0.1-1c-0.1-0.1-0.3-0.4-0.1-0.6c0.3-0.1,0.4,0.1,0.6,0.3
		c0.3,0.3,0.7,0.3,1,0.1c0.4-0.1,0.8-0.1,1.2-0.1c1,0,1,0,1.1,1.1C88.6,53.2,88.9,54.3,88.8,55.1z M120.9,81.9c-0.3,0-0.6,0-0.6-0.3
		c-0.1-0.3-0.1-0.6,0.1-0.8c0-0.1,0.3,0,0.3,0c0.1,0.3,0.1,0.6,0.3,0.8C121.1,81.7,120.9,81.9,120.9,81.9z M129.7,74.3
		c0,0,0,0.3-0.1,0.3c-0.1,0.1-0.3,0.1-0.4,0.1c-0.1,0-0.3-0.1-0.3-0.3c-0.1-0.6,0.4-1,0.4-1.5c0-0.1,0.1-0.3,0.3-0.3
		c0.1,0.1,0.1,0.3,0,0.4C129.3,73.5,129.9,73.7,129.7,74.3z M130,70c-0.4,0.3-0.3,1.1-1,1c-0.1,0-0.3-0.1-0.4-0.1
		c-0.4,0-1,0.3-1-0.4c0-0.6,0.4-0.7,1-0.7h0.1c0.1,0,0.3,0.1,0.4,0.1c0.3-0.1,0.6-0.6,0.8-0.1V70z M131.4,67.1
		c-0.1,0.1-0.1,0.1-0.3,0c0-0.1-0.1-0.1-0.1-0.3c0.1,0,0.1-0.1,0.3-0.1C131.4,66.8,131.5,67,131.4,67.1z"/>
	<path class="st1" d="M116.1,94.3c-0.1-0.8-0.4-1.7-0.7-2.3c-0.7-1.8-2.1-2.8-3.9-2.8c-0.7,0-1.1,0.1-1.5,0.6
		c-0.8,0.7-1.4,1.8-1.9,2.8c-0.4,0.7-1,1.2-0.1,1.9c0.3,0.3,0.1,0.7,0.1,1c0,0.8-0.1,1.5-0.7,2.2c-0.6,0.7-0.4,1.1,0.6,1.1
		c0.8-0.1,1.2,0.3,1.4,1.1l1.2-0.5l-0.2-0.9c0.7-0.1,1.2-1,2.1-0.7c0.3,0,0.6,0,0.8-0.1c0.4,0,0.6-0.3,0.6-0.7
		c0-0.6-0.4-0.6-0.7-0.6c-0.7,0-1.4,0.1-2.1-0.1c-0.1-0.1-0.1-0.3-0.3-0.4c0,0,0.1,0,0.3-0.1c0.4-0.6,1.4-0.6,1.8-1.2h0.1
		c0.4,0,2.3,1,2.1,2.7l1.3-0.2c0,0,0-0.1,0-0.4C116.5,95.7,116,94.7,116.1,94.3z M110.4,90.8c0.1-0.3,0.6-0.4,0.8-0.3
		c0.1,0,0.3,0,0.3,0.3c-0.1,0.4-0.4,0.3-0.8,0.3C110.6,91.1,110.3,91.1,110.4,90.8z M113.3,94.2c-1.1,0.3-2.2,0.6-3.2,0.8
		c-0.4,0.1-0.7,0-1-0.3c-0.3-0.4,0.1-0.6,0.3-0.8c0.3-0.6,1-0.8,0.8-1.5c-0.1-0.4-0.1-0.6,0.3-0.4c0.6,0.3,1,0.3,1.5-0.3
		c0.4-0.4,1.5,0.3,1.7,1.1c0,0.1,0,0.3,0,0.3C114,93.7,113.7,93.9,113.3,94.2z"/>
	<path class="st1" d="M86.2,66.1c0.1-0.4-0.1-0.6-0.6-0.6c-0.4,0-0.8,0.1-0.8,0.4c0,0.4,0.3,0.6,0.7,0.6
		C85.7,66.6,86.2,66.6,86.2,66.1z"/>
	<path class="st1" d="M85.5,70.7c-0.4,0-0.6,0.1-0.6,0.6c0,0.3,0.3,0.6,0.6,0.7c0.3,0,0.4-0.3,0.4-0.6
		C85.9,71.1,85.9,70.7,85.5,70.7z"/>
	<path class="st1" d="M85.2,72.6c-0.4,0.3-0.3,0.7-0.3,1c0,0.1,0.1,0.3,0.3,0.1c0.3-0.1,0.4-0.4,0.3-0.8
		C85.5,72.8,85.3,72.5,85.2,72.6z"/>
	<path class="st1" d="M107.4,63.4h0.1h0.1c0.3-0.1,0.4-0.3,0.3-0.4c-0.3-0.3-0.6-0.3-0.8,0C107,63.1,107.1,63.3,107.4,63.4z"/>
	<path class="st1" d="M132.9,70c0,0.1,0.1,0.1,0.1,0.1c0.1,0,0.1-0.1,0.3-0.3c-0.1-0.1-0.3-0.1-0.3-0.1
		C132.9,69.7,132.8,69.9,132.9,70z"/>
	<path class="st1" d="M125.2,64.9c-0.3,0.1-0.3,0.4-0.3,0.7C125.2,65.6,125.2,65.3,125.2,64.9z"/>
	<path class="st1" d="M124.5,70l0.1,0.1c0-0.1,0.1-0.1,0.1-0.3C124.6,69.9,124.6,70,124.5,70z"/>
	<path class="st1" d="M123.8,70l-0.1,0.1c0,0.3,0.1,0.4,0.3,0.4C123.8,70.4,124,70.3,123.8,70z"/>
	<path class="st1" d="M70.7,85.2c0.1,0,0.4,0,0.6-0.1l-0.1-0.1C70.8,84.9,70.7,85,70.7,85.2z"/>
	<path class="st1" d="M96.2,93c-0.5-0.6-0.6-1.3-0.6-2.2c0-1.1-0.1-2.2-0.7-3.1c-0.3-0.4-0.2-0.7,0-1.1c0.2-0.4,0.6-1.2-0.3-1.6
		c-0.4-0.2-0.8-0.9-0.7-1.5c0.1-0.7-0.6-1.3-0.5-2.2c0-1-0.4-1.6-0.8-2.3c-0.2-0.8-0.6-1.3-0.4-2.2c0.1-0.3,0.1-0.6-0.1-0.7
		c-0.7-1.2-0.2-2.3-0.1-3.5c0.1-0.6,0.2-1.1-0.3-1.5c-0.5-0.4-0.4-0.9-0.4-1.3c-0.1-1.9-1-2.7-2.8-2.8c-1.1,0-2.1-0.3-3.2-0.2
		c-0.3,0-0.7,0.1-0.6,0.5c0,0.4,0.3,0.5,0.5,0.6c1,0.7,2.1,0.3,3.2,0.2c0.4,0,0.8-0.4,1,0.2c0.2,0.3,0.7,0.5,0.5,0.9
		c-0.2,0.6,0.2,0.8,0.3,1.2s0.2,0.5,0.2,0.9c-0.1,1.3-2,3.1-3.3,3.1c-0.1,0-0.2-0.1-0.3-0.2c0-0.3-0.2-0.4-0.5-0.4
		c-0.3,0-0.4,0.3-0.4,0.6c-0.1,0.4-0.2,1-0.1,1.4c0.2,0.5-0.3,1.3,0.3,1.8c0.5,0.4,0.5,0.9,0.6,1.5c0,0.4,0.4,0.9,0.1,1.2
		c-0.4,0.5,0.5,0.6,0.1,1.1c-0.2,0.3,0.1,0.8,0.1,1.2c0.1,0.5,0.1,1,0.2,1.5c0,0.4,0.1,0.8,0.2,0.9c0.9,0.5,0.7,1.3,0.8,2
		c0.1,1-0.1,2.1,0.7,3c0.2,0.1-0.1,0.3-0.2,0.4c-0.1,0.2-0.2,0.4-0.1,0.6c0.7,1,0.2,2.1,0.6,3.1c0,0.1-0.1,0.4,0.1,0.5
		c0.8,0.6,0.4,1.5,0.5,2.3c0,0.3-0.2,0.6-0.1,0.8c0.8,1,1.1,2.4,1.6,3.6c0.2,0.5,0.5,0.8,1,0.6c1.1-0.3,2.3-0.4,3.2-1.3
		c-0.7,0.1-1.2,0.1-2.3,0.5c-0.7,0.1-1.1-0.3-1.5-0.8C91,99.3,91,99.2,90.8,97c0,0,0-0.1,0-0.3c0-0.3-0.6-0.6-0.2-0.8
		c0.3-0.2,0.7-0.3,0.9-0.2c0.4,0.2,0.7-0.1,1.1-0.3c1-0.7,1.6-0.6,2,0.6c0.2,0.7,0.5,1.2,0.6,1.7c-0.1,0.7,0.4,1.1,1,1.3
		c0.6,0.2,0.7,0.2,0.8-0.5c0.1-1.7-0.6-3.4-0.5-5.2C96.3,93.2,96.3,93.1,96.2,93z M89.5,74.1c0.1,0,0.3,0.1,0.3,0.2
		c0,0.1-0.1,0.3-0.1,0.2c-0.1,0-0.3-0.1-0.3-0.2C89.4,74.3,89.4,74.1,89.5,74.1z M87.9,79.8c0-0.1,0-0.4-0.2-0.5
		c-1.1-0.9-0.4-2-0.6-3.1c0-0.3,0.4-0.6,0.8-0.6c0.3,0,0.7-0.1,1-0.1s0.5-0.1,0.8-0.4c0.4,0,0.7,0.1,0.8,0.6c0.1,0.8-0.1,1.5,0.6,2
		c0.2,0.1,0.2,0.1,0,0.3c-0.8,0.5-0.3,1,0,1.4c0.3,0.5,0.2,0.8-0.3,1c-0.5,0.2-1.2,0.3-1.8,0.3C88,80.9,88,80.8,87.9,79.8z
		 M89.3,86.5c-0.6-0.4-0.3-1.1-0.4-1.6c0-0.3-0.2-0.5-0.2-0.8c-0.4-1.1,0.3-2,1.4-2.1c0.6,0.2,1.4-0.3,1.6,0.7
		c0.2,0.5,0.9,0.9,0.6,1.6c-0.1,0-0.1,0.2-0.1,0.3c0,0.3,0.5,0.6,0.1,1c-0.2,0.3-0.6,0.5-1,0.7c0,0-0.1,0-0.3,0
		C90.3,86,89.9,86.8,89.3,86.5z M89.8,90.5c0-0.3-0.1-0.5-0.1-0.8c-0.1-1.2,0-1.4,1.1-1.8c0.5-0.2,1.3,0.1,1.6-0.6
		c0.4,0.2,0.9,0.5,1.4,0.4l0,0.1c-0.1,0.4-0.3,0.9-0.6,1.3c-0.1,0.3-0.4,0.5-0.6,0.6c-0.7,0.3-1.5,0.4-2.1,1.1
		C90.4,90.9,89.9,90.9,89.8,90.5z M93.4,93.3c-0.3,0-0.5,0.1-0.8,0.1c-0.5,0.2-1.1,0-1.9-0.1c-0.4-0.1-0.3-0.5-0.4-0.9
		c0.1-0.3,0.4-0.5,0.7-0.3c0.7,0.3,1.2,0,1.6-0.6c0.5-0.7,0.6-0.8,1-0.1c0.2,0.1,0.3,0.4,0.5,0.6C94.3,92.6,94.1,93.2,93.4,93.3z"/>
</g>
</svg>
