<?xml version="1.0" encoding="utf-8"?>
<!-- Generator: Adobe Illustrator 24.1.0, SVG Export Plug-In . SVG Version: 6.00 Build 0)  -->
<svg version="1.1" id="Calque_1" xmlns="http://www.w3.org/2000/svg" xmlns:xlink="http://www.w3.org/1999/xlink" x="0px" y="0px"
	 viewBox="0 0 181 169" style="enable-background:new 0 0 181 169;" xml:space="preserve">
<style type="text/css">
	.st0{fill:#878686;}
	.st1{fill:#F2783A;}
</style>
<path class="st0" d="M121,148c0.1,0.2,0.2,0.3,0.3,0.5c0.6,0.8,0.6,1-0.1,1.5c-0.5,0.3-0.9,0.7-1.2,1.2c-0.1,0.2-0.3,0.3-0.5,0.5
	c-1.7,1-3.1,2.4-4.5,3.5c-1,0.7-1.8,1.5-2.7,2.4c-0.8,0.8-1.8,1.4-2.5,2.3c-0.3,0.5-0.8,0.8-1.1,1.4c-0.2,0.5-0.8,0.7-1.2,0.9
	c-0.3-0.1-0.5-0.3-0.7-0.6c0-0.1,0-0.2,0-0.2c0.6-1.9,1.9-3.1,3.4-4.2c1.2-0.9,2.5-1.8,3.6-2.8c1-0.8,2-1.7,2.9-2.5
	c0.6-0.5,1.2-0.7,1.8-1.1c0.8-0.7,1.6-1.4,2-2.3c-1.5,1-3.2,1.7-4.4,3.1c-0.3,0.5-1,0.7-1.5,0.9c-1.6,0.8-2.8,2-4.4,2.7
	c-0.1,0-0.2,0.1-0.3,0.2c-1.2,1.1-2.6,1.9-4,2.9c-0.7,0.6-1.5,1-1.5,2.1c0,0.1-0.1,0.3-0.2,0.5c-0.2,0.3-0.6,0.5-0.9,0.2
	c-0.3-0.2-0.5-0.5-0.2-0.8c0.6-1,0.9-2.1,1.9-2.8c0.8-0.5,1.1-1.4,2-1.8c1.1-0.5,1.9-1.2,2.9-1.9c1-0.7,2-1.2,3.1-2
	c0.8-0.6,1.7-1,2.5-1.6c0.9-0.7,1.8-1.5,2.9-1.8c1.4-0.5,2.4-1.4,3.5-2c0.1-0.1,0.3-0.1,0.5,0c0.2,0.2,0.1,0.5,0,0.6
	C121.9,147.3,121.5,147.7,121,148z"/>
<path class="st0" d="M119.9,139.3c0.5,0,0.8,0.2,1,0.5c0,0.1,0,0.3,0,0.5c-0.5,0.6-0.9,1-1.6,1.4c-0.9,0.3-1.7,0.9-2.4,1.5
	s-1.5,1.1-2.3,1.7c-1.6,1.2-3.4,2.3-5.1,3.3c-1.2,0.7-2.4,1.5-3.5,2.3c-0.5,0.3-0.8,0.8-0.9,1.4c-0.5,0.1-0.9,0.1-1.2-0.5
	c0.6-1.5,1.6-2.7,3.2-3.4c0.6-0.2,1.1-0.6,1.6-1c0.8-0.8,1.8-1.2,2.8-1.7c1-0.5,1.9-1.2,2.8-1.8c1-0.8,1.9-1.8,3.1-2.4
	C118.3,140.4,119.1,139.9,119.9,139.3z"/>
<path class="st0" d="M103.1,157c-0.1-0.6,0.1-1,0.6-1.4c1.1-0.9,2.1-1.9,3.3-2.7c0.9-0.6,1.6-1.6,2.7-1.8c0.9-1.2,2.4-1.8,3.5-2.6
	c1.2-0.8,2.5-1.7,4-2.4c0.9-0.3,1.4-1.1,2.1-1.6c0.1-0.1,0.2-0.2,0.5-0.3c0.9-0.7,1.2-0.6,1.7,0.6c-0.3,0.6-1.1,0.6-1.6,0.9
	c-2,1.4-4,2.7-6,4.1c-1.2,0.8-2.5,1.7-3.7,2.5c-0.2,0.1-0.3,0.2-0.6,0.5c-1.2,1.4-3.1,2.1-4.4,3.4C104.5,156.6,103.9,157,103.1,157z
	"/>
<path class="st0" d="M124.1,131.7c0.9,0.1,1.5,0.6,1.5,1.2c0.1,1.2,0.3,2.4,0.3,3.6c0,1.2,0.2,2.4,0.5,3.6c0.1,0.8,0.2,1.5,0.3,2.3
	c0.1,1,0.5,1.9,0.3,2.9c-0.1,0.5,0.1,1,0.5,1.4c0.6,0.6,0.3,1,0.3,1.6c-0.8,0.2-1-0.2-1.2-0.7c-0.3-0.7-0.5-1.4-0.6-2
	c0-0.6-0.2-1-0.2-1.6c-0.2-2-0.9-4.1-0.8-6.1c0-0.5-0.2-0.9-0.2-1.4c-0.2-1.1-0.3-2.3-0.2-3.4C124.2,132.8,124.2,132.3,124.1,131.7z
	"/>
<path class="st0" d="M91.3,150.8c0.9-1.5,1.8-3.1,3.4-4.1c0.3-0.2,0.7-0.6,1-0.9c0.9-0.9,1.8-1.7,2.9-2.4c0.5-0.3,1-0.6,1.2-1.1
	c0.1-0.2,0.5-0.3,0.7-0.2c0.2,0.2,0.2,0.6,0,0.7c-1.1,1.1-1.9,2.7-3.4,3.5c-0.3,0.8-1.1,1.1-1.6,1.7c-0.7,0.8-1.4,1.5-2.3,2
	c0,0.1,0,0.3,0,0.6c0,0.1-0.1,0.3-0.2,0.5C92,151.2,92,151.2,91.3,150.8z"/>
<path class="st0" d="M124.4,150.9c0.3,0.6,0,1,0.3,1.4c-0.8,0.8-1.7,1.1-2.4,2c-0.3,0.5-0.9,1-1.7,1c-0.3,0-0.8,0.3-1,0.6
	c-0.7,0.9-1.7,1.1-2.4,1.9c-0.1-0.1-0.2-0.2-0.5-0.3c0,0.6-0.2,0.9-0.7,1.2c-0.7,0.3-1.2,1-1.6,1.6c-0.6,0-0.5-0.3-0.5-0.6
	c0-0.7,0.3-1.2,0.8-1.6c2-1.6,4-3.4,6.3-4.6c0.7-0.3,1.4-0.8,1.8-1.5C123.4,151.4,124,151.3,124.4,150.9z"/>
<path class="st0" d="M42.1,119.8c0.9-0.2,2.1-0.3,3.3-0.9c0.3-0.2,0.8,0.1,1,0.3c0.1,1.4,0.1,1.4-1,1.8c-0.1,0.1-0.3,0.1-0.5,0.2
	c-1,1.1-2.3,0.6-3.4,0.6c-0.2,0-0.3-0.2-0.6-0.3c-0.6-0.5-0.9-1.1-1.4-1.8c0.3-0.7,0.1-1.5,0.8-2C41.6,118.2,40.6,119.7,42.1,119.8z
	"/>
<path class="st0" d="M128,131.5c0.8,0.1,1.2,0.6,1.4,1.1c0.2,0.6,0.5,1.2,0.5,1.8c0,1.1,0.3,2.1,0.6,3.2c0.3,1.7,0.6,3.3,0.8,5
	c0,0.1-0.1,0.1-0.1,0.2c-0.3,0.2-0.7,0.1-0.9-0.2c-0.3-0.7-0.5-1.4-0.6-2c-0.5-2.6-0.8-5.3-1.5-7.8C128,132.4,128,131.9,128,131.5z"
	/>
<path class="st0" d="M130.4,132.3c0.1-0.5,0.5-0.7,0.8-0.8c0.2,0,0.3,0.1,0.3,0.2c0.3,1.2,1,2.4,1.5,3.7c0.5,1.2,1.1,2.5,1.8,3.7
	c0.3,0.7,0.5,1.5,0.5,2.4c-0.7-0.2-1.1-0.7-1.4-1.2c-0.8-1.8-1.7-3.6-2.5-5.4C131.1,133.9,131,133,130.4,132.3z"/>
<path class="st0" d="M125.7,153.2c0.2,0.3,0.2,0.9,0,1c-0.8,0.6-0.7,1.7-1.6,2c-0.2,0.1-0.5,0.5-0.7,0.7c-0.6,1-1.5,1.7-2.4,2.3
	c-0.8,0.5-1.4,1.2-2.1,1.8c-0.3,0.2-0.6,0.6-0.9,0.8c0.1-0.8,0.3-1.6,1-2.1c1-1,1.8-2.3,3.2-2.8c0.2-0.1,0.3-0.3,0.5-0.6
	s0.2-0.6,0.5-0.7c0.9-0.7,1.5-1.5,2.1-2.4C125.3,153.2,125.4,153.1,125.7,153.2z"/>
<path class="st0" d="M65.3,97.5c-0.3-1.1-0.1-2.3-0.1-3.5c0-0.9,0-1.9,0.6-2.7c-0.5-0.3-0.7-0.7-0.5-1.2c0.2-0.5,0.2-1,0.2-1.5
	c0-1.2,0.1-2.6,0-3.8c-0.1-1.5,0-2.8-0.2-4.3c-0.2-1.5-0.5-2.8-1.1-4.2c-1.2-0.3-2.5,0.1-3.6,0.3c-0.7,0.1-0.9,0.5-1,1.1
	c-0.1,1.1-0.2,2.3-0.2,3.4c0,0.6,0.1,1.2,0,1.8c-0.3,1.9-0.2,3.7,0,5.7c0.1,0.8,0.2,1.5,0,2.4c-0.1,0.8-0.1,1.6,0,2.4
	c0.3,1.7,0.3,3.3,0,5c-0.1,0.3-0.1,0.8,0,1.2c0.3,1,0.2,1.9,0,2.9c-0.1,0.2-0.1,0.6-0.1,0.8c0.5,1.6,0.1,3.3,0.2,4.9
	c0,0.3,0,0.7-0.1,0.9c-0.2,0.6-0.2,1,0,1.6c0.1,0.3,0,0.7,0.1,1c0.1,1-0.3,2-0.3,3.1c0,1.1,0.1,2.4-0.1,3.5c-0.3,2-0.1,4-0.3,6
	c-0.1,1.1-0.6,2.5-0.1,3.7c0.1,0.1,0,0.3,0,0.6c-0.3,0.8-0.2,1.7-0.2,2.5c0.5,0.3,0.8,0.6,1.4,0.3c0.6-0.3,0.7-0.8,0.8-1.4
	c0-0.1,0-0.3,0-0.5c-0.3-0.8-0.1-1.5,0.2-2.1c0.2-0.6,0.1-1.1-0.3-1.6c0.8-0.6,0.2-1.5,0.6-2c1.4-0.1,1.8,0.1,1.8,1.5
	c0,1.8,0,3.7,0,5.5c0,0.1,0.1,0.2,0.1,0.3c0.3,0.1,0.7,0.2,1.1,0c0.5-1,0.6-2.3,0.6-3.4c0-1,0.1-2.1,0-3.2c0-0.7,0.1-1.2,0.6-1.7
	c-0.9-0.8-0.5-1.9-0.6-2.8c-0.1-1-0.1-2.3,0.6-3.2c-0.2-0.6-0.5-0.9-0.5-1.4c-0.1-1.5,0-2.8,0-4.3c0-0.6,0.5-0.9,0.6-1.4
	c0.1-0.6-0.6-0.9-0.6-1.5c0.1-1.5-0.3-3.1,0.8-4.4c-0.2-0.5-0.5-0.8-0.5-1.2c0-1,0-2.1,0.2-3.2C65.2,98.6,65.5,97.9,65.3,97.5z
	 M62.9,121.9c-0.7,0.5-1.1,0.2-1.7-0.1c-0.1-1.1-0.1-2.4,0-3.6c0.1-1,0.5-1.2,1.4-0.9c0.1,0.1,0.3,0.2,0.6,0.3
	C62.8,118.9,62.5,120.4,62.9,121.9z M62.9,115c0,0.3-0.2,0.7-0.7,0.7c-0.5,0-0.8-0.2-0.8-0.8c0-0.9,0-1.7,0-2.6
	c0-0.6,0.1-1.1-0.2-1.6c0.6-0.7,1-0.3,1.4-0.2C63.6,112.2,62.9,113.6,62.9,115z M63,107.6c0,0.8-0.2,0.9-1.2,0.8
	c-0.1-0.7,0-1.6-0.2-2.1c-0.3-0.8,0.6-1.4,0-2c1-0.3,1-0.3,1.8,0.5C62.9,105.7,63,106.7,63,107.6z M63,102.7
	c-0.7,0.2-1.1-0.2-1.6-0.6c-0.2-0.9-0.1-1.8-0.1-2.7c0-0.7,0.6-1.1,1.1-1.1c0.5,0,0.6,0.2,0.7,0.8C63.4,100.3,63,101.4,63,102.7z
	 M61.7,96c0-1.2-0.6-2.5-0.2-3.8c0.7-0.1,1.4-0.1,2,0.3c-0.1,1.4-0.6,2.7,0,4C62.6,97.1,61.7,96.9,61.7,96z M63.5,90.6
	c-0.8,0.5-1.4-0.2-2.1-0.1c0-1.2-0.7-2.5-0.1-3.7c2.3-0.1,2.3-0.1,2.3,1.9C63.5,89.3,63.5,90,63.5,90.6z M63.5,85.1
	c-0.9,0.5-1.5-0.2-2.4-0.1c0.1-1.8-0.1-3.4,0.2-5.1c0.2-0.8,0.1-1.7,0.1-2.6c0.9-0.1,1.1,0,1.5,0.5c0.1,0.2,0.2,0.6,0.3,0.9
	C63.5,80.9,63.7,83,63.5,85.1z"/>
<path class="st0" d="M121.4,73.7c0.1-1,0.7-2,0.3-3.2c-2.3-0.5-4.6-0.5-6.9-1.1c0.7-1.1,0.6-2.3,0.6-3.4c-0.1-0.8,0-1.5,0-2.3
	c0-2.3,0.5-4.5,0.3-6.7c0-0.5,0-1,0-1.5c0-0.9,0-1.7-0.2-2.5c-0.2-1-0.2-2.1,0-3.3c0.1-0.6-0.1-1-0.1-1.6s0.7-0.9,0.6-1.5
	c0-0.2,0-0.3,0-0.6c-0.1-0.7,0.3-1.6-0.6-2c-0.2-0.1,0.2-0.7-0.1-0.8c-0.7-0.2-1.1-0.9-1.8-1c-0.9-0.1-1.6-0.7-2.4-1
	c0-1.8,0.1-3.5,0-5.2c-0.1-0.9,0.1-1.6,0.7-2.3c0.6-0.6,1-1.2,1.6-1.8c0.3-0.2,0.8-0.8,0.2-1.2c-1,0.1-1.4,1.2-2.3,1.5
	c-0.3-0.8-0.2-1.6,0.2-2c0.6-0.6,0.7-1.2,1.1-1.8c0.5-0.6,0.2-1-0.2-1.5c-0.7,0.1-0.7,1-1.5,1c-0.3-0.8-1.4-1.2-1.1-2.3
	c-1.8-0.8-3.8-0.8-5.7-1.6c-0.1-0.7,0.9-1.5,0.1-2.1c-0.1,0-0.2,0.1-0.3,0.1c-0.5,0.2-0.7,0.8-1,1c-0.9,0.8-0.9,0.8-2,0.1
	c-0.2-0.6,0.1-0.9,0.3-1.4c0.2-0.6,0.1-0.8-0.5-1c-0.1,0.1-0.2,0.1-0.2,0.2c-1.8,2.3-1.8,2-4,0.6c-0.3-0.2-0.6-0.5-0.9-0.5
	c-1.6,0.1-3.2-0.5-4.7-0.2c-0.5,0-0.8,0-1.2,0c-1.7-0.3-3.5-0.5-5.3-0.6c-1.5,0-3.1,0.2-4.5-0.2c-0.2-0.1-0.5,0-0.7,0.1
	c-0.6,0.2-1,0.2-1.6,0.1c-1.7-0.1-3.5-0.1-5.2,0.5c-0.1,0.1-0.3,0.1-0.6,0c-0.9-0.3-1.8,0-2.8,0c0.2,0.6,0.9,0.1,1,0.6
	c-0.1,0.3-0.7-0.1-0.6,0.5c0.1,0.1,0.3,0.1,0.5,0.2c0,0.3-0.6,0.6-0.5,0.8c0.2,0.9-0.3,1.6-0.1,2.5c0.1,0.8,0.3,1.6,0.2,2.4
	c-0.1,0.9-0.2,1.7-0.2,2.6c0,0.9,0,1.8-0.1,2.6c0,0.5,0.1,0.9-0.1,1.2c-0.3,0.7,0,1.2,0.1,1.8c0.1,0.3,0.3,0.7,0.5,0.9
	c-0.8,1-2,1.1-2.9,0.9c-0.8-0.2-1.7-0.2-2.5-0.6c-0.5-0.2-0.9,0.1-1.2,0.5c0,0.3-0.1,0.7-0.1,1c-1.2,1-1.2,1-1.4,2.5
	c-0.1,1.1,0,2.3,0,3.3c0,0.6,0,1-0.2,1.6c-0.1,0.3-0.1,0.8-0.1,1.2c0.1,1.4,0.2,2.7-0.1,4.1c0,0.1-0.1,0.2,0,0.3
	c0.5,1.2,0.3,2.5,0.2,3.8c-0.1,1.4,0,2.7,0,4.2c0,0.7,0.1,1.5-0.5,2c-0.2,0.2-0.1,0.6,0,0.8c0.1,0.3,0.2,0.7,0.2,1
	c0.2,1.5-0.3,2-1.5,2.1c-1.4,0-2.7,0.2-4.1-0.2c-0.6-0.1-1.1-0.1-1.7,0c-0.8,0.3-1.7,0.1-2.5,0.1c-0.2,0.2-0.7,0.3-0.8,0.7
	c0,0.1,0,0.2,0,0.3c0.1,0.8,0.1,0.8-0.7,0.8c-0.6,0.1-1.2,0.2-1.8,0c-0.5-0.1-0.9,0.1-1,0.8c1.4,0.2,2.5,1,3.8,1.5
	c-0.5,0.8-0.3,1.7-0.3,2.5c0,1,0.1,2.1-0.1,3.2c-0.1,0.8-0.3,1.5-0.2,2.3c0.2,1.7,0.2,3.4,0.2,5.1c0,0.3,0.1,0.6,0.2,0.8
	c0.3,0.7,0.6,1.2,0,1.9c-0.1,0.2,0,0.2,0.1,0.5c0.1,0.2,0.1,0.6-0.1,0.9c-1.7,0.6-3.6-0.8-5.3,0.1c-0.5-0.3-0.6-1-1.1-1
	c-0.6-0.1-1.1-0.2-1-0.8c0-0.5-0.2-1,0.1-1.6c0.7-1.4,0.5-2.8-0.1-4.2c-0.1-0.3-0.5-0.5-0.8-0.2c-0.2,0.6-0.5,1-0.3,1.7
	c0.2,1.2,0,2.4-0.3,3.5c-0.1,0.3-0.2,0.8-0.2,1.1c-0.3,1.4-0.1,2.8-0.6,4.1c-0.2,0.6-0.1,0.9,0,1.4c-0.9,1.5-1.7,3.1-2.4,4.5
	c-0.8,1.6-1.5,3.2-2.3,4.7c-0.3,0.7-0.8,0.9-1.5,0.9c-0.6,0-1.1-0.2-1.7-0.3c-0.3,0.2-0.7,0.5-0.7,0.9c0.6,0.7,1.5,0.6,2.3,0.7
	c-0.2,0.7-0.6,0.9-1.1,0.9c-0.3,0-0.7-0.1-0.9,0.1c-0.6,0.7-1.4,0.9-2.1,1.1c-0.1,0.7,0.2,0.9,0.8,0.9c0.5,0,0.9-0.2,1.1,0.1
	c0.5,0.5,0.9,0.3,1.4,0.5c0.3,0,0.7-0.1,1,0.3c-0.2,0.6-0.5,1.2-0.2,2c0.3,1,0.2,2.1,0,3.2c-0.3,1-0.5,2.1-0.2,3.2
	c0.3,1.6,0.3,3.2,0,4.7c-0.1,0.6,0,1.1,0.1,1.6c0.1,0.7,1.1,0.9,1.6,0.5c0.5-0.5,0.6-1.1,0.2-1.7c-0.1-0.2-0.2-0.3-0.1-0.6
	c0.2-0.5,0.1-0.9,0.1-1.4c0-3.4,0-6.7,0-10.1c0-0.5-0.1-0.9,0.2-1.2c0.9-0.1,1.7,0,2.5,0.2c1.4,0.5,2.8,0.6,4.3,0.6
	c0.6,0,1-0.3,1.6-0.2c1.5,0.1,2.6-0.7,4-0.9c0.2,0,0.5-0.3,0.5-0.7c0-0.6,0.2-1,0.7-1.4c0.6,0.5,0.3,1.1,0.3,1.7
	c0,0.6-0.2,1.2,0,1.7c0.3,0.7-0.3,1-0.1,1.7c0.1,0.3,0.6,0.2,0.6,0.6c-0.9,1.1-1,1.4-0.2,1.9c-0.2,0.7-0.6,1.4,0,2.1
	c-0.7,0.2-0.8,0.7-0.8,1.2c0,0.9,0,1.8,1,2.3c-0.2,0.2-0.6,0.3-0.3,0.7c0.1,0.1,0.1,0.3,0,0.5c-0.7,0.9-0.8,1.9-0.5,3.1
	c0.1,0.3,0.1,0.7,0,1c-0.2,1.6-0.2,3.2-0.2,4.7c-0.1,1.2,0.5,2.4-0.1,3.6c0,0.1-0.1,0.3,0,0.3c0.7,0.8,0.2,1.8,0.1,2.6
	c-0.1,1.2-0.2,2.4,0.5,3.5c0,0.1,0,0.1,0,0.2c-0.1,0.2-0.6,0.1-0.7,0.6c0.5,1.1-0.5,2.4-0.2,3.7c0.2,1.2,0,2.5-0.1,3.7
	c0,1.2,0.1,2.6-0.1,4c0.5,0,0.9-0.2,1.2-0.1c0.2,0.1,0.3,0.7,0.5,0.7c0.5-0.3,0.8-0.5,1-0.7c0-0.8,0-1.5,0-2.3
	c-0.1-0.7,0.5-1.4,0.2-2c-0.3-1.2,0.3-2.5-0.1-3.7c0.3-2.1,0.1-4.2,0.3-6.3c0.1-0.8,0.1-1.7-0.1-2.5c-0.2-0.8,0-1.6-0.2-2.4
	c0.5-1,0.3-2.1,0.5-3.3c0.1-0.9-0.2-1.9,0-2.8c0.3-1.6,0.3-3.2,0.3-4.7c0-0.3,0.3-0.7,0.2-1c-0.5-1.5,0-3.1-0.1-4.5
	c-0.1-1-0.5-2.1-0.1-3.2c0-0.1,0-0.2,0-0.2c-0.3-0.5-0.2-1-0.2-1.6s-0.1-1-0.5-1.5c0.6-0.2,0.7-0.6,0.8-1.1c0.1-2.9-0.3-6,0.2-8.9
	c0-0.1,0-0.2-0.1-0.3c-0.2-0.3-0.1-0.8-0.1-1.2c0-2.3,0-4.5,0-6.8c0-1.1,0.2-2.1,0.3-3.2c0.1-1.4,0.5-2.7,0.5-4.1c0-0.3,0-0.7,0.1-1
	c0.5-1.5,0.7-2.8,0.7-4.4c0-2.3,0-4.5,0-6.8c0.9-0.7,1.8-0.5,2.7-0.6c0.3,0,0.7,0.2,1-0.1c0.5-0.3,0.9-0.2,1.4-0.1
	c0.1,0,0.1,0,0.2-0.1c0.3-0.1,0-0.6,0.2-0.7c0.5-0.1,0.5,0.2,0.5,0.6c1.7-0.6,3.4-0.3,5.1-0.2c1,0.1,2.1,0.2,3.2,0.3
	c1.4,0.2,2.6,0.5,4,0.5c1.8,0,3.7,0,5.5,0c0.3,0,0.7,0.1,0.9,0c1.5-0.6,2.9,0,4.4,0.2c1,0.1,2,0.5,3.1,0.3c0.5,0,0.8-0.1,0.8-0.7
	c-0.3-0.7-1.1-0.6-2-0.8c0.7-0.2,1-0.5,1.4-0.6c1-0.5,2.1,0.3,2.1,1.5c0,1.1-0.1,2.1,0,3.3c0.3,2.1-1.1,3.4-2.1,5
	c-0.7-0.6-1.4-1-1.9-1.5c-0.8-0.8-1.8-1-2.8-1c-0.5,0.6-0.5,1-0.6,1.5c-0.1,1.2,0.1,2.6-0.3,3.8c-0.3,0.7-0.2,1.5-0.1,2.1
	c0.1,1.2,0,2.6-0.1,3.8c-0.2,1.5-0.3,2.8,0,4.3c0.1,0.6,0.1,1.1-0.1,1.7c-0.1,0.3-0.1,0.7-0.1,1c0,1.9,0.1,4-0.2,5.9
	c0,0.3,0,0.7,0.1,0.9c0.1,0.2,0.2,0.6,0.1,0.8c-0.6,2,0,4.1-0.5,6.1c-0.2,0.8,0.1,1.8-0.3,2.5c-0.6,0.9,0.3,1.8-0.1,2.6v0.1
	c0,1.5-0.9,2.8-0.5,4.3v0.1c-0.3,0.6-0.2,1.1-0.2,1.7c-0.1,1.2,0,2.5-0.3,3.7c-0.5,1.8,0.1,3.7-0.5,5.7c-0.1,0.3,0.3,0.8,0.2,1.1
	c-0.3,0.8,0,1.7-0.2,2.5c0,0.2-0.1,0.6,0.3,0.7c0.5-0.5,0.3-1.2,0.8-1.8c0.2-0.3,0.3-0.7,0.2-1.1c-0.1-1.2,0.5-1.6,1.7-1.7
	c0.7,0,1.2,0.3,1.9,0.1c0.3-0.1,0.7,0.3,0.6,0.7c-0.3,1-0.1,2-0.2,3.1c0,0.2,0,0.5-0.1,0.7c-0.3,0.8-0.1,1.5-0.1,2.3
	c0,0.7,0.5,0.9,1.1,0.8c0.6-0.1,0.8-0.3,0.7-1c-0.2-0.8-0.2-1.6-0.1-2.3c0.3-1.5,0.2-2.9,0-4.4c0.6-0.5,1.1-0.8,0.3-1.6
	c-0.2-0.2-0.1-0.7,0-1c0.1-0.6,0-1.1,0-1.7c0-1.4-0.5-2.7,0.7-4v-0.2c-0.6-0.9-0.6-2.1-0.2-3.2c0.1-0.3,0.2-0.6,0.2-0.9
	c-0.1-1,0.1-2-0.2-3.1c-0.2-0.8-0.2-1.7-0.1-2.5c0-0.6,0.6-0.7,0.6-1.1c-0.1-1.5,0.6-3.2-0.7-4.4c0.2-0.8,0.9-0.2,1.2-0.6
	c-0.1-0.3-0.6-0.5-0.5-0.8c0.5-1.2-0.1-2.6,0.7-3.7c0.1-0.2,0.1-0.6,0-0.8c-0.1-0.2-0.2-0.5-0.1-0.7c0.3-0.8,0.1-1.6-0.2-2.3
	c0.8-0.6,0.2-1.4,0.2-1.9c0.5-0.7,1.1-1,1.8-1.4c0.1,0.6,0.3,1,0.1,1.6c-0.2,0.6-0.1,1.4,0,1.9c0.2,0.9,0,1.6-0.5,2.3
	c-0.2,0.5-0.2,0.8-0.1,1.2c0.2,0.2,0.6,0.1,0.8,0.6c-0.1,1,0.2,2.1-0.2,3.3c-0.1,0.2-0.1,0.6,0,0.8c0.2,0.6,0.1,1,0,1.6
	c-0.2,0.7-0.2,1.4-0.3,2c0.2,0.3,0.6,0.3,0.7,0.8c-0.2,0.3-0.1,0.8-0.1,1.2c0,0.3,0,0.7-0.1,0.9c-0.5,0.9-0.7,1.9-1.2,2.7
	c-0.2,0.3-0.3,0.7-0.1,1c0.7,0.1,1-0.5,1.5-0.9c0.2,1.8,0.2,3.3-0.8,4.6c-0.2,0.3-0.5,0.7-0.7,1c-0.2,0.2-0.2,0.5-0.1,0.8
	c0,0.1,0.1,0.2,0.2,0.3c0.3,0,0.6-0.6,1-0.3c0.1,0.9,0,1.9,0,2.9c0,0.3-0.2,0.5-0.3,0.7c-0.5,0.5-0.8,1.1-1.1,1.7
	c-0.2,0.5-0.1,0.8,0.2,1c0.5-0.2,0.7-0.7,1.1-0.8c0.1,0.9,0.6,1.8-0.1,2.6c-0.3,0.6-0.6,1.2-1.1,1.7v0.2c0.2,0.1,0.5,0.2,0.7,0.3
	c0.3-0.1,0.2-0.6,0.7-0.6c0.1,0.3,0.2,0.7,0.5,1c-0.5,0.2-0.6,0.7-0.6,1.2c0,0.5,0,0.8,0,1.2c0.1,0.7-0.2,1.1-0.7,1.6
	c-0.5,0.5-0.9,0.8-1.4,1.1c-0.7,0.6-0.6,1,0.2,1.5c0.6-0.8,0.6-0.8,1.4-1.1c0.6,0.8,0.7,1.9,0.1,2.7c-0.3,0.6-0.8,1.2-1.4,1.7
	c-0.6,0.5-0.8,1.1-0.7,2c0.6-0.1,1-0.3,1.2-0.8c0.2-0.5,0.6-0.8,1-1c0.3,1.6-0.3,2.9-0.2,4.4c0,0.3-0.2,0.6-0.6,0.8
	c-1.2,0.7-1.6,2.1-2.4,3.2c-0.1,0.1,0,0.2,0,0.5c1-0.8,1.7-1.8,2.8-2.4c0.2,1.7,0.1,3.3-1,4.6c-0.6,0.7-0.8,1.4-1.2,2
	c-0.1,0.2-0.2,0.5,0,0.7c1,0.2,1.1-0.7,1.7-1.1c0.1,0.7-0.2,1.2,0.1,1.8c0.2,0.5,0,0.9-0.2,1.4c-0.9,1.1-1.6,2.4-2.5,3.5
	c-0.1,0.2-0.2,0.5,0.1,0.7c0.5,0.1,0.9-0.1,0.9-0.3c0.2-0.8,1-1.1,1.2-1.7c0.3-1,1.2-1.4,2.1-1.5c1.2-0.1,2.1-0.6,2.3-2
	c0.2,0,0.5,0,0.8,0c0-0.7,0.1-1.4,1-1.4c0.1,0,0.1-0.1,0.2-0.1c0.5-0.6,1-1,1.4-1.7c0.3-0.6,1.2-0.7,1.6-1.4
	c0.1-0.3,0.8-0.6,0.6-1.1c0-0.1,0.1-0.2,0.2-0.3c0.8-0.5,1-1.4,1.7-1.8c-0.3-0.6-0.9-0.5-1.4-0.3c-2.3,2.7-5,5.1-7.3,7.8
	c-0.3-0.5-0.9-0.5-1.2-0.8c0-0.5,0-0.9,0-1.4c0-0.7,0.1-1.1,0.6-1.6c0.8-0.8,1.4-1.9,2.1-2.7c0.2-1.4,1.7-1.6,2.4-2.6
	c0.1-0.1,0.2-0.2,0.2-0.3c0.6-0.7,0.9-1.6,1.6-2.1c0.8-0.7,1.5-1.6,2.3-2.3c0.6-0.6,0.9-1.1,0.8-1.9c-0.9-0.1-1.2,0.6-1.5,1
	c-0.3,0.6-0.8,1-1.4,1.2s-0.9,0.6-1.2,1c-0.7,0.7-1.2,1.5-1.9,2.1c-0.3,0.3-0.6,0.9-1.1,0.9c-0.2-0.3,0-0.5,0.1-0.7
	c0.2-0.6,0.8-0.8,1.1-1.2c0.3-0.5,0.3-1.2,1.1-1.4c0.3-0.9,1-1.7,1.6-2.4c0.2-0.3,0.7-0.6,0.8-1.1c0-0.3,0.3-0.6,0.6-0.7
	c0.8-0.5,1.4-1.1,1.9-1.9c0.5-0.7,0.8-1.6,1.7-1.7c0.1,0,0.1-0.1,0.2-0.2c0-0.2-0.1-0.5-0.1-0.7c0.8-0.1,0.8-0.1,1.1-0.7
	c0.2-0.3,0.5-0.6,0.8-0.9c0.8-0.8,1.6-1.5,2.3-2.4c0.9-1.1,1.8-2.3,2.9-3.3c0.9-0.9,2-1.6,2.6-2.8c0-0.1,0.2-0.1,0.3-0.2
	c0.6-0.3,1-0.7,0.7-1.4c-0.1-0.2,0.2-0.3,0.3-0.6c0.2-0.2,0.2-0.6,0-0.9c-0.3,0.6-0.6,1-1,1.4c-1.8,1.8-3.4,3.7-5.4,5.2
	c-0.3,0.2-0.8,0.6-0.8,1.1c0,0.2-0.1,0.3-0.3,0.6c-1.4,1.1-2.6,2.4-3.8,3.7c-1.1,1.2-1.9,2.7-3.4,3.6c-0.1,0-0.1,0.1-0.2,0.2
	c-0.6,0.7-1,1.5-1.6,2.1c-1.4,1.6-2.6,3.4-3.5,5.3c-0.3,0.7-0.5,1.2-0.5,2c0,0.2,0,0.5,0,0.7c-0.8,0.5-1.4,1.1-2.3,1.8
	c0.3-2.3-0.1-4.3,1.5-6c-0.2-0.2-0.8,0.2-0.9-0.5c0-0.2,0.2-0.6,0-0.9c-0.2-0.7-0.5-1.5,0.7-1.7c0.1,0,0.2-0.1,0.2-0.1
	c0.1-0.8,0.9-1.1,1.2-1.8c0.5-0.9,1.2-1.7,1.9-2.4c0.6-0.7,1-1.4,1.7-2c0.7-0.7,1.1-1.6,1.8-2.3c1.4-1.2,2.4-2.8,3.8-4
	c0.3-0.2,0-0.6,0.2-0.8c2.8-2.5,5.1-5.7,7.8-8.4c0-0.5-0.3-0.7-0.7-0.9c-0.3,0.3-0.5,0.8-0.9,1c-0.6,0.3-1.1,0.8-1.5,1.4
	c-0.9,1.2-2,2.3-3.2,3.3c-1.6,1.4-2.5,3.3-4,4.6c-1.2,1.1-2.4,2.5-3.4,3.7c-1.4,1.6-2.7,3.4-4.2,5c-0.2,0.2-0.5-0.1-0.8,0
	c-0.2,0.1-0.6,0.3-0.9,0.2c-0.5-0.7-0.2-1.5,0.1-2.1c0.3-0.8,0.9-1.2,1.5-1.8c0.9-0.8,1.8-1.5,2-2.7c0.1-0.5,0.5-0.8,0.8-1
	c0.8-0.7,1.5-1.6,2.1-2.5c0.3-0.5,0.6-0.8,0.9-1.1c1.5-1.6,2.9-3.2,4.3-4.9c1.1-1.4,2.5-2.6,3.6-4c0.6-0.7,1.2-1.1,1.6-2
	c0.1-0.2,0.2-0.5,0.6-0.6c0.2,0,0.5-0.1,0.6-0.3c0.9-1.5,2.1-2.6,3.3-3.8c0.5-0.5,0.8-1,0.5-1.7c-0.9,0.9-1.8,1.8-2.7,2.7
	c-0.1,0.1-0.1,0.1-0.2,0.2c-0.2,0.8-0.9,1.1-1.5,1.6c-0.2,0.1-0.5,0.3-0.6,0.5c-0.8,1.4-2.1,2.4-3.2,3.6c-0.6,0.8-1.1,1.5-1.9,2
	c-0.7,0.7-1.5,1.4-2,2.1c-0.7,0.9-1.1,1.8-2.1,2.4c-0.3,0.2-0.6,0.6-0.8,0.9c-1,1.4-2,2.8-3.3,4.1c-0.6,0.6-0.9,1-1.4,1.7
	c-0.6,0.9-1,1.9-2,2.5c-0.3-0.9,0.2-1.7,0.2-2.5c0-1.6,0.1-3.1,1.6-4.1c0.1-0.1,0.2-0.2,0.2-0.3c0.6-1.4,1.6-2.5,2.6-3.6
	c0.5-0.5,0.9-1,1.2-1.6c0.3-0.6,1.4-0.7,1.4-1.5c1.2-1,2.3-2.3,3.4-3.4c2-2.3,4.1-4.3,6.1-6.6c0.6-0.7,1.1-1.5,2-1.6
	c0.6,0.1,1,0.3,1.6,0.5c-0.1-0.2-0.2-0.3-0.2-0.5c-0.7-0.9-0.7-1.1,0.1-1.9c0.5-0.5,0.9-0.7,1.5-1c0.2,0.5,0.6,0.8,1.1,0.8
	c0.1-0.2,0.3-0.3,0.2-0.6c-0.2-0.5-0.7-0.6-0.8-1c1-1.5,2.1-2.8,3.2-4.2c0.2-0.3,0.6-0.7,0.3-1.2c-0.2,0.1-0.5,0.1-0.5,0.2
	c-0.6,1-1.8,1.6-2.1,2.8c0,0.1-0.1,0.2-0.1,0.2c-0.9,0-1,0.9-1.7,1.4c-0.9-0.7-1.5-1.6-1.9-2.6c-0.1-0.2-0.1-0.5,0.1-0.7
	c0.6-0.6,1.2-1.1,1.8-1.6c0.7,0.2,0.7,1.1,1.5,1.1c0.3-1-0.7-1.4-1.1-1.9c1.1-0.9,1.6-2.1,2.6-3.2c0.8,0.3,1.1,0.9,1.7,1.5
	c0.2,0.2,0.5,0.5,0.6,0.7c0.2,0.3-0.2,0.7-0.1,1c1.4,0.1,2.6,1.2,2.6,2.4c-0.1,0.9-0.5,1.8,0,2.7c-0.5,0.7,0.1,1.4,0,1.9
	c-0.2,0.7-0.1,1.4-0.1,2c0,0.5,0,0.8-0.1,1.2c-0.3,0.8-0.2,1.6,0.3,2.3c-0.1,0.3-0.5,0.5-0.5,0.8c0,0.8-0.1,1.6,0.1,2.4
	c0.1,0.2,0.2,0.6,0.1,0.8c-0.2,0.6-0.1,1-0.2,1.6c-0.1,1.2,0.1,2.5-0.2,3.7c-0.1,0.5-0.2,1,0,1.5c0.5,1.2,0.1,2.4,0.2,3.6
	c0,0.8-0.1,1.6,0.3,2.4c-0.2,0.3-0.5,0.7-0.6,1c0,1.1,0,2.4,0,3.5c0,0.5,0,0.8,0,1.2c-0.2,1.2-0.5,2.5-0.6,3.7c0,0.2,0,0.3,0.2,0.6
	c0.6,0.1,0.9-0.2,1.2-0.6c0-0.9-0.1-1.7,0.5-2.4c0.1-0.1,0.1-0.5,0.1-0.7c0.1-1-0.1-2.1,0.2-3.2c-0.5-1.4,0.1-2.6,0-4
	c-0.1-3.3,0-6.7,0-10.1c0-0.7,0-1.4,0.1-1.9c0.1-0.7,0.2-1.5,0.2-2.1c0-4,0-7.8,0-11.8c0-1,0.2-1.9,0-2.9c-0.1-0.5,0.2-0.8,0.2-1.4
	c-0.1-1.2-0.2-2.6-0.1-4c0.1-1.1,0.1-2.3,0.1-3.4c0-0.9-0.1-1.8-0.1-2.7c0.1-2.4,0.1-4.9,0.1-7.2C120.9,76,121.3,74.9,121.4,73.7z
	 M40.1,104.9c0.1-0.2,0.2-0.3,0.2-0.3c0.9-0.3,1.9,0.1,2.8-0.6c0.5,0.2,1,0.1,1.6,0.6C43,105.5,41.6,104.9,40.1,104.9z M48.4,91.9
	c0.1,1.2,0,2.4-0.2,3.5c-0.1,1,0,2.1-0.1,3.3c0,0.5,0,0.9,0,1.4c0,1.5-0.2,1.6-1.6,1.8c-2.1,0.3-4.2,0.2-6.3,0.2
	c-0.5,0-0.9-0.1-1.2-0.5c-0.2-0.3-0.6-0.6-1-0.9c0.2-0.9,0.6-1.6,0.8-2.4c0.1-0.8,0.7-1.5,1.1-2.1c0.5-0.7,0.3-1.7,1.5-2.1
	c-0.5,2.3-1.8,4.1-2.4,6.3c0,0.1,0.2,0.5,0.5,0.7c0.1,0,0.2,0,0.2,0c0.5-0.3,0.9-0.7,1.1-1.2c0.7-2,1.7-4,2.1-6
	c0.3-1.1,0.5-2.3,1-3.4c0.2-0.5,0.5-0.9-0.1-1.2c0.3-0.5,0.7-0.8,0.9-1.1c1,0,2.1,0,3.4,0c0.6,0.7,0.3,1.5,0.2,2.1
	C48.5,90.8,48.4,91.4,48.4,91.9z M50.4,99.4c-0.2,0.7,0.2,1.7-0.6,2.3c-0.7-0.8,0.1-1.4,0-2c-0.1-0.7-0.1-1.4,0.1-2
	C50.6,98,50.5,98.8,50.4,99.4z M50.3,90.6c-0.5-0.8-0.3-1.5,0-2.1C50.1,89.1,50.8,89.8,50.3,90.6z M54.5,68c1.6-0.2,3.3-0.5,4.9,0.2
	C57.7,68.1,56.2,68.4,54.5,68z M84,125.3c-1,0.5-2,0.6-3.1,0.5c-0.7-0.1-1-0.3-0.9-1c0.1-0.9,0.3-1.7,0-2.6c0-0.1,0-0.2,0-0.2
	c0.7-0.7,0.3-1.7,0.9-2.5c0.3-0.1,0.8-0.2,1,0.1c0.5,0.6,1.1,0.5,1.7,0.5C84.2,120.9,84.2,123.8,84,125.3z M84.5,115.7
	c-0.2,0.7,0,1.4-0.2,2.1c-0.8,0.1-1.5,0.3-2.1,0.3c-0.3,0-0.8-0.1-1.1-0.6c0.1-0.5-0.2-1,0-1.6c0.2-0.5,0.5-1,0.5-1.6
	c0.3,0,0.6-0.1,0.7-0.1c0.2,0,0.3-0.1,0.6-0.2c0.3,0.2,0.7,0.5,1.1,0.6C84.6,114.7,84.8,115,84.5,115.7z M84.6,112.2
	c0,0.6-0.2,0.8-0.8,0.9c-1.2,0.1-1.7-0.1-2.9-1.6c0.2-0.6,0.5-1.1,1-1.6c0-0.6-0.5-1.1,0.1-1.6c0.3-0.2,0.8,0.2,1.2,0.1
	c0.8-0.1,1.4,0.5,1.4,1.2C84.8,110.5,84.6,111.3,84.6,112.2z M84.3,106.3c-0.6,0.3-1.4,0.3-1.9-0.1c-0.2-0.5,0.1-0.7,0.1-0.9
	c-0.1-0.6-0.7-0.5-0.8-0.9c0.9-1.4,1.8-1.6,3.1-0.8c0.1,0.3-0.2,0.7,0,1C85.2,105.3,84.8,105.9,84.3,106.3z M85.2,100
	c-0.1,0.6-0.1,1.1-0.5,1.7c-0.8,0-1.6,0-2.4,0c-0.3-0.9,0.7-2-0.5-2.8c0.9,0,1.5-0.1,2-0.1C84.8,98.6,85.3,99.3,85.2,100z
	 M85.4,95.7c-0.1,1.1-0.6,1.4-1.7,1.1c-0.3-0.1-0.7-0.1-1-0.1c0.1-0.7-0.3-1.1-0.6-1.7c0.3-0.2,0.8-0.2,0.7-0.7v-0.1
	c0.2-1.5,0.7-1.8,2.3-1.7C85.5,93.4,85.5,94.5,85.4,95.7z M85.3,90.5c-0.7,0.5-1.4,0.6-2.4,0.5c0.1-0.7-0.3-1.2,0-1.9
	c0.2-0.5-0.5-0.7-0.3-1c0.2-0.3,0.3-0.7,0.3-1.1c0-0.3-0.1-0.7-0.2-1c0.7-0.2,1.5-0.3,2.3-0.2C86,87.2,85.2,88.9,85.3,90.5z
	 M85.5,84.1c-0.7-0.2-1.5,0-2.1-0.2c-0.3-0.5-0.3-0.9-0.6-1.4c0.3-1.1,1.5-1,2.3-1.4C86,82,86.1,82.9,85.5,84.1z M87.1,78
	c0.5-0.5,1.1-0.8,1.8-1.2c-0.2,1.4,0.2,2.5-0.3,3.7c-0.1,0.2-0.1,0.5,0,0.7c0.1,0.6-0.1,1-0.8,1.2c0.1-0.7-0.5-1.4-0.2-2
	C87.9,79.4,86.9,78.8,87.1,78z M87.5,90c-0.5-1.2-0.1-2.6-0.3-3.8c-0.1-1.1,0.6-1.8,1.7-1.9C89.3,87.2,89,88.2,87.5,90z M117.5,75.9
	c0.3,0.2,0,0.5,0.1,0.7c0,0.1,0.1,0.2,0.1,0.2c1.1,0.3,1.5,1.1,1.4,2.3c-0.1,0.5,0.2,1.1-0.3,1.6c-0.5,0.1-0.6-0.2-0.7-0.5
	c-0.3-0.6-0.8-1-1.2-1.4c-0.8-0.7-0.9-1.2-0.3-2c0.1-0.1,0.2-0.2,0.3-0.3C117.1,76.1,117.2,75.9,117.5,75.9z M115.6,71.6
	c0.8,0.2,0.8,1,1.1,1.7c-0.8-0.3-1.1-0.8-1.6-1.2C115.2,71.8,115.3,71.6,115.6,71.6z M113.9,71.7c0.8,1.4,2,2.5,2.6,4
	c-0.1,0.3-0.5,0.6-0.8,0.9c-0.5-0.3-0.8-0.7-1-1.1c-0.2-0.5-0.8-0.6-1-0.8c-0.3-0.5,0.1-0.7-0.1-1c-0.5-0.1-0.8-0.5-1.5-0.3
	c-0.1,0.6,0.2,1.2-0.2,1.7c-0.8,0.6-1.1-0.3-1.7-0.7c-0.6,0.3-0.6,0.8-0.3,1.4c0.2,0.5,0.5,1-0.2,1.6c-1.1-0.6-1.7-1.7-2.4-2.6
	c-0.1-0.8,0.9-1.5-0.1-2.1c-0.3,0.1-0.5,0.5-0.9,0.6c-0.3-0.2-0.8-0.3-1.2-0.6c0-1.1,0.7-1.9,1.4-2.8c0.7,0.3,1.6,0.1,2.3,0.7
	c0.9-0.3,1.7,0.8,2.6,0.3c0.7,0.5,1.6,0.6,2.4,0.9C113.8,71.5,113.9,71.6,113.9,71.7z M107.6,98.8c-0.6,0.7-1.2,1.2-1.7,2
	c-0.9-0.8-1.2-1.7-2.1-2.4c1.1-0.5,1.4-2.1,3.2-1.7C106.7,97.7,107.4,98.1,107.6,98.8z M90.9,96.1c0.8-0.8,1.4-1.8,2.1-2.6
	c0.8,0.3,0.9,1.1,1.4,1.6c-0.1,0.8-0.7,1.1-1,1.8c-1.4-0.2-1.9,0.7-2.4,1.8c-0.6-0.3-0.3-0.9-0.3-1.2C90.6,96.9,90.5,96.5,90.9,96.1
	z M91.3,91.5c0.3,0.8-0.2,1.2-0.5,2C90.5,92.7,90.6,92.2,91.3,91.5z M111.2,82.7c-0.3,0.6-0.8,0.9-1.2,1.4c-0.6-0.9-1-1.7-1.7-2.3
	c0.1-0.8,0.5-1.4,1.1-1.7C110.3,80.5,110.6,81.6,111.2,82.7z M110,78.8c0.3-0.6,0.3-1.4,1.2-1.4c0.3,0.6,0.6,1.4,1.2,1.8
	c0.3,0.2,0.3,0.7,0.3,1c0,0.3,0,0.3-0.8,1C111,80.7,111,79.5,110,78.8z M100.7,82.9c0.9,0.7,1.1,2,2,2.6c0,0.8-0.5,1.2-0.9,1.7
	c-0.5,0.5-0.8,0.5-1.1,0c-0.6-0.8-1.1-1.5-1.8-2.4C99.9,84.4,100,83.5,100.7,82.9z M98.4,83.9c-0.7-0.5-0.7-0.5-1-1.6
	c0.6-0.5,0.7-1.4,1.7-1.7c0.3,0.5,0.6,0.8,0.8,1.2C99.6,82.7,99.1,83.3,98.4,83.9z M102.3,82.1c-0.2-0.6-0.2-0.9,0-1.4
	c0.3-0.9,1-1.6,1.7-2.4c1.2,0.8,1.9,1.9,2.6,3.1c-0.5,1.4-1.9,1.9-2.3,3.3c-0.3,0-0.6-0.2-0.8-0.5C103.2,83.5,102.6,82.9,102.3,82.1
	z M100.9,80.4c-0.3-0.3-0.7-0.8-1-1.1c0.2-1.2,1.2-2,1.9-3.3c0.5,0.5,0.8,0.9,1.1,1.4C102.5,78.5,101.8,79.5,100.9,80.4z M98.9,78.3
	c-0.5-0.5-0.8-1.2-1.5-1.6c0.7-1.4,1.2-2.6,2.6-3.4c0.3,0.7,0.7,1.2,1.2,1.7C100.7,76.3,99.7,77.8,98.9,78.3z M98.2,79.6
	c-0.5,0.8-1.2,1.1-1.6,2c-1.8-1.1-1.8-2.4-0.2-3.5C97.4,78.1,97.6,79,98.2,79.6z M96.2,84.1c0.5,0.2,0.8,0.7,1.2,1.1
	c-0.6,0.8-0.9,1.8-1.9,2.3c-1-0.9-1-1-0.2-2.1c0.1-0.2,0.2-0.5,0.5-0.7C95.8,84.5,95.8,84.2,96.2,84.1z M96.5,88.4
	c0.6-0.7,1.1-1.2,1.7-2c1.1,0.7,1.6,1.5,1.9,2.5c-0.8,1.2-0.8,1.2-2,1.9c-0.8-0.2-1-1-1.6-1.5C96.2,89,96.3,88.7,96.5,88.4z
	 M100.7,89.7c0.9,0.7,1.4,1.7,2.1,2.4c-0.7,0.9-1.6,1.1-2.1,1.9c-0.9-0.6-1.5-1.4-1.5-2.4C99.3,90.7,100.3,90.5,100.7,89.7z
	 M101.8,94.4c0.5-0.3,0.9-0.7,1.2-1.2c1.4,0.3,1.5,1.6,2,2.3c-0.7,0.7-1.4,1.4-2.1,2c-0.3,0-0.5-0.3-0.7-0.6
	c-0.2-0.2-0.3-0.5-0.6-0.7C101,95.5,100.9,95,101.8,94.4z M103.7,91.1c-0.7-1-1.5-1.6-1.7-2.6c0.6-0.5,0.8-1.4,1.7-1.5
	c0.8,0.5,1,1.6,1.8,1.9C105.2,90,104.3,90.2,103.7,91.1z M105.1,85.9c-0.1-0.1-0.1-0.3,0-0.6c0.6-1.1,1.1-2.1,2.1-2.8
	c1,0.3,1.2,1.4,1.9,1.9c0.2,0.1,0.2,0.6,0,0.8c-0.7,0.9-1.5,1.8-2.4,2.5C105.8,87.4,105.7,86.5,105.1,85.9z M108.5,78.9
	c-0.2,0.6-0.3,1.2-1,1.6c-0.9-1.2-1.5-2.4-2.5-3.5c0.5-0.5,0.5-1.2,1.2-1.4c0.8,0.7,1.2,1.6,1.9,2.3
	C108.5,78.3,108.6,78.6,108.5,78.9z M104.2,76.1c-0.6-0.3-0.9-0.8-1.2-1.1c0-0.9,0.9-1.4,1.2-2c1,0.2,1,1.1,1.7,1.9
	C104.9,75.1,104.4,75.4,104.2,76.1z M104.6,70.9c-0.3-0.1-0.6-0.5-1-0.3c0,1.4-0.3,2.5-1.6,3.3c-0.7-0.5-1-1.1-1.6-1.9
	c0.3-0.6,0.6-1.2,1-1.7c0.3-0.6,0.9-1,1.7-0.9c0.7,0.1,1.5,0,2.1,0C105.4,70.1,104.8,70.3,104.6,70.9z M99.9,71.1
	c-0.6-0.1-0.8-0.7-1.2-0.9c-0.1,0-0.2,0-0.3,0c-0.1,0.1-0.1,0.2-0.1,0.5c0.1,0.7,0.1,0.7,0.6,1.4c0,0.7-0.3,1.1-0.8,1.7
	c-0.3,0.5-0.9,0.8-1,1.6c-1.1-0.7-1.4-2-2.4-2.7c0.7-1,1.1-2.1,1.9-3.1c0.7-1,1.6-1.4,2.7-1c0.6,0.1,1.1,0.5,1.9,0
	C101,69.8,100.2,70.3,99.9,71.1z M94.1,71.7c-0.8-0.3-1.5-0.6-1.8-1.2c0.5-1.9,2.5-3.2,3.7-2C95.8,69.8,94.7,70.6,94.1,71.7z
	 M92.9,73.5c-0.3,0.8-0.8,1.4-1.2,2c-0.5-0.3-0.8-0.7-1.2-1c0.3-0.8,0.3-1.9,1.5-2.3C92.2,72.6,92.6,73.1,92.9,73.5z M93.7,74.3
	c0.8,0.7,1.5,1.5,2,2.3c0,0.8-0.5,1.2-1,1.7c-0.5,0.3-0.8,0.3-1.2-0.1c-0.6-0.6-1-1.2-1.2-2C92.6,75.3,93.1,74.9,93.7,74.3z
	 M94,81.4c0.7,0.6,1.2,1.1,1.5,2c-0.5,0.8-1,1.5-1.7,2.3c-0.8-0.7-0.9-1.5-1.4-2.4C93.1,82.7,93.1,81.8,94,81.4z M94.8,89
	c-0.7,0.6-0.9,1.2-1.6,1.6c-0.3-0.2-0.7-0.6-0.9-1c0.3-0.5,0.8-1,1.1-1.6C94.1,88.2,94.2,88.7,94.8,89z M94.1,91.9
	c0-0.7,0.5-1.1,0.7-1.6c1.2-0.1,1.2,1.2,2,1.5c0,0.9-0.1,1.6-1.1,1.9C95.2,93.3,94.7,92.5,94.1,91.9z M97.8,93.3
	c1.1,0.6,1.4,1.6,1.9,2.6c-0.5,0.3-0.9,0.7-1.5,1.1c-0.7-0.3-1.4-1-1.5-1.9C96.4,94.1,97.3,93.9,97.8,93.3z M100.2,96.8
	c1.1,0.2,1.2,1.4,1.9,1.9c-0.2,0.8-1.1,1-1.6,1.8c-0.6-0.8-1.1-1.6-1.6-2.4C99.4,97.6,99.6,97,100.2,96.8z M103.2,100.1
	c0.5,0.2,0.6,0.9,1.2,1.2c0.5,0.2,0.5,0.8,0.1,1.1c-0.5,0.6-0.9,1-1.5,1.4c-0.7-0.6-0.9-1.4-1.5-2C101.9,101,102,100.2,103.2,100.1z
	 M106.1,94.3c-0.6-0.8-1.5-1.4-1.7-2.6c0.7-0.6,1.2-1,1.9-1.6c0.5,0.2,0.7,0.9,1.2,1.1c0.6,0.2,0.5,0.9,0,1.5
	C107.2,93.3,106.8,93.9,106.1,94.3z M107.5,89.2c0.2-1.4,1.4-2.1,2.3-3.1c1,0.3,1,1.2,1.8,1.7c-0.7,1.2-1.4,2.4-2.6,2.8
	C108,90.5,107.9,89.7,107.5,89.2z M110.7,85.1c0.1-0.5,0.2-0.9,0.3-1.2c0.3,0.1,0.6-0.2,1-0.3c0.6,0.7,1.1,1.4,1.7,2.3
	c-0.6,0.2-1.1,0.2-1.2,1C111.7,86.2,111.4,85.5,110.7,85.1z M112.7,82.3c0.1-0.5,0.6-0.6,0.8-0.9c0.6,0.5,1.1,1,1.6,1.6
	c-0.3,0.5-0.7,0.8-1.1,1.4C113.7,83.5,112.9,83,112.7,82.3z M113.8,78.7c-0.2-0.2-0.6-0.3-0.6-0.5c-0.1-0.8-0.7-1.4-1.2-1.9
	c0-0.3,0.2-0.7,0.5-0.9c1.5,0.2,1.4,1.8,2.1,2.6C114.5,78.4,114,78.3,113.8,78.7z M112,43.6c0.2,0.1,0.6,0.1,1,0.1
	c0.2,0.3,0.3,0.8,0.8,1c-0.3,0.9-0.3,1.7-0.5,2.6c-0.1,0.6,0.1,1.4,0.3,1.9c0.1,0.5,0.2,0.8,0,1.1c-0.6,1.2-0.3,2.5-0.3,3.7
	c0,0.2,0.1,0.6,0,0.8c-0.2,0.5-0.1,0.8,0.1,1.2c0.2,0.3,0.2,0.9,0,1.2c-0.5,0.6-0.3,1.1-0.3,1.7c0,1.7,0.3,3.4,0.3,5.1
	c0,0.8-0.3,1.5-0.2,2.4c-0.1,0.2-0.5,0-0.8,0.5c-0.1,0.2-0.3,0.6-0.3,1.1c0.5,0.6,0.8-0.1,1.2-0.1c0.2,0.5,0,0.9,0.2,1.2
	c-0.1,0.2-0.5,0.5-0.6,0.3c-0.7-0.6-1.6-0.6-2.4-0.8c-0.2-0.1-0.5-0.2-0.8-0.6c0.3-1.2,0.8-2.6,1.7-3.6c-0.3-0.5-0.7-0.3-1-0.2
	c-0.2,1.5-1.5,2.5-2,3.7c-0.5-0.1-0.8-0.1-1.1-0.2c-0.2-0.3-0.1-0.6,0.1-0.8c1.1-1.2,1.7-2.7,2.5-4.1c0.2-0.3,0.5-0.7,0.7-1
	c0.2-0.5,0.7-0.9,0.1-1.5c-0.3-0.1-0.6,0-0.7,0.2c-0.8,1.6-2,2.7-2.9,4.2c-0.3,0.6-0.8,1.1-1.1,1.7c-0.6,0.9-0.7,0.9-1.9,0.5
	c0.2-0.7,0.5-1.2,0.9-1.7c0.7-0.7,1.1-1.5,1.7-2.3c0.3-0.6,0.6-1,1.1-1.5c1-1,1.4-2.4,2-3.6c0.1-0.2,0.1-0.6-0.1-0.9
	c-0.7-0.1-0.9,0.3-1.1,0.7c-1.8,2.4-3.4,5.1-5.1,7.6c-0.3,0.5-0.6,0.9-0.9,1.2c-1.5,0.2-1.5,0.2-2.6-0.3c-0.1-0.3,0-0.5,0.2-0.8
	c0.9-1.2,1.8-2.4,2.7-3.6c0.5-0.6,0.9-1.1,1.4-1.8c1-1.5,2-2.9,3.3-4.3c0.2-0.3,0.1-0.7,0.2-1c0.1-0.2-0.2-0.3-0.5-0.5
	c-0.5,0.1-0.8,0.5-1,0.8c-0.9,1.4-2.1,2.6-3.1,4.1c-0.6,0.9-1.4,1.7-2,2.6c-0.6,0.9-1.2,1.8-1.8,2.6c-0.1,0.1-0.2,0.2-0.6,0.2
	c0.1-1.1,0.6-2.1,1.1-3.1c1-1.5,2-2.8,3.2-4.2c0.1-0.1,0.1-0.3,0.2-0.5c0.5-0.7,0.8-1.4,1.4-1.9c0.7-0.6,1-1.5,1.4-2.3
	c0-0.5-0.5-0.5-0.7-0.7c-1.2,1.2-1.9,2.8-3.1,4.1c-1.1,1.2-1.9,2.6-3.1,4.2c-0.1-1.2-0.2-2.1,0.6-2.8c0.6-0.6,1-1.4,1.5-2
	c0.9-1.2,1.8-2.4,2.9-3.5c0.5-0.6,0.9-1.1,1.4-1.7c-0.1-0.5-0.2-0.8-0.7-1.2c-1.1,0.8-1.6,2.1-2.6,3.1c-1,0.9-1.6,2.1-2.7,3.2
	c-0.2-1.5,0.1-2.5,0.9-3.5c1-1.2,2-2.6,3.2-4c0.2-0.3,0.2-0.6,0-0.9c-0.2-0.3-0.7-0.3-0.9-0.1c-0.3,0.2-0.7,0.5-0.9,0.8
	c-0.5,0.6-1,1.1-1.6,1.7c-0.5-1.8,0.2-3.2,1-4.5c0.1-0.1,0.2-0.2,0.3-0.2c1-0.7,1-0.7,1.5-1.8c-0.1-0.3-0.3-0.6-0.7-0.7
	c-0.9,0-0.9,1-1.4,1.5c-0.3,0.3-0.5,0.5-1,0.3c0.3-0.7,0.2-1.4-0.1-1.8c-0.5-0.7,0.3-1.4-0.2-1.8c0.6-0.5,1.2-0.3,1.8-0.3
	c1,0.1,2.1,0.2,2.9,1c0.2,0.2,0.5,0.3,0.8,0.3c0.9,0.1,1.7,0.2,2.5,0.7c0.5,0.2,0.9,0.3,1.4,0.5C109.8,42.9,111,42.9,112,43.6z
	 M104.5,38.2c-0.2,0.5-0.7,0.8-1.2,0.3c0.3-1.4,1.5-2.4,2-3.8c0.2,0.6,0.7,0.5,0.9,0.8C105.8,36.4,104.9,37.2,104.5,38.2z M107,38.6
	c-0.2,0.3-0.3,0.7-0.7,0.9c-0.2,0.1-0.5,0-0.7-0.2c-0.2-0.2-0.1-0.8,0.2-0.7C106.3,38.7,106.7,38.4,107,38.6z M108.9,39.5
	c0.1,0.2,0.2,0.5,0,0.8c-0.3,0.2-0.6,0.1-0.9,0c0.3-0.6,0.2-1.4,1.1-1.5C109.3,39.1,108.8,39.3,108.9,39.5z M108.6,26.8
	c0.7,0,0.8,0.6,1,1c-0.2,0.5-0.5,0.9-0.3,1.5c0.3,1.1-0.1,1.6-1.7,2.3c0-0.7,0.6-1.1,0.6-1.7c-0.1-0.3-0.3-0.5-0.9-0.3
	c-0.8,1.8-2.3,3.2-3.3,4.9c-0.6,1-1,2-1.7,3.1c-0.3,0.5-0.6,0.5-1.1,0.2c0-0.2,0-0.2,0-0.3c1-1.5,1.8-3.1,2.9-4.4
	c0.7-0.8,1-1.8,1.6-2.6c0.6-0.8,0.9-1.8,1.4-2.6C107.6,27.3,107.9,26.8,108.6,26.8z M98.2,27.2c0.5-0.5,0.7-1.1,1-1.7
	c0.3-0.6,0.7-0.6,1.4-0.3c-0.5,0.8-0.9,1.5-1.4,2.1c-0.3,0.5-0.7,1-0.8,1.6c-0.1,1.2-1,1.8-2,2.7C96.8,29.8,97.1,28.3,98.2,27.2z
	 M71.1,35.2c0.3-0.6,0.3-1.4,0.2-1.9c0-0.7,0.2-1.4-0.1-2c-0.1-0.2-0.1-0.6,0-0.8c0.5-1.4,0.2-2.7,0.1-4c0-1.2,0.3-2.4,0.7-3.6
	c0.7,0,1.2-0.2,1.8-0.3c0.6-0.1,1.1-0.5,1.7-0.1c0.1,0,0.2,0,0.3,0c1.6-0.5,3.3-0.3,5-0.5c0.9-0.1,1.9,0.1,2.8-0.1
	c0.2-0.1,0.6-0.1,0.9,0.1c0.5,0.3,0.9,0.3,1.5,0.2c1.5-0.3,2.3-0.3,3.8,0.2c0.1,0,0.3,0.1,0.3,0.1c0.8-0.6,1.7,0,2.5,0
	c1.2,0,2,1,1.7,2.3c-0.2,0.8-0.2,1.5-0.1,2.3c0.1,0.8-0.1,1.6,0.3,2.3c-0.7,0.8-0.7,1.6-0.5,2.5c0.3,1.1-0.2,2.1-0.3,3.2
	c0,0.5-0.1,0.8,0.2,1c0.3,0.1,0.6-0.3,0.8-0.3c0.6,0,0.7,0.6,1,1c0.5-0.5,0.2-1,0.2-1.4c0-0.8-0.2-1.6,0.7-2
	c0.2-1.1,1.2-1.8,1.9-2.7c0.6-0.7,0.7-1.5,1.2-2.1c0.2-0.2,0.3-0.6,0.6-0.8c0.5-0.5,0.7-1.1,1.2-1.5c0.6-0.3,1.1-0.1,1.9-0.6
	c-0.5,1.5-1,2.4-1.7,3.3c-1.7,2-2.9,4.4-4.2,6.7c-0.1,0.2-0.3,0.6-0.6,0.7c0.1,0.5,0.3,0.8,0.8,0.9c0.5-0.1,0.3-0.5,0.5-0.7
	c0.6-1,1-2,1.7-2.9c1.5-1.9,2.8-4,4.1-6c0.3-0.6,0.8-0.9,1.4-1.1c0.7,0.9,0.6,0.9,0.2,1.7c-1.4,2.8-3.4,5.3-5.2,7.8
	c-0.8,1.1-1.8,1.4-2.9,1.6c-0.3,0-0.7,0-0.9,0c-0.7,0-1.5,0-2,0.5c-0.7-0.5-1.4-0.6-2.1-0.5c-1,0-2,0.1-3.2,0
	c-1.5-0.1-2.8-0.1-4.3,0c-0.6,0-1.1,0.1-1.5-0.3c-0.3-0.3-0.7-0.1-1,0c-1.1,0.5-2.3,0.1-3.4,0.2c-0.8,0.1-1.6,0-2.3-0.3
	c-0.1,0-0.2-0.1-0.3,0c-1,0.3-2,0.3-2.9-0.1c-0.2-0.1-0.5,0.1-0.6,0.2c-0.3,0.2-0.6-0.1-0.9-0.2c-0.6,0.3-1.2,1-1.9,0.2
	C70.6,36.3,70.7,35.8,71.1,35.2z M70.5,45c1,0.5,1.4,1.4,1.7,2.3c0.2,0.6-0.1,0.9-0.8,1c-0.1,0-0.2,0-0.5,0c-0.5,0-0.8,0-1.2,0
	C69.2,46.9,69.5,46,70.5,45z M69.5,49.9c0.5-0.7,1.8-0.7,3.1-0.1c-0.1,0.5-0.1,0.8-0.2,1.1c-0.9,0.5-1.8,0.7-2.7,0
	C69.4,50.4,69.5,50.1,69.5,49.9z M72.2,65.8c-0.3,0-0.7,0-0.9,0c-1,0-1.1-0.1-1.1-1.1c0-0.5-0.2-0.8-0.2-1.1c0.5-0.7,1-0.5,1.5-0.5
	c0.6,0,1,0.1,1.5,0c0.3,0.5,0.2,1,0.3,1.4C73.3,65.1,72.9,65.8,72.2,65.8z M72.9,62.1c-1.1-0.1-2.3,0.5-3.3-0.6
	c0.3-0.7,0.6-1.4,0.5-2.3c1-0.3,2-0.9,3.2-0.3C73.3,59.9,73.4,61,72.9,62.1z M73.2,56.2c0,0.6-0.3,1-0.8,1.1
	c-0.7,0.1-1.5,0.5-2.4,0.3c0.2-1.7-0.6-3.3-0.1-5c0.9-0.3,1.8,0,2.7-0.3c0.3-0.1,0.7,0.2,0.7,0.7C73.3,54.1,73.3,55.2,73.2,56.2z
	 M82.5,64.9c-0.1,1.1-0.2,1.4-1.5,1.2c-0.5,0-0.9,0-1.4-0.1c-0.2-1.5-0.9-2.8,0.1-4.2c0.8-0.5,1.7-0.5,2.6,0.1
	C82,62.9,82.6,63.9,82.5,64.9z M79.6,51.9c0.8-0.5,1.6-0.7,2.5-0.7c0.6,1.5,0.1,2.9,0,4.3c-0.7,0.3-1.4,0.6-2.1,0.5
	c-0.6-0.1-0.9-0.3-0.7-0.9C79.7,54.2,79.4,53,79.6,51.9z M79.3,49.5c0.1-1.1,0.1-2.3,0.8-3.2c0.6-0.2,0.9,0,1.2,0.5
	c0.5,0.9,0.9,1.8,0.9,2.7c0,0.2-0.1,0.5-0.5,0.6c-0.6-0.3-1.2,0.2-1.9,0C79.6,50,79.3,49.7,79.3,49.5z M79.8,56.9
	c1.2,0.3,1.2,0.3,2.4,0c0.3,0.9,0.5,1.9,0.2,3.1c-0.9,0.1-1.8,0.5-2.8,0.5C79.2,59.2,79.1,58.1,79.8,56.9z M86.6,51.7
	c-0.2,1.5,0,2.9-0.2,4.4c-0.2,1.4-0.1,2.7-0.3,4c-0.2,1.5-0.1,3.1-0.1,4.6c0,0.7,0,0.7-0.7,1.2c-0.5-0.2-0.5-0.7-0.5-1
	c-0.1-0.3,0-0.7,0.1-1c0.1-0.3-0.6-0.5-0.3-0.9c-0.5-0.7,0.3-1.5-0.1-2.1c0.3-0.9,0.1-1.9,0.2-2.8c0.1-1.1,0.3-2.3,0-3.4
	c-0.1-0.3,0-0.7,0-1c0.2-1,0.2-1-0.6-1.8c0-0.1,0.1-0.2,0.2-0.2c0.1,0,0.2-0.1,0.5-0.2c-0.2-1.2-0.5-2.5-0.3-3.8
	c-0.5-0.5-0.3-1.2-1.1-1.6c-0.7-0.3-1.4-0.9-2-1.4c-0.5-0.2-0.9-0.5-1.4-0.5c-0.5,0-0.8,0.2-1.1,0.7c-0.9,1.4-1.2,2.8-1.2,4.4
	c0,0.3,0,0.7-0.1,0.9c-0.3,0.7-0.2,1.5-0.1,2.1c0.3,1.7,0.2,3.3,0.2,5c0,1.1-0.1,2.4-0.2,3.5c-0.1,1.4,0.3,2.7,0.3,4.2
	c0,0.3,0,0.6-0.2,0.9c-0.5,0.1-1,0.1-1.5,0c-0.2-0.3-0.3-0.7-0.3-1c0.2-2.9,0.2-6-0.1-8.9c-0.1-0.9,0.2-1.7,0.2-2.6
	c0.1-1.4,0.1-2.6-0.1-4.1c-0.9,0-1-0.7-0.9-1.4c0.1-1.5-0.7-2.5-1.6-3.5c-0.6-0.7-1.5-0.6-2.3-0.5c-0.6,0.1-1.1,0.6-1.8,0.7
	c-0.5,0.1-0.8,0.8-1.1,1.2c-0.1,0.1-0.2,0.3-0.2,0.5c-0.1,1.8-0.6,3.5-0.1,5.3c0.2,1.1,0.5,2.3,0.3,3.5c0,1.9,0,3.8,0,5.9
	c0,1.2,0.1,2.5,0.2,3.6c0,0.2,0,0.5,0,0.8c-1,0-2.1,0.5-3.2,0c-0.6-0.2-0.9,0.2-1.4,0.1c-0.3-0.1-0.3-0.3-0.3-0.6
	c-0.1-2.1,0.1-4.3,0.5-6.4c0.2-1.2,0.2-2.5,0.1-3.7c0-1.6-0.1-3.2,0.1-4.9c0.1-0.9,0.6-1.9,0.1-2.9c0.7-1.5-0.1-3.1,0.5-4.5
	c0.2-0.5-0.1-1,0-1.6c0-0.6,0.1-1,0.1-1.5c0.7-0.3,1.4-0.6,2-0.5c0.8,0.1,1.5-0.3,2.3-0.3c0.7,0.1,1.5,0.1,2.1,0.1s1.5-0.2,2.1-0.1
	c3.1,0.5,6.2,0,9.3,0.3c2.5,0.2,5,0.1,7.5,0.2c1.1,0.1,2.4,0.2,3.5,0.2c1.4-0.1,2.6,0.1,4,0c0.7-0.1,1,0.1,1.2,0.7
	c0.3,0.7-0.2,0.9-0.6,1.1c0,0,0,0.1-0.1,0.2c0.1,1.5-0.2,2.9,0.2,4.5c-0.3,0.6,0.1,1.1-0.1,1.7C98,48,98,48.5,98.1,49
	c0.2,1.1,0.1,2-0.3,3.1c-0.2,0.5-0.1,1.1,0,1.8c0,0.2,0,0.5,0,0.8c-0.2,1.2-0.3,2.5-0.1,3.7c0.1,0.7,0.2,1.5-0.1,2.3
	c-0.1,0.2-0.1,0.6,0,0.9c0.1,0.1,0.1,0.3,0,0.5c-0.6,0.6-0.3,1.4-0.3,2c0,0.8,0,1.5-0.5,2.3c-0.8,0.3-1.6-0.1-2.4-0.3
	c-0.3-0.8-0.7-1.6-0.2-2.6c0.2-0.5-0.1-1.1,0.1-1.5c0.3-0.6,0.2-1.1,0.3-1.7c0.1-0.6-0.1-1.1,0-1.7c0.1-0.9-0.1-1.7-0.1-2.5
	c0-0.3,0-0.7,0.3-1c0.3-0.3,0.6-0.7,0.5-1.2c-0.1-1,0.2-2.1,0.2-3.2c0-0.7,0.1-1.5-0.6-1.9c-0.5-0.5-0.1-0.9,0-1.4
	c-0.7-0.6-1.5-1-2.4-1.1c-0.6,0-1.2-0.2-1.7-0.8c-0.5-0.6-1.1-0.5-1.7-0.3c-0.5,0.1-0.6,0.6-0.8,1C87,47.7,86.8,49.7,86.6,51.7z
	 M91.6,56.6c-0.9-0.1-1.8-0.2-2.7-0.1c-0.3-0.9-0.2-1.8-0.1-2.7c0-0.2,0.2-0.5,0.6-0.6c0.7-0.1,1.4-0.5,2-0.2c0.3,0.1,0.7-0.1,1.1,0
	c-0.1,1-0.1,1.9-0.2,2.9C92.2,56.1,92,56.3,91.6,56.6z M90.4,59.8c-0.6,0-1.1,0-1.7,0c-0.7-1-0.7-1,0.1-2c0.9-0.2,1.9,0.1,2.8-0.2
	C92.2,58.9,91.8,59.8,90.4,59.8z M92.4,51.6c-1.1,0.2-2.1,0.8-3.4-0.1c-0.5-1.2,0.6-2.7,0-4.2c0.6-0.3,1-0.6,1.6-0.8
	C92.7,47.7,92.7,49.5,92.4,51.6z M88.9,65c-0.6,0-0.6,0.6-0.9,0.7c-0.7-0.7,0.5-1.8-0.6-2.5c0.2-0.3,0.6-0.7,0.7-1.1
	c0-0.3-0.5,0-0.5-0.5c0.9-0.1,1.9,0,2.9-0.3c0.7,0.3,1,0.9,1,1.6c0,0.8,0.2,1.7-0.5,2.5C90.4,65,89.6,64.9,88.9,65z M90.2,68
	c0.8-0.5,1.6-0.7,2.7-0.2c-1.2,1-1.4,2.6-2.7,3.5c-0.1-0.7-0.2-1.1,0.1-1.7C90.5,69,89.8,68.5,90.2,68z M90.3,83.6
	c0.2-0.7,0-1.5-0.1-2.4c0.8-0.6,1-1.6,1.8-2c1.6,0.9,1.4,1.6,0.6,2.6c-0.3,0.5-0.6,1-1,1.4c-0.9,0.6-0.9,0.6-0.9,1.4
	c0,0.2,0.1,0.5,0,0.7C90.3,84.6,90.1,84.2,90.3,83.6z M90.7,87.4c0.5-0.5,0.6-1,1-1.5c0.2,0.3,0.7,0.5,0.9,0.7
	c0.3,0.9-0.7,1.5-0.5,2.4c-0.3,0.1-0.7,0.3-0.9,0.3c-0.7,0.1-1-0.2-0.9-0.9C90.4,88.1,90.5,87.6,90.7,87.4z M91.2,104.5
	c0.3-0.5,0.2-0.9,0.3-1.4c0.7-0.3,1.1-1,1.2-2c-0.9,0.1-1.1,1.1-1.9,1.5c0.5-1.5,3.3-5.4,4.5-6.3c0.6,0.7,1.2,1.2,1.6,2.3
	c-0.7,0.9-1.1,1.9-1.9,2.7c-0.6,0.6-0.5,1.2-0.6,1.9c1-0.8,1.7-1.8,2.4-2.8c0.2-0.3,0.5-0.7,0.8-0.9c1,0.6,1.1,0.8,2,2.4
	c-0.6,0.7-1.1,1.6-1.8,2.3c-1.7,1.7-3.1,3.6-4.7,5.3c-0.6,0.6-1,1.2-1.2,2c-0.2,0.5-0.2,0.5-0.9,1c-0.2-0.9-0.3-1.8,0-2.7
	c0.1-0.3,0.2-0.6,0.3-0.9c0.1-0.3,0.1-0.7-0.1-1C90.3,106.4,90.4,105.4,91.2,104.5z M90.5,118c0-0.3,0.1-0.8,0.1-1.1
	c0-0.8-0.1-1.7,0.7-2.4c0.3-0.3,0.7-1,0.7-1.6c0-0.8,0.5-1.2,1-1.8c0.7-0.8,1.2-1.6,1.9-2.4c0.6-0.8,1.2-1.5,1.9-2.3
	c0.6-0.7,1.2-1.1,1.7-1.9c0.5-0.7,1.2-1.1,1.7-1.9c1,0.5,1,0.5,2.1,2c-0.7,1.6-2.1,2.5-3.3,3.7c-0.8,0.8-1.6,1.6-2.4,2.4
	c-0.6,0.7-1.2,1.4-1.8,1.9c-1.5,1.6-2.8,3.1-3.6,5.1C91.1,118.2,90.9,118.2,90.5,118z M106.7,106.4c-1.6,1.6-3.2,3.2-4.5,5
	c-0.8,1-1.7,1.8-2.6,2.7c-0.3,0.3-0.8,0.7-1,1.2c-0.1,0.2-0.3,0.6-0.7,0.7c-0.9,0.6-1.5,1.4-2.1,2.1c-0.5,0.6-0.9,1-1.4,1.5
	c-0.6,0.5-1,1.1-1.5,1.8c-0.6,0.9-1.2,1.8-2.1,2.8c0-0.9,0-1.6,0-2.4c0.3-0.3,0.8-0.6,1.1-1.1c0.2-0.5,1.1-0.3,1-1.1
	c-0.5,0.1-1,0.1-1.5,0.2c-0.2-0.2-0.2-0.6,0-0.7c0.8-0.9,1.4-2.1,2.3-2.9l0.1-0.1c0.3-1.1,1.2-1.9,2-2.8c0.5-0.5,1-1,1.6-1.5
	c0.8-0.7,1.5-1.5,2-2.3c0.1-0.2,0.3-0.3,0.5-0.5c1-1,2.1-2,2.9-3.3c0.7,0,0.8,0.9,1.6,0.9c-0.1-0.7-0.2-1.2-0.5-2
	c0.5-0.5,1-0.9,1.5-1.4c0.3-0.3,0.8-0.3,0.9,0c0.3,0.7,1,1,1.4,1.7C107.6,105.6,107,105.9,106.7,106.4z M111.1,102.3
	c-1.2,0.6-1.7,1.7-3.1,1.8c-0.1-1-1-1.5-1.5-2.1c0.2-1.1,1.4-1.4,1.9-2.3C109.7,100.3,109.8,101.7,111.1,102.3z M109.5,96.7
	c-0.2,0.3-0.3,0.8-0.9,1c-0.9-0.3-1.1-1.4-1.7-1.9c-0.1-1.2,1.5-1.6,1.4-2.6c0.3-0.3,0.7-0.2,1.1-0.1c0.3,0.9,0.7,1.7,1,2.5
	C110.3,96.1,109.8,96.3,109.5,96.7z M113.6,92c-0.5,0.6-0.9,1.1-1.4,1.7c-0.6,0.8-1.5,0.7-1.9-0.1c-0.6-1-0.6-1-0.6-2.4
	c0.8-0.6,1.5-1.2,1.9-2c1.4-0.1,1.5,1.1,2,1.8C114,91.4,113.9,91.7,113.6,92z M114.7,90.5c-0.3-0.3-0.7-0.7-1-1.1
	c-0.9-1.1-0.8-2,0.6-3.1c0.6,0.8,0.8,1.8,1.7,2.4c0.3,0.2,0.5,0.7,0.3,1.1C115.8,90,115.5,90.7,114.7,90.5z M119.3,91.8
	c-0.1,1.4,0.1,2.8-0.3,4.2c-0.5-0.5-0.8-1-1.5-1.4c-0.2-0.1-0.5-0.3-0.5-0.5c-0.2-1-0.9-1.6-1.5-2.4c0.5-0.6,1-1.1,1.2-1.8
	c0.5,0.6,0.8,0.1,1.2-0.1c-0.1-0.2-0.3-0.3-0.5-0.5c-0.1-0.8,0.8-1.1,1.1-1.8c-0.8-0.1-0.9,0.5-1.4,0.6c-0.3-0.1-0.8-0.3-1-0.7
	c-0.5-0.7-0.8-1.4-1.4-1.9c-0.2-0.2-0.5-0.8,0.2-1c0.2-0.1,0.3-0.6,0.7-0.8c0.5,0,0.6,0.6,1,0.7c0.7-0.6,0.7-0.6-0.2-1.7
	c-0.1-0.3,0.3-0.5,0.3-0.8c0-0.1-0.1-0.2-0.1-0.2c-0.6,0-1-0.1-1.5-0.7c-0.2-0.3-0.7-0.6-1-0.8c0.2-0.7,0.7-1,0.7-1.6
	c0.5-0.1,0.8-0.1,1,0.3c0.5,1,1.1,1.9,2.1,2.5c0.6,0.3,0.9,0.9,0.8,1.7c0,0.3,0,0.7,0,1.1c0,1.2,0,2.5,0.2,3.7
	C119.5,89.2,119.3,90.6,119.3,91.8z M119.3,73.5c-1,0.1-0.8-1.4-1.8-1.4c0.7-0.2,1.4-0.3,2.1-0.2C119.8,72.6,119.8,73.1,119.3,73.5z
	"/>
<path class="st0" d="M47.5,114c-0.5-0.7-0.6-1.5-0.9-2.3c-0.2-0.6-0.6-1-1.1-1.5c-0.8,0.1-1.5,0.7-2.1,0.7c-1,0.1-2,0.3-3.1,0.3
	c-1,0-2.1-0.1-2.9,0.9c-0.1,0.3-0.1,0.7-0.2,1.1c0.2,0.2,0.3,0.5,0.6,0.7c-0.2,0.7-0.2,1.2,0.1,1.8c0.3,0.7,0.5,0.9,1.1,0.8
	c1.1-0.3,2.3-0.2,3.4-0.7c0.3-0.1,0.6-0.1,0.9-0.1c0.7,0,1.4,0.1,1.9-0.5c0.1-0.1,0.3,0,0.5,0c0.5,0.2,0.9,0.1,1.4,0.1
	C47.6,115.1,47.8,114.4,47.5,114z M45.6,113.5c-0.3,0.2-0.7,0.3-1.1,0.3c-0.8,0.1-1.6,0.1-2.4,0.3c-0.9,0.3-1.6,0-2.1-1
	c0.6-0.5,1.2-0.2,1.8-0.3c0.8,0,1.5,0,2.1-0.5c0.5-0.3,0.9-0.1,1.4-0.1C45.8,112.8,45.6,113.2,45.6,113.5z"/>
<path class="st0" d="M66.9,41c-0.3,1.5,0.2,2.9-0.2,4.3c0.2,0.9,0.2,1.8,0.2,2.7c0,0.7,0.1,1.5-0.2,2.1v0.1c0.3,2.5-0.3,5,0,7.5
	c-0.6,1.2,0.2,2.7-0.3,4c-0.3,0.6-0.5,1.2-0.8,1.8c0,0.1-0.2,0.1-0.3,0.1c-0.3-0.1-0.2-0.3-0.3-0.6c0-0.8,0.1-1.6-0.2-2.4
	c0-0.1,0-0.2,0-0.2c0.6-2.5,0.1-5.1,0.2-7.7c0-0.3,0-0.7,0.1-1c0.1-0.2,0.2-0.6,0.1-0.8c-0.3-1-0.1-2,0-3.1c0-0.6,0.1-1-0.1-1.6
	c-0.1-0.2-0.1-0.6-0.1-0.8c0.3-1,0.2-2.1,0.2-3.2c0-0.7,0.3-1,0.7-1.5C66,40.6,66.3,40.6,66.9,41z"/>
<path class="st0" d="M85.8,27.1c0-0.8-0.5-1.4-0.8-1.9c-0.3-0.5-1.5-0.8-1.9-0.6c-1.2,0.6-2.4,2.7-2.3,4.3c0,0.5-0.1,0.7-0.6,0.7
	c-0.2-0.6,0.5-1.1,0-1.7c0.1-1.1-0.7-2.1-0.2-3.4c-0.6-0.2-0.9-0.5-1.2-0.7c-0.9-0.7-2.8-0.5-3.4,0.6c-0.8,1.4-1.1,2.8-0.8,4.3
	c0.2,1.1,0.2,2.1,0,3.2c-0.3,1.5,1,3.3,2.8,2.6c1.4-0.5,2.4-1.2,2.5-2.8c0.1-0.6,0-1.4,0.8-1.6c0.5,0.2,0.7,0.7,0.7,1.2
	c-0.1,0.6,0,1.2,0.3,1.7c0.3,0.7,0.8,1.2,1,2c0.9-0.3,1.9-0.3,2.1-1.5c1.5-0.7,0.9-2.1,1.4-3.3C85.5,29.2,85.8,28.1,85.8,27.1z
	 M77,33.3c-0.8-0.6-0.8-0.6-0.7-1.6c-0.1-0.1-0.3,0-0.5-0.2c0.2-0.6,0.3-1.1,0.6-1.8c0.6-0.2,1.1,0.1,1.8-0.5
	C78.1,30.8,78,32.1,77,33.3z M78.2,28c-0.6,0.3-1.1,0.2-1.7,0.2c-0.8-1.9-0.7-2.7,0.8-4C78.3,25.4,78.2,26.6,78.2,28z M83.4,26.5
	c0.5,0.9,0.5,0.9,0.5,1.8c-0.2,0.2-0.5,0.5-0.9,0.5C82.6,27.7,83.1,27.2,83.4,26.5z M83.6,32c-0.3,0.1-0.6-0.1-0.8-0.2
	c0-0.6,0.3-1.1,0-1.7c-0.2-0.5,0.1-0.7,1.2-0.7C84,30.3,83.8,31.2,83.6,32z"/>
<path class="st0" d="M92.1,25.2c-0.6-0.3-1.1-0.1-1.7-0.2c-0.9-0.2-1.8,0.1-2.6,0.6c-0.5,0.2-0.6,0.6-0.7,1.1
	c-0.1,0.9,0.1,1.8-0.3,2.6c-0.1,0.1,0,0.5,0.1,0.7c0.5,1,0.1,2,0.2,3.1c0.1,0.8,0.2,1.4,1,1.6c1.5,0.7,2.8,0.1,3.7-1.2
	c0.6-0.9,0.8-1.9,0.8-3.1c0.1-1,0-2,0.1-3.1C93,26.6,92.9,25.7,92.1,25.2z M90.9,31.5c-0.2,0.7-0.5,1.2-0.8,1.8
	c-0.2,0.6-0.7,0.7-1.2,0.6c0.2-1-0.5-2,0.3-3.1c0.5-0.2,1-0.1,1.4-0.5C91.1,30.8,91,31.1,90.9,31.5z M90.7,29.4
	c-0.6,0-1.1,0.6-1.8,0.2c-0.5-1.1,0.2-2.1,0.1-3.3c0.6,0.1,0.9,0.1,1.4,0.1c0.6,0.6,0.5,1.4,0.7,2.1C91.2,29.1,91.1,29.4,90.7,29.4z
	"/>
<path class="st0" d="M77.2,114.5c0.8-0.3,1.1-1.1,1.9-1.2c-0.1-0.6-0.3-0.9-0.7-1.2c-0.2-0.3-0.6-0.7-0.3-1.1
	c0.2-0.6,0.1-1.2,0.2-1.8c0.1-0.9,0.1-1.8,0.2-2.7c0.1-0.8-0.1-1.7,0-2.6c0.1-1.5-0.1-3.1-0.3-4.6c-0.1-0.6,0-1,0.2-1.4
	c0-0.8-0.7-1.1-1-1.7c0.2-0.3,0.7-0.8,0.6-1.2c-0.2-1,0.5-2,0-3.2c0-0.1,0-0.2,0-0.2c0.2-1.8,0.5-3.5,0.3-5.3c0-0.8,0.1-1.6-0.1-2.4
	c0.5-1.4,0-2.7,0.1-4.1c0-0.6-0.1-1-0.5-1.4c-1.5-1.8-3.4-2.7-5.8-2.6c-0.5,2.3-1.7,4.3-2,6.9c0.2,0.7,0.2,1.7,0.2,2.7
	c0,0.9,0,1.7,0,2.6c0.1,1.2,0.2,2.6-1,3.7c1.2,0.7,1.1,1.6,1.1,2.6c0.1,2.8,0,5.7-0.1,8.6c0,0.8,0,1.7-0.2,2.5
	c-0.1,0.7-0.3,1.4-0.3,2c0.2,2.7-0.3,5.3-0.2,7.9c0,0.8,0,1.7-0.2,2.5c-0.1,0.7-0.2,1.4,0.1,2c0.1,0.3,0.1,0.7,0,1
	c-0.3,0.6-0.3,1.1-0.3,1.7c0,1.2,0.2,2.6-0.2,3.8c-0.1,0.3-0.1,0.8,0,1c0.1,0.5,0.1,0.8,0.1,1.2s0.1,0.9,0,1.5
	c-0.1,0.5-0.2,1.1,0.6,1.4c0.6-0.3,0.8-0.8,0.8-1.4c0-0.5,0.8-0.8,0.1-1.2c0.1-0.6,0.2-1,0.2-1.6c0.3,0.1,0.6,0.5,1,0.3
	c1-0.1,1.9,0.1,2.9,0.3c1,0.2,1.4,0.6,1.1,1.5c-0.3,1.4-0.1,2.6-0.1,3.8c0.5,0.2,0.7,0.6,1.2,0.3c-0.1-1.2,1-2.6-0.1-3.8
	c0.2-0.1,0.3-0.3,0.3-0.6c-0.2-1,0.7-2,0.2-3.1c0-0.1,0-0.5,0.1-0.5c0.6-0.5-0.2-0.7-0.1-1c0-0.5,0.6-0.7,0.5-1.2
	c0-0.2,0-0.3-0.1-0.5c-0.2-0.3,0-0.6,0-0.7c-0.1-0.8,0.5-1.5,0.3-2.3C77.6,118.2,78.2,116.2,77.2,114.5z M72.3,87.7
	c1.1-0.2,2,0.8,3.1,0.1c0.5,0.3,0.8,0.5,0.6,1.1c-0.2,0.7,0,1.5-0.1,2.1c-1.2,0.5-2.4-0.2-3.6-0.2C72.4,89.8,72.2,88.8,72.3,87.7z
	 M72.5,83.1c0.3,0,0.5,0.2,0.8,0.3c0.3-0.6,1-0.6,1.7-0.5c0.8,0.1,1.2,0.6,1.1,1.4c-0.1,0.7,0,1.2-0.1,2c-0.7-0.3-1.1-0.1-1.7,0.1
	c-0.6,0.1-1-0.6-1.6,0C72.1,85.3,72.1,84.1,72.5,83.1z M72.3,92.4c1,0.8,2.1,0.3,3.2,0.6c0.3,1-0.1,2.3,0.6,3.4
	c-1.2,0.1-2.3,0.5-3.5,0.3C72.3,95.2,71.6,94,72.3,92.4z M75.8,98.4c0,1,0,1.8,0,2.6c-1.4,0.2-2.5,0-3.7-0.6c-0.1-0.8-0.1-1.5,0-2.3
	C73.4,98.1,74.7,98.3,75.8,98.4z M73.8,102.2c0.5,0.1,0.9,0.3,1.4,0.5c0.7,0,1,0.5,1.1,1.1c0,0.2,0,0.6,0,0.9
	c-1.5,0.3-2.8,0.2-4.1,0.1c-0.6-0.8,0.1-1.7-0.2-2.5C72.5,102.1,73.2,102.1,73.8,102.2z M75.5,126.4c-1.6-0.3-3.1-0.6-4.5-0.8
	c-0.1,0-0.3-0.1-0.6-0.2c0.1-0.3,0.6-0.7,0.2-1.1c-0.2-0.3-0.5-1-0.2-1.2c0.5-0.7,0.3-1.5,0.5-2.3c0.9-0.2,1.6-0.3,2.4,0.1
	c0.3,0.2,0.9,0.2,1.2,0.3c1,0.1,1.2,0.5,1.2,1.5C75.7,123.8,75.3,125,75.5,126.4z M75.8,119.3c-0.9,0.5-1.7-0.1-2.5-0.1
	c-0.8,0-1.7-0.2-2.4-0.7c-0.3-1.2,0.1-2.5-0.5-3.6c0.1-0.8,1.1-1,1.1-1.8c1.4,0.5,2.7,0.6,4.2,0.7C75.8,115.7,75.8,117.5,75.8,119.3
	z M76,111.8c-1.6-0.3-3.1,0-4.6-0.3c-0.3-0.7,0.2-1.5,0.2-2.1c0-0.5,0.1-0.9,0.1-1.4c0-0.9-0.1-1.1,1.2-1.4c1-0.2,2.6,0.1,3.5,0.9
	C76.3,109,76.2,110.4,76,111.8z M76.2,81.6c-0.7,0.2-1.6-0.1-2,0.9c-0.6-0.7-1.2-0.7-1.8-0.9c0.1-1.2,0.9-1.9,1.5-2.8
	c0.2-0.3,0.3-0.7,0.6-1c0.2-0.5,0.6-0.5,1-0.3C75.9,78.8,76.5,80.2,76.2,81.6z"/>
<g>
	<path class="st1" d="M70.9,9.1c0.3-0.9-0.1-1.7,0-2.6c-0.7-0.1-1.1,0.1-1.6,0.6c0.1,0.6,0.3,1.1,0.1,1.6c-0.3,0.9-0.1,1.7,0,2.6
		c0.1,0.7,0.5,0.9,1,1c0.9-0.6,0.7-1.4,0.6-2.1C71,9.8,70.8,9.4,70.9,9.1z"/>
	<path class="st1" d="M152.8,36.2c-0.3,0-0.3,0.3-0.6,0.5c-1.2-0.1-2.3-0.8-3.3-1.4c-1.1-0.6-2.4-0.8-3.3-1.7
		c-0.1,0-0.1-0.1-0.2-0.1c-1-0.1-1.9-0.7-2.9-1.1c0.1-1.5-0.3-3.1,0.3-4.5c1.2,0.2,2.3,0.7,3.3,1.1c0.6,0.2,1.2,0.3,1.8,0.1
		c0.3-0.1,0.5-0.6,0.6-0.8c-0.6-1.4-1.5-1.8-2.8-1.8c-0.9,0-1.7-0.3-2.6-0.7c-0.2-0.9-0.2-1.8,0-2.7c0.2-1,0-2,0.3-3.1
		c0-0.1-0.1-0.5-0.2-0.6c-0.1-0.1-0.2-0.1-0.2-0.2c-0.3,0-0.7,0.2-0.9,0.3c-0.8,1.7-0.5,3.6-1.1,5.3c-2.1-0.3-4.2-0.6-6-1.5
		c-0.3-1.1,0.3-2.1-0.1-3.1c0.3-0.3,0.7-0.5,1.1-0.6c1.8-0.3,3.6-0.7,5.4-0.8c0.6,0,1-0.2,1.6-0.3c0.5-0.1,0.9-0.5,0.8-1
		c-0.2-0.5-0.9-0.3-1-0.9c0.3-2,0.2-2.3-0.8-2.6c-1.1,0.7-1.1,1.9-1.1,3.1c-0.3,0.2-0.7,0.5-1,0.5c-1.5,0.2-2.9,0.5-4.5,0.8
		c-1,0.2-1.6,0.7-1.9,1.7c0.7,0.6,0.5,1.4,0.5,2.1c0,0.5-0.5,0.7-0.9,0.6c-0.8-0.3-1.7-0.2-2.6-0.6c-0.8-0.3-1.6-0.6-2.5-0.8
		c-1.6-0.5-3.1-1-4.6-1.4c-1.2-0.3-2.5-1-3.7-1.4c-1.2-0.3-2.4-1.1-3.7-1.4c-1.4-0.2-2.8-0.7-4.1-1.2c-1.5-0.6-2.9-1.2-4.5-1.7
		c-1.6-0.5-3.3-0.8-4.9-1.4c-1.1-0.3-2.3-0.7-3.4-0.9c-0.6-0.1-1.1-0.6-1.7-0.7c-1.5-0.5-3.1-0.6-4.5-1c-0.9-0.3-1.8-0.6-2.7-0.9
		c-1.7-0.5-3.4-0.9-5.1-1.2c-0.5-0.1-0.9,0-1.2-0.1c-1.9-0.6-4-0.9-5.9-1.5c-0.6-0.1-1.1,0-1.6-0.2c-1.5-0.8-3.2-1.1-4.6-2
		c-0.3-0.2-0.8-0.3-1.2-0.5c-0.7-0.2-0.9,0-1,0.7c0,0.2,0,0.5,0,0.7c0.2,0.1,0.3,0.2,0.5,0.3c1.4,0.6,2.7,1,4.1,1.5
		c0.8,0.3,1.7,0.6,2.5,1c1.1,0.6,2.1,1,3.3,1.5c1.4,0.6,2.7,1,4,1.7c1.6,1,3.3,1.2,5,2c1,0.5,2.4,0.1,3.3,1c0,0,0.2,0,0.2,0.1
		c1.2,0.2,2.4,0.3,3.6,0.6c1,0.2,2,0.5,3.1,0.8c0.8,0.3,1.6,0.7,2.5,0.9c0.8,0.2,1.6,0.2,2.4,0.7c0.3,0.2,0.7,0.6,1.2,0.3
		c0.1-0.1,0.3,0.1,0.5,0.2c0.2,0.5,0.7,0.6,1,0.8c0.7,0.5,1.6,0.3,2.3,0.9c1.1,0.8,2.3,1.2,3.7,1c0.3,0.3,0.5,0.8,0.8,0.8
		c0.8,0.1,1.5,0.7,2.3,0.9c1.4,0.5,2.7,1,4,1.8c0.7,0.5,1.6,0.9,2.4,1.1c0.9,0.3,1.8,0.8,2.6,1.4c1,0.7,2.3,0.8,3.3,1.6
		c1.7,0.3,3.3,1.2,4.9,2c0.2,0.1,0.6,0.2,0.8,0.7c-0.1,0.6,0.3,1.2,0.2,2c-0.1,0.9-0.2,1.9-0.2,2.8c0.1,2.1-0.5,4.3-0.3,6.4v0.1
		c-0.6,1.7,0,3.6-0.6,5.3c0,3.7,0,7.3-0.2,11.1c-0.1,1.5,0,2.9,0,4.3c0,0.3,0,0.7-0.1,1c-0.2,0.8-0.2,1.5,0,2.3
		c0.1,0.2,0.1,0.5,0,0.7c-0.1,0.1-0.1,0.2-0.1,0.4h1.3c0.1-1,0.1-2,0.3-3.1c0.6,1.2,0.9,2.1,1.4,3.1c0,0,0,0,0,0h2.3
		c0-0.3,0.2-0.6,0.5-0.9c0.7-0.7,1.4-1.4,1.9-1.9c0.5,0.2,0.6,0.5,0.5,0.8c-0.1,0.7-0.2,1.4-0.2,2.1h1.5c0-0.2,0-0.4,0-0.6
		c-0.1-1.6,0.2-3.3-0.2-4.9c-0.1-0.3-0.1-0.8,0-1c0.3-0.9,0.2-1.8,0.1-2.7c0-0.5-0.2-1-0.1-1.4c0.3-1.7,0.2-3.3,0.1-5
		c0-0.2,0-0.5,0.1-0.7c0.2-0.5,0.2-0.9,0.2-1.5c0-1.5,0.1-3.1,0.2-4.5c0.2-2.4,0.1-4.9,0.3-7.2c0.1-1.1,0.3-2.1,0.5-3.1
		c0.6-0.2,1,0,1.4,0.2c1.2,0.8,2.7,1.2,4,1.9c1.1,0.6,2.5,1,3.6,1.6c0.3,0.1,0.6,0.1,0.9,0c0.5-0.2,0.2-0.6,0.3-0.8
		c0.3-0.2,0.8,0.1,1.1-0.3C153.3,37,153.2,36.4,152.8,36.2z M135.2,24.9c0.5,0.8,1.4,1,2,1.1c0.6,0.1,1.2,0.2,1.8,0.5
		c0.6,0.2,1.1,0.6,1.7,0.9c0.1,1.2,0,2.5,0,3.7c-1.2,0.5-2.1-0.5-3.2-0.8c-1-0.3-2.1-0.5-2.9-1.4C134.7,27.6,134.5,26.1,135.2,24.9z
		 M131.9,28.1c-1.4-0.3-2.7-1-4.1-1.7c-0.6-0.3-1.2-0.5-1.8-0.8c-0.8-0.5-1.7-0.8-2.5-1.2c-0.7-0.5-1.6-0.7-2.4-1
		c-1.9-0.8-3.7-1.7-5.7-2.5c-1.2-0.6-2.4-1.1-3.6-1.5c-1.2-0.3-2.3-1-3.5-1.2c-1-0.2-2-0.8-2.9-1.2c-1.2-0.6-2.3-1.4-3.7-1.5
		c-0.2,0-0.5-0.2-0.5-0.6c1.6,0.1,2.9,0.7,4.4,1.2c0.2,0.1,0.5,0.2,0.8,0.2c0.7,0.1,1.4,0.2,1.9,0.5c1.1,0.6,2.5,0.6,3.6,1
		c0.5,0.2,0.6-0.2,0.9-0.3c0,1,0.9,1.2,1.6,1.5c0.9,0.2,1.8,0.3,2.6,0.9c0.2,0.1,0.3,0.2,0.7,0.1c0.7-0.3,1.1-0.1,1.6,0.5
		c0.6,0.7,1.4,0.6,1.9,1.1c0.2-0.2,0.5-0.3,0.6-0.5c0.7,0.7,1.7,0.9,2.4,1.6c0.5-0.2,0.9-0.1,1.5,0.1c0.9,0.3,1.9,0.8,2.9,0.9
		c0.7,0.1,1.2,0.7,1.9,0.6c0.7,0,1.1,0.5,1.7,0.6c0.3,0.1,0.8,0.2,1.1,0.5c0.2,1.1-0.3,2.1,0,3.2C132.8,28.5,132.3,28.2,131.9,28.1z
		 M140.7,35.4c-0.1,0.2-0.1,0.5-0.1,0.7c-0.1,1.6,0,3.2-0.2,4.7c-0.2,1.7,0,3.4-0.1,5.1c-0.1,1.8-0.2,3.6-0.5,5.4
		c0,0.2,0,0.5,0.1,0.7c0.1,1,0.2,2.1-0.1,3.2c-0.1,0.2-0.1,0.6,0,0.8c0.5,1.4,0.1,2.6,0.1,4c0,0.2-0.1,0.3-0.1,0.6
		c0.2,1.4-0.3,2.3-1.2,3.1c-0.8,0.7-1.5,1.4-2,2c-0.2,0.2-0.3,0.3-0.6,0.6c-0.3-0.5-0.6-1-0.7-1.5c-0.3-1-0.7-1.9-1.7-2.3
		c-0.2-1.1-0.2-2.1-0.1-3.3c0.1-1-0.1-2,0.2-3.1c0.1-0.2,0.1-0.7,0-0.9c-0.5-2.6,0.1-5.2,0.1-7.7c0-1.8,0.1-3.7,0.3-5.5
		c0.1-0.9-0.1-2,0.1-2.9c0.5-2.1,0.2-4.3,0.2-6.4c0-0.5-0.1-1,0.6-1.5c0.9,0.7,2.1,0.6,3.1,1.4c1.1,0,1.8,1,2.9,1.2
		C140.8,34.2,140.9,34.8,140.7,35.4z"/>
</g>
<path class="st0" d="M141.3,121c0-3.8,0-7.7,0-11.5c0-0.3,0.1-0.8,0-1.1c-0.1-0.5,0-0.8,0.1-1.1c0.2-0.5,0.2-1,0.2-1.5
	c0.1-1.4-0.5-2.6,0-4c0.1-0.2,0-0.5-0.1-0.7c-0.2-0.5-0.1-0.9-0.1-1.4c0-0.9,0-1.9,0-2.8c0-1.4,0.1-2.8,0-4.2
	c-0.1-1.4-0.2-2.7-0.2-4.1c0-2.6,0-5.3,0-7.9c0-1-0.1-2.1,0-3.1c0.2-1.1-0.1-2.1,0-3.2c0.1-1.7-0.2-3.4,0.2-5.1c0-0.1,0-0.2,0-0.2
	c-0.3-0.8-0.2-1.7-0.1-2.5h-1.5c-0.1,0.1-0.1,0.2-0.2,0.2c-0.5,0.3-0.8,0.9-1.4,1.2c-0.3-0.6-0.7-0.9-0.8-1.4c0,0,0-0.1,0-0.1h-3.2
	c-0.3,0.3-0.6,0.6-0.9,1c0-0.3,0-0.7,0-1h-1.3c0,0.4,0,0.8,0,1.1c0,0.5-0.1,1-0.1,1.5c-0.1,1-0.9,1.8-1.4,2.6
	c-0.3,0.5-0.7,0.9-0.2,1.5c0.5,0.6,0.9,0,1.4-0.2c0,1.6,0,3.2,0,4.7c0,0.2,0,0.5-0.2,0.7c-0.5,0.5-0.5,1-0.2,1.5
	c0.1,0.5,0.1,0.8,0.1,1.2c-0.1,1.5-0.1,3.1-0.2,4.5c-0.1,2.3-0.5,4.6-0.3,7c0,0.7,0.1,1.4,0,1.9c-0.5,1.5-0.1,2.9-0.5,4.4
	c-0.3,1.7,0,3.4-0.3,5.1c-0.3,1.5-0.3,3.1-0.3,4.5c0,0.1-0.1,0.2-0.3,0.3c-0.3-0.7-0.9-1-1.7-0.6c-0.2,0.5-0.1,0.9,0.1,1.2
	c0.5,0.8,0.7,1.7,1,2.6c0.6,1.6,0.6,2.9-0.8,4.2c-0.6,0.5-0.7,1-0.5,1.6c0.2,0.7,0.8,0.3,1.2,0.3c-0.2,2.5-0.6,4.9-0.6,7.2
	c0.6,0.3,0.9-0.1,1.2,0c0.7-1.4,0.2-2.8,0.5-4.3c1-0.6,1-2.1,2.4-2.8c0.6,0.6,1.2,1,1.4,1.9c-0.8,0.7-1.2,1.8-2.4,2.4
	c-0.1,0.1-0.3,0.2-0.3,0.3c-0.2,0.6-0.8,1.1-0.2,1.8c0.6-0.1,1.2-0.1,1.4-0.9c0-0.2,0.2-0.2,0.3-0.3c0.9-0.6,1.8-1.2,2.4-2.1
	c1.8,1.4,3.1,3.4,5,4.4c0.6,1,0.6,2.1,0.3,3.2c-0.3,1.6-0.1,3.2-0.2,4.7c0.5,0,0.9,0.1,1.2-0.2c0.2-1.9,0-3.7,0.3-5.7
	c0.1-0.6,0.2-1.1,0.7-1.6c-0.7-0.7-0.6-1.4-0.7-2.1C141.3,123.3,141.3,122.2,141.3,121z M135.8,67.4c0.7,0.6,0.9,1.5,1.9,1.6
	c-0.9,1.7-1.8,3.3-3.2,4.6c-0.8-0.6-0.6-1.5-0.9-2c0.5-0.7-0.3-0.9-0.5-1.4C134,69.3,134.8,68.4,135.8,67.4z M132.7,80.3
	c0-1.6,0.6-2.6,1.9-3.6c0.9,0.2,1.4,0.9,2,1.5c0.5,0.5,0.9,0.5,1.2-0.1c-0.1-0.7-0.5-1-1-1.4c-0.5-0.3-0.9-0.8-1.2-1.2
	c0-0.5,0.2-0.7,0.5-1c1-1.4,1.7-2.8,2.9-4c0.2-0.2,0.2-0.5,0.3-0.7c0.1-0.3,0.3-0.7,0.8-0.8c0.2,0.2,0.2,0.6,0.2,0.8
	c-0.5,1.6-0.2,3.2-0.2,4.9c0,0.8-0.1,1.6,0.2,2.4c0.2,0.6-0.3,1-0.2,1.6c-1.9,1-3.2,2.6-4.4,4.2c-0.7-0.2-0.7-0.7-0.7-1.1
	c0-0.5-0.1-0.8-0.5-1.1c-0.2-0.2-0.5-0.3-0.8-0.2c-0.3,0.1-0.6,0.5-0.5,0.8c0.2,0.7,0.1,1.4,0.3,1.9c0.7,1.6-0.3,2.6-1.4,3.7
	C132.4,84.6,132.7,82.5,132.7,80.3z M140,85c0.2,1.2,0.2,2.6-0.1,4.1c-0.6,0.2-1-0.1-1.2-0.5c-0.8-1-1.9-1.8-2.6-2.9
	c-0.2-0.3-0.2-0.8,0-1.1c0.7-1.1,2.4-2.8,3.7-3.7C140.3,82.3,139.9,83.6,140,85z M132.1,89.5c0.9-1,1.8-1.9,2.5-2.9
	c1.1,0.9,2.3,1.9,3.2,3.2c-0.6,1.6-2,2.6-3.1,3.8c-0.7-1-0.8-1.8-0.5-3.4c-0.2-0.3-0.7-0.3-1.1-0.3c-0.6,1.7-0.7,3.3,0.3,4.9
	c-0.2,1-1,1.5-1.6,2.3c0-1.2,0.5-2.5-0.1-3.7C132.3,92,132.1,90.7,132.1,89.5z M130.4,118.1c-0.3-0.8,0.3-1.4,0.1-2.3
	C131.2,116.8,131.2,116.8,130.4,118.1z M132.7,110.2c-0.5-0.5-1-0.8-1.7-1.1c0-1.1,0-2.3,0.1-3.5c0.2-1.6,0.5-3.3,0.3-4.9
	c0-0.7,0.1-1.2,0.7-1.8c0.7-0.6,1.1-1.4,1.7-2c1.8,1.8,2.9,4.1,5.2,5.3c0.5-0.2,0.3-0.6,0.2-0.8c-0.3-0.5-0.6-1-0.9-1.5
	c-0.7-0.9-1.5-1.7-2.3-2.5c-0.2-0.3-0.6-0.6-0.7-1c-0.1-0.5-0.2-0.9,0.1-1.2c0.9-0.9,1.4-2.1,2.3-2.9c0.8-0.7,1.2-1.6,2.3-2.1
	c0.3,1,0.2,2.1,0.1,3.2c-0.1,1.1,0.5,2.1,0.2,3.2c-0.2,1,0.2,2.1,0.1,3.2c0,1,0,2.1,0,3.3c-1.2,0.5-1.9,1.5-2.8,2.3
	c-0.5,0.5-0.8,0.8-1.2,1.2c-0.7,0.8-1.5,1.5-2.8,1.2C134.2,108.9,133.6,109.5,132.7,110.2z M133.8,111.9c0.2-0.5,0.6-0.8,1-1
	c0.6,0.5,0.2,1.1,0.7,1.6c-0.2,0.1-0.5,0.2-0.7,0.3C134.4,112.7,134,112.3,133.8,111.9z M135.3,118.3c-1.1-1-1.4-1.5-0.8-2.3
	c0.5,0.6,0.7,1.1,1.5,1.5C135.7,117.9,135.5,118.1,135.3,118.3z M135.6,114.9c0.2-0.3,0.3-0.6,0.6-0.6c1.1,1,1.1,1.2,0.7,2
	C136.2,116.1,136.2,115.4,135.6,114.9z M140.2,124.1c-1.5-1.4-2.7-2.7-3.7-4.2c0.2-0.5,0.6-0.6,0.9-0.7c0.7,1.1,1.7,1.8,2.8,2.3
	C140.2,122.3,140.2,123.1,140.2,124.1z M140.1,120.2c-0.8,0-0.8-0.8-1.2-1.1c-0.5-0.3-0.8-0.7-1.1-1.2c0.7-0.9,1.8-1.6,1.5-3.1
	c-0.6-0.1-1-0.2-1.5-0.8c-0.5-0.7-0.6-0.8,0-1.5c0.7-0.8,1.5-1.6,2.1-2.4c0.1,0,0.2,0,0.3,0.1C140,113.5,140.5,116.8,140.1,120.2z
	 M140.5,109.6c-1.8-0.6-2.7,0.8-3.8,1.7c-0.5-0.6-0.6-1.1-0.5-1.8c0-0.3,0.3-0.7,0.7-0.9c0.9-0.8,1.6-1.8,2.5-2.6
	c0.3-0.3,0.7-0.7,1.2-0.8C140.5,106.7,140.5,108.1,140.5,109.6z"/>
</svg>
