<?xml version="1.0" encoding="utf-8"?>
<!-- Generator: Adobe Illustrator 24.1.0, SVG Export Plug-In . SVG Version: 6.00 Build 0)  -->
<svg version="1.1" id="Calque_1" xmlns="http://www.w3.org/2000/svg" xmlns:xlink="http://www.w3.org/1999/xlink" x="0px" y="0px"
	 viewBox="0 0 181 169" style="enable-background:new 0 0 181 169;" xml:space="preserve">
<style type="text/css">
	.st0{fill:#878686;}
	.st1{fill:#F2783A;}
</style>
<g>
	<path class="st0" d="M70,69.8v0.1c0.1,0,0.1,0,0.1,0L70,69.8L70,69.8z"/>
	<path class="st0" d="M154.7,54.6c-0.7-0.3-1.4-0.1-2.1,0.1c-0.5,0.2-0.9,0.3-1.3,0.5c-1,0.3-1.4,0-1.6-1.1c-0.2-1.1-0.4-2.2,0-3.4
		c0.2-0.8,0.2-1.6,0-2.4c-0.6-2.6-1.9-5-3.4-7.2c-1.2-1.8-3-3.4-3.3-5.8c-0.7-1.4-1.6-0.7-2.3-0.2s-1.4,1.1-1.8,1.7
		c-1.9,3-4.6,3.1-7.7,2c-1.4-0.5-1.7-0.6-1.8-2.2c0-1.3-0.3-2.6-0.6-3.7c-0.4-1.3-1-2.4-2.6-2.6c-4.6-0.4-8.9,0.8-13.3,1.9
		c-0.9,0.4-1.3,1.1-0.8,1.8c0.8,1.2,0.6,2.5,1.1,3.8c0.9,2.1,0.5,3.1-1.3,4.5c-1.6,1.4-1.7,2.4-0.2,3.9c0.6,0.7,1,0.5,1.4-0.1
		c0.6-1,1.7-1.8,2.7-2.4c1.4-0.9,1.4-1.2,0.7-2.9c-0.5-1.4-1-2.7-1.5-4.1c-0.5-1.1-0.1-1.7,1-2.2c2.5-0.8,5.2-1.5,8-1.7
		c1.5,0,2.7,1,2.6,2.6c-0.1,0.8,0,1.5,0,2.4c0.1,1.9,0.1,1.7,2,2.5c0.8,0.4,1.6,0.5,2.5,0.6c1.7,0,3.5,0.1,5,1
		c1.6,1,2.3,0.5,3.2-0.7c0-0.1,0.2-0.2,0.3-0.3c1.4-1.2,2.1-1.3,3.3,0.1c1.7,1.9,3,4.1,4.1,6.5c0.2,0.4,0.5,1.1,0.1,1.4
		c-1.1,0.9-1.4,3.1-3.6,2.5c0,0,0,0-0.1,0c-1.8,0.3-1.8,0.3-1.6,2.1c0.3,1.6,0.2,3,0,4.6c-0.2,1.5-0.6,3.1-2.4,3.8
		c-0.9,0.3-0.8,1.1-0.1,1.3c2,0.6,3,2.4,4.2,3.9c1.1,1.1,1,1.5-0.4,2.3c-2,1.1-4.1,2.2-6,3.3c-2.4,1.2-2.4,1.2-4.3-0.5
		c-0.8-0.8-1.7-1.4-2.9-1.8c-3.3-1.4-6.7-0.8-10.1-0.3c-0.7,0.1-1.1,0.5-1.5,1.1c-0.5,0.9-0.9,1.8-1.4,2.5c-0.9,1.4-1.4,1.4-2.7,0.6
		c-1.3-0.6-2.3-1.4-3.5-2.2c-1.8-1.2-1.9-1.6-0.6-3.4c0.7-1.1,1.5-2,2.3-3c0.5-0.7,0.6-1.3,0-2c-0.9-1.1-1.4-2.3-1.9-3.6
		c-0.8-1.7-1.6-3.2-2.7-4.7c-0.4-0.4-0.7-1.1-1.3-1.1c-1.7,0-2.5-1.1-3-2.5c-0.2-0.3-0.3-0.7-0.5-1c-0.1-0.1-0.4-0.4-0.7-0.4
		c-0.4,0-0.7,0.3-0.8,0.6c-0.6,1.6,0.4,3,0.8,4.4c0.3,0.9,1.2,0.7,1.9,0.8c1.2,0.2,2.4,0.8,3,2c0.3,0.6,0.5,1.3-0.1,1.6
		c-0.6,0.5-1.3,1.5-2.3,1.4c-0.7,0.1-0.9-1-1.2-1.6c0-0.1-0.1-0.3-0.2-0.4c-0.3-0.5-0.7-0.7-1.3-0.4c-0.6,0.3-0.6,0.7-0.4,1.3
		c0.4,0.7,0.7,1.2,1,1.9c0.2,0.3,0.2,0.7-0.1,0.9c-0.4,0.3-0.6,0.1-0.9-0.2c-1.3-1.4-1.2-1.3-3-0.3c-2,1.1-3.7,2.5-5,4.4
		c-1.1,1.5-1.9,1.4-3.4,0.5c-0.7-0.4-1.3-1-1.9-1.5c-0.6-0.5-1.2-0.6-2-0.3c-2.5,1.1-4.9,0.8-7.3-0.6c-2.2-1.3-4.6-2.6-6.8-3.9
		c-1.5-0.9-3.1-1.1-4.6,0c-0.7,0.5-1.4,0.8-2.1,1.3c-0.9,0.5-1.7,0.6-2.6-0.1c-1.2-0.8-2-1.9-2.9-3c-2-2.5-2-2.5,0.6-4.2
		c0.7-0.3,1.3-0.9,1.3-1.8c-0.2-2.6,0.2-5,0.2-7.6c0.1-1.5-0.5-2.4-2-3.2c-2.1-1.1-4-2.5-5.9-3.7c-1.3-0.8-1.7-1.9-1.2-3.4
		c0.1-0.3,0.4-0.8,0.5-1.2c1.1-2.8,1.1-2.8,3.6-1.2c1.2,0.8,2.2,1.6,3.4,2.4c1.1,0.8,2,0.6,3-0.2c2.6-2.2,5.3-3.6,8.4-4.9
		c0.7-0.3,1.1-0.7,1.1-1.6c-0.1-0.8-0.3-1.7-0.6-2.5c-0.3-1.1-0.6-2.2-1-3.5c-0.4-1.6-0.1-1.7,1.3-2.1c2.2-0.4,4.3-0.3,6.3-0.3
		c3.1,0.1,4.2,0.8,3.2,4.1c-0.5,1.5-0.2,2.5,1.3,3.3c2.8,1.6,5.5,3.1,8.1,4.7c0.9,0.6,1.9,0.5,2.7-0.1c1.2-0.9,2.6-1.1,4-1.6
		c1.7-0.7,3.6-0.1,4.1,1.2c0.6,1.5,1.1,3.1,1.8,4.6c0.4,1.2,0,1.6-1,1.8c-1.1,0.3-2.3,0.7-3.4,0.8c-0.7,0.1-1.1,0.4-1.1,1.1
		c0.1,1.7-0.7,3-1.3,4.3c-0.3,0.9-0.9,1.8-1.1,2.8c-0.4,1.2,0.1,1.6,1.4,2.1c0.9,0.4,1.4,0.1,1.8-0.8c0.1-0.5,0.4-1.1,0.5-1.5
		c1-2.8,2.3-5.3,4.2-7.5c0.4-0.4,0.7-0.4,1.1-0.3c0.3,0.2,0.7,0.4,1,0.4c1,0.2,1.6-0.4,1.1-1.2c-1.3-2.7-2.5-5.7-3.5-8.6
		c-0.5-1.3-1.5-1.7-2.8-1.6c-2.6,0.3-5.1,0.6-7.5,1.4c-1.6,0.5-2.7,0.4-3.9-0.5c-0.6-0.4-1.2-0.9-1.8-1.2c-2.3-1.2-3.3-3-2.7-5.6
		c0.1-0.6,0.1-1.2-0.1-1.6c-0.4-1.4-1.1-2.2-2.7-2.4c-2.6-0.3-5.1-0.9-7.6-0.2c-0.9,0.2-1.7,0.3-2.6,0.3c-1,0.1-2,0.1-3,0.3
		c-1.4,0.2-1.6,0.7-1,1.9c0.8,1.5,1.1,3.2,1.8,4.9c0.3,1.2,0.1,2-1,2.8c-2,1.3-3.9,2.5-5.8,3.9c-1.7,1.3-3.1,1.2-4.6,0
		c-1.2-0.9-2.5-1.6-4-2.2c-1.5-0.8-2.3-0.5-2.8,1.1c-0.5,1.6-0.8,3.3-1.6,4.8c-0.7,1.5-0.4,2.6,0.8,3.7c1.9,1.8,4.1,3.1,6.5,4.4
		c1.5,0.7,2.3,1.8,2.2,3.4c-0.2,0.6-0.1,1-0.1,1.6c0.4,2.8-1.2,4.4-3.4,5.7c-1.7,1-1.9,2.1-0.7,3.5c2.3,2.4,4.7,4.9,7.1,7.3
		c0.9,0.9,2,1.2,3.2,0.4c1-0.5,2-0.9,2.8-1.7c0.1-0.2,0.4-0.4,0.5-0.5c0.8-0.6,2.2-0.4,3,0.4c0.3,0.2,3.2,3.4,6.5,3.9
		c0.2-0.3,5.4,2,4.8,1.5c1.7-0.6,3.4-1.1,4.9,0.4c0.4,0.3,0.9,0.5,1.3,0.8c2.1,1.1,2.1,1.1,4-0.4c1-0.8,1.3-0.6,1.5,0.5
		c0.4,1.5,0.6,2.9,0.8,4.5c0,0.7,0.4,1.4,1.2,1.2c0.9-0.2,1.4-0.8,1.1-1.6c-0.4-1.5,0-3.1-0.8-4.5c-0.2-0.3-0.3-0.5,0.1-0.7
		c0.1,0,0.2,0.3,0.4,0.4c1.2,1.5,1.2,1.7,2.6,0.6c0.6-0.6,1.5-0.6,2.2-0.8c1.4-0.5,1.8-0.4,2.6,1c0.4,0.5,0.5,1.1,1.1,1.2
		c1.5,0.2,2,1.4,3,2.1c0.4,0.2,0.3,0.5-0.1,0.7c-1.1,0.5-2.4,1-3.5,1.6c-1.7,0.8-2.1,1.5-1.6,2.2c0.5,0.6,1.8,0.6,3-0.2
		c0.3-0.2,0.4-0.4,0.7-0.6c0.7-0.5,1.4-1.1,2.2-1.4c1.1-0.3,2.2-1.4,3.3,0c0.2,0.2,0.7,0.1,1-0.1c0.2-0.1,0.6-0.1,0.6,0
		c-0.1,1.3,1.4,1.6,1.6,2.9c0.3,2.1,0.7,4.1,0.9,6.1c0,0.5,0.2,1.2,0.9,1.2c0.8,0.1,1-0.6,1.1-1.3c0.1-0.4-0.1-0.8-0.1-1.1
		c-0.6-2.9-1.1-5.5-1-8.4c0-0.4-0.5-0.9,0.1-1.1c0.6-0.1,0.6,0.6,0.8,1c0.2,0.2,0.2,0.5,0.2,0.8c0.5,2.3,1.1,4.5,1.6,6.8
		c0,0.4,0.3,0.9,0.9,0.9c0.5,0,0.8-0.4,0.9-1c0.2-1.3,0.1-2.6-0.5-3.7c-0.7-1.3-0.8-2.9-1.4-4.1c-0.3-0.7-0.1-1.7,0-2.6
		c0.1-0.4,0.5-0.5,0.8-0.2c0.3,0.3,0.6,0.7,0.6,1c0.4,1.3,0.7,2.5,0.8,3.8c0.1,1.7,0.7,3.3,1.1,4.8c0,0.3,0.3,0.7,0.7,0.5
		c0.4-0.2,0.5-0.5,0.5-0.9c0-0.3-0.2-0.6-0.2-0.7c-0.8-1.9-0.6-4.2-1.3-6.3c-0.2-0.6-0.2-1.3,0.2-1.9c0.4-0.6,0.8-0.7,1.3-0.2
		c0.8,0.8,1.1,1.8,1.3,2.9c0.1,1.7,0.5,3.2,0.7,4.8c0.1,0.5,0,1,0.6,1c0.7-0.2,0.6-0.7,0.6-1.3c0-0.4-0.2-0.7-0.2-1.1
		c-0.4-2-0.6-3.8-1-5.8c-0.2-0.8,0.2-1.3,1.1-0.9c1.3,0.5,2.6,0.8,3.4,2c0.6,0.9,1.5,1.5,2.7,1.9c1.2,0.2,1.6,1,1.7,2.3
		c0.2,3.1,0.3,6.3,0.5,9.4c0.1,1,0.3,2,0.6,3c0.2,0.4,0.3,0.8,0.9,0.8c0.6,0,1-0.3,1.1-0.9c0.1-0.4,0.1-0.8-0.1-1.1
		c-1.2-4.6-0.6-9.3-1.3-14c-0.1-0.6,0-1,0.6-1.2c0.9-0.2,1,0.3,1.2,0.9c0.4,1.5,0.6,2.9,0.7,4.5c0.1,1.7,0.5,3.4,1,5.1
		c0.2,0.5,0.4,1.1,1.2,0.9c0.6-0.2,0.5-0.7,0.5-1.3c-0.5-3.4-0.9-6.8-1.4-10.2c-0.2-1-0.6-2-1.6-2.5c0.3-0.6,0.7-0.7,1.3-0.4
		c0.4-0.3,0.7-1.5,1.3-0.1c1.2,2.8,2.4,5.7,3,8.8c0.3,1.1,0.7,2.4,1,3.5c0.2,0.4,0.2,0.8,0.6,0.8c0.6,0,0.6-0.6,0.7-1
		c0-0.3,0-0.4,0-0.7c-0.6-3.6-1.5-6.9-2.7-10.3c-0.4-1.1-0.4-1.9,0.7-2.7c1.1-0.6,1-1.3,0.2-2.1c-1.1-1.2-2-2.6-2.8-4
		c-0.4-0.7-0.3-1.2,0.6-1.2c0.4-0.1,0.7-0.1,1.1-0.1c2.2-0.1,2.2-0.1,2.7,1.9c0.4,1.4,0.7,2.8,1.1,4.1c0.2,0.7,1.2,1.2,1.9,0.9
		c0.6-0.3,0.5-0.8,0.3-1.4c0-0.2,0-0.5-0.2-0.8c-0.8-1.4-0.4-3.1-0.8-4.5c-0.1-0.9,0.4-1.2,1.1-1.5c0.9-0.3,1.9-0.7,2.7-1
		c0.3-0.1,0.6-0.4,0.4-0.7c-0.1-0.3-0.4-0.4-0.7-0.4c-0.9-0.1-1.6,0.2-2.4,0.4c-0.6,0.1-1.1,0.2-1.3-0.4s0.1-1,0.5-1.3
		c0.7-0.3,1.3-0.9,2.1-1.1c0.7-0.2,1.4-0.5,2.1-0.7c0.2-0.2,0.5-0.3,0.5-0.6C155.4,54.8,155.1,54.7,154.7,54.6z M104.1,67.8
		c-0.5,0.1-1,0-1.2-0.4c-0.2-0.7,0.4-1.2,0.8-1.2c1.4,0,2.2-0.9,2.7-2.1c0.3-0.5,0.8-0.9,1.4-1.1c1-0.5,1.9,0.2,1.8,1.3
		c-0.1,0.3-0.2,0.7-0.5,1.1C107.6,66.6,105.9,67.4,104.1,67.8z M125.6,72.1c-0.6,0-1.1,0.1-1.7,0.1c-1-0.1-1.8,0.1-2.8,0.3
		c-0.3,0.1-0.7,0.8-1,0.1c-0.1-0.2,0.4-0.5,0.7-0.7c0.5-0.2,0.9-0.4,1.3-0.4c1.1,0.1,2.3,0,3.4-0.2c0.3,0,0.6,0,0.6,0.4
		C125.8,71.7,125.7,71.9,125.6,72.1z M136.6,75.6c-0.1,0-0.3-0.2-0.3-0.3c-0.1-0.5,0.2-0.5,0.5-0.5c0.2,0.2,0.5,0.3,0.3,0.3
		C137.2,75.4,136.9,75.6,136.6,75.6z M145.8,54c0.5-0.2,0.8,0.2,1,0.8c0.2,0.8,0.2,1.8,0.3,2.8c0.1,0.8-0.5,1.2-1.4,1.5
		c-0.2,0-0.7-0.1-0.7-0.5c-0.2-1.1-0.2-2.3-0.3-3.4C144.7,54.5,145.1,54,145.8,54z M147.2,61.5c-0.7,0.3-1.4,0.5-2.1,0.5
		c-0.4,0-0.6-0.3-0.3-0.6c0.6-0.6,1.3-0.8,2.2-0.7c0.1,0,0.3,0.1,0.3,0.4C147.3,61.3,147.4,61.4,147.2,61.5z"/>
	<path class="st0" d="M85.4,35.9c-1.5-1.1-3-1-4.7-0.2c-3.9,1.9-6,5.1-6.1,9c-0.2,1.7-0.2,3.1-0.1,4.5c0.2,1.7,0.7,3.2,1.8,4.6
		c1,1.5,2.7,2.3,4.5,2.2c3.7-0.2,6.7-1.6,9-4.6c2.9-3.7,1.9-9.7-0.9-13.5c-0.1-0.1-0.4-0.3-0.7-0.4C87.2,37.2,86.3,36.6,85.4,35.9z
		 M81.4,37.4c0.7-0.3,2.7,0.7,2.9,1.3c0.2,0.8-1,1.5-2.3,1.6c0,0-0.1,0-0.1,0c-1.1-0.1-1.7-0.6-1.9-1.5
		C79.9,37.8,80.7,37.6,81.4,37.4z M83.7,53.8c-3.4,0.9-5.7-0.7-6.2-4.1c-0.3-1.7-0.5-3.3-0.3-5c0.1-0.7,0.1-1.4,0.4-1.9
		c0.4-0.7,0.8-0.7,1.4-0.2l0.1,0.1c0.8,2.1,2.3,4,2.3,6.4c0,1.9,0.4,3.4,2.4,4.1c0.1,0,0.3,0.2,0.3,0.3
		C84.1,53.8,83.8,53.8,83.7,53.8z M87.8,43c-1.1,0.5-2.1,1-3.1,1.3c-1.1,0.4-1.9,0.1-2.2-1c-0.3-0.9,0.4-1.3,1.1-1.5
		c1-0.4,2-1,3.1-0.9c0.5,0.1,1,0.2,1.6,0.6C88.9,42.4,88.8,42.7,87.8,43z"/>
	<path class="st0" d="M123,52c0.3,0.3,0.4,0.8,0.4,1.4c0.2,1,0.7,1.7,1.8,1.8c0.4-1.2,1.4-1.2,2.1-1.5c0.3,0,0.6,0,0.6,0.3
		c0.1,0.1,0,0.4-0.3,0.4c-0.7,0.3-1.5,0.8-2.4,0.8c-0.2,0.6,0.2,1,0.9,1c0.3,0.1,0.7-0.1,1-0.1c0.5-0.1,1.3-0.1,1.7,0.3
		c0.6,0.4,0.3,1,0.2,1.4c-0.2,0.6,0.1,0.7,0.7,0.7c0.2-0.1,0.5-0.1,0.8-0.3c0.3-0.1,0.5-0.1,0.7,0.2c0.1,0.4-0.1,0.7-0.4,0.9
		c-0.6,0.2-1.1,0.3-1.7,0.5c-0.4,0.2-1,0.1-1.4,0.5c-0.3,0.3-0.7,0.6-0.5,1c0.2,0.5,0.8,0.4,1.2,0.2c0.5-0.1,0.9-0.2,1.3-0.4
		c0.2,0,0.5,0,0.6,0.1c0.3,0.3,0,0.6-0.1,0.7c-0.3,0.2-0.4,0.4-0.7,0.6c-2.8,2.3-3,2.9-5.7,0.6c-0.3-0.2-0.8-0.5-1.2-0.2
		c-0.5,0.5-0.5,1-0.2,1.6c0.6,1.2,3.5,2.1,4.9,1.3c4.8-2.8,7.4-7.4,7.1-13.5c0-0.3-0.1-0.7-0.5-0.8c-1.7-0.3-1.9-1.7-2.3-3
		c-0.2-0.6-0.2-1.1-0.8-1.4c-1.8-0.6-3.2-2.1-5.3-2.3c-2-0.2-2.4,0-2.3,2.1c0,1,0.4,2.1-0.3,2.7C121.6,50.6,122.1,51.2,123,52z
		 M130.7,55.7c0.1-0.3,0.4-0.6,0.8-0.3c0.1,0.2,0.2,0.3-0.1,0.9c0,0-0.3,0.2-0.7,0C130.6,56.1,130.6,55.8,130.7,55.7z M126.8,51.2
		c0-0.9,0.3-1.5,1.2-1.5c0.4,0.1,0.7,0.3,0.7,0.7c0,0.6-0.8,1.4-1.5,1.4C126.9,51.7,126.7,51.6,126.8,51.2z"/>
	<path class="st0" d="M36.3,68c0.9-0.7-0.2-0.7-0.5-1c-0.1-0.3,0.2-0.5,0.3-0.6c2.6-2.6,5-5.3,7.7-7.7c1.4-1.2,3-2.3,4.4-3.5
		c0.3-0.3,0.6-0.5,0.4-0.9c-0.3-0.7-1.8-1.1-2.3-0.6c-1.1,0.9-2.2,1.8-3.3,2.7c-1.9,1.7-3.5,3.7-5.7,5c-1.1,1.2-1.8,2.6-3.3,3.9
		c-0.8,0.6-1.1,1.7-1.6,2.4c-0.3,0.4-0.2,0.8,0.2,1.1C34,69.4,35.2,68.6,36.3,68z"/>
	<path class="st0" d="M71.5,38.7c0.4-0.7,1.1-1.6-0.1-2c-1-0.4-0.9,0.7-1.2,1.3s-0.4,1.2-0.8,1.6c-1.4,1.6-1.7,3.5-2,5.5
		c-0.4,3.7,0.4,7.2,2.2,10.8c0.6,1.1,1.5,1.4,2.5,1.6c0.3,0,0.6-0.3,0.4-0.6c-0.6-1.3-0.9-2.9-1.5-4.1c-2.1-4-2.9-8.1-0.4-12.2
		C70.9,40,71.1,39.3,71.5,38.7z"/>
	<path class="st0" d="M119.8,49.3c-0.2-0.5-0.4-0.9-0.8-1c-0.4-0.1-0.5,0.3-0.8,0.6c-1.1,1.2-0.7,2.8-1.1,3.8
		c-0.2,2.1-0.2,3.8-0.2,5.6c0.1,0.7,0.2,1.3,0.7,1.8c0.6,0.7,1.3,0.4,1.9,0.2c0.4-0.2,0.6-0.5,0.4-0.9c-1.2-2.9-0.8-5.9-0.2-8.8
		C119.8,50.2,120.1,49.7,119.8,49.3z"/>
	<path class="st0" d="M42.2,65.2c-0.6,0.6-1.9,1.3-0.9,2.2c0.7,0.7,1.7-0.4,2.2-1.1c0.7-0.9,1.2-1.8,2.2-2.4
		c1.5-1.1,2.6-2.8,4.1-3.9c0.2,0,0.2-0.2,0.3-0.3c-0.1-0.3-0.2-0.6-0.4-0.6c-0.9-0.2-1.5,0.1-2,0.7C46,61.7,44.1,63.4,42.2,65.2z"/>
	<path class="st0" d="M47.1,65.3c-0.4,0.4-0.1,1.1,0.6,1.2c0.2,0,0.4,0,0.6-0.2c1.5-1.1,2.7-2.4,3.9-3.9c0.2-0.3,0.2-0.7-0.1-1
		c-0.3-0.2-0.7-0.2-1.1,0.1C49.7,62.7,48.3,64,47.1,65.3z"/>
	<path class="st0" d="M46.2,50.1c-0.3,0-0.4,0.1-0.5,0.2C45.8,50.3,46.1,50.4,46.2,50.1z"/>
	<path class="st0" d="M45.6,50.4C45.6,50.4,45.6,50.4,45.6,50.4C45.6,50.4,45.6,50.4,45.6,50.4z"/>
	<path class="st0" d="M115.5,141.4c-1.4,0.1-3.1,0-4.3-0.7c-1-0.5-1.5-1.5-1.8-2.2c-0.4-1.3-2.7-3.9-2.8-4.3
		c-0.6,0.3-0.8,0.8-0.9,1.4c0,0.7,1.3,3.1,1.6,3.7c0.4,0.7,0.3,1.1-0.3,1.7c-0.9,1-2,1.1-3.8,1.1c-1.8-0.1-4.3-0.9-5.3-2.1
		c-0.7-0.9-3-4.2-3.6-5.3c-0.3-0.7-0.8-0.5-1.4-0.1c-0.9,0.6-0.5,1.4-0.9,2c-0.3,0.3,0.8,2.7,1.1,3.6c0.3,0.5-1.7,2.7-2.4,2.8
		c-1.8,0.6-3.4,0.2-5.1-0.1c-0.9-0.1-1.6-1.4-1.3-2c0.9-1.4-0.1-2.1-0.7-3c-0.2-0.2-0.5-0.3-0.6-0.6c-0.4-0.7-1.2-1.1-1.1-2.1
		c0-0.2-0.3-0.8-0.6-1.1c-0.4-0.6-1.3-1.2-1.4-1.9c-0.5-1.6-2-2.7-2.3-4.4c-0.2-0.7-1-1.4-1.6-2c-1-1.1-2.3-2.1-3-3.4
		c-0.8-1.5-2-2.8-3.1-4.1c-1.3-1.3-2.7-2-4-3c-0.5-0.4-1.2-0.9-1.8-1.3c-0.5-0.5-1.2-0.9-2.1-0.6c-0.4-0.9-1.4-0.6-2-0.9
		c-0.2-0.3-0.8-0.2-1.1-0.3c-0.4-0.1-0.9-0.3-1.3,0c-0.3,0.3-0.6-0.2-1-0.1c-1.4,0.6-3,0.4-4.4,1c-0.4,0.2-0.7-0.1-1.1-0.4
		c-0.8-0.9-1.4-1.8-2.4-2.7c-1.3-1.1-2.7-2-4.7-1.4c-0.2,0.1-0.3,0.2-0.6,0.1c-0.6-0.6-1.1-0.3-1.7,0c-0.3,0.1-0.7,0.1-1,0
		c-0.9-0.6-1.8,0.1-2.7-0.6c-0.3-0.2-0.6,0.5-0.9,0.1c-0.4-0.6-1.1-0.5-1.7-0.9c-0.5-0.2-1.2,0.5-1.8-0.1c-0.6,0.6-0.6-0.6-1-0.3
		c-0.5,0.5-1,0-1.4-0.1c-0.8-0.4-1.7-0.5-2.6-0.4c-0.1,0-0.3,0-0.4,0.2c0,0,0,0,0,0c-0.3-0.6-0.9-0.8-1.5-0.6
		c-0.7,0.2-0.8,0.8-0.7,1.4c0.3,0.9,0.8,1.8,0.9,2.9c0.3,1.6,1.3,3,0.9,4.8c0,2.6,0.9,5.1,0.9,7.7c0.3,1.5,0.6,3.1,0.9,4.6
		c0.3,0.9,0.6,1.8,1.6,1.5c1-0.5,0.4-1.2,0.3-2c-0.6-2.3-0.7-4.8-1.3-7.1c-0.9-3.7-1-7.5-1.6-11.2c0.2,0.2,0.6,0.4,1,0.5
		c1.2,0.5,2.5,0.5,3.8,0.6c0.8,0,1.7,0.1,2.4,0.4c1.2,0.6,2.5,0.9,3.8,0.9c2,0.1,3.8,0.7,5.8,0.4c0.7,0,1.1,0.3,1.7,0.6
		c1.2,0.7,2,1.8,3,2.7c0.9,0.7,1.5,1.7,0.6,2.8c-0.1,0.2-0.1,1-0.1,1.3c0.1,0.5,0.7,0.6,0.7,0.6c-0.3,0.4-0.3,0.7-0.3,1.1
		c0.1,0.4,3.5,4.6,3.8,5c0.5,0.5,2.3,2.5,2.6,2.8c0.7,1.1,1.8,1.8,2.7,2.7c0.1,0.2,0.4,0.3,0.7,0.3c0.2,0,0.2,0.1,0.1,0.4
		c-0.4,0.5-0.3,1-0.4,1.6c-0.3,0.7-0.3,1.7,0.6,2.4c-0.2,1.5,1,2,2.1,2.4c0.1,0.1,0.3,0,0.4,0.1c0.9,1,2,1.3,3.3,1.3
		c0.3,0,0.7,0.3,1,0.4c0.4,0.2,0.1,0.7,0.1,1.1c0,0.3,0.3,0.5,0.3,0.9c0,0.7,0.2,1,1.1,1c0.3,0,0.5,0.2,0.6,0.3c0.4,0.4,0.7,1,1.1,1
		c1.3,0,2.1,1.1,3.4,0.7c1.6,0.6,3,0.4,4.6,0c0.3-0.1,0.8-0.1,0.9-0.4c0.4-0.6,1-0.6,1.4-0.9c0.3-0.3,0.9,0,1-0.4
		c0.2-0.5,0.5-0.5,0.6-0.1c0.4,0.8,1,1.7,1.7,2.4c0.4,0.4,3.5,2.8,8.5,0.3c1.8-1,2.6-2.7,2.7-2.6c0-0.1,0.2,0.2,0.3,0.3
		c2.5,1.5,3.7,1.7,6.5,1.9c2.2,0.1,4.2-1.4,5.1-1.8c0.4-0.1,1.7-1.5,1.7-1.1c0,0.4,0.9,1.2,1.4,1.8c1.2,1,4.7,0.5,5.5,0.3l-0.7-2.2
		L115.5,141.4z M54.5,122.3c-2.7-2.7-2.1-5-1.7-5.8c0.1-0.1,0.3-0.9,0.9-1c0,0,0.2,0,0.3,0c0.6,0,1-0.9,1.6-0.6
		c0.6,0.2,1,0.2,1.6-0.1c1.1-0.5,2.1,0.1,3.1,0.4c1.6,0.5,2.8,1,4.5,2.2c1.2,1.3,1.9,2.3,2.3,2.9c-0.3,0.6-0.6,0.9-0.6,1.5
		c-0.1,1.1-1.1,1-1.7,1.1c-1,0.3-2.1,0.3-3.1,0.3s-2.3-0.1-3.3-0.4c-0.5,0-1-0.1-1.6-0.1C55.9,122.7,55.2,122.4,54.5,122.3z
		 M60.6,129.6c-1.1-0.6-2-1.4-2.7-2.4c-0.3-0.5-0.7-0.9-1.1-1.2c-0.3-0.2-0.5-0.3-0.5-0.8c-0.1-0.4,0.2-0.5,0.6-0.6
		c0.6-0.2,0.8,0.1,1.7,0.3c1.1,0.3,5.5,0.4,10-0.9c0.6-0.3,1-0.6,1.2-1c1.2,1,2.7,1.9,3.1,3.2c0.2,0.4,1,0.7,0.6,1
		c-0.7,0.5-0.5,1.5-1.6,1.8c-1,0.3-2,0.6-3,0.7C67.9,129.9,61,129.9,60.6,129.6z M66.3,136.9c-0.1,0-0.3-0.1-0.4-0.1
		c-1,0-1.8-0.7-2.4-1.3c-0.8-0.6-1-1.6-0.9-2.6c0-0.4-0.2-0.9-0.6-1.3c0-0.2-0.1-0.3-0.1-0.4c0.1-0.3,0.3-0.1,0.4,0
		c0.5,0.7,1.4,0.6,2.1,0.3c6.9,0.9,10.7-1.6,10.8-1.6c0.3,0.2,0.2,0,0.6-0.1c0.3,0,0.6,0.4,0.7,0.7c0.4,0.7,1,1.2,1.3,2.1
		c0.1,0.4,0.1,0.7,0,1c-0.3,0.6-0.8,1-0.9,1.6c-0.1,0.5-0.8,0.8-1.4,1.1C74.8,136.6,67.9,137.3,66.3,136.9z M81.3,140.9
		c-0.1,0.4-0.7,0.6-1.1,0.9c-1.1,0.7-1.9,1.1-3.2,1.2c-0.6,0-1.9,0.3-2.6-0.1c-0.5-0.3-1.2-0.3-1.8-0.6c-0.6-0.3-1.3-0.3-2-0.4
		c-0.7-0.1-0.7,0-0.7-0.7c0.1-0.6,0-1.6,0.9-1.8c0.6-0.2,3.9-0.7,6.1-1.2c1.1-0.6,1.8-1.2,2.1-1.8c0.1-0.3,0.4-0.3,0.7-0.3
		c0.3,0.1,0.3,0.4,0.3,0.7c0,0.3,0,0.4,0.4,0.7c0.4,0.3,0.3,0.9,0,1.3c-0.3,0.4-0.1,0.6,0.3,0.7C81.7,139.7,81.8,140.1,81.3,140.9z"
		/>
	<path class="st0" d="M28.6,80c0.4,0,1-0.2,1.6,0.2c0.2,0,0.5,0.1,0.6,0c0.8-0.6,1.9,0,2.6-0.3c1-0.4,1.8-0.3,2.7-0.3
		c1.5,0,2.9,0,4.3,0c0.9,0,1.8-0.3,2.7,0c0.8,0.3,1.5,0.3,2.4,0.3c0.8,0,1.8,0.7,2.7,0c0.4,0.6,0.7-0.1,1.1,0
		c1.5,0.6,3.2,0.2,4.8,0.3c0.8,0,1.8,0,2.8,0c0.7,1,2-0.3,2.7,0.6c0.1,0.2,0.3,0,0.4-0.1c0.3-0.1,0.4-0.1,0.7-0.1
		c1.3,0.1,2.6,0.5,4,0.4c0.6-0.1,1.3,0.4,2,0c1.2,0.4,2.5,0.4,3.6,0.7c1,0.1,2.1,0.1,2.8,1c0.7,0.9,2,1.2,2.4,2.3l1.1-2.1
		c-0.4-0.7-1.3-1-1.7-1.7c-0.7-1.1-1.9-1.2-2.8-2.1c0-0.1-0.3-0.1-0.4-0.1c-0.7,0.6-1.3-0.1-2,0c-0.4,0-0.8-0.2-1.4,0.1
		c-0.5,0.3-0.4-0.8-1.1-0.4c-1.4-0.7-3-0.3-4.4-0.6c-1.7-0.4-3.6,0.1-5.3-0.3c-1.1,0.3-2.3-0.2-3.4-0.1c-0.4,0-0.7-0.6-1-0.9
		l-3.7,1.1c-0.9,0.2-1.7,0.1-2.6,0.1c-0.4-1-1.3-0.5-2-0.6c-0.3,0-0.4,0-0.7,0c-1.8-0.4-1.8-0.4-3.8,0c-0.3,0.1-0.7,0.1-1,0
		c-0.6-0.1-1-0.3-1.6,0c-0.5,0.3-1-0.3-1.6-0.3c-1.7-0.2-3.2,0.5-4.8,0.4h-0.1c-1.1,0.4-2.1,0.4-3.1,0c-0.5-0.3-1,0-1.1,0.7
		C26.9,79.1,27.6,80,28.6,80z"/>
	<path class="st0" d="M158.4,151.3c0,0.1,0,0.3,0.2,0.2c0.1,0,0.1,0,0.1-0.1C158.5,151.4,158.5,151.3,158.4,151.3z"/>
	<path class="st0" d="M27.5,133.8c-0.5-1.8-0.9-3.7-0.7-4.8c0.3-6.3-1.4-11.2-2.8-16.3c-0.1-0.3-0.1-0.6-0.3-0.8
		c-0.4-0.5-0.7-1-1.4-0.8c-0.7,0.1-1,0.6-1.2,1.1c-0.3,0.7,0,1.2,0.2,1.8c1.4,3.4,2.2,6.8,2.4,10.3c0.1,4,0.8,8,1.5,12
		c0,0.5,0,0.8,0.2,1.1c0.3,0.6,1,0.8,1.7,0.6c0.7-0.2,1.1-0.7,0.9-1.3C27.8,135.7,27.8,134.8,27.5,133.8z"/>
</g>
<g>
	<path class="st1" d="M154.1,139.4c-0.3-0.3-0.7-0.7-1,0c-0.5,0.6-1,1-1.6,1.3c-0.2,0.1-0.5,0.3-0.6,0c0,0,0.3-0.2,0.3-0.3
		c0.1-0.2,0.1-0.2,0.1-0.3c-0.2-0.3-1.2-0.7,0.1-1c0.3-0.2,0-0.5-0.1-0.6c-0.4-0.7-1.2-1.1-1.3-2c0-0.6-0.7-0.8-1.1-0.9
		c-0.6-0.3-0.7,0.3-1,0.6c-0.4,0.4-0.9,0.9-1.3,1.3c-0.4,0.3-0.9,0.7-1.3,0.7c-0.6,0-0.3-0.7-0.6-1.1c-1-1.4-1.7-3.1-2.3-4.8
		c-0.1-0.1-0.3-0.3-0.4-0.4c-0.4-0.1-1.2,0.6-1.1,1c0.4,0.7,0.3,1.7,1,2.4c-0.5,0.3,0.2,0.6,0.1,0.9c-0.5,0.7,0.1,0.7,0.4,1
		c0.3,0.3,0,0.6,0,0.9c-0.2,0.6-0.2,0.9,0.3,1.2c0,0.3,0,0.5,0,0.6c0.2,0.6,0.2,0.7,0.1,1c-0.6,1-1.4,1.4-2.3,2.1
		c-0.2,0.2-0.3-0.5-0.6-0.1c0,0.2,0.1,0.7-0.3,0.6c-0.3,0-0.1-0.5,0-0.6c0.3-0.6,0-1-0.1-1.6c-0.2-0.4-0.4-0.7-0.3-1.3
		c0-0.2-0.2-0.3-0.3-0.3c-0.6,0-0.6-0.6-0.7-0.9c-0.2-0.7-0.5-1.3-1-1.9c0,0,0,0,0,0c0.2-0.4,0.2-0.7-0.1-1
		c-0.2-0.3-0.6-0.2-0.6-0.6c-0.2-1.4-1.2-2.6-1.6-4c0-0.3-0.1-0.4-0.4-0.4c-0.5-0.1-1.3,0.4-1.4,1c-0.1,0.5,0.3,0.5,0.6,0.6
		c0.5,0.3,0.5,0.5-0.1,0.6c0,0.3,0.3,0.3,0.4,0.4c0.3,0.2-0.4,0.3-0.1,0.6c0.1,0.3-0.2,1,0.7,0.7c0.4-0.2,0.4,0.3,0.4,0.7
		c-0.2,0.9-0.2,0.9,0.1,1.3c0.1,0.3,0.4,0.6,0.4,0.7c-0.3,1,0.6,1.7,0.6,2.6c0,0.5,0.3,0.9,0.9,0.6c0.4-0.1,0.4,0.3,0.3,0.3
		c-0.7,0.4-0.4,0.9-0.1,1.3c0.4,0.6,0.6,1.3,0.7,2c0.2,0.7,0.6,1.7-0.4,2.4c-1.2,1-2.2,2.3-3.1,3.7c-0.3,0.5-0.3,1-0.4,1.6
		c-0.1,0.6,0.7,1.2,1,0.9c0.7-0.6,1.7-0.9,2-2c0.5-1.4,1.5-2.4,2.6-3.1c0.3-0.2,0.4-0.2,0.7,0.1c0.3,0.3,0.6,0,0.9-0.3
		c0.2-0.1,0.4-0.6,0.1-0.7c-0.6-0.3-0.1-0.6,0-0.9c0.3-0.7,0.9-1.4,1.6-1.8c0.5-0.4,0.8-1.2,1.4-1.1c0.5,0.2,0.7,1,1.1,1.6
		c0.2,0.1,0.3,0.6,0.6,0.7c0.4,0.3,0.3,0.4,0,0.7c-0.6,0.7-1.1,1.3-1,2.3c0,0.7,0.4,1,1.1,0.7c0.1-0.1,0.1-0.5,0.4-0.4
		c0.8,0.3,1.4-0.3,1.8-0.7c0.6-0.4,0-0.6-0.4-0.7c-0.1,0.2-0.1,0.2-0.1,0.3c0,0.1-0.2,0.2-0.3,0.1c0,0,0-0.2,0-0.3
		c0.1-0.1,0.3-0.1,0.4-0.1c0.7-2,2.7-2.6,4.3-3.7c0.3-0.1,0.3,0,0.3,0.3c0,0.4,0,0.7,0.4,1c0-0.3,0.2-0.4,0.3-0.7
		c0-0.1,0.2-0.1,0.3-0.1c0-0.3,0.6-0.3,0.2-1c-0.6-0.9-0.3-1.4,0.4-2C154.8,140.7,154.7,140,154.1,139.4z M134.5,134.4
		c0,0,0,0,0.1,0C134.5,134.5,134.5,134.5,134.5,134.4z M137,137.1C136.9,137.1,136.8,137.1,137,137.1c-0.1-0.2,0-0.2,0.1-0.2
		C137.1,137,137.1,137.1,137,137.1z M143,139.2c0,0.1-0.1,0.1-0.2,0.1c0-0.1,0-0.2,0.1-0.2C143,139.1,143.1,139.1,143,139.2z
		 M150.5,142.2c-0.7,0.6-1.4,1.3-2.1,2c-0.3,0.2-0.6,0.4-1,0.1c-0.1-0.1-0.3-0.5-0.6-1.1c0.8-0.8-0.5-1.4-0.1-2.1
		c-0.8-0.4-0.5-0.7,0.1-1c0.3-0.2,0.3-0.7,0.9-0.6c0.4-1,1.1-0.1,1.7-0.1c0,0,0.1,0,0.1,0.1c-0.1,0.8,0.6,1,1,1.4
		C150.9,141.3,150.9,141.9,150.5,142.2z"/>
	<path class="st1" d="M134.6,148.4c0.1-0.2-0.3-0.5,0-0.6c0.4-0.2,0.4,0.3,0.7,0.4c0.5,0.1,0.5-0.3,0.6-0.6
		c-0.3-0.1-0.2-0.4,0.1-0.5c-0.4-0.6-0.1-0.5,0.2-0.4c0,0.1,0,0.2,0,0.2c0.6-0.3,0.7-0.6,0.3-1c-0.1,0.1-0.1,0.2-0.1,0.3
		c0-0.1,0-0.2-0.1-0.4c-0.3-0.3-0.6-0.7-0.6-1c0.2-1-0.5-1.7-0.9-2.4c-0.8-1.1-1.9-2.1-1.9-3.7c0-0.4-0.6-1-1-1.4
		c-0.3-0.4-0.2-1.1-0.6-1.7c-0.5-0.8-1.1-1.6-1.4-2.6c0-0.4-0.3-0.7-0.6-1c-0.5-0.5-0.6,0.4-0.9,0.4c-0.3,0-0.7,0.1-0.7,0.4
		c0,0.4-0.1,0.7,0,1c0.2,0.4,0.4,1,1.1,1.1c0.4,0.2,0.4,0.5,0.3,0.6c-0.2,0.3-0.6,0.5,0.1,0.6c0.5,0,0.4,1,1.1,1
		c0.3,0-0.2,0.3-0.3,0.3c-0.3,0-0.4,0.3-0.3,0.4c0.5,0.5,0.4,1.4,1,2c0,0,0,0,0,0c0.2,0.6,0.3,1.2,0.6,1.6c0.4,0.7,0.9,1.4,1,2.1
		c0.1,0.7,1.3,1.1,0.7,2.1l0.1,0.3c0.8,0.2,0.6,0.9,0.7,1.3c0.1,0.4,0.1,0.8,0.4,1.1C134.3,148.4,134.5,148.5,134.6,148.4z
		 M131,139.7c0,0.1-0.1,0.1-0.2,0.1C130.8,139.7,130.8,139.6,131,139.7C131,139.6,131.1,139.6,131,139.7z"/>
	<path class="st1" d="M153.6,144.1c-0.2,0.3-0.3,0.6,0.1,0.7C153.8,144.5,154,144.2,153.6,144.1z"/>
	<path class="st1" d="M153.7,144.8c0,0.1,0,0.2,0.1,0.3c0,0.2-0.2,0.3,0.1,0.3c0,0,0.1-0.1,0.1-0.3
		C154,144.9,153.8,144.8,153.7,144.8z"/>
	<path class="st1" d="M74,85.9h3.7c0,0,0.1,0,0.3,0c3.8-0.4,4.7,0,4.7,0c0.7,0.4,3.1,0.6,3.9,0.4c0.3,0,1.1,0.1,2.4,0.3l0.1,0
		c1.1,0.3,4.8,0.6,5.9,0.6c0.5,0,1.5,0.2,2.3,0.4c1.7,0.3,2.3,0.4,2.7,0.3c0.2,0,0.6,0.1,0.9,0.2c1.3,0.3,2.4,0.5,3.1,0.4l0.1,0
		c0.9,0,4.6,0.9,5.6,1.2c1.7,1,3.3,1.9,4.7,2.7l0.2,0.1l0.1,0c0.6,0.4,3.1,2.2,4,3.1c0.6,0.6,1.3,0.9,1.9,1.3c0.5,0.3,1,0.6,1.4,0.9
		l0.1,0.1c0.1,0.1,0.2,0.2,0.3,0.3c0.7,0.7,1.3,1.2,2,1.4c0.2,0.1,0.4,0.3,0.7,0.4c0.9,0.3,1.6,0.9,2.4,1.6c0.6,0.5,1.1,0.9,1.8,1.3
		c2.6,1.8,4.9,4,6.6,5.8c0.4,0.4,4.3,4.2,5.9,4.4v0c0.4,0,0.8,0.1,1.2,0.2c0.7,0.1,1.5,0.2,2.3,0.2c0.5,0,0.9-0.1,1.2-0.2
		c0.1,0,0.2-0.1,0.2-0.1c0.1,0,0.2,0,0.3,0.1c0.3,0.1,0.8,0.2,1.3,0.2v-3c-0.1,0-0.3,0-0.5-0.1c-0.3-0.1-0.7-0.2-1.1-0.2
		c-0.5,0-0.9,0.1-1.2,0.2c-0.1,0-0.2,0.1-0.2,0.1c-0.6,0-1.2-0.1-1.8-0.2c-0.4-0.1-0.8-0.1-1.3-0.2c-0.8-0.5-3.6-2.9-4.2-3.6
		c-1.8-1.9-4.2-4.3-7.1-6.2c-0.5-0.3-1-0.7-1.5-1.1c-0.9-0.7-1.9-1.6-3.2-2c-0.2-0.2-0.5-0.4-0.9-0.4c-0.2-0.1-0.7-0.6-0.9-0.7
		c-0.2-0.2-0.4-0.3-0.5-0.4c-0.6-0.5-1.3-0.9-1.9-1.3c-0.5-0.3-1-0.6-1.4-0.9c0,0-3.3-2.9-4.9-3.6c-1.4-0.8-3-1.7-4.8-2.8l-0.3-0.1
		c-0.1,0-5.4-1.5-7.1-1.4v0c-0.4,0-1.6-0.2-2.2-0.4c-0.9-0.2-1.4-0.3-1.8-0.2c-0.3,0-1.2-0.2-1.9-0.3c-1-0.2-2-0.3-2.6-0.4l-0.1,0
		c-1.1,0-4.7-0.4-5.3-0.5l-0.4-0.1c-2.2-0.3-2.9-0.4-3.3-0.3c-0.4,0-1.7-0.1-2.1-0.2c-0.7-0.3-2.1-0.6-6.3-0.2l-3.4,0l-0.4-0.2
		c-0.3-0.1-1.3-0.6-4.5,2.2c-0.1,0.1-0.6,0.7-0.6,1.5c0,0.5,0.2,0.9,0.5,1.2c0.3,0.3,0.5,0.6,0.8,0.9c0.8,0.9,1.7,1.9,2.7,2.8
		l0.1,0.1c0.6,0.5,1.4,0.7,2.4,0.7c0,0,0,0,0,0c0.6,0,1.2,0.1,1.8,0.2c0.9,0.1,1.8,0.2,2.8,0.2c0.8,0.1,4.1,0.9,5,1.2
		c0.7,0.7,1.9,1.2,3.7,2c0.6,0.3,1.4,0.6,1.7,0.8c0.5,0.4,1.2,0.6,1.8,0.8c0.3,0.1,0.5,0.2,0.7,0.3l0.1,0c0.2,0.2,0.5,0.6,1.1,0.7
		c0.2,0,0.4,0.1,0.6,0.1c0.1,0,0.3,0.1,0.4,0.1l0.3,0.1c0.5,0.1,0.9,0.7,1.4,1.3c0.3,0.4,0.6,0.8,1,1.1c0.4,0.5,3.1,3.9,4.6,5.8
		c0.2,0.2,0.6,0.7,1.2,1.3c0.4,0.4,0.8,0.9,1,1.1c0.2,0.2,0.3,0.4,0.5,0.7c0.2,0.3,0.4,0.5,0.6,0.8c0.2,0.4,0.5,0.7,0.7,0.9
		c0.2,0.2,0.4,0.4,0.5,0.6l0.1,0.1c0.6,0.7,2.7,3.2,3.4,4.1v0.1l0.4,0.4c0.3,0.3,0.8,1.3,1.2,1.8c0.5,0.9,0.7,1.2,1.1,1.5
		c0.5,0.3,0.9,0.9,1.3,1.5c0.6,0.8,1.2,1.7,2.2,2.4c0,0,0,0,0,0c0.5,0.9,1.2,1.7,1.8,2.5c0.1,0.2,0.3,0.3,0.4,0.5l-0.2,0.2
		c0.2,0.3,0.9,1.5,1.7,2.8c0,0.7,0.4,1.2,0.6,1.5l0.2,0.2c0.1,0.2,0.3,0.5,0.4,0.7l0.2,0.3l0.2-0.1c0,0,0,0,0,0
		c-0.3,0.4-0.5,1-0.2,1.9c0.3,0.9,1,1.9,2.1,1.9c0.1,0.3,0.2,0.5,0.3,0.7c0,0.1,0.1,0.2,0.1,0.2c-0.3,0.5-0.6,0.9-0.7,1.3
		c-0.1,0.3-0.3,0.5-0.3,0.7c-0.2,0.3-0.6,0.5-0.9,0.6l-0.1,0c-0.1,0-0.2-0.1-0.7-0.4l-0.1-0.1c-0.7-0.4-1-1-1.5-1.7
		c-0.5-1.1-2-1.5-2.2-1.6c-0.9-0.2-1.4,0.1-1.7,0.4c-0.5,0.5-0.9,1.3-0.9,2.3v0.4c-0.2,1.3-0.1,4.3,0.1,5.3l2.9-0.7
		c-0.1-0.5-0.2-2.2-0.2-3.3c0.4,0.6,1,1.2,1.8,1.6c0.6,0.4,1.9,1.2,3.3,0.6c0.9-0.3,1.8-0.9,2.4-1.6c0.3-0.4,0.5-0.8,0.7-1.2
		c0.2-0.4,0.4-0.8,0.6-1c0.3-0.3,0.6-0.8,0.4-1.5c0-0.8-0.3-1.4-0.5-1.7c0-0.1-0.1-0.2-0.1-0.2l-0.1-0.3c-0.4-0.9-1-1.3-1.6-1.5
		c0.1-0.4,0.2-0.9-0.1-1.5l-0.1-0.2c-0.1-0.3-0.7-1.4-1.4-2.6c0.1-0.6-0.2-1.1-0.4-1.4l-0.1-0.3c-0.6-1.1-1.4-2.1-2.1-3
		c-0.6-0.8-1.2-1.6-1.7-2.4l-0.1-0.2l-0.1-0.1c-0.2-0.3-0.4-0.4-0.6-0.6c-0.5-0.4-0.9-1-1.4-1.6c-0.5-0.8-1.1-1.5-1.9-2.1
		c-0.1-0.1-0.2-0.4-0.4-0.6c-0.6-1-1.1-1.8-1.5-2.4c-0.4-0.7-1.5-1.9-3.8-4.5c-0.2-0.4-0.5-0.6-0.7-0.9c-0.2-0.2-0.4-0.4-0.5-0.6
		l-0.1-0.1c-0.2-0.2-0.3-0.4-0.5-0.7c-0.2-0.3-0.4-0.6-0.6-0.8c-0.2-0.3-0.6-0.7-1.1-1.2c-0.4-0.4-0.9-1-1-1.1
		c0-0.1-4.3-5.7-4.9-6.2c-0.2-0.2-0.5-0.5-0.8-0.9c-0.7-0.8-1.5-1.8-2.8-2.2c-0.4-0.2-0.8-0.2-1.2-0.3c0,0,0,0,0,0
		c-0.2-0.2-0.6-0.6-1.2-0.7c-0.3-0.1-0.6-0.2-0.9-0.3c-0.4-0.1-0.9-0.3-1.1-0.4c-0.4-0.3-1.1-0.6-2.1-1c-0.9-0.4-2.5-1.1-2.8-1.4
		l0,0c-1-1.1-6.9-2.1-7-2.1c-0.9,0-1.7-0.1-2.5-0.2c-0.6-0.1-1.3-0.2-2.1-0.2c-0.4,0-0.6-0.1-0.7-0.1c-0.9-0.8-1.6-1.6-2.4-2.5
		c0,0,0,0,0,0c0.3-0.2,0.7-0.5,0.9-0.6C73.5,85.9,73.7,85.9,74,85.9z M84,83.1C84,83.1,84,83.1,84,83.1C84,83.1,84,83.1,84,83.1
		C84,83.1,84,83.1,84,83.1z"/>
</g>
</svg>
