<svg xmlns="http://www.w3.org/2000/svg" width="15" height="15" fill="none" viewBox="0 0 15 15">
    <path fill="#000" fill-rule="evenodd" d="M8.203.31c-.41-.412-1.076-.414-1.488-.004-.412.409-.414 1.075-.005 1.487l4.624 4.655H1.052C.47 6.448 0 6.92 0 7.5c0 .58.47 1.052 1.052 1.052h10.282L6.71 13.207c-.41.412-.407 1.078.005 1.487.412.41 1.078.408 1.488-.005l6.405-6.448c.098-.099.172-.212.223-.333.053-.126.082-.263.082-.408 0-.147-.03-.287-.084-.414-.047-.11-.114-.213-.2-.305l-.024-.025L8.203.311z" clip-rule="evenodd"/>
</svg>
