<svg xmlns="http://www.w3.org/2000/svg" width="16" height="17" fill="none" viewBox="0 0 16 17">
    <path fill="#F2783A" fill-rule="evenodd" d="M8.71.295C8.32-.097 7.686-.099 7.294.291c-.392.389-.394 1.022-.004 1.414l5.306 5.342H1c-.552 0-1 .448-1 1 0 .553.448 1 1 1h11.597L7.291 14.39c-.39.392-.388 1.025.004 1.414.392.39 1.025.388 1.414-.004l7-7.047c.194-.196.291-.45.291-.706 0-.132-.026-.265-.08-.39-.046-.11-.114-.215-.203-.307.086.089.155.192.204.307M8.709.295l7 7.047-7-7.047z" clip-rule="evenodd"/>
</svg>
