<svg xmlns="http://www.w3.org/2000/svg" width="13" height="13" fill="none" viewBox="0 0 13 13">
    <path fill="#000" fill-rule="evenodd" d="M5.726 12.693c.404.407 1.062.41 1.47.005.407-.404.409-1.062.005-1.47L3.536 7.54h8.351c.574 0 1.04-.465 1.04-1.039 0-.574-.466-1.04-1.04-1.04h-8.35L7.2 1.773c.404-.408.402-1.066-.005-1.47C6.788-.103 6.13-.1 5.726.307L.302 5.767C.1 5.97 0 6.236 0 6.5c0 .14.028.278.083.409.047.11.114.213.2.304-.083-.088-.151-.191-.2-.304m5.643 5.784L.304 7.234l5.422 5.46z" clip-rule="evenodd"/>
</svg>
