<svg xmlns="http://www.w3.org/2000/svg" width="71" height="71" viewBox="0 0 71 71">
    <path fill="#FFF" fill-rule="evenodd" d="M39.641 60.455l2.584 2.622L47.215 57 49 58.509l-5.804 7.068c-.21.253-.514.407-.84.422l-.053.001c-.307 0-.603-.123-.82-.345L38 62.12l1.641-1.666zm14 0l2.584 2.622L61.215 57 63 58.509l-5.804 7.068c-.21.253-.514.407-.84.422l-.053.001c-.307 0-.603-.123-.82-.345L52 62.12l1.641-1.666zM9.25 39.715h4.5v-3.43h-4.5v3.43zM8.125 34C7.503 34 7 34.51 7 35.143v5.714C7 41.49 7.503 42 8.125 42h6.75c.622 0 1.125-.51 1.125-1.143v-5.714C16 34.51 15.497 34 14.875 34h-6.75zm16.125 5.714h4.5v-3.428h-4.5v3.428zM23.125 34c-.622 0-1.125.51-1.125 1.143v5.714c0 .632.503 1.143 1.125 1.143h6.75c.622 0 1.125-.51 1.125-1.143v-5.714C31 34.51 30.497 34 29.875 34h-6.75zm18.125 5.714h4.5v-3.428h-4.5v3.428zM46.875 42c.622 0 1.125-.51 1.125-1.143v-5.714C48 34.51 47.497 34 46.875 34h-6.75c-.622 0-1.125.51-1.125 1.143v5.714c0 .632.503 1.143 1.125 1.143h6.75zm9.375-2.286h4.5v-3.428h-4.5v3.428zM55.125 34c-.622 0-1.125.51-1.125 1.143v5.714c0 .632.503 1.143 1.125 1.143h6.75c.622 0 1.125-.51 1.125-1.143v-5.714C63 34.51 62.497 34 61.875 34h-6.75zM9.25 51.714h4.5v-3.428h-4.5v3.428zM8.125 46C7.503 46 7 46.51 7 47.143v5.714C7 53.49 7.503 54 8.125 54h6.75c.622 0 1.125-.51 1.125-1.143v-5.714C16 46.51 15.497 46 14.875 46h-6.75zm16.125 5.714h4.5v-3.428h-4.5v3.428zM23.125 46c-.622 0-1.125.51-1.125 1.143v5.714c0 .632.503 1.143 1.125 1.143h6.75c.622 0 1.125-.51 1.125-1.143v-5.714C31 46.51 30.497 46 29.875 46h-6.75zm18.125 5.714h4.5v-3.428h-4.5v3.428zM46.875 54c.622 0 1.125-.51 1.125-1.143v-5.714C48 46.51 47.497 46 46.875 46h-6.75c-.622 0-1.125.51-1.125 1.143v5.714c0 .632.503 1.143 1.125 1.143h6.75zm9.375-2.286h4.5v-3.428h-4.5v3.428zM55.125 46c-.622 0-1.125.51-1.125 1.143v5.714c0 .632.503 1.143 1.125 1.143h6.75c.622 0 1.125-.51 1.125-1.143v-5.714C63 46.51 62.497 46 61.875 46h-6.75zM9.25 63.714h4.5v-3.428h-4.5v3.428zM8.125 58C7.503 58 7 58.51 7 59.143v5.714C7 65.49 7.503 66 8.125 66h6.75c.622 0 1.125-.51 1.125-1.143v-5.714C16 58.51 15.497 58 14.875 58h-6.75zm16.125 5.714h4.5v-3.428h-4.5v3.428zM23.125 58c-.622 0-1.125.51-1.125 1.143v5.714c0 .632.503 1.143 1.125 1.143h6.75c.622 0 1.125-.51 1.125-1.143v-5.714C31 58.51 30.497 58 29.875 58h-6.75zm.208-35.25h23.334v-4.5H23.333v4.5zm24.5 2.25c.645 0 1.167-.503 1.167-1.125v-6.75c0-.622-.522-1.125-1.167-1.125H22.167C21.52 16 21 16.503 21 17.125v6.75c0 .622.521 1.125 1.167 1.125h25.666zm17.25 43.633H5.917a3.554 3.554 0 0 1-3.55-3.55V30.767h66.266v34.316a3.554 3.554 0 0 1-3.55 3.55zm-59.166-56.8H7.1v3.55a3.554 3.554 0 0 0 3.55 3.55h2.367a3.554 3.554 0 0 0 3.55-3.55v-3.55h37.866v3.55a3.554 3.554 0 0 0 3.55 3.55h2.367a3.554 3.554 0 0 0 3.55-3.55v-3.55h1.183a3.554 3.554 0 0 1 3.55 3.55V28.4H2.367V15.383a3.554 3.554 0 0 1 3.55-3.55zm3.55-8.283c0-.653.53-1.183 1.183-1.183h2.367c.653 0 1.183.53 1.183 1.183v11.833c0 .654-.53 1.184-1.183 1.184H10.65c-.653 0-1.183-.53-1.183-1.184V3.55zm47.333 0c0-.653.53-1.183 1.183-1.183h2.367c.653 0 1.183.53 1.183 1.183v11.833c0 .654-.53 1.184-1.183 1.184h-2.367c-.653 0-1.183-.53-1.183-1.184V3.55zm7.1 5.917V3.55A3.554 3.554 0 0 0 60.35 0h-2.367a3.554 3.554 0 0 0-3.55 3.55v5.917H16.567V3.55A3.554 3.554 0 0 0 13.017 0H10.65A3.554 3.554 0 0 0 7.1 3.55v5.917H5.917A5.923 5.923 0 0 0 0 15.383v49.7A5.923 5.923 0 0 0 5.917 71h59.166A5.923 5.923 0 0 0 71 65.083v-49.7a5.923 5.923 0 0 0-5.917-5.916H63.9z"/>
</svg>
