<svg xmlns="http://www.w3.org/2000/svg" width="79" height="61" viewBox="0 0 79 61">
    <path fill="#FFF" fill-rule="evenodd" d="M58.9 30.35V28.2l17.143-8.045v2.15L58.899 30.35zm8.15 10.47a3.12 3.12 0 0 1-1.453 3.757l-6.698 3.68V32.654l4.61-2.166L67.05 40.82zM47.778 54.36c-5.456 2.996-11.965 3-17.411.004l-17.834-9.787a3.112 3.112 0 0 1-1.455-3.75l3.544-10.337 22.524 10.57a4.482 4.482 0 0 0 1.919.428c.654 0 1.31-.141 1.919-.429l15.827-7.426v15.766l-9.033 4.961zM2.086 20.155l35.06 16.45a4.514 4.514 0 0 0 3.838 0l15.827-7.428v2.152L40.1 39.17a2.42 2.42 0 0 1-2.07 0L2.086 22.305v-2.15zM38.03 2.309a2.443 2.443 0 0 1 2.07 0l34.533 16.205-16.772 7.87-15.21-7.306c.06-.18.095-.367.095-.564 0-1.367-1.548-2.359-3.681-2.359-2.134 0-3.681.992-3.681 2.359s1.547 2.36 3.681 2.36c.702 0 1.34-.11 1.877-.302l14.485 6.953L40.1 34.717a2.452 2.452 0 0 1-2.07 0L3.497 18.514 38.03 2.309zm19.83 56.613a.831.831 0 0 1-.83-.826.827.827 0 1 1 .83.826zm20.253-40.595c-.006-.016-.008-.037-.013-.055l-.042-.132a.366.366 0 0 0-.016-.045 1.25 1.25 0 0 0-.086-.155.246.246 0 0 0-.028-.036.914.914 0 0 0-.124-.144c-.036-.035-.076-.065-.116-.095-.008-.005-.015-.014-.023-.02-.041-.027-.09-.052-.135-.076L40.984.421a4.588 4.588 0 0 0-3.838 0L.598 17.569c-.044.024-.092.049-.134.076-.007.006-.012.015-.022.02-.04.03-.084.06-.116.095-.016.012-.028.027-.042.04-.029.032-.058.07-.083.104-.011.015-.024.026-.027.036-.034.05-.06.1-.086.155-.007.016-.01.031-.016.045-.015.044-.03.088-.043.132-.005.018-.007.039-.012.055a.862.862 0 0 0-.017.187v4.453c0 .406.233.772.598.945l12.12 5.688-3.612 10.55a5.2 5.2 0 0 0 2.421 6.257l17.833 9.789a20.153 20.153 0 0 0 9.7 2.501c3.337 0 6.676-.84 9.72-2.508l8.031-4.41v3.6a2.91 2.91 0 0 0-1.864 2.717 2.91 2.91 0 0 0 5.82 0 2.908 2.908 0 0 0-1.868-2.716v-4.747l7.703-4.226a5.204 5.204 0 0 0 2.422-6.26L65.41 29.6l12.12-5.688c.366-.173.599-.54.599-.945v-4.453c0-.065-.009-.126-.016-.187z"/>
</svg>
