<svg xmlns="http://www.w3.org/2000/svg" width="13" height="12" viewBox="0 0 13 12">
    <path fill="#F4782F" fill-rule="evenodd" d="M10.024.54C8.679 1.97 7.336 3.393 6.046 4.874c-.552.634-.999 1.727-1.91 1.113-.508-.343-.886-1.052-1.462-1.265-.348-.128-.468-.031-.764.162C1.38 5.227.388 5.9.156 6.546-.31 7.844 1.41 9.256 2.237 9.978c.529.462 1.1 1.016 1.704 1.376.957.57 1.53-.038 2.201-.783 1.33-1.475 2.606-3.026 3.85-4.574.708-.88 2.383-1.91 2.801-2.877.905-2.09-2.108-3.282-2.77-2.58z"/>
</svg>
