<svg xmlns="http://www.w3.org/2000/svg" width="93" height="65" viewBox="0 0 93 65">
    <path fill="#FFF" fill-rule="evenodd" d="M40.144 31.115c.26 2.676 1.116 4.013 2.569 4.013.544 0 1.04-.131 1.49-.393.453-.26.886-.871 1.304-1.832.265-.625.499-1.014.693-1.167a.98.98 0 0 1 .624-.229c.446 0 .794.13 1.043.384.25.258.375.618.375 1.079 0 1.096-.535 2.107-1.608 3.033-1.071.928-2.372 1.392-3.899 1.392-1.432 0-2.68-.52-3.744-1.558-1.064-1.04-1.702-2.614-1.911-4.722H35.66c-.135 0-.201-.096-.201-.29 0-.186.073-.421.214-.702.141-.286.26-.427.358-.427h.96v-.402c0-.327.015-.8.045-1.419H35.66c-.135 0-.201-.093-.201-.28 0-.192.073-.43.214-.715.141-.281.26-.424.358-.424h1.117c.483-3.88 2.315-5.821 5.497-5.821 1.4 0 2.608.362 3.62 1.084 1.011.722 1.52 1.62 1.52 2.692 0 .365-.121.674-.358.927-.24.255-.53.381-.874.381-.377 0-.656-.096-.831-.29-.173-.194-.348-.491-.519-.894-.217-.53-.472-.933-.771-1.213-.299-.279-.805-.419-1.52-.419-.818 0-1.45.287-1.892.86-.444.574-.73 1.472-.858 2.693h3.6c.147 0 .223.098.223.291 0 .21-.069.448-.207.72-.137.272-.259.408-.364.408h-3.34l-.023 1.096c0 .334.01.577.023.725h3.687c.148 0 .224.094.224.28 0 .216-.069.459-.207.732-.137.273-.259.407-.364.407h-3.271zm-25.556-4.728a1.932 1.932 0 0 1 0 3.865 1.935 1.935 0 0 1-1.932-1.935c0-1.063.866-1.93 1.932-1.93zM43.3 43.267c-7.75 0-14.052-6.303-14.052-14.051 0-7.75 6.303-14.053 14.052-14.053 7.747 0 14.052 6.303 14.052 14.053 0 7.748-6.305 14.05-14.052 14.05m0-30.6c-9.124 0-16.547 7.424-16.547 16.55 0 9.122 7.423 16.544 16.547 16.544 9.123 0 16.55-7.422 16.55-16.544 0-9.126-7.427-16.55-16.55-16.55m41.444 12.383a5.145 5.145 0 0 1-1.41-.386c-1.378-.625-1.378-1.57-1.378-1.88 0-1.27.783-1.84 1.556-1.84.38 0 .725.14.975.395.315.317.484.818.484 1.446 0 .865-.073 1.616-.227 2.265M69.42 45.035a24.676 24.676 0 0 0-7.601 16.55h-5.857v-3.15c0-1.22-.548-2.363-1.498-3.13a4.072 4.072 0 0 0-3.375-.81 42.88 42.88 0 0 1-14.99.46 4.06 4.06 0 0 0-3.221.94 4.033 4.033 0 0 0-1.395 3.053v2.637h-5.828v-3.251c0-3.764-2.057-7.212-5.37-8.996a31.657 31.657 0 0 1-2.98-1.796 7.795 7.795 0 0 0 3.838-3.67 1.248 1.248 0 0 0-2.237-1.11 5.29 5.29 0 0 1-4.034 2.898 8.67 8.67 0 0 0-7.826-1.239.996.996 0 0 1-1.26-.634L2.824 34.79l2.458-.81a4.343 4.343 0 0 0 2.992-4.13c0-2.793.544-5.558 1.627-8.218.114-.279.123-.592.025-.874L5.94 9.194a1.47 1.47 0 0 1 1.673-1.918L19.29 9.57c.327.064.664-.004.938-.19 6.658-4.494 14.453-6.87 22.552-6.87 8.659 0 17.208 2.813 23.45 7.718 6.498 5.109 10.082 12.076 10.082 19.62 0 5.722-2.32 10.833-6.893 15.187m23.215-21.66a1.246 1.246 0 0 0-1.762-.118c-1.035.904-2.315 1.454-3.579 1.7.11-.655.171-1.376.171-2.173 0-1.642-.65-2.647-1.203-3.202a3.824 3.824 0 0 0-2.749-1.135c-1.962 0-4.05 1.52-4.05 4.337 0 1.817 1.039 3.33 2.844 4.153.339.157.706.283 1.083.382-.973.78-2.468 1.154-4.62 1.248-.382-7.828-4.247-14.999-10.999-20.304-6.676-5.244-15.783-8.25-24.99-8.25-8.424 0-16.54 2.421-23.514 7.009L8.093 4.826a4 4 0 0 0-3.75 1.284 3.977 3.977 0 0 0-.763 3.896l3.833 11.128a24.177 24.177 0 0 0-1.635 8.715 1.85 1.85 0 0 1-1.275 1.76l-3.644 1.2c-.653.214-1.01.918-.798 1.577l3.357 10.183a3.457 3.457 0 0 0 1.742 2.025c.82.411 1.785.488 2.673.198a6.097 6.097 0 0 1 1.918-.307c1.49 0 2.926.532 4.042 1.505 1.436 1.243 3.12 2.37 5.31 3.548a7.71 7.71 0 0 1 4.057 6.796v4.496c0 .69.56 1.249 1.249 1.249h8.322c.69 0 1.25-.559 1.25-1.249v-3.882c0-.447.189-.871.532-1.163a1.52 1.52 0 0 1 1.224-.36c5.238.771 10.721.603 15.869-.488.447-.097.931.02 1.286.309.365.295.571.728.571 1.189v4.395c0 .69.557 1.249 1.25 1.249h8.319c.69 0 1.25-.559 1.25-1.249a22.16 22.16 0 0 1 6.859-15.987c4.764-4.536 7.328-9.837 7.637-15.776 3.105-.126 6.08-.83 7.612-3.488 2.212-.158 4.488-1.012 6.129-2.444a1.25 1.25 0 0 0 .116-1.76"/>
</svg>
