<svg xmlns="http://www.w3.org/2000/svg" width="29" height="19" viewBox="0 0 29 19">
    <path fill="#7E879D" fill-rule="evenodd" d="M17.942 10.865c-.714 4.615-4.209 7.26-8.734 7.26C4.123 18.125 0 14.067 0 9.062 0 4.058 4.123 0 9.208 0c2.46 0 4.615.864 6.185 2.364l-2.643 2.6c-.895-.886-2.12-1.36-3.542-1.36-2.993 0-5.42 2.513-5.42 5.458 0 2.948 2.427 5.387 5.42 5.387 2.509 0 4.409-1.194 4.957-3.584H9.208v-3.64h8.712c.104.587.157 1.201.157 1.837 0 .63-.046 1.231-.135 1.803zM29 9.737h-3.227v3.175h-2.291V9.737h-3.227V7.48h3.227V4.304h2.291V7.48H29v2.257z"/>
</svg>
