<svg xmlns="http://www.w3.org/2000/svg" width="20" height="20" viewBox="0 0 20 20">
    <path fill="#7E879D" fill-rule="evenodd" d="M20 11.577v7.47h-4.368v-6.97c0-1.75-.63-2.945-2.211-2.945-1.208 0-1.925.805-2.241 1.584-.115.279-.145.666-.145 1.056v7.276H6.667s.058-11.806 0-13.028h4.368v1.846l-.029.043h.03v-.043c.58-.886 1.615-2.152 3.935-2.152 2.875 0 5.029 1.862 5.029 5.863zM2.395 0C.947 0 0 1.028 0 2.38c0 1.323.92 2.382 2.34 2.382h.028c1.476 0 2.394-1.059 2.394-2.381C4.734 1.028 3.844 0 2.395 0zM0 19.048h4.762V6.667H0v12.38z"/>
</svg>
