<svg xmlns="http://www.w3.org/2000/svg" width="20" height="18" viewBox="0 0 20 18">
    <path fill="#2AB8FF" fill-rule="evenodd" d="M18.303 2.492A4.493 4.493 0 0 0 19.438.615c.063-.205-.152-.382-.33-.272A7.793 7.793 0 0 1 17 1.247a.549.549 0 0 1-.5-.129A4.22 4.22 0 0 0 13.645 0c-.455 0-.915.074-1.366.219-1.398.45-2.477 1.648-2.816 3.125a4.955 4.955 0 0 0-.102 1.648.163.163 0 0 1-.158.182C6.13 4.878 3.37 3.347 1.418.862a.22.22 0 0 0-.37.03 4.61 4.61 0 0 0-.583 2.251 4.56 4.56 0 0 0 1.286 3.191 3.783 3.783 0 0 1-.984-.395c-.15-.086-.333.025-.335.202-.021 1.803.995 3.407 2.519 4.13a3.743 3.743 0 0 1-.819-.07c-.168-.035-.31.13-.257.3.494 1.603 1.823 2.784 3.413 3.052a7.751 7.751 0 0 1-4.456 1.405H.333a.333.333 0 0 0-.322.258.36.36 0 0 0 .163.392 11.502 11.502 0 0 0 5.947 1.665c1.828 0 3.537-.377 5.082-1.12a11.265 11.265 0 0 0 3.718-2.892 12.788 12.788 0 0 0 2.277-3.96c.506-1.404.774-2.903.774-4.333V4.9c0-.23.1-.446.274-.593a8.747 8.747 0 0 0 1.715-1.954c.125-.194-.072-.44-.279-.344a7.725 7.725 0 0 1-1.379.483z"/>
</svg>
