<svg xmlns="http://www.w3.org/2000/svg" width="17" height="18" fill="none" viewBox="0 0 17 18">
    <path fill="#fff" fill-rule="evenodd" d="M8.368 0c.571 0 1.034.463 1.034 1.034v9.045l2.274-2.274c.403-.404 1.058-.404 1.462 0 .404.404.404 1.059 0 1.463l-4.137 4.137c-.194.194-.457.303-.73.303-.275 0-.538-.11-.732-.303L3.402 9.268c-.404-.404-.404-1.059 0-1.463.404-.404 1.059-.404 1.463 0l2.469 2.47v-9.24C7.334.462 7.797 0 8.368 0zM17 16.81c0 .571-.463 1.034-1.034 1.034H1.034C.463 17.844 0 17.381 0 16.81s.463-1.034 1.034-1.034h14.932c.571 0 1.034.463 1.034 1.034z" clip-rule="evenodd"/>
</svg>
