<svg xmlns="http://www.w3.org/2000/svg" width="13" height="14" fill="none" viewBox="0 0 13 14">
    <path fill="#000" fill-rule="evenodd" d="M9.165 10.437c.365-.33.843-.541 1.377-.541 1.132 0 2.052.92 2.052 2.052 0 1.131-.92 2.052-2.052 2.052-1.131 0-2.052-.92-2.052-2.052 0-.155.021-.31.056-.457L3.542 8.567c-.38.352-.878.57-1.434.57C.942 9.137 0 8.195 0 7.028S.942 4.92 2.108 4.92c.556 0 1.055.218 1.434.569L8.497 2.6c-.035-.161-.063-.323-.063-.492C8.434.942 9.376 0 10.542 0c1.167 0 2.109.942 2.109 2.108 0 1.167-.942 2.109-2.109 2.109-.555 0-1.054-.218-1.434-.57l-4.954 2.89c.035.16.063.322.063.491 0 .169-.028.33-.063.492l5.01 2.917zm2.08-8.329c0-.386-.316-.702-.702-.702-.387 0-.703.316-.703.702 0 .387.316.703.703.703.386 0 .702-.316.702-.703zM2.108 7.731c-.386 0-.703-.316-.703-.703 0-.386.317-.703.703-.703.387 0 .703.317.703.703 0 .387-.316.703-.703.703zm7.732 4.23c0 .387.316.704.703.704.386 0 .702-.317.702-.703 0-.387-.316-.703-.702-.703-.387 0-.703.316-.703.703z" clip-rule="evenodd"/>
</svg>
