<svg xmlns="http://www.w3.org/2000/svg" width="149" height="45" fill="none" viewBox="0 0 149 45">
    <path fill="#313438" fill-rule="evenodd" d="M121.724 28.908h7.14v-3.383h-1.443V9.56h-5.675v3.327h1.028v12.638h-1.05v3.383zM52.587 15.26c-2.256 0-4.356 1.215-5.336 1.834l1.034 2.992c.926-.545 2.202-1.187 3.645-1.187 1.32 0 2.32.284 2.32 1.442v.909c-.123-.16-.974-.909-2.422-.909-2.757 0-5.083 1.834-5.083 4.747 0 2.991 2.488 4.309 4.814 4.309.883 0 2.396-.341 3.3-1.658l.592 1.164h5.234v-3.299H59.22v-5.03c0-4.15-3.699-5.314-6.633-5.314zm1.658 8.953v.977c-.215.391-.829.851-1.566.851-.738 0-1.298-.482-1.298-1.209 0-.8.441-1.362 1.421-1.362 1.029 0 1.373.613 1.443.743zm19.636 4.695H80.8v-3.383h-1.222v-2.657c0-2.271 1.249-2.862 3.45-2.862v-4.644c-2.519 0-3.154 1.062-3.79 2.3l-.732-1.652h-4.598v3.355h1.055v6.16h-1.082v3.383zm34.637-1.782c-1.814 1.652-3.769 2.242-6.315 2.242-3.032 0-6.456-2.038-6.456-6.989 0-4.235 2.886-6.733 6.585-6.733 2.907 0 5.131 1.573 5.842 3.741.29.903.56 2.884.048 4.355h-7.71c.151.698.474 2.112 2.52 2.112.829 0 2.105-.08 3.424-1.238l2.062 2.51zm-7.925-5.933h3.693c-.027-.982-.247-2.061-1.809-2.061-1.486 0-1.836 1.42-1.884 2.06zm48.326 7.715h-6.848v-3.383h1.028v-6.16h-1.028V16.01h5.675v9.515h1.173v3.383zm-3.521-19.297c1.685 0 2.687 1.448 2.687 2.635 0 1.419-.953 2.611-2.687 2.611-1.54 0-2.643-1.368-2.643-2.611 0-1.187.931-2.635 2.643-2.635zm-74.29 25.446c0 .153-.026.3-.086.443-.059.142-.134.261-.237.358l-.161-.125c.07-.108.124-.21.162-.318.032-.108.048-.222.048-.352v-.432h.275v.426zm-15.269 3.27c.194-.09.334-.193.415-.295h.01v-1.198h-.92v.238l.646.012v.857c-.065.068-.172.13-.328.193-.157.063-.34.09-.56.09-.366 0-.657-.141-.872-.43-.216-.284-.324-.66-.324-1.119v-.08c0-.448.108-.811.329-1.095.22-.278.517-.42.899-.42.194 0 .36.028.506.09.14.063.259.142.35.25l.049.517h.215v-.613c-.124-.154-.28-.273-.474-.363-.194-.086-.415-.131-.668-.131-.446 0-.802.165-1.076.494-.275.33-.41.755-.41 1.277v.074c0 .528.14.96.41 1.294.274.335.624.5 1.06.5.297 0 .544-.045.743-.142zm-3.162-1.646c0 .528-.134.965-.404 1.294-.269.335-.619.5-1.05.5-.425 0-.764-.165-1.033-.5-.264-.335-.399-.766-.399-1.294v-.046c0-.528.13-.96.393-1.294.264-.335.609-.5 1.034-.5.43 0 .78.165 1.05.5.27.335.404.766.404 1.294v.046h.005zm-.274-.051c0-.46-.108-.83-.318-1.113-.21-.284-.495-.426-.856-.426-.355 0-.635.142-.84.426-.205.284-.307.653-.307 1.113v.05c0 .46.102.835.312 1.12.205.283.49.425.84.425.361 0 .652-.142.862-.426.21-.284.317-.653.317-1.118v-.051h-.01zm-5.718 1.788v-.21l.377-.029v-3.043l-.377-.034v-.215h1.029v.215l-.377.034v3.043h1.394l.022-.5h.242v.744h-2.31v-.005zm12.642-1.709h-1.373v1.465h1.583l.022-.528h.242v.772h-2.498v-.21l.377-.029v-3.043l-.377-.034v-.215h2.487v.777h-.242l-.021-.528h-1.573v1.329h1.373v.244zm3.63-1.573c-.194-.164-.469-.25-.83-.25h-1.394v.216l.377.034v3.038l-.377.034v.21h1.023v-.21l-.377-.034V36.8h.845c.226.006.41.074.539.199.129.119.194.289.194.505v.312c0 .165.032.307.096.426.065.119.178.176.34.176h.177v-.216l-.113-.006c-.075-.005-.129-.034-.167-.096-.032-.063-.054-.153-.054-.278v-.324c0-.216-.043-.392-.134-.534-.092-.142-.242-.238-.447-.295.188-.062.334-.17.436-.318.108-.147.156-.318.156-.5 0-.312-.097-.55-.29-.715zm-.862 1.42h-.71v-1.42h.742c.28 0 .49.063.63.188s.21.3.21.528c0 .21-.07.38-.21.51-.14.131-.36.194-.662.194zm2.74 1.748c0 .148-.033.295-.087.437-.059.142-.134.262-.237.364l-.161-.125c.07-.108.124-.21.161-.318.033-.108.054-.221.054-.352v-.346h.275v.34h-.005zm4.668-2.367h.221v-.596c-.108-.153-.258-.273-.452-.364-.189-.09-.41-.136-.652-.136-.334 0-.613.085-.829.256-.215.17-.323.386-.323.658 0 .267.097.471.285.63.189.16.469.284.835.38.34.092.582.205.716.325.135.119.205.278.205.47 0 .205-.086.364-.248.489-.167.12-.377.182-.64.182-.19 0-.361-.035-.517-.097-.157-.068-.286-.159-.388-.278l-.038-.517h-.226v.62c.13.164.296.289.5.38.205.085.426.13.668.13.34 0 .614-.085.835-.25.22-.17.328-.392.328-.675 0-.273-.091-.489-.28-.653-.188-.165-.463-.295-.823-.392-.34-.085-.582-.193-.722-.312-.14-.12-.21-.267-.21-.443 0-.187.075-.346.232-.471.156-.125.371-.188.646-.188.188 0 .355.029.5.091.146.063.259.154.34.261l.037.5zm3.097.772h1.372v-.244H72.6v-1.329h1.572l.021.528h.243v-.777H71.948v.215l.377.034v3.043l-.377.029v.21h2.498v-.772h-.242l-.022.528H72.6v-1.465zm5.997-1.822v.215l-.377.034v3.287h-.275l-1.906-3.037h-.016v2.793l.377.029v.215h-1.023v-.215l.377-.029v-3.043l-.377-.034v-.215h.652l1.906 3.031h.016v-2.782l-.377-.034v-.215H78.597zm3.064 3.44c.194-.09.334-.193.415-.295h.01v-1.198h-.92v.238l.646.012v.857c-.065.068-.172.13-.328.193-.157.063-.34.09-.56.09-.367 0-.657-.141-.873-.43-.215-.284-.323-.66-.323-1.119v-.08c0-.448.108-.811.329-1.095.215-.278.517-.42.899-.42.194 0 .36.028.506.09.14.063.258.142.35.25l.048.517h.216v-.613c-.124-.154-.28-.273-.474-.363-.194-.086-.415-.131-.668-.131-.447 0-.802.165-1.076.494-.275.33-.41.755-.41 1.277v.074c0 .528.135.96.41 1.294.269.335.624.5 1.06.5.296 0 .544-.045.743-.142zm1.431-.12l.248-.016 1.19-3.299h.258l1.18 3.299.253.017v.216h-.83v-.216l.291-.023-.274-.789h-1.502l-.28.79.29.022v.216h-.823v-.216zm.9-1.078h1.324l-.651-1.868h-.017l-.656 1.868zm5.115 1.198c.194-.09.334-.193.414-.295h.011v-1.198h-.92v.238l.645.012v.857c-.064.068-.172.13-.328.193-.156.063-.34.09-.56.09-.366 0-.657-.141-.872-.43-.216-.284-.323-.66-.323-1.119v-.08c0-.448.107-.811.328-1.095.221-.278.517-.42.9-.42.193 0 .36.028.505.09.14.063.259.142.35.25l.049.517h.215v-.613c-.124-.154-.28-.273-.474-.363-.193-.086-.414-.131-.667-.131-.447 0-.802.165-1.077.494-.275.33-.41.755-.41 1.277v.074c0 .528.135.96.41 1.294.275.335.624.5 1.06.5.297 0 .544-.045.744-.142zm3.484-1.618h-1.368v1.465h1.583l.022-.528h.242v.772h-2.498v-.21l.377-.029v-3.043l-.377-.034v-.215h2.487v.777h-.247l-.022-.528h-1.572v1.329h1.373v.244zm3.633-1.573c-.193-.164-.468-.25-.829-.25h-1.389v.216l.377.034v3.038l-.377.034v.21h1.023v-.21l-.377-.034V36.8h.84c.232.006.415.074.544.199.13.119.194.289.194.505v.312c0 .165.032.307.097.426.064.119.177.176.339.176h.172v-.216l-.113-.006c-.075-.005-.13-.034-.167-.096-.032-.063-.054-.153-.054-.278v-.324c0-.216-.043-.392-.134-.534-.092-.142-.237-.238-.447-.295.188-.062.334-.17.436-.318.102-.147.156-.318.156-.5 0-.312-.097-.55-.29-.715zm-.861 1.42h-.71v-1.42h.742c.28 0 .49.063.63.188s.21.3.21.528c0 .21-.07.38-.21.51-.14.131-.36.194-.662.194zm2.735 1.748c0 .148-.027.295-.086.437-.06.142-.135.262-.237.364l-.162-.125c.07-.108.124-.21.162-.318.032-.108.048-.221.048-.352v-.346h.275v.34zm4.749-3.168c-.194-.164-.469-.25-.829-.25h-1.395v.216l.377.034v3.038l-.377.034v.21h1.023v-.21l-.377-.034V36.8h.846c.226.006.409.074.538.199.129.119.194.289.194.505v.312c0 .165.032.307.097.426.064.119.177.176.339.176h.178v-.216l-.114-.006c-.075-.005-.129-.034-.166-.096-.033-.063-.054-.153-.054-.278v-.324c0-.216-.043-.392-.135-.534-.091-.142-.237-.238-.447-.295.189-.062.334-.17.436-.318.108-.147.157-.318.157-.5 0-.312-.097-.55-.291-.715zm-.862 1.42h-.71v-1.42h.743c.28 0 .49.063.63.188s.21.3.21.528c0 .21-.07.38-.21.51-.14.131-.361.194-.663.194zm4.297.153h-1.373v1.465h1.583l.021-.528h.248v.772h-2.498v-.21l.377-.029v-3.043l-.377-.034v-.215h2.487v.777h-.242l-.022-.528h-1.572v1.329h1.373v.244h-.005zm4.626-1.607v-.215h-1.034v.215l.377.034v2.782h-.016l-1.901-3.031h-.651v.215l.377.034v3.043l-.377.029v.215h1.028v-.215l-.377-.029v-2.793h.017l1.905 3.037h.275v-3.287l.377-.034zm2.137-.215c.41 0 .749.142 1.013.431.269.29.403.659.403 1.107v.454c0 .454-.134.824-.403 1.107-.264.284-.603.432-1.013.432h-1.351v-.21l.377-.029v-3.043l-.377-.034v-.215h1.351zm-.7.26v3.032h.7c.329 0 .603-.119.819-.363.215-.244.323-.55.323-.925v-.46c0-.37-.108-.676-.323-.92-.216-.244-.49-.363-.819-.363h-.7zm5.272-.01c-.194-.165-.469-.25-.83-.25h-1.389v.215l.377.034v3.038l-.377.034v.21h1.023v-.21l-.377-.034V36.8h.846c.226.006.409.074.538.199.129.119.194.289.194.505v.312c0 .165.032.307.097.426.064.119.177.176.339.176h.178v-.216l-.113-.006c-.076-.005-.13-.034-.167-.096-.033-.063-.054-.153-.054-.278v-.324c0-.216-.049-.392-.14-.534-.092-.142-.242-.238-.447-.295.188-.062.334-.17.436-.318.108-.147.156-.318.156-.5 0-.312-.097-.55-.29-.715zm-.862 1.419h-.711v-1.42h.743c.28 0 .49.063.63.188s.21.3.21.528c0 .21-.07.38-.21.51-.14.131-.36.194-.662.194zm4.296.153h-1.373v1.465h1.583l.022-.528h.242v.772h-2.498v-.21l.377-.029v-3.043l-.377-.034v-.215h2.487v.777h-.242l-.022-.528h-1.572v1.329h1.373v.244zm5.256-1.539c-.194-.187-.463-.283-.818-.283h-1.411v.215l.377.034v3.043l-.377.029v.21h1.023v-.216l-.377-.028v-1.22h.765c.355 0 .624-.092.818-.28.194-.192.291-.442.291-.754s-.097-.562-.291-.75zm-.813 1.533h-.759v-1.567h.765c.28 0 .484.074.624.222.135.147.205.335.205.562 0 .227-.07.414-.21.562-.14.148-.35.221-.625.221zm4.947-.022c0 .528-.134.965-.403 1.294-.27.335-.62.5-1.05.5-.426 0-.765-.165-1.034-.5-.264-.335-.399-.766-.399-1.294v-.046c0-.528.13-.96.394-1.294.263-.335.608-.5 1.028-.5.431 0 .781.165 1.05.5.269.335.404.766.404 1.294v.046h.01zm-.274-.051c0-.46-.108-.83-.318-1.113-.21-.284-.501-.426-.861-.426-.356 0-.636.142-.84.426-.21.284-.313.653-.313 1.113v.05c0 .46.103.835.313 1.12.204.283.49.425.84.425.36 0 .651-.142.861-.426.21-.284.312-.653.312-1.118v-.051h.006zm3.305-.693h.221v-.596c-.113-.153-.259-.273-.452-.364-.189-.09-.41-.136-.652-.136-.334 0-.614.085-.829.256-.216.17-.323.386-.323.658 0 .267.097.471.285.63.189.16.469.284.835.38.339.092.581.205.716.325.134.119.204.278.204.47 0 .205-.086.364-.247.489-.162.12-.377.182-.641.182-.188 0-.355-.035-.517-.097-.156-.068-.285-.159-.388-.278l-.037-.517h-.226v.62c.129.164.296.289.5.38.205.085.431.13.668.13.339 0 .619-.085.835-.25.215-.17.328-.392.328-.675 0-.273-.092-.489-.28-.653-.188-.165-.463-.295-.824-.392-.339-.085-.581-.193-.721-.312-.14-.12-.21-.267-.21-.443 0-.187.075-.346.231-.471.156-.125.372-.188.646-.188.194 0 .356.029.501.091.146.063.259.154.339.261l.038.5zm3.5 0h-.22l-.038-.5c-.081-.107-.194-.198-.339-.26-.146-.063-.313-.092-.501-.092-.275 0-.49.063-.646.188-.156.125-.232.284-.232.47 0 .177.07.325.21.444.14.119.383.227.722.312.361.096.635.227.824.392.188.164.28.38.28.653 0 .284-.108.505-.329.675-.215.165-.495.25-.834.25-.243 0-.463-.045-.668-.13-.205-.091-.372-.216-.501-.38v-.62h.226l.038.517c.102.12.232.21.388.278.156.063.328.097.517.097.263 0 .479-.063.64-.182.162-.125.248-.284.248-.488 0-.193-.07-.352-.205-.471-.134-.12-.377-.233-.716-.324-.366-.097-.646-.222-.834-.38-.189-.16-.286-.364-.286-.63 0-.273.108-.489.323-.66.216-.17.49-.255.83-.255.242 0 .457.046.651.136.188.091.339.21.452.364v.596zm.969-1.05v.215l.377.034v3.043l-.377.029v.215h1.029v-.215l-.377-.029v-3.043l.377-.034v-.215h-1.029zm3.22 0c.35 0 .619.073.813.232.194.154.291.386.291.699 0 .181-.049.34-.145.47-.097.137-.232.228-.399.279.205.04.372.142.496.307.129.164.193.352.193.567 0 .313-.097.557-.29.727-.194.17-.453.255-.781.255h-1.535v-.215l.377-.029v-3.043l-.377-.034v-.215h1.357zm-.705 1.584h.77c.242 0 .431-.057.56-.17.129-.114.199-.279.199-.495 0-.221-.07-.392-.21-.505-.14-.114-.345-.17-.614-.17h-.705v1.34zm0 .244v1.459h.883c.248 0 .441-.063.581-.193.14-.13.21-.307.21-.54 0-.21-.064-.386-.193-.522-.13-.136-.313-.204-.56-.204h-.921zm2.865 1.493v.215h2.304v-.743h-.242l-.022.5h-1.389v-3.044l.377-.034v-.215h-1.028v.215l.377.034v3.043l-.377.029zm5.205-1.499h-1.373v1.465h1.583l.022-.528H149v.772h-2.498v-.21l.377-.029v-3.043l-.377-.034v-.215h2.487v.777h-.242l-.022-.528h-1.572v1.329h1.373v.244z" clip-rule="evenodd"/>
    <path fill="url(#prefix__paint0_linear)" fill-rule="evenodd" d="M34.53 12.28c.65-.505 1.152-1.01 1.507-1.402l-.275-.284V5.217c0-.198-.15-.352-.334-.352h-2.756c-.189 0-.34.16-.34.352v1.749L26.04.329S25.785 0 25.279 0c-.5 0-.786.352-.786.352l-7.247 7.647-1.373 1.448c-.328-.244-.651-.488-.952-.727-3.766-3.008-5.668-5.742-6.577-7.049-.417-.599-.625-.898-.708-.785-.232.312 1.739 5.387 5.33 9.89.248.312.506.618.77.92l1.577-1.664.56-.585c1.346 1.005 2.892 2.032 4.69 3.037 6.79 3.787 11.468 1.749 13.966-.204zM13.616 44.374c.198.042.29-.311.51-1.16.253-.97.675-2.589 1.617-5.006-.49.074-.98.142-1.475.187.69-3.19 1.857-7.238 3.618-11.053 1.508-3.27 3.812-7.034 5.767-8.703.032-.029.15-.063.215-.069.818.148 1.637.227 2.439.227.35 0 .694-.017 1.039-.045.28.96-.13 2.77-2.09 5.12-.615.74-1.241 1.426-1.876 2.12-2.278 2.492-4.662 5.101-7.05 10.763-.22.516-.41.993-.587 1.453 2.95-.454 5.794-1.38 8.372-2.76v-.002c1.398-.749 2.721-1.622 3.936-2.626 4.49-3.724 7.517-9.174 7.694-16.066h3.23s.69.005.991-.738c.297-.744-.247-1.26-.247-1.26l-1.868-1.97-.975-1.028c-.34.641-.71 1.249-1.13 1.8-3.7 4.82-10.29 6.102-16.546 2.713-2.062-1.113-3.893-2.765-5.46-4.57l-2.907 3.06s-.533.5-.253 1.249c.28.75 1.007.75 1.007.75h3.24c.157 3.53.28 20.596-11.774 20.386 3.629 1.232 7.478 1.624 11.214 1.25-.748 3.468-.92 5.926-.651 5.977zM37.48 10.52c-.178.437-.388.835-.603 1.238l-.226-.239-.614-.647c.277-.306.467-.55.566-.678l.042-.054c.163-.214.288-.414.391-.58.204-.328.328-.527.514-.46.307.114.22.71-.07 1.42z" clip-rule="evenodd"/>
    <path fill="#fff" fill-rule="evenodd" d="M27.76 11.593c-.22.006.302.676 1.584.227.242-.085.425-.182.576-.273-.366 1.062-1.217 1.92-2.342 2.192-1.75.42-3.5-.732-3.898-2.583-.399-1.851.7-3.69 2.45-4.116 1.755-.426 3.505.732 3.903 2.583.043.21.07.414.075.624-.323.426-1.152 1.3-2.347 1.346zm7.985 1.964c-3.693 4.82-10.283 6.103-16.545 2.714-2.068-1.119-3.898-2.765-5.47-4.576l1.577-1.663.56-.59c1.346 1.01 2.891 2.032 4.69 3.037 6.794 3.792 11.468 1.754 13.971-.205.647-.505 1.153-1.01 1.508-1.402l.614.647.226.239c-.34.635-.71 1.249-1.13 1.8zm-8.135 7.534c-.371.982-1.028 2.06-1.949 3.157-.023.024-.042.048-.064.076l-.011.014c.457.545.883 1.193.861 2.288-.031 1.833-1.372 3.94-2.238 5.3-.461.726-.787 1.238-.707 1.383.264.482 5.33-5.036 5.47-8.261.092-2.135-.963-3.645-1.362-3.957zm-.264-2.34c.28.96-.13 2.771-2.09 5.122-.615.74-1.241 1.424-1.876 2.119-2.278 2.492-4.662 5.1-7.05 10.762-.215.517-.41 1-.587 1.454-.49.074-.98.142-1.475.187.689-3.19 1.857-7.238 3.618-11.053 1.502-3.276 3.812-7.035 5.766-8.704.033-.028.151-.062.216-.068.818.148 1.631.227 2.439.227.35 0 .694-.017 1.039-.045z" clip-rule="evenodd"/>
    <path fill="#00A0E0" fill-rule="evenodd" d="M103.203 10.009c.84-.46 1.879-.102 2.31.79.431.885.097 1.98-.749 2.429-.118.062-.231.108-.35.142l-4.69 1.311-.58-1.215 3.698-3.202c.113-.102.226-.187.361-.255zM.263 29.414c.265-.017.512.42.512.42C2.461 32.377 5.1 34.609 8.34 35.21c-1.631 1.096-3.984 1.533-5.966 1.533-1.044-.75-2.38-4.178-2.374-6.807 0 0 0-.51.264-.522z" clip-rule="evenodd"/>
    <defs>
        <linearGradient id="prefix__paint0_linear" x1="24.505" x2="12.969" y1="17.434" y2="49.133" gradientUnits="userSpaceOnUse">
            <stop offset=".163" stop-color="#EC733B"/>
            <stop offset="1" stop-color="#E43632"/>
        </linearGradient>
    </defs>
</svg>
