<svg xmlns="http://www.w3.org/2000/svg" width="231" height="65" fill="none" viewBox="0 0 231 65">
    <path fill="#313438" fill-rule="evenodd" d="M188.713 41.934h11.069v-4.908h-2.238V13.868h-8.797v4.826h1.594v18.332h-1.628v4.908zM81.527 22.136c-3.498 0-6.753 1.763-8.272 2.66l1.602 4.34c1.436-.79 3.414-1.72 5.651-1.72 2.045 0 3.598.41 3.598 2.09v1.319c-.192-.231-1.51-1.318-3.756-1.318-4.274 0-7.88 2.66-7.88 6.884 0 4.34 3.856 6.251 7.462 6.251 1.37 0 3.715-.494 5.117-2.405l.918 1.689h8.114V37.14h-2.27v-7.296c0-6.02-5.735-7.709-10.284-7.709zm2.57 12.987v1.417c-.333.568-1.285 1.235-2.428 1.235-1.144 0-2.012-.7-2.012-1.754 0-1.161.684-1.977 2.204-1.977 1.594 0 2.128.89 2.237 1.08zm30.443 6.81h10.726v-4.907h-1.895V33.17c0-3.294 1.937-4.15 5.351-4.15v-6.736c-3.907 0-4.892 1.54-5.877 3.335l-1.135-2.397h-7.128v4.867h1.636v8.936h-1.678v4.908zm53.697-2.585c-2.813 2.396-5.843 3.253-9.791 3.253-4.699 0-10.008-2.957-10.008-10.138 0-6.143 4.474-9.767 10.209-9.767 4.507 0 7.954 2.281 9.056 5.427.451 1.31.868 4.184.075 6.317h-11.953c.234 1.013.735 3.063 3.907 3.063 1.285 0 3.263-.115 5.308-1.795l3.197 3.64zm-12.287-8.606h5.727c-.042-1.425-.384-2.99-2.805-2.99-2.304 0-2.846 2.06-2.922 2.99zm74.925 11.192h-10.618v-4.908h1.594V28.09h-1.594v-4.867h8.798v13.803h1.82v4.908zm-5.459-27.992c2.612 0 4.165 2.1 4.165 3.821 0 2.06-1.477 3.789-4.165 3.789-2.388 0-4.099-1.985-4.099-3.789 0-1.72 1.444-3.82 4.099-3.82zm-115.175 36.91c0 .223-.042.437-.133.643-.092.206-.209.379-.368.519l-.25-.181c.108-.157.192-.305.25-.462.05-.156.075-.32.075-.51v-.626h.426v.618zm-23.673 4.744c.3-.132.518-.28.643-.428h.017V53.43H85.8v.346l1.001.017v1.243c-.1.099-.267.19-.509.28-.242.09-.526.132-.868.132-.568 0-1.019-.206-1.352-.626-.334-.412-.501-.955-.501-1.622v-.116c0-.65.167-1.177.509-1.589.342-.404.801-.61 1.394-.61.3 0 .56.042.785.132.217.09.4.206.542.363l.075.75h.334v-.89c-.192-.223-.434-.396-.734-.527-.3-.124-.643-.19-1.035-.19-.693 0-1.244.239-1.67.717-.426.477-.634 1.095-.634 1.853v.107c0 .766.217 1.391.634 1.877.426.486.968.725 1.644.725.46 0 .844-.066 1.152-.206zm-4.9-2.388c0 .766-.208 1.4-.625 1.878-.418.486-.96.724-1.628.724-.66 0-1.185-.239-1.603-.724-.409-.486-.617-1.112-.617-1.878v-.066c0-.766.2-1.392.609-1.878.409-.485.943-.724 1.602-.724.668 0 1.21.239 1.628.724.418.486.626 1.112.626 1.878v.066h.009zm-.425-.074c0-.667-.167-1.202-.492-1.614-.326-.412-.769-.618-1.328-.618-.55 0-.985.206-1.302.618-.317.412-.476.947-.476 1.614v.074c0 .667.159 1.21.484 1.622.318.412.76.618 1.303.618.559 0 1.01-.206 1.335-.618.326-.411.493-.947.493-1.622v-.074h-.017zm-8.865 2.594v-.305l.585-.041v-4.414l-.585-.05v-.313H73.972v.313l-.584.05v4.414h2.162l.034-.725h.375v1.08h-3.58v-.01zm19.6-2.479h-2.13v2.125h2.455l.033-.766h.376v1.12h-3.873v-.305l.584-.041v-4.414l-.584-.05v-.313h3.856v1.129h-.375l-.034-.766H89.85v1.927h2.128v.354zm5.626-2.281c-.301-.239-.727-.363-1.286-.363h-2.162v.313l.584.05v4.406l-.584.05v.304h1.586v-.305l-.584-.05v-1.992h1.31c.35.008.635.107.835.288.2.173.3.42.3.733v.453c0 .239.05.445.15.617.1.173.276.256.527.256h.275v-.313l-.175-.008c-.117-.009-.2-.05-.259-.14-.05-.09-.084-.223-.084-.404v-.47c0-.312-.066-.568-.208-.773-.142-.206-.376-.346-.693-.429.292-.09.517-.247.676-.46.167-.215.242-.462.242-.726 0-.452-.15-.798-.45-1.037zm-1.336 2.059h-1.102v-2.06h1.152c.434 0 .76.091.977.273.217.18.325.436.325.765 0 .305-.108.552-.325.742-.217.19-.56.28-1.027.28zm4.249 2.536c0 .214-.051.428-.134.634-.092.206-.209.38-.367.527l-.25-.18c.108-.157.191-.305.25-.462.05-.157.083-.321.083-.51v-.503h.426v.494h-.008zm7.237-3.434h.342v-.864c-.167-.223-.401-.396-.701-.528-.293-.131-.635-.197-1.01-.197-.518 0-.952.123-1.286.37-.334.247-.501.56-.501.956 0 .387.151.683.443.914.292.23.726.412 1.294.552.525.131.901.296 1.11.469.208.173.317.404.317.683 0 .297-.134.527-.384.709-.259.173-.584.263-.993.263-.293 0-.56-.05-.802-.14-.242-.099-.442-.23-.601-.403l-.058-.75h-.351v.898c.201.239.459.42.777.552.317.123.659.19 1.035.19.526 0 .951-.124 1.293-.363.343-.247.51-.569.51-.98 0-.395-.142-.708-.434-.947-.293-.24-.718-.428-1.278-.569-.525-.123-.901-.28-1.118-.452-.217-.173-.326-.387-.326-.643 0-.272.117-.502.359-.683.242-.181.576-.272 1.002-.272.292 0 .551.041.776.132.226.09.401.222.526.378l.059.725zm4.799 1.12h2.129v-.354h-2.129v-1.927h2.438l.033.766h.376v-1.129H111.543v.313l.585.05v4.414l-.585.041v.305h3.873v-1.12h-.375l-.034.766h-2.454v-2.125zm9.299-2.644v.313l-.584.05v4.768h-.426l-2.955-4.406h-.025v4.052l.584.041v.313h-1.586v-.313l.585-.041v-4.414l-.585-.05v-.313h1.01l2.955 4.398h.025v-4.035l-.584-.05v-.313H121.852zm4.75 4.991c.3-.132.517-.28.642-.428h.017V53.43h-1.427v.346l1.001.017v1.243c-.1.099-.267.19-.509.28-.242.09-.526.132-.868.132-.568 0-1.018-.206-1.352-.626-.334-.412-.501-.955-.501-1.622v-.116c0-.65.167-1.177.509-1.589.334-.404.801-.61 1.394-.61.301 0 .559.042.785.132.217.09.4.206.542.363l.075.75h.334v-.89c-.192-.223-.434-.396-.734-.527-.301-.124-.643-.19-1.035-.19-.693 0-1.244.239-1.67.717-.425.477-.634 1.095-.634 1.853v.107c0 .766.209 1.391.634 1.877.418.486.969.725 1.645.725.459 0 .843-.066 1.152-.206zm2.22-.173l.384-.025 1.845-4.784h.4l1.828 4.785.393.024v.313h-1.286v-.313l.451-.033-.426-1.144h-2.329l-.434 1.144.451.033v.313h-1.277v-.313zm1.394-1.565h2.053l-1.01-2.709h-.025l-1.018 2.71zm7.93 1.738c.3-.132.517-.28.643-.428h.016V53.43h-1.427v.346l1.001.017v1.243c-.1.099-.267.19-.509.28-.242.09-.526.132-.868.132-.567 0-1.018-.206-1.352-.626-.334-.412-.501-.955-.501-1.622v-.116c0-.65.167-1.177.509-1.589.343-.404.802-.61 1.394-.61.301 0 .56.042.785.132.217.09.401.206.542.363l.076.75h.334v-.89c-.192-.223-.435-.396-.735-.527-.301-.124-.643-.19-1.035-.19-.693 0-1.244.239-1.67.717-.425.477-.634 1.095-.634 1.853v.107c0 .766.209 1.391.634 1.877.426.486.969.725 1.645.725.459 0 .843-.066 1.152-.206zm5.4-2.347h-2.12v2.125h2.454l.034-.766h.375v1.12h-3.873v-.305l.584-.041v-4.414l-.584-.05v-.313h3.857v1.129h-.384l-.034-.766h-2.437v1.927h2.128v.354zm5.635-2.281c-.301-.239-.726-.363-1.286-.363h-2.153v.313l.584.05v4.406l-.584.05v.304h1.586v-.305l-.585-.05v-1.992h1.303c.358.008.642.107.843.288.2.173.3.42.3.733v.453c0 .239.05.445.15.617.101.173.276.256.526.256h.267v-.313l-.175-.008c-.117-.009-.2-.05-.259-.14-.05-.09-.083-.223-.083-.404v-.47c0-.312-.067-.568-.209-.773-.142-.206-.367-.346-.693-.429.292-.09.518-.247.676-.46.159-.215.243-.462.243-.726 0-.452-.151-.798-.451-1.037zm-1.336 2.059h-1.102v-2.06h1.152c.434 0 .76.091.977.273.217.18.325.436.325.765 0 .305-.108.552-.325.742-.217.19-.559.28-1.027.28zm4.241 2.536c0 .214-.042.428-.134.634-.092.206-.209.38-.367.527l-.251-.18c.109-.157.192-.305.251-.462.05-.157.075-.321.075-.51v-.503h.426v.494zm7.362-4.595c-.301-.239-.726-.363-1.286-.363H156v.313l.585.05v4.406l-.585.05v.304h1.586v-.305l-.584-.05v-1.992h1.311c.35.008.634.107.834.288.201.173.301.42.301.733v.453c0 .239.05.445.15.617.1.173.275.256.526.256h.275v-.313l-.175-.008c-.117-.009-.2-.05-.259-.14-.05-.09-.083-.223-.083-.404v-.47c0-.312-.067-.568-.209-.773-.142-.206-.367-.346-.693-.429.293-.09.518-.247.676-.46.167-.215.243-.462.243-.726 0-.452-.151-.798-.451-1.037zm-1.336 2.059h-1.102v-2.06h1.152c.434 0 .76.091.977.273.217.18.325.436.325.765 0 .305-.108.552-.325.742-.217.19-.559.28-1.027.28zm6.661.222h-2.128v2.125h2.454l.033-.766h.384v1.12h-3.873v-.305l.584-.041v-4.414l-.584-.05v-.313h3.857v1.129h-.376l-.033-.766h-2.438v1.927h2.129v.354h-.009zm7.171-2.33v-.313h-1.603v.312l.584.05v4.035h-.025l-2.946-4.398h-1.01v.313l.584.05v4.414l-.584.041v.313h1.594v-.313l-.584-.041V51.33h.025l2.955 4.406h.425v-4.768l.585-.05zm3.313-.313c.635 0 1.161.205 1.57.625.417.42.626.956.626 1.606v.66c0 .658-.209 1.193-.626 1.605-.409.412-.935.626-1.57.626h-2.095v-.305l.585-.041v-4.414l-.585-.05v-.313H175.257zm-1.085.378v4.398h1.085c.51 0 .935-.173 1.269-.527.334-.354.501-.799.501-1.342v-.667c0-.536-.167-.98-.501-1.335-.334-.354-.759-.527-1.269-.527h-1.085zm8.172-.016c-.3-.239-.726-.363-1.285-.363h-2.154v.313l.584.05v4.406l-.584.05v.304h1.586v-.305l-.584-.05v-1.992h1.31c.351.008.635.107.835.288.2.173.301.42.301.733v.453c0 .239.05.445.15.617.1.173.275.256.526.256h.275v-.313l-.175-.008c-.117-.009-.201-.05-.259-.14-.05-.09-.083-.223-.083-.404v-.47c0-.312-.076-.568-.217-.773-.142-.206-.376-.346-.693-.429.292-.09.517-.247.676-.46.167-.215.242-.462.242-.726 0-.452-.15-.798-.451-1.037zm-1.335 2.059h-1.102v-2.06h1.152c.434 0 .759.091.976.273.217.18.326.436.326.765 0 .305-.109.552-.326.742-.217.19-.559.28-1.026.28zm6.661.222h-2.129v2.125h2.454l.034-.766h.375v1.12h-3.873v-.305l.584-.041v-4.414l-.584-.05v-.313h3.857v1.129h-.376l-.033-.766h-2.438v1.927h2.129v.354zm8.147-2.232c-.301-.272-.718-.412-1.269-.412h-2.187v.313l.584.05v4.414l-.584.041v.305h1.586v-.313l-.585-.041v-1.77h1.186c.551 0 .968-.133 1.269-.404.3-.28.45-.643.45-1.096 0-.453-.15-.815-.45-1.087zm-1.261 2.224h-1.177v-2.273h1.185c.435 0 .752.107.969.321.208.214.317.486.317.815 0 .33-.109.602-.326.816-.217.214-.542.32-.968.32zm7.671-.033c0 .766-.208 1.4-.626 1.878-.417.486-.96.724-1.628.724-.659 0-1.185-.239-1.602-.724-.409-.486-.618-1.112-.618-1.878v-.066c0-.766.2-1.392.609-1.878.409-.485.944-.724 1.595-.724.668 0 1.21.239 1.628.724.417.486.626 1.112.626 1.878v.066h.016zm-.425-.074c0-.667-.167-1.202-.493-1.614-.325-.412-.776-.618-1.336-.618-.55 0-.984.206-1.302.618-.325.412-.484.947-.484 1.614v.074c0 .667.159 1.21.484 1.622.318.412.76.618 1.302.618.56 0 1.011-.206 1.336-.618.326-.411.484-.947.484-1.622v-.074h.009zm5.125-1.005h.342v-.864c-.175-.223-.401-.396-.701-.528-.292-.131-.635-.197-1.01-.197-.518 0-.952.123-1.286.37-.334.247-.501.56-.501.956 0 .387.151.683.443.914.292.23.726.412 1.294.552.526.131.901.296 1.11.469.209.173.317.404.317.683 0 .297-.134.527-.384.709-.25.173-.584.263-.993.263-.292 0-.551-.05-.802-.14-.242-.099-.442-.23-.601-.403l-.058-.75h-.351v.898c.201.239.46.42.777.552.317.123.667.19 1.035.19.526 0 .96-.124 1.294-.363.333-.247.509-.569.509-.98 0-.395-.142-.708-.434-.947-.292-.24-.718-.428-1.277-.569-.526-.123-.902-.28-1.119-.452-.217-.173-.325-.387-.325-.643 0-.272.116-.502.358-.683.243-.181.576-.272 1.002-.272.301 0 .551.041.776.132.226.09.401.222.526.378l.059.725zm5.425 0h-.342l-.058-.724c-.126-.157-.301-.289-.526-.38-.226-.09-.484-.131-.776-.131-.426 0-.76.09-1.002.272-.242.18-.359.411-.359.683 0 .256.108.47.325.643.218.172.593.329 1.119.453.559.14.985.329 1.277.568.292.239.434.552.434.947 0 .411-.167.733-.509.98-.334.239-.768.362-1.294.362-.375 0-.718-.066-1.035-.19-.317-.131-.576-.312-.776-.551v-.898h.35l.059.75c.158.173.359.304.601.403.242.09.509.14.801.14.409 0 .743-.09.993-.263.251-.181.384-.412.384-.709 0-.28-.108-.51-.317-.683-.208-.173-.584-.338-1.11-.47-.568-.14-1.002-.32-1.294-.551-.292-.23-.442-.527-.442-.914 0-.396.167-.709.501-.956.334-.247.759-.37 1.285-.37.376 0 .71.066 1.01.197.292.132.526.305.701.527v.865zm1.503-1.523v.312l.584.05v4.414l-.584.041v.313h1.594v-.313l-.584-.041v-4.414l.584-.05v-.313h-1.594zm4.991 0c.543 0 .96.107 1.261.337.3.223.451.56.451 1.013 0 .264-.075.494-.226.684-.15.197-.359.329-.617.403.317.058.576.206.768.445.2.239.3.51.3.823 0 .453-.15.807-.451 1.054-.3.247-.701.371-1.21.371h-2.379v-.313l.584-.041v-4.414l-.584-.05v-.313H218.846zm-1.093 2.297h1.194c.375 0 .667-.082.868-.247.2-.165.309-.403.309-.716 0-.322-.109-.569-.326-.733-.217-.165-.534-.247-.952-.247h-1.093v1.943zm0 .354v2.117h1.369c.384 0 .684-.09.901-.28.217-.19.326-.445.326-.783 0-.304-.1-.56-.301-.757-.2-.198-.484-.297-.868-.297h-1.427zm4.441 2.166v.313h3.572v-1.079h-.375l-.034.725h-2.153v-4.414l.584-.05v-.313H222.194v.313l.584.05v4.414l-.584.041zm8.071-2.174h-2.128v2.125h2.454l.033-.766H231v1.12h-3.873v-.305l.584-.041v-4.414l-.584-.05v-.313h3.856v1.129h-.375l-.034-.766h-2.437v1.927h2.128v.354z" clip-rule="evenodd"/>
    <path fill="url(#prefix__paint0_linear)" fill-rule="evenodd" d="M53.53 17.813c1.01-.733 1.787-1.466 2.338-2.034l-.426-.412V7.568c0-.288-.234-.51-.517-.51H50.65c-.292 0-.526.23-.526.51v2.537L40.367.478S39.975 0 39.19 0c-.776 0-1.219.51-1.219.51L26.736 11.605l-2.129 2.1c2.087 1.457 4.483 2.948 7.27 4.405 10.527 5.493 17.78 2.537 21.654-.296zM21.11 64.367c.308.061.45-.45.792-1.681.392-1.408 1.044-3.757 2.505-7.263-.76.107-1.52.206-2.287.272-1.16 5.032-1.427 8.598-1.01 8.672zM58.105 15.26c-.276.634-.601 1.21-.935 1.795l1.51 1.49 2.897 2.858s.843.75.384 1.829c-.467 1.079-1.536 1.07-1.536 1.07h-5.008C55.14 34.3 50.45 42.206 43.489 47.608c-1.884 1.456-3.935 2.723-6.102 3.809v.004c-3.998 2.001-8.406 3.343-12.98 4.002.276-.667.568-1.359.91-2.108 3.702-8.212 7.398-11.997 10.93-15.612.984-1.007 1.955-2 2.91-3.074 3.038-3.41 3.672-6.036 3.238-7.428-.534.041-1.068.066-1.61.066-1.244 0-2.513-.115-3.782-.33-.1.009-.284.058-.334.1-3.03 2.42-6.602 7.88-8.94 12.624-2.73 5.534-4.54 11.406-5.609 16.034-5.793.544-11.761-.025-17.387-1.812 18.69.305 18.497-24.45 18.255-29.573h-5.025s-1.127 0-1.56-1.087c-.435-1.087.391-1.811.391-1.811l4.508-4.44c2.429 2.62 5.267 5.016 8.464 6.63 9.7 4.917 19.916 3.055 25.65-3.936.652-.799 1.228-1.68 1.754-2.61l-.35-.347-.952-.938c.429-.445.723-.799.877-.984l.001-.001.002-.002.063-.076c.253-.31.446-.6.606-.841.316-.475.508-.764.796-.666.476.165.343 1.03-.108 2.059zm-33.498-1.556c-.509-.355-1.01-.709-1.477-1.055-5.837-4.364-8.787-8.33-10.196-10.225-.647-.869-.97-1.302-1.098-1.14-.359.454 2.696 7.816 8.264 14.347.384.453.785.897 1.194 1.334l2.445-2.413.868-.848z" clip-rule="evenodd"/>
    <path fill="#fff" fill-rule="evenodd" d="M43.038 16.816c-.342.009.468.98 2.454.33.376-.124.66-.264.894-.395-.568 1.54-1.887 2.783-3.632 3.178-2.712.61-5.425-1.062-6.043-3.747-.617-2.684 1.085-5.353 3.798-5.97 2.721-.618 5.434 1.062 6.052 3.747.067.305.108.601.117.906-.501.617-1.787 1.886-3.64 1.951zm12.38 2.85c-5.727 6.992-15.944 8.853-25.652 3.936-3.205-1.622-6.043-4.01-8.48-6.637l2.445-2.413.868-.857c2.087 1.466 4.483 2.948 7.27 4.406 10.535 5.501 17.78 2.545 21.662-.296 1.002-.733 1.786-1.466 2.337-2.034l.952.938.35.346c-.526.923-1.102 1.812-1.753 2.61zM42.804 30.594c-.576 1.425-1.595 2.99-3.022 4.579-.036.035-.065.07-.1.11l-.017.021c.71.791 1.37 1.73 1.336 3.32-.05 2.657-2.129 5.715-3.47 7.687-.715 1.053-1.221 1.796-1.096 2.005.409.7 8.264-7.304 8.48-11.982.142-3.097-1.494-5.287-2.111-5.74zm-.41-3.393c.435 1.392-.2 4.019-3.238 7.428-.955 1.073-1.926 2.067-2.91 3.074-3.531 3.615-7.228 7.4-10.93 15.612-.334.75-.634 1.45-.91 2.108-.76.107-1.519.206-2.287.272 1.069-4.628 2.88-10.5 5.61-16.034 2.328-4.752 5.91-10.204 8.94-12.625.05-.04.233-.09.333-.099 1.27.215 2.53.33 3.782.33.542 0 1.077-.025 1.61-.066z" clip-rule="evenodd"/>
    <path fill="#00A0E0" fill-rule="evenodd" d="M159.999 14.519c1.302-.667 2.913-.148 3.581 1.145.668 1.284.15 2.874-1.16 3.524-.184.09-.359.157-.543.206l-7.27 1.902-.902-1.762 5.735-4.645c.175-.148.35-.271.559-.37zM.409 42.667c.41-.025.793.61.793.61 2.613 3.689 6.703 6.925 11.728 7.798C10.4 52.665 6.753 53.3 3.68 53.3 2.061 52.212-.009 47.237 0 43.425c0 0 0-.742.409-.758z" clip-rule="evenodd"/>
    <defs>
        <linearGradient id="prefix__paint0_linear" x1="37.989" x2="22.101" y1="25.29" y2="71.951" gradientUnits="userSpaceOnUse">
            <stop offset=".163" stop-color="#EC733B"/>
            <stop offset="1" stop-color="#E43632"/>
        </linearGradient>
    </defs>
</svg>
