<?xml version="1.0" standalone="no"?>
<!-- Generator: Adobe Fireworks 10, Export SVG Extension by Aaron Beall (http://fireworks.abeall.com) . Version: 0.6.1  -->
<!DOCTYPE svg PUBLIC "-//W3C//DTD SVG 1.1//EN" "http://www.w3.org/Graphics/SVG/1.1/DTD/svg11.dtd">
<svg id="pictos.fw-pictos" viewBox="0 0 50 50" style="background-color:none" version="1.1"
	xmlns="http://www.w3.org/2000/svg" xmlns:xlink="http://www.w3.org/1999/xlink" xml:space="preserve"
	x="0px" y="0px" width="50px" height="50px"
>
	<path id="recherche" d="M 22.8351 13.4195 C 27.9979 13.4195 32.1837 17.6049 32.1837 22.768 C 32.1837 24.9899 31.4041 27.0286 30.1097 28.6354 L 36.2885 34.8125 C 36.6769 35.2015 36.6769 35.8322 36.2885 36.2212 C 35.9001 36.6103 35.2688 36.6103 34.8804 36.2212 L 28.7015 30.0428 C 27.0961 31.3377 25.0565 32.1158 22.8351 32.1158 C 17.672 32.1158 13.4862 27.9303 13.4862 22.768 C 13.4862 17.6049 17.672 13.4195 22.8351 13.4195 ZM 22.8351 30.6776 C 27.1973 30.6776 30.7452 27.1298 30.7452 22.768 C 30.7452 18.4056 27.1973 14.8578 22.8351 14.8578 C 18.4725 14.8578 14.9246 18.4056 14.9246 22.768 C 14.9246 27.1298 18.4725 30.6776 22.8351 30.6776 Z" fill="#000000"/>
</svg>
