<svg xmlns="http://www.w3.org/2000/svg" width="19" height="14" fill="none" viewBox="0 0 19 14">
    <path fill="#2A2D36" fill-rule="evenodd" d="M0 .933C0 .418.418 0 .933 0h16.8c.516 0 .934.418.934.933 0 .516-.418.934-.934.934H.933C.418 1.867 0 1.449 0 .933zm0 12.134c0-.516.418-.934.933-.934h16.8c.516 0 .934.418.934.934 0 .515-.418.933-.934.933H.933C.418 14 0 13.582 0 13.067zm5.6-7c-.515 0-.933.418-.933.933 0 .515.418.933.933.933h12.133c.516 0 .934-.418.934-.933 0-.515-.418-.933-.934-.933H5.6z" clip-rule="evenodd"/>
</svg>
