<?xml version="1.0" standalone="no"?>
<!-- Generator: Adobe Fireworks 10, Export SVG Extension by Aaron Beall (http://fireworks.abeall.com) . Version: 0.6.1  -->
<!DOCTYPE svg PUBLIC "-//W3C//DTD SVG 1.1//EN" "http://www.w3.org/Graphics/SVG/1.1/DTD/svg11.dtd">
<svg id="pictos-areli.fw-pictos" viewBox="0 0 50 50" style="background-color:#ffffff00" version="1.1"
	xmlns="http://www.w3.org/2000/svg" xmlns:xlink="http://www.w3.org/1999/xlink" xml:space="preserve"
	x="0px" y="0px" width="50px" height="50px"
>
	<path id="ecole" d="M 39.4427 40.2977 L 40.0968 40.2977 C 40.4437 40.2977 40.725 40.5836 40.725 40.9363 C 40.725 41.289 40.4438 41.575 40.097 41.575 L 9.903 41.575 C 9.5562 41.575 9.275 41.289 9.275 40.9363 C 9.275 40.5836 9.5562 40.2977 9.903 40.2977 L 10.557 40.2977 L 10.557 20.4698 L 10.5134 20.4698 C 10.5128 20.4698 10.5121 20.47 10.5115 20.47 C 10.509 20.47 10.5065 20.4694 10.504 20.4694 C 10.4805 20.4692 10.4574 20.4673 10.4345 20.4646 C 10.4275 20.4637 10.4205 20.4624 10.4135 20.4613 C 10.3917 20.4578 10.3702 20.4532 10.3493 20.4475 C 10.3461 20.4467 10.3431 20.4464 10.3399 20.4456 C 10.3381 20.4451 10.3364 20.4443 10.3346 20.4437 C 10.3209 20.4396 10.3075 20.4348 10.2942 20.4297 C 10.2877 20.4273 10.281 20.425 10.2745 20.4224 C 10.2628 20.4175 10.2515 20.4119 10.2402 20.4064 C 10.2324 20.4027 10.2245 20.3992 10.217 20.3951 C 10.2081 20.3903 10.1995 20.3849 10.1909 20.3796 C 10.1816 20.374 10.1723 20.3686 10.1633 20.3626 C 10.1568 20.3581 10.1508 20.3533 10.1444 20.3486 C 10.1341 20.3411 10.1238 20.3335 10.1139 20.3254 C 10.1088 20.3212 10.1041 20.3165 10.0992 20.3122 C 10.089 20.3031 10.0787 20.294 10.0691 20.2843 C 10.0639 20.279 10.0592 20.2734 10.0542 20.2679 C 10.0456 20.2586 10.0369 20.2494 10.0289 20.2396 C 10.0226 20.2319 10.0169 20.2238 10.011 20.2158 C 10.005 20.2077 9.9987 20.1998 9.9931 20.1914 C 9.9861 20.1811 9.9798 20.1701 9.9734 20.1594 C 9.9696 20.1529 9.9654 20.1465 9.9618 20.1399 C 9.9553 20.128 9.9496 20.1155 9.9438 20.1032 C 9.941 20.097 9.9379 20.0911 9.9352 20.0849 C 9.9302 20.0731 9.926 20.0608 9.9216 20.0487 C 9.919 20.0413 9.916 20.0339 9.9136 20.0264 C 9.9103 20.0161 9.9077 20.0054 9.905 19.9947 C 9.9024 19.9848 9.8996 19.975 9.8975 19.965 C 9.8957 19.9565 9.8945 19.9478 9.8931 19.9393 C 9.8909 19.9266 9.8887 19.914 9.8873 19.9012 C 9.8865 19.8942 9.8863 19.887 9.8858 19.88 C 9.8847 19.8657 9.8838 19.8512 9.8836 19.8366 C 9.8836 19.8347 9.8833 19.8328 9.8833 19.8309 C 9.8833 19.8253 9.884 19.8198 9.8842 19.8142 C 9.8846 19.8007 9.885 19.7872 9.8862 19.7736 C 9.8871 19.7634 9.8886 19.7535 9.8899 19.7434 C 9.8914 19.7331 9.8927 19.7227 9.8946 19.7123 C 9.8971 19.6992 9.9001 19.6864 9.9033 19.6737 C 9.9048 19.6681 9.9056 19.6624 9.9072 19.6567 L 11.8499 12.6881 C 11.8505 12.6862 11.8513 12.6843 11.8518 12.6824 C 11.8557 12.6688 11.8604 12.6554 11.8652 12.6422 C 11.8677 12.6352 11.8699 12.6281 11.8727 12.6214 C 11.8773 12.6097 11.8826 12.5985 11.888 12.5872 C 11.8918 12.5791 11.8954 12.5708 11.8995 12.5629 C 11.9041 12.5541 11.9093 12.5458 11.9142 12.5373 C 11.9199 12.5276 11.9254 12.5177 11.9316 12.5083 C 11.9356 12.5021 11.9401 12.4963 11.9444 12.4902 C 11.952 12.4793 11.9597 12.4685 11.968 12.4582 C 11.9719 12.4533 11.9761 12.4488 11.9802 12.4441 C 11.9894 12.4334 11.9985 12.4227 12.0083 12.4127 C 12.0132 12.4077 12.0184 12.4032 12.0235 12.3984 C 12.0329 12.3893 12.0423 12.3801 12.0523 12.3717 C 12.0593 12.3657 12.0668 12.3604 12.0741 12.3547 C 12.0826 12.3482 12.0908 12.3414 12.0996 12.3353 C 12.1093 12.3285 12.1194 12.3226 12.1294 12.3164 C 12.1364 12.3121 12.1432 12.3075 12.1503 12.3035 C 12.1615 12.2972 12.1733 12.2916 12.185 12.2859 C 12.1914 12.2828 12.1977 12.2794 12.2043 12.2764 C 12.2157 12.2714 12.2274 12.2672 12.239 12.2629 C 12.2465 12.2601 12.254 12.257 12.2617 12.2544 C 12.2717 12.2512 12.282 12.2486 12.2923 12.2458 C 12.3022 12.2431 12.312 12.2402 12.3221 12.238 C 12.3303 12.2362 12.3387 12.2351 12.3471 12.2335 C 12.3596 12.2313 12.3721 12.2291 12.3847 12.2277 C 12.3916 12.2269 12.3986 12.2267 12.4056 12.2261 C 12.4197 12.2251 12.4338 12.224 12.448 12.224 C 12.45 12.224 12.4519 12.2236 12.4539 12.2236 L 18.7203 12.2236 L 18.7203 11.6163 C 18.7203 11.3638 18.8665 11.135 19.0934 11.0326 L 24.7449 8.4799 C 24.9074 8.4067 25.0927 8.4067 25.255 8.4801 L 30.9199 11.0423 C 31.1466 11.1449 31.2927 11.3735 31.2927 11.6259 L 31.2927 12.2236 L 37.5591 12.2236 C 37.5611 12.2236 37.5631 12.224 37.5651 12.224 C 37.579 12.2241 37.5926 12.2251 37.6063 12.2261 C 37.6137 12.2267 37.6213 12.227 37.6286 12.2278 C 37.6407 12.2291 37.6525 12.2313 37.6644 12.2333 C 37.6734 12.2348 37.6824 12.2362 37.6913 12.2381 C 37.7005 12.2402 37.7096 12.2428 37.7187 12.2453 C 37.7297 12.2482 37.7408 12.251 37.7516 12.2545 C 37.7583 12.2568 37.7648 12.2595 37.7713 12.2619 C 37.7841 12.2665 37.7967 12.2711 37.809 12.2766 C 37.8144 12.279 37.8195 12.2818 37.8248 12.2843 C 37.8377 12.2905 37.8506 12.2966 37.863 12.3036 C 37.8689 12.307 37.8745 12.3108 37.8803 12.3143 C 37.8916 12.3212 37.9029 12.3279 37.9137 12.3355 C 37.9213 12.3407 37.9286 12.3467 37.9359 12.3524 C 37.9443 12.3588 37.9529 12.365 37.961 12.3718 C 37.9702 12.3797 37.9789 12.3882 37.9877 12.3965 C 37.9934 12.402 37.9994 12.4071 38.0049 12.4128 C 38.0143 12.4223 38.023 12.4326 38.0318 12.4429 C 38.0362 12.448 38.0409 12.4529 38.0451 12.4582 C 38.0532 12.4682 38.0606 12.4788 38.0681 12.4893 C 38.0725 12.4957 38.0773 12.5018 38.0816 12.5083 C 38.0876 12.5175 38.093 12.5272 38.0986 12.5368 C 38.1036 12.5455 38.1089 12.5541 38.1135 12.5629 C 38.1176 12.5707 38.1212 12.579 38.125 12.5871 C 38.1302 12.5984 38.1356 12.6097 38.1403 12.6214 C 38.143 12.6281 38.1453 12.6352 38.1478 12.6422 C 38.1526 12.6554 38.1573 12.6688 38.1612 12.6824 C 38.1618 12.6843 38.1626 12.6862 38.1631 12.6881 L 40.1058 19.6567 C 40.2004 19.9961 40.0066 20.3492 39.6729 20.4454 C 39.6157 20.4618 39.558 20.4697 39.5014 20.4697 C 39.4951 20.4697 39.489 20.4684 39.4828 20.4682 C 39.4738 20.4686 39.4649 20.4696 39.4558 20.4696 L 39.4397 20.4696 C 39.4415 20.49 39.4427 20.5107 39.4427 20.5316 L 39.4427 40.2977 ZM 30.6056 40.2977 L 38.1868 40.2977 L 38.1868 20.5316 C 38.1868 20.5106 38.188 20.49 38.1899 20.4696 L 30.6056 20.4696 L 30.6056 40.2977 ZM 23.1421 35.229 C 23.3031 35.2326 23.4594 35.2994 23.5732 35.4152 C 23.6902 35.5342 23.7569 35.6986 23.7569 35.8671 C 23.7569 36.0355 23.6902 36.2 23.5732 36.3189 C 23.4594 36.4347 23.3031 36.5015 23.1421 36.5051 L 23.1421 40.2977 L 26.8574 40.2977 L 26.8574 31.9952 L 23.1421 31.9952 L 23.1421 35.229 ZM 20.5911 40.2977 L 21.8863 40.2977 L 21.8863 31.3566 C 21.8863 31.0039 22.1674 30.7179 22.5142 30.7179 L 27.4855 30.7179 C 27.8323 30.7179 28.1134 31.0039 28.1135 31.3566 L 28.1135 40.2977 L 29.3498 40.2977 L 29.3498 14.2954 L 24.9997 12.3279 L 20.5911 14.319 L 20.5911 40.2977 ZM 19.3351 14.8188 C 19.2199 14.8164 19.1057 14.7829 19.006 14.717 C 18.8278 14.5992 18.7203 14.3977 18.7203 14.1815 L 18.7203 13.5009 L 12.9285 13.5009 L 11.3418 19.1922 L 19.3351 19.1922 L 19.3351 14.8188 ZM 19.3351 20.4696 L 11.8128 20.4696 L 11.8128 40.2977 L 19.3351 40.2977 L 19.3351 20.4696 ZM 30.0365 12.0408 L 24.9996 9.7626 L 19.9762 12.0314 L 19.9762 13.1992 L 24.7449 11.0454 C 24.8261 11.0088 24.913 10.9905 24.9998 10.9905 C 25.0868 10.9905 25.1737 11.0088 25.255 11.0456 L 30.0365 13.2083 L 30.0365 12.0408 ZM 37.0842 13.5009 L 31.2925 13.5009 L 31.2925 14.1912 C 31.2925 14.4073 31.1849 14.6088 31.0066 14.7267 C 30.9033 14.795 30.7841 14.8298 30.6645 14.8298 C 30.6449 14.8298 30.6252 14.8285 30.6056 14.8267 L 30.6056 19.1923 L 38.6709 19.1923 L 37.0842 13.5009 ZM 13.6868 21.7811 L 17.4644 21.7811 C 17.8112 21.7811 18.0923 22.0671 18.0923 22.4198 L 18.0923 27.4991 C 18.0923 27.8517 17.8112 28.1377 17.4644 28.1377 L 13.6868 28.1377 C 13.3401 28.1377 13.0589 27.8517 13.0589 27.4991 L 13.0589 22.4198 C 13.0589 22.0671 13.3401 21.7811 13.6868 21.7811 ZM 14.3148 26.8604 L 16.8364 26.8604 L 16.8364 25.598 L 14.3148 25.598 L 14.3148 26.8604 ZM 14.3148 24.3208 L 16.8364 24.3208 L 16.8364 23.0584 L 14.3148 23.0584 L 14.3148 24.3208 ZM 13.6868 30.7179 L 17.4644 30.7179 C 17.8112 30.7179 18.0923 31.0039 18.0923 31.3566 L 18.0923 36.4359 C 18.0923 36.7885 17.8112 37.0745 17.4644 37.0745 L 13.6868 37.0745 C 13.3401 37.0745 13.0589 36.7885 13.0589 36.4359 L 13.0589 31.3566 C 13.0589 31.0039 13.3401 30.7179 13.6868 30.7179 ZM 14.3148 35.7972 L 16.8364 35.7972 L 16.8364 34.5348 L 14.3148 34.5348 L 14.3148 35.7972 ZM 14.3148 33.2576 L 16.8364 33.2576 L 16.8364 31.9952 L 14.3148 31.9952 L 14.3148 33.2576 ZM 27.5345 17.2643 C 27.5345 18.6857 26.3975 19.8422 24.9998 19.8422 C 23.6022 19.8422 22.4651 18.6857 22.4651 17.2643 C 22.4651 15.8428 23.6021 14.6864 24.9998 14.6864 C 26.3975 14.6864 27.5345 15.8428 27.5345 17.2643 ZM 23.721 17.2643 C 23.721 17.9816 24.2946 18.565 24.9998 18.565 C 25.705 18.565 26.2786 17.9816 26.2786 17.2643 C 26.2786 16.5471 25.7049 15.9637 24.9998 15.9637 C 24.2947 15.9637 23.721 16.5471 23.721 17.2643 ZM 27.4855 21.7811 C 27.8323 21.7811 28.1134 22.0671 28.1134 22.4198 L 28.1134 27.4991 C 28.1134 27.8517 27.8323 28.1377 27.4855 28.1377 L 22.5142 28.1377 C 22.1674 28.1377 21.8863 27.8517 21.8863 27.4991 L 21.8863 22.4198 C 21.8863 22.0671 22.1674 21.7811 22.5142 21.7811 L 27.4855 21.7811 ZM 26.8575 23.0584 L 23.1422 23.0584 L 23.1422 24.3208 L 26.8575 24.3208 L 26.8575 23.0584 ZM 23.1421 26.8604 L 26.8574 26.8604 L 26.8574 25.598 L 23.1421 25.598 L 23.1421 26.8604 ZM 36.2898 37.0745 L 32.4862 37.0745 C 32.1394 37.0745 31.8582 36.7885 31.8582 36.4359 L 31.8582 31.3566 C 31.8582 31.0039 32.1394 30.7179 32.4862 30.7179 L 36.2898 30.7179 C 36.6366 30.7179 36.9178 31.0039 36.9178 31.3566 L 36.9178 36.4359 C 36.9178 36.7885 36.6366 37.0745 36.2898 37.0745 ZM 35.6619 31.9952 L 33.1141 31.9952 L 33.1141 33.2576 L 35.6619 33.2576 L 35.6619 31.9952 ZM 35.6619 34.5348 L 33.1141 34.5348 L 33.1141 35.7972 L 35.6619 35.7972 L 35.6619 34.5348 ZM 36.2898 28.1377 L 32.4862 28.1377 C 32.1394 28.1377 31.8582 27.8518 31.8582 27.4991 L 31.8582 22.4198 C 31.8582 22.0671 32.1394 21.7811 32.4862 21.7811 L 36.2898 21.7811 C 36.6366 21.7811 36.9178 22.0671 36.9178 22.4198 L 36.9178 27.4991 C 36.9178 27.8517 36.6366 28.1377 36.2898 28.1377 ZM 35.6619 23.0584 L 33.1141 23.0584 L 33.1141 24.3208 L 35.6619 24.3208 L 35.6619 23.0584 ZM 35.6619 25.598 L 33.1141 25.598 L 33.1141 26.8604 L 35.6619 26.8604 L 35.6619 25.598 Z" fill="#000000"/>
</svg>