<?xml version="1.0" standalone="no"?>
<!-- Generator: Adobe Fireworks 10, Export SVG Extension by Aaron Beall (http://fireworks.abeall.com) . Version: 0.6.1  -->
<!DOCTYPE svg PUBLIC "-//W3C//DTD SVG 1.1//EN" "http://www.w3.org/Graphics/SVG/1.1/DTD/svg11.dtd">
<svg id="pictos-areli.fw-pictos" viewBox="0 0 50 50" style="background-color:#ffffff00" version="1.1"
	xmlns="http://www.w3.org/2000/svg" xmlns:xlink="http://www.w3.org/1999/xlink" xml:space="preserve"
	x="0px" y="0px" width="50px" height="50px"
>
	<path id="interphone" d="M 36.2115 38.3663 L 13.7885 38.3663 C 12.6004 38.3663 11.6337 37.3996 11.6337 36.2115 L 11.6337 13.7885 C 11.6337 12.6004 12.6004 11.6337 13.7885 11.6337 L 36.2115 11.6337 C 37.3997 11.6337 38.3663 12.6004 38.3663 13.7885 L 38.3663 36.2115 C 38.3663 37.3996 37.3996 38.3663 36.2115 38.3663 ZM 36.5194 25.7388 L 25.0001 25.7388 C 24.5921 25.7388 24.2613 25.4081 24.2613 25.0001 C 24.2613 24.592 24.5921 24.2613 25.0001 24.2613 L 27.113 24.2613 L 27.113 23.8233 C 27.113 22.2852 28.3643 21.0338 29.9026 21.0338 L 32.0525 21.0338 C 33.5908 21.0338 34.8422 22.2852 34.8422 23.8233 L 34.8422 24.2613 L 36.5193 24.2613 L 36.5193 13.7885 C 36.5193 13.6217 36.3783 13.4807 36.2115 13.4807 L 13.7885 13.4807 C 13.6217 13.4807 13.4807 13.6217 13.4807 13.7885 L 13.4807 36.2115 C 13.4807 36.3783 13.6217 36.5193 13.7885 36.5193 L 36.2115 36.5193 C 36.3784 36.5193 36.5193 36.3783 36.5194 36.2116 L 36.5194 25.7388 ZM 33.3646 24.2613 L 33.3646 23.8233 C 33.3646 23.0999 32.7761 22.5114 32.0525 22.5114 L 29.9026 22.5114 C 29.1791 22.5114 28.5905 23.0998 28.5905 23.8233 L 28.5905 24.2613 L 33.3646 24.2613 ZM 34.0885 34.6426 L 27.8671 34.6426 C 27.4592 34.6426 27.1284 34.3117 27.1284 33.9038 C 27.1284 33.4957 27.4591 33.165 27.8671 33.165 L 34.0885 33.165 C 34.4965 33.165 34.8273 33.4959 34.8273 33.9038 C 34.8273 34.3117 34.4964 34.6426 34.0885 34.6426 ZM 34.0885 31.7966 L 27.8671 31.7966 C 27.4592 31.7966 27.1284 31.4658 27.1284 31.0578 C 27.1284 30.6499 27.4591 30.319 27.8671 30.319 L 34.0885 30.319 C 34.4965 30.319 34.8273 30.6497 34.8273 31.0578 C 34.8273 31.4658 34.4964 31.7966 34.0885 31.7966 ZM 34.0885 28.9505 L 27.8671 28.9505 C 27.4592 28.9505 27.1284 28.6198 27.1284 28.2118 C 27.1284 27.8038 27.4591 27.473 27.8671 27.473 L 34.0885 27.473 C 34.4965 27.473 34.8273 27.8037 34.8273 28.2118 C 34.8273 28.6198 34.4964 28.9505 34.0885 28.9505 ZM 25.0001 34.827 C 24.7575 34.827 24.5186 34.7285 24.3475 34.5574 C 24.1751 34.385 24.0766 34.1473 24.0766 33.9036 C 24.0766 33.661 24.1751 33.4221 24.3475 33.251 C 24.5186 33.0786 24.7575 32.9801 25.0001 32.9801 C 25.2425 32.9801 25.4815 33.0786 25.6526 33.251 C 25.825 33.4233 25.9235 33.661 25.9235 33.9036 C 25.9235 34.1461 25.825 34.385 25.6526 34.5574 C 25.4815 34.7285 25.2426 34.827 25.0001 34.827 ZM 25.0001 31.9814 C 24.7575 31.9814 24.5186 31.8829 24.3475 31.7105 C 24.1751 31.5393 24.0766 31.3005 24.0766 31.0579 C 24.0766 30.8141 24.1751 30.5765 24.3475 30.4053 C 24.5186 30.2329 24.7575 30.1344 25.0001 30.1344 C 25.2425 30.1344 25.4815 30.2331 25.6526 30.4053 C 25.825 30.5765 25.9235 30.8153 25.9235 31.0579 C 25.9235 31.3005 25.825 31.5381 25.6526 31.7105 C 25.4815 31.8829 25.2426 31.9814 25.0001 31.9814 ZM 25.0001 29.1347 C 24.7575 29.1347 24.5186 29.0362 24.3475 28.8651 C 24.1751 28.6927 24.0766 28.4551 24.0766 28.2113 C 24.0766 27.9687 24.1751 27.7311 24.3475 27.5587 C 24.5186 27.3875 24.7563 27.289 25.0001 27.289 C 25.2437 27.289 25.4815 27.3874 25.6526 27.5587 C 25.825 27.7311 25.9235 27.9687 25.9235 28.2113 C 25.9235 28.4551 25.825 28.6927 25.6526 28.8651 C 25.4801 29.0362 25.2426 29.1347 25.0001 29.1347 ZM 20.319 34.4614 L 17.4437 34.4614 C 16.2555 34.4614 15.289 33.4948 15.289 32.3067 L 15.289 17.7384 C 15.289 16.5503 16.2555 15.5836 17.4437 15.5836 L 20.3189 15.5836 C 21.5071 15.5836 22.4737 16.5503 22.4738 17.7384 L 22.4738 32.3067 C 22.4738 33.4948 21.5071 34.4614 20.319 34.4614 ZM 20.6269 17.7384 C 20.6269 17.5715 20.4859 17.4306 20.319 17.4306 L 17.4437 17.4306 C 17.2769 17.4306 17.1359 17.5715 17.1359 17.7384 L 17.1359 32.3067 C 17.1359 32.4735 17.2769 32.6145 17.4437 32.6145 L 20.3189 32.6145 C 20.4858 32.6145 20.6268 32.4735 20.6268 32.3067 L 20.6269 32.3067 L 20.6269 17.7384 ZM 30.9691 14.9291 C 32.5449 14.9291 33.8268 16.2113 33.8268 17.7876 C 33.8268 19.3639 32.5449 20.6462 30.9691 20.6462 C 29.3931 20.6462 28.1109 19.3638 28.1109 17.7876 C 28.1109 16.2115 29.3931 14.9291 30.9691 14.9291 ZM 30.9691 19.1688 C 31.7302 19.1688 32.3493 18.5493 32.3493 17.7878 C 32.3493 17.0262 31.7302 16.4067 30.9691 16.4067 C 30.2079 16.4067 29.5885 17.0262 29.5885 17.7878 C 29.5885 18.5493 30.2078 19.1688 30.9691 19.1688 Z" fill="#000000"/>
</svg>