<?xml version="1.0" standalone="no"?>
<!-- Generator: Adobe Fireworks 10, Export SVG Extension by Aaron Beall (http://fireworks.abeall.com) . Version: 0.6.1  -->
<!DOCTYPE svg PUBLIC "-//W3C//DTD SVG 1.1//EN" "http://www.w3.org/Graphics/SVG/1.1/DTD/svg11.dtd">
<svg id="pictos-areli.fw-pictos" viewBox="0 0 50 50" style="background-color:#ffffff00" version="1.1"
	xmlns="http://www.w3.org/2000/svg" xmlns:xlink="http://www.w3.org/1999/xlink" xml:space="preserve"
	x="0px" y="0px" width="50px" height="50px"
>
	<path id="ascenceur" d="M 38.313 24.0065 L 34.4479 24.0065 C 34.1466 24.0065 34.0295 23.7943 34.1878 23.5349 L 36.0926 20.4135 C 36.2508 20.1541 36.5099 20.1541 36.6682 20.4135 L 38.5731 23.5349 C 38.7314 23.7943 38.6143 24.0065 38.313 24.0065 ZM 31.3357 39.3663 L 31.0618 39.3663 C 30.7102 39.3663 30.4227 39.0753 30.4227 38.7196 L 30.4227 13.8295 C 30.4227 13.4738 30.7102 13.1828 31.0618 13.1828 L 31.3357 13.1828 C 31.6873 13.1828 31.9748 13.4738 31.9748 13.8295 L 31.9748 38.7196 C 31.9748 39.0753 31.6873 39.3663 31.3357 39.3663 ZM 28.2449 29.612 C 27.6513 29.8396 26.9894 29.5321 26.7668 28.9255 L 26.1661 27.289 C 26.1661 27.289 26.1012 27.0504 26.1012 27.8074 L 26.1012 37.7866 C 26.1012 38.659 25.4091 39.3663 24.5552 39.3663 C 23.7012 39.3663 23.0091 38.659 23.0091 37.7866 L 23.0091 31.2672 C 23.0091 31.2672 23.0123 31.2095 22.955 31.2095 C 22.8099 31.2095 22.5195 31.2095 22.3744 31.2095 C 22.3147 31.2095 22.3221 31.2672 22.3221 31.2672 L 22.3221 37.7866 C 22.3221 38.659 21.6299 39.3663 20.776 39.3663 C 19.9221 39.3663 19.2299 38.659 19.2299 37.7866 L 19.2299 27.8074 C 19.2299 27.0624 19.1856 27.2331 19.1856 27.2331 L 18.5643 28.9255 C 18.3417 29.5321 17.6799 29.8395 17.0862 29.612 C 16.4925 29.3844 16.1918 28.7081 16.4144 28.1015 L 18.7512 20.9117 C 18.948 20.3751 19.4033 20.079 20.0212 20.079 C 20.1735 20.079 20.3165 20.079 20.4775 20.079 L 24.8538 20.079 C 25.0147 20.079 25.0395 20.0721 25.3097 20.0721 C 25.8508 20.0721 26.3831 20.3751 26.5801 20.9117 L 28.9168 28.1015 C 29.1395 28.7081 28.8386 29.3844 28.2449 29.612 ZM 22.6963 19.2818 C 20.863 19.2818 19.3769 17.7936 19.3769 15.9578 C 19.3769 14.122 20.863 12.6337 22.6963 12.6337 C 24.5296 12.6337 26.0157 14.122 26.0157 15.9578 C 26.0157 17.7936 24.5296 19.2818 22.6963 19.2818 ZM 14.2693 39.3663 L 13.9954 39.3663 C 13.6439 39.3663 13.3562 39.0753 13.3562 38.7196 L 13.3562 13.8295 C 13.3562 13.4738 13.6439 13.1828 13.9954 13.1828 L 14.2693 13.1828 C 14.6208 13.1828 14.9084 13.4738 14.9084 13.8295 L 14.9084 38.7196 C 14.9084 39.0753 14.6208 39.3663 14.2693 39.3663 ZM 34.448 26.4421 L 38.3131 26.4421 C 38.6144 26.4421 38.7315 26.6543 38.5731 26.9137 L 36.6684 30.0351 C 36.5101 30.2945 36.2511 30.2945 36.0928 30.0351 L 34.1878 26.9137 C 34.0296 26.6543 34.1467 26.4421 34.448 26.4421 Z" fill="#000000"/>
</svg>