<?xml version="1.0" standalone="no"?>
<!-- Generator: Adobe Fireworks 10, Export SVG Extension by Aaron Beall (http://fireworks.abeall.com) . Version: 0.6.1  -->
<!DOCTYPE svg PUBLIC "-//W3C//DTD SVG 1.1//EN" "http://www.w3.org/Graphics/SVG/1.1/DTD/svg11.dtd">
<svg id="pictos-areli.fw-pictos" viewBox="0 0 50 50" style="background-color:#ffffff00" version="1.1"
	xmlns="http://www.w3.org/2000/svg" xmlns:xlink="http://www.w3.org/1999/xlink" xml:space="preserve"
	x="0px" y="0px" width="50px" height="50px"
>
	<path id="commerce" d="M 22.3959 31.8827 L 22.3959 33.5992 C 22.3959 34.0013 22.0824 34.3272 21.6957 34.3272 C 21.3089 34.3272 20.9954 34.0013 20.9954 33.5992 L 20.9954 31.8827 C 20.9954 31.4807 21.3089 31.1547 21.6957 31.1547 C 22.0824 31.1547 22.3959 31.4807 22.3959 31.8827 ZM 16.0495 25.6459 L 17.5249 23.4554 C 17.7467 23.1261 17.6697 22.6722 17.3529 22.4415 C 17.0362 22.2109 16.5995 22.2909 16.3776 22.6203 L 14.9022 24.8107 C 14.6804 25.14 14.7573 25.5939 15.0742 25.8247 C 15.1964 25.9137 15.3365 25.9564 15.4753 25.9564 C 15.696 25.9564 15.9133 25.8482 16.0495 25.6459 ZM 21.2977 22.4415 C 20.9809 22.2109 20.5443 22.2909 20.3224 22.6203 L 15.7059 29.4738 C 15.4841 29.8031 15.5611 30.257 15.8778 30.4877 C 16.0001 30.5768 16.1402 30.6195 16.2789 30.6195 C 16.4996 30.6195 16.7169 30.5113 16.8531 30.309 L 21.4697 23.4554 C 21.6915 23.126 21.6145 22.6721 21.2977 22.4415 ZM 28.3302 31.1547 C 27.9435 31.1547 27.63 31.4807 27.63 31.8827 L 27.63 33.5992 C 27.63 34.0013 27.9435 34.3272 28.3302 34.3272 C 28.717 34.3272 29.0305 34.0013 29.0305 33.5992 L 29.0305 31.8827 C 29.0305 31.4807 28.7171 31.1547 28.3302 31.1547 ZM 34.9519 25.8246 C 35.2687 25.594 34.8296 25.9136 34.9519 25.8246 ZM 37.9061 21.1292 L 37.9061 38.5439 L 37.2212 39.9998 C 37.216 39.9999 37.2109 40 37.2058 40 L 12.7945 40 C 12.7893 40 12.7841 39.9999 12.7791 39.9998 L 12.0941 38.5439 L 12.0941 21.1292 C 11.9397 21.1591 11.781 21.1748 11.6197 21.1748 C 10.3934 21.1748 9.3267 20.2725 9.063 19.0453 C 9.0226 18.9533 9 18.8509 9 18.7432 L 9 18.4517 C 9 18.3563 9.0181 18.2617 9.0531 18.1735 L 12.1262 10.4498 C 12.2344 10.1776 12.4899 10.0001 12.7733 10.0001 L 37.2057 10 C 37.4884 10 37.7435 10.1767 37.8521 10.4482 L 40.9462 18.1718 C 40.9817 18.2605 41 18.3556 41 18.4516 L 41 18.7431 C 41 18.8509 40.9775 18.9533 40.937 19.0452 C 40.6733 20.2724 39.6066 21.1747 38.3803 21.1747 C 38.219 21.1748 38.0605 21.1591 37.9061 21.1292 ZM 25.5641 11.1615 C 24.7595 12.2049 26.4439 10.02 25.5641 11.1615 ZM 21.6715 10.728 L 21.6715 10.728 ZM 24.3153 20.8547 C 23.9468 21.0593 23.5284 21.1749 23.0896 21.1749 C 22.3447 21.1749 21.6586 20.8418 21.1757 20.3053 C 20.6927 20.8418 20.0067 21.1749 19.2619 21.1749 C 18.5204 21.1749 17.8373 20.8449 17.3547 20.3127 C 16.872 20.8449 16.1888 21.1749 15.4474 21.1749 C 14.7025 21.1749 14.0164 20.8419 13.5336 20.3054 C 13.5208 20.3196 13.5079 20.3337 13.4948 20.3476 L 13.4948 38.544 L 24.2997 38.544 L 24.2997 21.0083 C 24.2996 20.9556 24.305 20.9042 24.3153 20.8547 ZM 36.5056 20.3478 C 36.4924 20.3338 36.4794 20.3196 36.4665 20.3052 C 35.9836 20.8417 35.2975 21.1748 34.5525 21.1748 C 33.8111 21.1748 33.128 20.8448 32.6453 20.3127 C 32.1626 20.8449 31.4795 21.1748 30.7381 21.1748 C 29.9932 21.1748 29.3071 20.8418 28.8242 20.3052 C 28.3413 20.8417 27.6553 21.1748 26.9105 21.1748 C 26.4715 21.1748 26.053 21.0591 25.6844 20.8544 C 25.6947 20.904 25.7 20.9555 25.7 21.0083 L 25.7 38.5439 L 36.5054 38.5439 L 36.5054 20.3566 C 36.5055 20.3537 36.5055 20.3507 36.5056 20.3478 ZM 38.3803 19.7189 C 38.981 19.7189 39.4994 19.2541 39.5861 18.6378 C 39.5885 18.6205 39.5916 18.6033 39.5951 18.5865 L 36.7387 11.456 L 13.2415 11.456 L 10.4047 18.586 C 10.4084 18.6031 10.4115 18.6204 10.4139 18.6379 C 10.5006 19.2541 11.019 19.7189 11.6197 19.7189 C 12.2204 19.7189 12.7389 19.2542 12.8256 18.6378 C 12.876 18.2803 13.171 18.0152 13.5186 18.0152 L 13.5488 18.0152 C 13.8963 18.0152 14.1914 18.2803 14.2417 18.6379 C 14.3283 19.2541 14.8467 19.7189 15.4474 19.7189 C 16.0482 19.7189 16.5667 19.2541 16.6536 18.6376 C 16.704 18.2802 16.9989 18.0152 17.3465 18.0152 L 17.3631 18.0152 C 17.7107 18.0152 18.0057 18.2803 18.056 18.6378 C 18.1428 19.2541 18.6612 19.7189 19.262 19.7189 C 19.8626 19.7189 20.3811 19.2541 20.4679 18.6376 C 20.5183 18.2802 20.8132 18.0152 21.1608 18.0152 L 21.191 18.0152 C 21.5386 18.0152 21.8337 18.2803 21.8839 18.6379 C 21.9706 19.2541 22.489 19.7189 23.0896 19.7189 C 23.6904 19.7189 24.2087 19.2542 24.2954 18.6379 C 24.3456 18.2803 24.6407 18.0152 24.9883 18.0152 L 25.0116 18.0152 C 25.3592 18.0152 25.6541 18.2802 25.7045 18.6377 C 25.7914 19.254 26.3099 19.7189 26.9106 19.7189 C 27.5113 19.7189 28.0297 19.2542 28.1164 18.6378 C 28.1667 18.2803 28.4617 18.0152 28.8093 18.0152 L 28.8395 18.0152 C 29.1871 18.0152 29.4821 18.2803 29.5324 18.6378 C 29.6192 19.2541 30.1376 19.7189 30.7384 19.7189 C 31.3391 19.7189 31.8576 19.2541 31.9445 18.6376 C 31.9949 18.2802 32.2898 18.0152 32.6374 18.0152 L 32.6539 18.0152 C 33.0015 18.0152 33.2964 18.2803 33.3468 18.6378 C 33.4335 19.2541 33.952 19.7189 34.5527 19.7189 C 35.1536 19.7189 35.672 19.2542 35.7586 18.6379 C 35.8088 18.2803 36.1039 18.0152 36.4515 18.0152 L 36.4819 18.0152 C 36.8295 18.0152 37.1245 18.2803 37.1748 18.6379 C 37.2613 19.2541 37.7796 19.7189 38.3803 19.7189 ZM 28.5563 23.4554 C 28.5563 23.4554 28.3345 23.126 28.5563 23.4554 Z" fill="#000000"/>
</svg>