<?xml version="1.0" standalone="no"?>
<!-- Generator: Adobe Fireworks 10, Export SVG Extension by Aaron Beall (http://fireworks.abeall.com) . Version: 0.6.1  -->
<!DOCTYPE svg PUBLIC "-//W3C//DTD SVG 1.1//EN" "http://www.w3.org/Graphics/SVG/1.1/DTD/svg11.dtd">
<svg id="pictos-areli.fw-pictos" viewBox="0 0 50 50" style="background-color:#ffffff00" version="1.1"
	xmlns="http://www.w3.org/2000/svg" xmlns:xlink="http://www.w3.org/1999/xlink" xml:space="preserve"
	x="0px" y="0px" width="50px" height="50px"
>
	<path id="centre%20ville" d="M 41.8636 39 L 8.1364 39 C 7.7849 39 7.5 38.7188 7.5 38.3719 C 7.5 38.025 7.7849 37.7437 8.1364 37.7437 L 8.7594 37.7437 L 8.7594 12.6281 C 8.7594 12.2812 9.0444 12 9.3958 12 L 18.3414 12 C 18.6928 12 18.9778 12.2812 18.9778 12.6281 L 18.9778 22.7045 L 40.6042 22.7045 C 40.9556 22.7045 41.2406 22.9858 41.2406 23.3327 L 41.2406 37.7437 L 41.8636 37.7437 C 42.215 37.7437 42.5 38.025 42.5 38.3719 C 42.5 38.7188 42.2151 39 41.8636 39 ZM 17.705 13.2563 L 10.0322 13.2563 L 10.0322 37.7437 L 11.9844 37.7437 L 11.9844 33.9847 C 11.9844 33.6378 12.2693 33.3566 12.6207 33.3566 L 17.705 33.3566 L 17.705 13.2563 ZM 20.9133 23.9608 L 18.9778 23.9608 L 18.9778 33.3567 L 20.9133 33.3567 L 20.9133 23.9608 ZM 24.0952 23.9608 L 22.1861 23.9608 L 22.1861 33.3566 L 24.0952 33.3566 L 24.0952 23.9608 ZM 27.277 23.9608 L 25.368 23.9608 L 25.368 33.3566 L 27.277 33.3566 L 27.277 23.9608 ZM 27.277 34.6129 L 13.2571 34.6129 L 13.2571 37.7437 L 14.5282 37.7437 L 14.5282 37.1647 C 14.5282 36.8178 14.8131 36.5365 15.1645 36.5365 C 15.516 36.5365 15.8009 36.8178 15.8009 37.1647 L 15.8009 37.7437 L 17.1134 37.7437 L 17.1134 37.1647 C 17.1134 36.8178 17.3983 36.5365 17.7497 36.5365 C 18.1012 36.5365 18.3861 36.8178 18.3861 37.1647 L 18.3861 37.7437 L 19.6588 37.7437 L 19.6588 37.1647 C 19.6588 36.8178 19.9438 36.5365 20.2952 36.5365 C 20.6466 36.5365 20.9316 36.8178 20.9316 37.1647 L 20.9316 37.7437 L 22.2043 37.7437 L 22.2043 37.1647 C 22.2043 36.8178 22.4892 36.5365 22.8407 36.5365 C 23.1921 36.5365 23.477 36.8178 23.477 37.1647 L 23.477 37.7437 L 24.7762 37.7437 L 24.7762 37.1647 C 24.7762 36.8178 25.0612 36.5365 25.4126 36.5365 C 25.764 36.5365 26.049 36.8178 26.049 37.1647 L 26.049 37.7437 L 27.277 37.7437 L 27.277 34.6129 ZM 30.4588 23.9608 L 28.5497 23.9608 L 28.5497 33.9847 L 28.5497 37.7438 L 30.4588 37.7438 L 30.4588 23.9608 ZM 33.6406 23.9608 L 31.7315 23.9608 L 31.7315 37.7438 L 33.6406 37.7438 L 33.6406 23.9608 ZM 36.8224 23.9608 L 34.9133 23.9608 L 34.9133 37.7438 L 36.8224 37.7438 L 36.8224 23.9608 ZM 39.9678 23.9608 L 38.0952 23.9608 L 38.0952 37.7437 L 39.9678 37.7437 L 39.9678 23.9608 ZM 11.9844 32.1003 L 11.9844 30.8637 C 11.9844 30.5168 12.2693 30.2355 12.6207 30.2355 C 12.9722 30.2355 13.2571 30.5168 13.2571 30.8637 L 13.2571 32.1003 C 13.2571 32.4472 12.9722 32.7285 12.6207 32.7285 C 12.2693 32.7285 11.9844 32.4473 11.9844 32.1003 ZM 15.1645 15.1799 C 15.516 15.1799 15.8009 15.4612 15.8009 15.8081 L 15.8009 17.0447 C 15.8009 17.3916 15.516 17.6728 15.1645 17.6728 C 14.8131 17.6728 14.5282 17.3917 14.5282 17.0447 L 14.5282 15.8081 C 14.5282 15.4612 14.8131 15.1799 15.1645 15.1799 ZM 15.1645 20.1854 C 15.516 20.1854 15.8009 20.4666 15.8009 20.8135 L 15.8009 22.0502 C 15.8009 22.397 15.516 22.6783 15.1645 22.6783 C 14.8131 22.6783 14.5282 22.3971 14.5282 22.0502 L 14.5282 20.8135 C 14.5282 20.4666 14.8131 20.1854 15.1645 20.1854 ZM 15.1645 25.2301 C 15.516 25.2301 15.8009 25.5113 15.8009 25.8582 L 15.8009 27.0949 C 15.8009 27.4418 15.516 27.723 15.1645 27.723 C 14.8131 27.723 14.5282 27.4418 14.5282 27.0949 L 14.5282 25.8582 C 14.5282 25.5113 14.8131 25.2301 15.1645 25.2301 ZM 15.1645 30.2355 C 15.516 30.2355 15.8009 30.5168 15.8009 30.8637 L 15.8009 32.1003 C 15.8009 32.4472 15.516 32.7285 15.1645 32.7285 C 14.8131 32.7285 14.5282 32.4473 14.5282 32.1003 L 14.5282 30.8637 C 14.5282 30.5168 14.8131 30.2355 15.1645 30.2355 ZM 12.6207 27.723 C 12.2693 27.723 11.9844 27.4418 11.9844 27.0949 L 11.9844 25.8582 C 11.9844 25.5113 12.2693 25.2301 12.6207 25.2301 C 12.9722 25.2301 13.2571 25.5113 13.2571 25.8582 L 13.2571 27.0949 C 13.2571 27.4418 12.9722 27.723 12.6207 27.723 ZM 12.6207 22.6783 C 12.2693 22.6783 11.9844 22.3971 11.9844 22.0502 L 11.9844 20.8135 C 11.9844 20.4666 12.2693 20.1854 12.6207 20.1854 C 12.9722 20.1854 13.2571 20.4666 13.2571 20.8135 L 13.2571 22.0502 C 13.2571 22.397 12.9722 22.6783 12.6207 22.6783 ZM 12.6207 17.6728 C 12.2693 17.6728 11.9844 17.3917 11.9844 17.0447 L 11.9844 15.8081 C 11.9844 15.4612 12.2693 15.1799 12.6207 15.1799 C 12.9722 15.1799 13.2571 15.4612 13.2571 15.8081 L 13.2571 17.0447 C 13.2571 17.3916 12.9722 17.6728 12.6207 17.6728 Z" fill="#000000"/>
</svg>