<?xml version="1.0" standalone="no"?>
<!-- Generator: Adobe Fireworks 10, Export SVG Extension by Aaron Beall (http://fireworks.abeall.com) . Version: 0.6.1  -->
<!DOCTYPE svg PUBLIC "-//W3C//DTD SVG 1.1//EN" "http://www.w3.org/Graphics/SVG/1.1/DTD/svg11.dtd">
<svg id="pictos-areli.fw-pictos" viewBox="0 0 50 50" style="background-color:#ffffff00" version="1.1"
	xmlns="http://www.w3.org/2000/svg" xmlns:xlink="http://www.w3.org/1999/xlink" xml:space="preserve"
	x="0px" y="0px" width="50px" height="50px"
>
	<path id="secure" d="M 37.3497 20.645 C 37.6491 20.4627 37.9318 20.2906 38.1369 20.1606 C 38.5021 19.9293 38.7034 19.8019 38.6718 19.4985 L 38.6394 19.2114 L 38.3679 19.1148 C 36.7561 18.541 19.4518 12.39 19.4521 12.39 C 19.4521 12.39 19.4521 12.39 19.4521 12.3901 C 19.2031 12.2972 18.9466 12.25 18.69 12.25 C 18.0028 12.25 17.4261 12.599 17.2207 13.1389 L 14.0731 22.2581 C 13.9165 22.7215 13.9755 23.2226 14.2391 23.6694 C 14.4909 24.0965 14.9021 24.422 15.3965 24.5859 L 21.5732 26.6334 L 20.3572 29.1944 C 20.3099 29.2633 20.1738 29.3739 20.0955 29.4044 L 15.3521 30.4448 L 15.3521 27.5379 C 15.3521 26.7101 14.6744 26.0389 13.8386 26.0389 C 13.0027 26.0389 12.325 26.71 12.325 27.5379 L 12.325 35.5408 C 12.325 36.7682 13.3262 37.75 14.5654 37.75 L 20.8445 37.75 C 21.6804 37.75 22.3581 37.0788 22.3581 36.251 C 22.3581 35.4232 21.6804 34.752 20.8445 34.752 L 15.3521 34.752 L 15.3521 33.5154 L 20.7648 32.3284 C 21.7196 32.1191 22.6756 31.3607 23.0918 30.4842 L 24.4643 27.5915 L 30.7909 29.6888 C 31.0163 29.7635 31.2491 29.8014 31.483 29.8014 C 32.3082 29.8014 33.0232 29.3263 33.2623 28.6187 L 33.8096 26.996 L 34.3168 27.1702 L 34.1854 27.559 C 34.0986 27.8156 34.1182 28.0909 34.2406 28.3341 C 34.363 28.5773 34.5731 28.7586 34.8322 28.8443 L 35.4056 29.0344 C 35.5104 29.0692 35.6193 29.0867 35.7293 29.0867 C 36.1716 29.0867 36.5629 28.8082 36.7031 28.3934 L 38.3161 23.611 C 38.4955 23.0802 38.2055 22.5037 37.6693 22.3259 L 37.096 22.1359 C 36.9911 22.1011 36.882 22.0835 36.7719 22.0835 C 36.3298 22.0835 35.9385 22.3619 35.7983 22.7766 L 35.6694 23.1583 L 35.1629 22.9842 L 35.5671 21.7859 C 35.8136 21.5802 36.7662 21.0003 37.3497 20.645 ZM 32.8947 21.2854 C 32.6947 21.8444 32.1642 22.1936 31.5976 22.1936 C 31.4452 22.1936 31.2901 22.1683 31.1382 22.1151 L 19.3768 17.9897 C 18.6605 17.7384 18.2855 16.9596 18.5391 16.2502 C 18.793 15.5407 19.5792 15.1695 20.2955 15.4205 L 32.057 19.5459 C 32.7733 19.7971 33.1484 20.576 32.8947 21.2854 Z" fill="#000000"/>
</svg>