<?xml version="1.0" standalone="no"?>
<!-- Generator: Adobe Fireworks 10, Export SVG Extension by Aaron Beall (http://fireworks.abeall.com) . Version: 0.6.1  -->
<!DOCTYPE svg PUBLIC "-//W3C//DTD SVG 1.1//EN" "http://www.w3.org/Graphics/SVG/1.1/DTD/svg11.dtd">
<svg id="pictos-areli.fw-pictos" viewBox="0 0 50 50" style="background-color:#ffffff00" version="1.1"
	xmlns="http://www.w3.org/2000/svg" xmlns:xlink="http://www.w3.org/1999/xlink" xml:space="preserve"
	x="0px" y="0px" width="50px" height="50px"
>
	<g id="services">
		<path id="laverie" visibility="hidden" d="M 36.8197 39.025 L 13.1803 39.025 C 12.7218 39.025 12.35 38.6498 12.35 38.1871 L 12.35 11.8129 C 12.35 11.3502 12.7218 10.975 13.1803 10.975 L 36.8197 10.975 C 37.2782 10.975 37.65 11.3502 37.65 11.8129 L 37.65 38.1871 C 37.65 38.6498 37.2782 39.025 36.8197 39.025 ZM 35.9894 12.6506 L 14.0106 12.6506 L 14.0106 16.7976 L 35.9894 16.7976 L 35.9894 12.6506 ZM 35.9894 18.4733 L 14.0106 18.4733 L 14.0106 37.3494 L 35.9894 37.3494 L 35.9894 18.4733 ZM 25 22.2458 C 28.4285 22.2458 31.2177 25.0603 31.2177 28.5197 C 31.2177 31.9791 28.4283 34.7935 25 34.7935 C 21.5716 34.7935 18.7823 31.9791 18.7823 28.5197 C 18.7823 25.0603 21.5715 22.2458 25 22.2458 ZM 25 33.1179 C 27.5128 33.1179 29.5571 31.0551 29.5571 28.5197 C 29.5571 25.9843 27.5127 23.9215 25 23.9215 C 22.4873 23.9215 20.4429 25.9843 20.4429 28.5197 C 20.4429 31.0551 22.4872 33.1179 25 33.1179 ZM 21.2369 15.4983 L 15.2917 15.4983 L 15.2917 13.8226 L 21.2369 13.8226 L 21.2369 15.4983 ZM 31.6443 15.6864 L 29.9836 15.6864 L 29.9836 13.6343 L 31.6443 13.6343 L 31.6443 15.6864 ZM 34.6272 15.6864 L 32.9666 15.6864 L 32.9666 13.6343 L 34.6272 13.6343 L 34.6272 15.6864 Z" fill="#000000"/>
		<path id="parking" visibility="hidden" d="M 33.1296 38.9009 L 16.8706 38.9009 C 13.6882 38.9009 11.0991 36.3115 11.0991 33.1288 L 11.0991 16.8705 C 11.0991 13.6881 13.6882 11.0991 16.8706 11.0991 L 33.1296 11.0991 C 36.3119 11.0991 38.9009 13.6881 38.9009 16.8705 L 38.9009 33.1288 C 38.9009 36.3115 36.3119 38.9009 33.1296 38.9009 ZM 37.8452 16.8705 C 37.8452 14.2703 35.7295 12.1549 33.1296 12.1549 L 16.8706 12.1549 C 14.2705 12.1549 12.1548 14.2703 12.1548 16.8705 L 12.1548 33.1288 C 12.1548 35.7295 14.2705 37.8452 16.8706 37.8452 L 33.1296 37.8452 C 35.7295 37.8452 37.8452 35.7295 37.8452 33.1288 L 37.8452 16.8705 ZM 25.5709 27.6031 L 21.826 27.6031 L 21.826 32.7422 C 21.826 33.5933 21.1362 34.2831 20.2854 34.2831 C 19.4343 34.2831 18.7445 33.5933 18.7445 32.7422 L 18.7445 17.2578 C 18.7445 16.4067 19.4343 15.7169 20.2854 15.7169 L 25.5709 15.7169 C 28.7053 15.7169 31.2554 18.267 31.2554 21.4014 L 31.2554 21.9188 C 31.2554 25.0532 28.7053 27.6031 25.5709 27.6031 ZM 28.174 21.4014 C 28.174 19.9662 27.0063 18.7986 25.571 18.7986 L 21.8262 18.7986 L 21.8262 24.5217 L 25.571 24.5217 C 27.0062 24.5217 28.174 23.3541 28.174 21.9189 L 28.174 21.4014 Z" fill="#000000"/>
		<path id="esp.%20verts" visibility="hidden" d="M 26.3262 9.9097 C 25.9541 9.3613 25.0459 9.3613 24.6738 9.9097 C 24.3599 10.3687 17 21.2866 17 30.9937 C 17 35.3462 20.2832 38.938 24.5 39.436 L 24.5 40.5005 C 24.5 41.0532 24.9482 41.5015 25.5 41.5015 C 26.0518 41.5015 26.5 41.0532 26.5 40.5005 L 26.5 39.436 C 30.7168 38.938 34 35.3442 34 30.9937 C 34 21.2866 26.6406 10.3687 26.3262 9.9097 ZM 26.5 37.4146 L 26.5 33.9097 L 29.207 31.2007 C 29.5977 30.8071 29.5977 30.1763 29.207 29.7847 C 28.8164 29.3931 28.1836 29.3931 27.793 29.7847 L 26.5 31.0796 L 26.5 26.9009 L 29.207 24.1924 C 29.5977 23.8003 29.5977 23.1694 29.207 22.7764 C 28.8164 22.3858 28.1836 22.3858 27.793 22.7764 L 26.5 24.0728 L 26.5 18.4785 C 26.5 17.9253 26.0518 17.4776 25.5 17.4776 C 24.9482 17.4776 24.5 17.9253 24.5 18.4785 L 24.5 24.0728 L 23.207 22.7764 C 22.8159 22.3858 22.1841 22.3858 21.793 22.7764 C 21.4019 23.1694 21.4019 23.8003 21.793 24.1924 L 24.5 26.9009 L 24.5 31.0796 L 23.207 29.7847 C 22.8159 29.3931 22.1841 29.3931 21.793 29.7847 C 21.4019 30.1763 21.4019 30.8071 21.793 31.2007 L 24.5 33.9097 L 24.5 37.4146 C 21.3901 36.9321 19 34.2398 19 30.9937 C 19 23.7705 23.584 15.4888 25.5 12.3413 C 27.416 15.4888 32 23.7705 32 30.9937 C 32 34.2398 29.6094 36.9321 26.5 37.4146 Z" fill="#000000"/>
		<path id="ascenceur" visibility="hidden" d="M 38.313 24.0065 L 34.4479 24.0065 C 34.1466 24.0065 34.0295 23.7943 34.1878 23.5349 L 36.0926 20.4135 C 36.2508 20.1541 36.5099 20.1541 36.6682 20.4135 L 38.5731 23.5349 C 38.7314 23.7943 38.6143 24.0065 38.313 24.0065 ZM 31.3357 39.3663 L 31.0618 39.3663 C 30.7102 39.3663 30.4227 39.0753 30.4227 38.7196 L 30.4227 13.8295 C 30.4227 13.4738 30.7102 13.1828 31.0618 13.1828 L 31.3357 13.1828 C 31.6873 13.1828 31.9748 13.4738 31.9748 13.8295 L 31.9748 38.7196 C 31.9748 39.0753 31.6873 39.3663 31.3357 39.3663 ZM 28.2449 29.612 C 27.6513 29.8396 26.9894 29.5321 26.7668 28.9255 L 26.1661 27.289 C 26.1661 27.289 26.1012 27.0504 26.1012 27.8074 L 26.1012 37.7866 C 26.1012 38.659 25.4091 39.3663 24.5552 39.3663 C 23.7012 39.3663 23.0091 38.659 23.0091 37.7866 L 23.0091 31.2672 C 23.0091 31.2672 23.0123 31.2095 22.955 31.2095 C 22.8099 31.2095 22.5195 31.2095 22.3744 31.2095 C 22.3147 31.2095 22.3221 31.2672 22.3221 31.2672 L 22.3221 37.7866 C 22.3221 38.659 21.6299 39.3663 20.776 39.3663 C 19.9221 39.3663 19.2299 38.659 19.2299 37.7866 L 19.2299 27.8074 C 19.2299 27.0624 19.1856 27.2331 19.1856 27.2331 L 18.5643 28.9255 C 18.3417 29.5321 17.6799 29.8395 17.0862 29.612 C 16.4925 29.3844 16.1918 28.7081 16.4144 28.1015 L 18.7512 20.9117 C 18.948 20.3751 19.4033 20.079 20.0212 20.079 C 20.1735 20.079 20.3165 20.079 20.4775 20.079 L 24.8538 20.079 C 25.0147 20.079 25.0395 20.0721 25.3097 20.0721 C 25.8508 20.0721 26.3831 20.3751 26.5801 20.9117 L 28.9168 28.1015 C 29.1395 28.7081 28.8386 29.3844 28.2449 29.612 ZM 22.6963 19.2818 C 20.863 19.2818 19.3769 17.7936 19.3769 15.9578 C 19.3769 14.122 20.863 12.6337 22.6963 12.6337 C 24.5296 12.6337 26.0157 14.122 26.0157 15.9578 C 26.0157 17.7936 24.5296 19.2818 22.6963 19.2818 ZM 14.2693 39.3663 L 13.9954 39.3663 C 13.6439 39.3663 13.3562 39.0753 13.3562 38.7196 L 13.3562 13.8295 C 13.3562 13.4738 13.6439 13.1828 13.9954 13.1828 L 14.2693 13.1828 C 14.6208 13.1828 14.9084 13.4738 14.9084 13.8295 L 14.9084 38.7196 C 14.9084 39.0753 14.6208 39.3663 14.2693 39.3663 ZM 34.448 26.4421 L 38.3131 26.4421 C 38.6144 26.4421 38.7315 26.6543 38.5731 26.9137 L 36.6684 30.0351 C 36.5101 30.2945 36.2511 30.2945 36.0928 30.0351 L 34.1878 26.9137 C 34.0296 26.6543 34.1467 26.4421 34.448 26.4421 Z" fill="#000000"/>
		<path id="Forma%201" visibility="hidden" d="M 40.6598 32.8843 L 38.8772 32.8843 L 41.2758 35.2982 C 41.4597 35.4664 41.575 35.709 41.575 35.9787 C 41.575 36.4864 41.1659 36.8982 40.6613 36.8982 C 40.6608 36.8981 40.6603 36.8981 40.6598 36.8982 L 35.123 36.8982 L 35.123 41.7466 C 35.123 42.356 34.6321 42.85 34.0265 42.85 C 33.421 42.85 32.93 42.356 32.93 41.7466 L 32.93 36.8982 L 27.3932 36.8982 C 27.0237 36.8982 26.6905 36.6742 26.5491 36.3306 C 26.4076 35.987 26.4858 35.5915 26.7471 35.3286 L 29.1759 32.8843 L 27.3932 32.8843 C 27.0237 32.8843 26.6905 32.6602 26.5491 32.3167 C 26.4076 31.9731 26.4858 31.5776 26.7471 31.3146 L 33.3804 24.6396 C 33.7373 24.2805 34.3158 24.2805 34.6726 24.6396 L 41.3059 31.3146 C 41.5672 31.5776 41.6454 31.9731 41.504 32.3167 C 41.3626 32.6602 41.0294 32.8843 40.6598 32.8843 ZM 35.8272 31.6128 C 35.9685 31.2693 36.3017 31.0453 36.6713 31.0453 L 38.4539 31.0453 L 34.0265 26.5901 L 29.5992 31.0453 L 31.3818 31.0453 C 31.7513 31.0453 32.0845 31.2693 32.2259 31.6128 C 32.3674 31.9564 32.2892 32.352 32.0279 32.6149 L 29.5991 35.0592 L 38.4539 35.0592 L 36.0252 32.6149 C 35.7639 32.352 35.6857 31.9564 35.8272 31.6128 ZM 39.6078 23.1845 L 26.3665 23.1845 C 25.8618 23.1845 25.4528 22.7728 25.4528 22.265 L 25.4528 10.7481 C 25.4528 10.4586 25.5882 10.1861 25.8183 10.0124 C 26.0485 9.8389 26.3465 9.7843 26.6225 9.8655 L 35.4837 12.468 L 35.4837 8.0695 C 35.4837 7.5617 35.8928 7.15 36.3974 7.15 L 39.6078 7.15 C 40.1124 7.15 40.5215 7.5617 40.5215 8.0695 L 40.5215 22.265 C 40.5215 22.7729 40.1124 23.1845 39.6078 23.1845 ZM 38.6941 8.989 L 37.3111 8.989 L 37.3111 13.6942 C 37.3111 13.9837 37.1757 14.2562 36.9455 14.4299 C 36.7154 14.6034 36.4174 14.658 36.1414 14.5769 L 27.2802 11.9743 L 27.2802 21.3455 L 38.6941 21.3455 L 38.6941 8.989 ZM 23.6089 14.6648 L 23.6089 22.265 C 23.6089 22.7728 23.1998 23.1845 22.6951 23.1845 L 10.0397 23.1845 C 9.5351 23.1845 9.1259 22.7728 9.1259 22.265 L 9.1259 14.6648 C 8.7239 14.5683 8.425 14.2044 8.425 13.7704 L 8.425 12.9516 C 8.425 12.6368 8.585 12.344 8.849 12.1753 L 15.7206 7.7856 C 16.0198 7.5946 16.4018 7.5948 16.7007 7.7861 L 23.8864 12.3857 C 24.1501 12.5543 24.3097 12.847 24.3097 13.1614 L 24.3097 13.7704 C 24.3097 14.2044 24.0109 14.5683 23.6089 14.6648 ZM 16.2099 9.6513 L 10.721 13.1577 C 10.8655 13.3203 10.9534 13.535 10.9534 13.7704 L 10.9534 21.3455 L 21.7814 21.3455 L 21.7814 13.7704 C 21.7814 13.5984 21.8284 13.4375 21.9099 13.2999 L 16.2099 9.6513 ZM 10.2684 24.4056 L 22.3013 24.4056 C 22.806 24.4056 23.215 24.8172 23.2151 25.3251 L 23.2151 41.2186 C 23.2151 41.7264 22.806 42.1381 22.3014 42.1381 L 17.6752 42.1381 C 17.1705 42.1381 16.7615 41.7264 16.7615 41.2186 L 16.7615 38.717 L 15.8083 38.717 L 15.8083 41.2186 C 15.8083 41.7264 15.3992 42.1381 14.8946 42.1381 L 10.2684 42.1381 C 9.7637 42.1381 9.3547 41.7264 9.3547 41.2186 L 9.3547 25.3251 C 9.3547 24.8173 9.7637 24.4056 10.2684 24.4056 ZM 11.1821 40.2991 L 13.9808 40.2991 L 13.9808 37.7975 C 13.9808 37.2897 14.3898 36.878 14.8945 36.878 L 17.6751 36.878 C 18.1798 36.878 18.5889 37.2897 18.5889 37.7975 L 18.5889 40.2991 L 21.3876 40.2991 L 21.3876 40.2991 L 21.3876 26.2446 L 11.1821 26.2446 L 11.1821 40.2991 ZM 17.5853 33.2098 L 19.4533 33.2098 L 19.4533 35.0896 L 17.5853 35.0896 L 17.5853 33.2098 ZM 17.5853 28.7128 L 19.4533 28.7128 L 19.4533 30.5927 L 17.5853 30.5927 L 17.5853 28.7128 ZM 13.1164 33.2098 L 14.9844 33.2098 L 14.9844 35.0896 L 13.1164 35.0896 L 13.1164 33.2098 ZM 13.1164 28.7128 L 14.9844 28.7128 L 14.9844 30.5927 L 13.1164 30.5927 L 13.1164 28.7128 Z" fill="#000000"/>
		<path id="secure" visibility="hidden" d="M 37.3497 20.645 C 37.6491 20.4627 37.9318 20.2906 38.1369 20.1606 C 38.5021 19.9293 38.7034 19.8019 38.6718 19.4985 L 38.6394 19.2114 L 38.3679 19.1148 C 36.7561 18.541 19.4518 12.39 19.4521 12.39 C 19.4521 12.39 19.4521 12.39 19.4521 12.3901 C 19.2031 12.2972 18.9466 12.25 18.69 12.25 C 18.0028 12.25 17.4261 12.599 17.2207 13.1389 L 14.0731 22.2581 C 13.9165 22.7215 13.9755 23.2226 14.2391 23.6694 C 14.4909 24.0965 14.9021 24.422 15.3965 24.5859 L 21.5732 26.6334 L 20.3572 29.1944 C 20.3099 29.2633 20.1738 29.3739 20.0955 29.4044 L 15.3521 30.4448 L 15.3521 27.5379 C 15.3521 26.7101 14.6744 26.0389 13.8386 26.0389 C 13.0027 26.0389 12.325 26.71 12.325 27.5379 L 12.325 35.5408 C 12.325 36.7682 13.3262 37.75 14.5654 37.75 L 20.8445 37.75 C 21.6804 37.75 22.3581 37.0788 22.3581 36.251 C 22.3581 35.4232 21.6804 34.752 20.8445 34.752 L 15.3521 34.752 L 15.3521 33.5154 L 20.7648 32.3284 C 21.7196 32.1191 22.6756 31.3607 23.0918 30.4842 L 24.4643 27.5915 L 30.7909 29.6888 C 31.0163 29.7635 31.2491 29.8014 31.483 29.8014 C 32.3082 29.8014 33.0232 29.3263 33.2623 28.6187 L 33.8096 26.996 L 34.3168 27.1702 L 34.1854 27.559 C 34.0986 27.8156 34.1182 28.0909 34.2406 28.3341 C 34.363 28.5773 34.5731 28.7586 34.8322 28.8443 L 35.4056 29.0344 C 35.5104 29.0692 35.6193 29.0867 35.7293 29.0867 C 36.1716 29.0867 36.5629 28.8082 36.7031 28.3934 L 38.3161 23.611 C 38.4955 23.0802 38.2055 22.5037 37.6693 22.3259 L 37.096 22.1359 C 36.9911 22.1011 36.882 22.0835 36.7719 22.0835 C 36.3298 22.0835 35.9385 22.3619 35.7983 22.7766 L 35.6694 23.1583 L 35.1629 22.9842 L 35.5671 21.7859 C 35.8136 21.5802 36.7662 21.0003 37.3497 20.645 ZM 32.8947 21.2854 C 32.6947 21.8444 32.1642 22.1936 31.5976 22.1936 C 31.4452 22.1936 31.2901 22.1683 31.1382 22.1151 L 19.3768 17.9897 C 18.6605 17.7384 18.2855 16.9596 18.5391 16.2502 C 18.793 15.5407 19.5792 15.1695 20.2955 15.4205 L 32.057 19.5459 C 32.7733 19.7971 33.1484 20.576 32.8947 21.2854 Z" fill="#000000"/>
		<path id="esp.velo" visibility="hidden" d="M 34.4301 23.7632 C 33.7895 23.7632 33.148 23.8739 32.5236 24.0923 L 32.3933 24.1379 L 30.2949 20.3268 L 30.2949 18.6717 L 32.809 18.6717 C 33.2922 18.6717 33.6852 18.2787 33.6852 17.7957 C 33.6852 17.3126 33.2922 16.9197 32.809 16.9197 L 29.4776 16.9197 C 28.9944 16.9197 28.6013 17.3126 28.6013 17.7957 C 28.6013 17.8664 28.611 17.94 28.63 18.0142 L 28.6352 18.0342 L 28.6352 19.7105 L 20.991 19.7105 L 20.3615 18.3092 L 22.1824 18.3092 C 22.6399 18.3092 23.012 17.937 23.012 17.4795 C 23.012 17.0221 22.6399 16.65 22.1824 16.65 L 15.976 16.65 C 15.5184 16.65 15.1462 17.0221 15.1462 17.4795 C 15.1462 17.937 15.5184 18.3092 15.976 18.3092 L 18.5427 18.3092 L 19.0969 19.5651 L 16.6068 24.139 L 16.4758 24.0931 C 15.852 23.8745 15.2108 23.7637 14.5699 23.7637 C 11.3746 23.7637 8.775 26.3625 8.775 29.557 C 8.775 32.7512 11.3746 35.3499 14.5699 35.3499 C 17.4051 35.3499 19.8052 33.3198 20.277 30.5226 L 20.2999 30.3865 L 22.7664 30.3865 L 22.8136 30.4313 C 23.1907 30.789 23.6841 30.986 24.2029 30.986 C 25.3162 30.986 26.2219 30.0805 26.2219 28.9676 C 26.2219 28.7754 26.1944 28.5839 26.14 28.3987 L 26.1209 28.3336 L 29.465 22.2601 L 30.9399 24.9389 L 30.8321 25.0246 C 29.4359 26.1338 28.6352 27.7858 28.6352 29.557 C 28.6352 32.7513 31.2348 35.35 34.4301 35.35 C 37.6254 35.35 40.225 32.7513 40.225 29.557 C 40.225 26.3623 37.6254 23.7632 34.4301 23.7632 ZM 17.25 26.4086 L 17.4034 26.5533 C 17.9714 27.0893 18.3747 27.7701 18.5696 28.5224 L 18.6225 28.7264 L 15.9739 28.7264 L 17.25 26.4086 ZM 18.5696 30.5906 C 18.0961 32.4154 16.4514 33.6899 14.5701 33.6899 C 12.2898 33.6899 10.4348 31.8354 10.4348 29.5559 C 10.4348 27.2765 12.2899 25.422 14.5701 25.422 C 14.903 25.422 15.2471 25.4668 15.593 25.5551 L 15.7972 25.6073 L 13.8436 29.1572 C 13.8386 29.1702 13.8333 29.183 13.8267 29.1956 C 13.8131 29.2237 13.803 29.248 13.7948 29.2716 C 13.7834 29.3018 13.7756 29.3263 13.7699 29.3497 C 13.7634 29.3741 13.7588 29.3974 13.7543 29.4276 C 13.7487 29.4605 13.7461 29.4879 13.7457 29.5119 L 13.7454 29.5206 C 13.7446 29.5316 13.7432 29.5427 13.7415 29.5538 L 13.741 29.5574 L 13.7414 29.5601 C 13.7427 29.5695 13.7437 29.5788 13.7443 29.5879 C 13.7461 29.6208 13.7496 29.652 13.7538 29.6827 C 13.7573 29.7052 13.7613 29.7303 13.7677 29.7555 C 13.7739 29.7801 13.7813 29.8045 13.7908 29.8307 C 13.8006 29.8601 13.81 29.8835 13.8211 29.9073 C 13.8313 29.9299 13.8432 29.9504 13.857 29.9741 L 13.8603 29.9799 C 13.8743 30.0045 13.8869 30.0238 13.9002 30.0415 C 13.9151 30.0619 13.9314 30.0819 13.9533 30.1064 C 13.9705 30.125 13.9882 30.1446 14.0077 30.1625 C 14.028 30.1808 14.0494 30.1978 14.0711 30.2149 C 14.0919 30.2305 14.1151 30.2477 14.1382 30.261 L 14.1478 30.267 C 14.1544 30.2713 14.1609 30.2762 14.1675 30.2812 L 14.1735 30.2856 C 14.1867 30.2898 14.1996 30.2953 14.2126 30.3023 C 14.2348 30.313 14.2609 30.3241 14.2847 30.3322 C 14.3148 30.3433 14.3403 30.3513 14.3668 30.3582 C 14.3875 30.3637 14.409 30.368 14.4398 30.373 C 14.4724 30.3784 14.5026 30.3815 14.533 30.3827 C 14.5419 30.3821 14.5556 30.384 14.5699 30.3859 L 18.6225 30.3864 L 18.5696 30.5906 ZM 22.6482 27.6799 C 22.4304 27.9425 22.282 28.2584 22.2191 28.5933 L 22.1941 28.7264 L 20.2999 28.7264 L 20.277 28.5903 C 20.0396 27.183 19.2907 25.9163 18.1679 25.0236 L 18.0601 24.9379 L 19.965 21.4781 L 22.7131 27.6018 L 22.6482 27.6799 ZM 24.919 27.0754 L 24.7923 27.0368 C 24.6458 26.9921 24.4925 26.9644 24.3368 26.9541 L 24.2387 26.9477 L 21.736 21.369 L 28.0615 21.369 L 24.919 27.0754 ZM 34.4301 33.6899 C 32.1499 33.6899 30.2948 31.8354 30.2948 29.5559 C 30.2948 28.4111 30.7571 27.3447 31.5965 26.5532 L 31.7498 26.4086 L 33.7033 29.9561 C 33.8486 30.221 34.1275 30.3855 34.431 30.3855 C 34.5727 30.3855 34.7071 30.3509 34.8307 30.2827 C 35.025 30.176 35.1657 30.0001 35.2273 29.7872 C 35.2889 29.5743 35.2641 29.3497 35.157 29.1551 L 33.2037 25.6073 L 33.4078 25.5551 C 33.7531 25.4667 34.0973 25.422 34.431 25.422 C 36.7113 25.422 38.5664 27.2764 38.5664 29.5559 C 38.5653 31.8354 36.7099 33.6899 34.4301 33.6899 Z" fill="#000000"/>
		<path id="ecole" visibility="hidden" d="M 39.4427 40.2977 L 40.0968 40.2977 C 40.4437 40.2977 40.725 40.5836 40.725 40.9363 C 40.725 41.289 40.4438 41.575 40.097 41.575 L 9.903 41.575 C 9.5562 41.575 9.275 41.289 9.275 40.9363 C 9.275 40.5836 9.5562 40.2977 9.903 40.2977 L 10.557 40.2977 L 10.557 20.4698 L 10.5134 20.4698 C 10.5128 20.4698 10.5121 20.47 10.5115 20.47 C 10.509 20.47 10.5065 20.4694 10.504 20.4694 C 10.4805 20.4692 10.4574 20.4673 10.4345 20.4646 C 10.4275 20.4637 10.4205 20.4624 10.4135 20.4613 C 10.3917 20.4578 10.3702 20.4532 10.3493 20.4475 C 10.3461 20.4467 10.3431 20.4464 10.3399 20.4456 C 10.3381 20.4451 10.3364 20.4443 10.3346 20.4437 C 10.3209 20.4396 10.3075 20.4348 10.2942 20.4297 C 10.2877 20.4273 10.281 20.425 10.2745 20.4224 C 10.2628 20.4175 10.2515 20.4119 10.2402 20.4064 C 10.2324 20.4027 10.2245 20.3992 10.217 20.3951 C 10.2081 20.3903 10.1995 20.3849 10.1909 20.3796 C 10.1816 20.374 10.1723 20.3686 10.1633 20.3626 C 10.1568 20.3581 10.1508 20.3533 10.1444 20.3486 C 10.1341 20.3411 10.1238 20.3335 10.1139 20.3254 C 10.1088 20.3212 10.1041 20.3165 10.0992 20.3122 C 10.089 20.3031 10.0787 20.294 10.0691 20.2843 C 10.0639 20.279 10.0592 20.2734 10.0542 20.2679 C 10.0456 20.2586 10.0369 20.2494 10.0289 20.2396 C 10.0226 20.2319 10.0169 20.2238 10.011 20.2158 C 10.005 20.2077 9.9987 20.1998 9.9931 20.1914 C 9.9861 20.1811 9.9798 20.1701 9.9734 20.1594 C 9.9696 20.1529 9.9654 20.1465 9.9618 20.1399 C 9.9553 20.128 9.9496 20.1155 9.9438 20.1032 C 9.941 20.097 9.9379 20.0911 9.9352 20.0849 C 9.9302 20.0731 9.926 20.0608 9.9216 20.0487 C 9.919 20.0413 9.916 20.0339 9.9136 20.0264 C 9.9103 20.0161 9.9077 20.0054 9.905 19.9947 C 9.9024 19.9848 9.8996 19.975 9.8975 19.965 C 9.8957 19.9565 9.8945 19.9478 9.8931 19.9393 C 9.8909 19.9266 9.8887 19.914 9.8873 19.9012 C 9.8865 19.8942 9.8863 19.887 9.8858 19.88 C 9.8847 19.8657 9.8838 19.8512 9.8836 19.8366 C 9.8836 19.8347 9.8833 19.8328 9.8833 19.8309 C 9.8833 19.8253 9.884 19.8198 9.8842 19.8142 C 9.8846 19.8007 9.885 19.7872 9.8862 19.7736 C 9.8871 19.7634 9.8886 19.7535 9.8899 19.7434 C 9.8914 19.7331 9.8927 19.7227 9.8946 19.7123 C 9.8971 19.6992 9.9001 19.6864 9.9033 19.6737 C 9.9048 19.6681 9.9056 19.6624 9.9072 19.6567 L 11.8499 12.6881 C 11.8505 12.6862 11.8513 12.6843 11.8518 12.6824 C 11.8557 12.6688 11.8604 12.6554 11.8652 12.6422 C 11.8677 12.6352 11.8699 12.6281 11.8727 12.6214 C 11.8773 12.6097 11.8826 12.5985 11.888 12.5872 C 11.8918 12.5791 11.8954 12.5708 11.8995 12.5629 C 11.9041 12.5541 11.9093 12.5458 11.9142 12.5373 C 11.9199 12.5276 11.9254 12.5177 11.9316 12.5083 C 11.9356 12.5021 11.9401 12.4963 11.9444 12.4902 C 11.952 12.4793 11.9597 12.4685 11.968 12.4582 C 11.9719 12.4533 11.9761 12.4488 11.9802 12.4441 C 11.9894 12.4334 11.9985 12.4227 12.0083 12.4127 C 12.0132 12.4077 12.0184 12.4032 12.0235 12.3984 C 12.0329 12.3893 12.0423 12.3801 12.0523 12.3717 C 12.0593 12.3657 12.0668 12.3604 12.0741 12.3547 C 12.0826 12.3482 12.0908 12.3414 12.0996 12.3353 C 12.1093 12.3285 12.1194 12.3226 12.1294 12.3164 C 12.1364 12.3121 12.1432 12.3075 12.1503 12.3035 C 12.1615 12.2972 12.1733 12.2916 12.185 12.2859 C 12.1914 12.2828 12.1977 12.2794 12.2043 12.2764 C 12.2157 12.2714 12.2274 12.2672 12.239 12.2629 C 12.2465 12.2601 12.254 12.257 12.2617 12.2544 C 12.2717 12.2512 12.282 12.2486 12.2923 12.2458 C 12.3022 12.2431 12.312 12.2402 12.3221 12.238 C 12.3303 12.2362 12.3387 12.2351 12.3471 12.2335 C 12.3596 12.2313 12.3721 12.2291 12.3847 12.2277 C 12.3916 12.2269 12.3986 12.2267 12.4056 12.2261 C 12.4197 12.2251 12.4338 12.224 12.448 12.224 C 12.45 12.224 12.4519 12.2236 12.4539 12.2236 L 18.7203 12.2236 L 18.7203 11.6163 C 18.7203 11.3638 18.8665 11.135 19.0934 11.0326 L 24.7449 8.4799 C 24.9074 8.4067 25.0927 8.4067 25.255 8.4801 L 30.9199 11.0423 C 31.1466 11.1449 31.2927 11.3735 31.2927 11.6259 L 31.2927 12.2236 L 37.5591 12.2236 C 37.5611 12.2236 37.5631 12.224 37.5651 12.224 C 37.579 12.2241 37.5926 12.2251 37.6063 12.2261 C 37.6137 12.2267 37.6213 12.227 37.6286 12.2278 C 37.6407 12.2291 37.6525 12.2313 37.6644 12.2333 C 37.6734 12.2348 37.6824 12.2362 37.6913 12.2381 C 37.7005 12.2402 37.7096 12.2428 37.7187 12.2453 C 37.7297 12.2482 37.7408 12.251 37.7516 12.2545 C 37.7583 12.2568 37.7648 12.2595 37.7713 12.2619 C 37.7841 12.2665 37.7967 12.2711 37.809 12.2766 C 37.8144 12.279 37.8195 12.2818 37.8248 12.2843 C 37.8377 12.2905 37.8506 12.2966 37.863 12.3036 C 37.8689 12.307 37.8745 12.3108 37.8803 12.3143 C 37.8916 12.3212 37.9029 12.3279 37.9137 12.3355 C 37.9213 12.3407 37.9286 12.3467 37.9359 12.3524 C 37.9443 12.3588 37.9529 12.365 37.961 12.3718 C 37.9702 12.3797 37.9789 12.3882 37.9877 12.3965 C 37.9934 12.402 37.9994 12.4071 38.0049 12.4128 C 38.0143 12.4223 38.023 12.4326 38.0318 12.4429 C 38.0362 12.448 38.0409 12.4529 38.0451 12.4582 C 38.0532 12.4682 38.0606 12.4788 38.0681 12.4893 C 38.0725 12.4957 38.0773 12.5018 38.0816 12.5083 C 38.0876 12.5175 38.093 12.5272 38.0986 12.5368 C 38.1036 12.5455 38.1089 12.5541 38.1135 12.5629 C 38.1176 12.5707 38.1212 12.579 38.125 12.5871 C 38.1302 12.5984 38.1356 12.6097 38.1403 12.6214 C 38.143 12.6281 38.1453 12.6352 38.1478 12.6422 C 38.1526 12.6554 38.1573 12.6688 38.1612 12.6824 C 38.1618 12.6843 38.1626 12.6862 38.1631 12.6881 L 40.1058 19.6567 C 40.2004 19.9961 40.0066 20.3492 39.6729 20.4454 C 39.6157 20.4618 39.558 20.4697 39.5014 20.4697 C 39.4951 20.4697 39.489 20.4684 39.4828 20.4682 C 39.4738 20.4686 39.4649 20.4696 39.4558 20.4696 L 39.4397 20.4696 C 39.4415 20.49 39.4427 20.5107 39.4427 20.5316 L 39.4427 40.2977 ZM 30.6056 40.2977 L 38.1868 40.2977 L 38.1868 20.5316 C 38.1868 20.5106 38.188 20.49 38.1899 20.4696 L 30.6056 20.4696 L 30.6056 40.2977 ZM 23.1421 35.229 C 23.3031 35.2326 23.4594 35.2994 23.5732 35.4152 C 23.6902 35.5342 23.7569 35.6986 23.7569 35.8671 C 23.7569 36.0355 23.6902 36.2 23.5732 36.3189 C 23.4594 36.4347 23.3031 36.5015 23.1421 36.5051 L 23.1421 40.2977 L 26.8574 40.2977 L 26.8574 31.9952 L 23.1421 31.9952 L 23.1421 35.229 ZM 20.5911 40.2977 L 21.8863 40.2977 L 21.8863 31.3566 C 21.8863 31.0039 22.1674 30.7179 22.5142 30.7179 L 27.4855 30.7179 C 27.8323 30.7179 28.1134 31.0039 28.1135 31.3566 L 28.1135 40.2977 L 29.3498 40.2977 L 29.3498 14.2954 L 24.9997 12.3279 L 20.5911 14.319 L 20.5911 40.2977 ZM 19.3351 14.8188 C 19.2199 14.8164 19.1057 14.7829 19.006 14.717 C 18.8278 14.5992 18.7203 14.3977 18.7203 14.1815 L 18.7203 13.5009 L 12.9285 13.5009 L 11.3418 19.1922 L 19.3351 19.1922 L 19.3351 14.8188 ZM 19.3351 20.4696 L 11.8128 20.4696 L 11.8128 40.2977 L 19.3351 40.2977 L 19.3351 20.4696 ZM 30.0365 12.0408 L 24.9996 9.7626 L 19.9762 12.0314 L 19.9762 13.1992 L 24.7449 11.0454 C 24.8261 11.0088 24.913 10.9905 24.9998 10.9905 C 25.0868 10.9905 25.1737 11.0088 25.255 11.0456 L 30.0365 13.2083 L 30.0365 12.0408 ZM 37.0842 13.5009 L 31.2925 13.5009 L 31.2925 14.1912 C 31.2925 14.4073 31.1849 14.6088 31.0066 14.7267 C 30.9033 14.795 30.7841 14.8298 30.6645 14.8298 C 30.6449 14.8298 30.6252 14.8285 30.6056 14.8267 L 30.6056 19.1923 L 38.6709 19.1923 L 37.0842 13.5009 ZM 13.6868 21.7811 L 17.4644 21.7811 C 17.8112 21.7811 18.0923 22.0671 18.0923 22.4198 L 18.0923 27.4991 C 18.0923 27.8517 17.8112 28.1377 17.4644 28.1377 L 13.6868 28.1377 C 13.3401 28.1377 13.0589 27.8517 13.0589 27.4991 L 13.0589 22.4198 C 13.0589 22.0671 13.3401 21.7811 13.6868 21.7811 ZM 14.3148 26.8604 L 16.8364 26.8604 L 16.8364 25.598 L 14.3148 25.598 L 14.3148 26.8604 ZM 14.3148 24.3208 L 16.8364 24.3208 L 16.8364 23.0584 L 14.3148 23.0584 L 14.3148 24.3208 ZM 13.6868 30.7179 L 17.4644 30.7179 C 17.8112 30.7179 18.0923 31.0039 18.0923 31.3566 L 18.0923 36.4359 C 18.0923 36.7885 17.8112 37.0745 17.4644 37.0745 L 13.6868 37.0745 C 13.3401 37.0745 13.0589 36.7885 13.0589 36.4359 L 13.0589 31.3566 C 13.0589 31.0039 13.3401 30.7179 13.6868 30.7179 ZM 14.3148 35.7972 L 16.8364 35.7972 L 16.8364 34.5348 L 14.3148 34.5348 L 14.3148 35.7972 ZM 14.3148 33.2576 L 16.8364 33.2576 L 16.8364 31.9952 L 14.3148 31.9952 L 14.3148 33.2576 ZM 27.5345 17.2643 C 27.5345 18.6857 26.3975 19.8422 24.9998 19.8422 C 23.6022 19.8422 22.4651 18.6857 22.4651 17.2643 C 22.4651 15.8428 23.6021 14.6864 24.9998 14.6864 C 26.3975 14.6864 27.5345 15.8428 27.5345 17.2643 ZM 23.721 17.2643 C 23.721 17.9816 24.2946 18.565 24.9998 18.565 C 25.705 18.565 26.2786 17.9816 26.2786 17.2643 C 26.2786 16.5471 25.7049 15.9637 24.9998 15.9637 C 24.2947 15.9637 23.721 16.5471 23.721 17.2643 ZM 27.4855 21.7811 C 27.8323 21.7811 28.1134 22.0671 28.1134 22.4198 L 28.1134 27.4991 C 28.1134 27.8517 27.8323 28.1377 27.4855 28.1377 L 22.5142 28.1377 C 22.1674 28.1377 21.8863 27.8517 21.8863 27.4991 L 21.8863 22.4198 C 21.8863 22.0671 22.1674 21.7811 22.5142 21.7811 L 27.4855 21.7811 ZM 26.8575 23.0584 L 23.1422 23.0584 L 23.1422 24.3208 L 26.8575 24.3208 L 26.8575 23.0584 ZM 23.1421 26.8604 L 26.8574 26.8604 L 26.8574 25.598 L 23.1421 25.598 L 23.1421 26.8604 ZM 36.2898 37.0745 L 32.4862 37.0745 C 32.1394 37.0745 31.8582 36.7885 31.8582 36.4359 L 31.8582 31.3566 C 31.8582 31.0039 32.1394 30.7179 32.4862 30.7179 L 36.2898 30.7179 C 36.6366 30.7179 36.9178 31.0039 36.9178 31.3566 L 36.9178 36.4359 C 36.9178 36.7885 36.6366 37.0745 36.2898 37.0745 ZM 35.6619 31.9952 L 33.1141 31.9952 L 33.1141 33.2576 L 35.6619 33.2576 L 35.6619 31.9952 ZM 35.6619 34.5348 L 33.1141 34.5348 L 33.1141 35.7972 L 35.6619 35.7972 L 35.6619 34.5348 ZM 36.2898 28.1377 L 32.4862 28.1377 C 32.1394 28.1377 31.8582 27.8518 31.8582 27.4991 L 31.8582 22.4198 C 31.8582 22.0671 32.1394 21.7811 32.4862 21.7811 L 36.2898 21.7811 C 36.6366 21.7811 36.9178 22.0671 36.9178 22.4198 L 36.9178 27.4991 C 36.9178 27.8517 36.6366 28.1377 36.2898 28.1377 ZM 35.6619 23.0584 L 33.1141 23.0584 L 33.1141 24.3208 L 35.6619 24.3208 L 35.6619 23.0584 ZM 35.6619 25.598 L 33.1141 25.598 L 33.1141 26.8604 L 35.6619 26.8604 L 35.6619 25.598 Z" fill="#000000"/>
		<path id="interphone" visibility="hidden" d="M 36.2115 38.3663 L 13.7885 38.3663 C 12.6004 38.3663 11.6337 37.3996 11.6337 36.2115 L 11.6337 13.7885 C 11.6337 12.6004 12.6004 11.6337 13.7885 11.6337 L 36.2115 11.6337 C 37.3997 11.6337 38.3663 12.6004 38.3663 13.7885 L 38.3663 36.2115 C 38.3663 37.3996 37.3996 38.3663 36.2115 38.3663 ZM 36.5194 25.7388 L 25.0001 25.7388 C 24.5921 25.7388 24.2613 25.4081 24.2613 25.0001 C 24.2613 24.592 24.5921 24.2613 25.0001 24.2613 L 27.113 24.2613 L 27.113 23.8233 C 27.113 22.2852 28.3643 21.0338 29.9026 21.0338 L 32.0525 21.0338 C 33.5908 21.0338 34.8422 22.2852 34.8422 23.8233 L 34.8422 24.2613 L 36.5193 24.2613 L 36.5193 13.7885 C 36.5193 13.6217 36.3783 13.4807 36.2115 13.4807 L 13.7885 13.4807 C 13.6217 13.4807 13.4807 13.6217 13.4807 13.7885 L 13.4807 36.2115 C 13.4807 36.3783 13.6217 36.5193 13.7885 36.5193 L 36.2115 36.5193 C 36.3784 36.5193 36.5193 36.3783 36.5194 36.2116 L 36.5194 25.7388 ZM 33.3646 24.2613 L 33.3646 23.8233 C 33.3646 23.0999 32.7761 22.5114 32.0525 22.5114 L 29.9026 22.5114 C 29.1791 22.5114 28.5905 23.0998 28.5905 23.8233 L 28.5905 24.2613 L 33.3646 24.2613 ZM 34.0885 34.6426 L 27.8671 34.6426 C 27.4592 34.6426 27.1284 34.3117 27.1284 33.9038 C 27.1284 33.4957 27.4591 33.165 27.8671 33.165 L 34.0885 33.165 C 34.4965 33.165 34.8273 33.4959 34.8273 33.9038 C 34.8273 34.3117 34.4964 34.6426 34.0885 34.6426 ZM 34.0885 31.7966 L 27.8671 31.7966 C 27.4592 31.7966 27.1284 31.4658 27.1284 31.0578 C 27.1284 30.6499 27.4591 30.319 27.8671 30.319 L 34.0885 30.319 C 34.4965 30.319 34.8273 30.6497 34.8273 31.0578 C 34.8273 31.4658 34.4964 31.7966 34.0885 31.7966 ZM 34.0885 28.9505 L 27.8671 28.9505 C 27.4592 28.9505 27.1284 28.6198 27.1284 28.2118 C 27.1284 27.8038 27.4591 27.473 27.8671 27.473 L 34.0885 27.473 C 34.4965 27.473 34.8273 27.8037 34.8273 28.2118 C 34.8273 28.6198 34.4964 28.9505 34.0885 28.9505 ZM 25.0001 34.827 C 24.7575 34.827 24.5186 34.7285 24.3475 34.5574 C 24.1751 34.385 24.0766 34.1473 24.0766 33.9036 C 24.0766 33.661 24.1751 33.4221 24.3475 33.251 C 24.5186 33.0786 24.7575 32.9801 25.0001 32.9801 C 25.2425 32.9801 25.4815 33.0786 25.6526 33.251 C 25.825 33.4233 25.9235 33.661 25.9235 33.9036 C 25.9235 34.1461 25.825 34.385 25.6526 34.5574 C 25.4815 34.7285 25.2426 34.827 25.0001 34.827 ZM 25.0001 31.9814 C 24.7575 31.9814 24.5186 31.8829 24.3475 31.7105 C 24.1751 31.5393 24.0766 31.3005 24.0766 31.0579 C 24.0766 30.8141 24.1751 30.5765 24.3475 30.4053 C 24.5186 30.2329 24.7575 30.1344 25.0001 30.1344 C 25.2425 30.1344 25.4815 30.2331 25.6526 30.4053 C 25.825 30.5765 25.9235 30.8153 25.9235 31.0579 C 25.9235 31.3005 25.825 31.5381 25.6526 31.7105 C 25.4815 31.8829 25.2426 31.9814 25.0001 31.9814 ZM 25.0001 29.1347 C 24.7575 29.1347 24.5186 29.0362 24.3475 28.8651 C 24.1751 28.6927 24.0766 28.4551 24.0766 28.2113 C 24.0766 27.9687 24.1751 27.7311 24.3475 27.5587 C 24.5186 27.3875 24.7563 27.289 25.0001 27.289 C 25.2437 27.289 25.4815 27.3874 25.6526 27.5587 C 25.825 27.7311 25.9235 27.9687 25.9235 28.2113 C 25.9235 28.4551 25.825 28.6927 25.6526 28.8651 C 25.4801 29.0362 25.2426 29.1347 25.0001 29.1347 ZM 20.319 34.4614 L 17.4437 34.4614 C 16.2555 34.4614 15.289 33.4948 15.289 32.3067 L 15.289 17.7384 C 15.289 16.5503 16.2555 15.5836 17.4437 15.5836 L 20.3189 15.5836 C 21.5071 15.5836 22.4737 16.5503 22.4738 17.7384 L 22.4738 32.3067 C 22.4738 33.4948 21.5071 34.4614 20.319 34.4614 ZM 20.6269 17.7384 C 20.6269 17.5715 20.4859 17.4306 20.319 17.4306 L 17.4437 17.4306 C 17.2769 17.4306 17.1359 17.5715 17.1359 17.7384 L 17.1359 32.3067 C 17.1359 32.4735 17.2769 32.6145 17.4437 32.6145 L 20.3189 32.6145 C 20.4858 32.6145 20.6268 32.4735 20.6268 32.3067 L 20.6269 32.3067 L 20.6269 17.7384 ZM 30.9691 14.9291 C 32.5449 14.9291 33.8268 16.2113 33.8268 17.7876 C 33.8268 19.3639 32.5449 20.6462 30.9691 20.6462 C 29.3931 20.6462 28.1109 19.3638 28.1109 17.7876 C 28.1109 16.2115 29.3931 14.9291 30.9691 14.9291 ZM 30.9691 19.1688 C 31.7302 19.1688 32.3493 18.5493 32.3493 17.7878 C 32.3493 17.0262 31.7302 16.4067 30.9691 16.4067 C 30.2079 16.4067 29.5885 17.0262 29.5885 17.7878 C 29.5885 18.5493 30.2078 19.1688 30.9691 19.1688 Z" fill="#000000"/>
		<path id="commerce" visibility="hidden" d="M 22.3959 31.8827 L 22.3959 33.5992 C 22.3959 34.0013 22.0824 34.3272 21.6957 34.3272 C 21.3089 34.3272 20.9954 34.0013 20.9954 33.5992 L 20.9954 31.8827 C 20.9954 31.4807 21.3089 31.1547 21.6957 31.1547 C 22.0824 31.1547 22.3959 31.4807 22.3959 31.8827 ZM 16.0495 25.6459 L 17.5249 23.4554 C 17.7467 23.1261 17.6697 22.6722 17.3529 22.4415 C 17.0362 22.2109 16.5995 22.2909 16.3776 22.6203 L 14.9022 24.8107 C 14.6804 25.14 14.7573 25.5939 15.0742 25.8247 C 15.1964 25.9137 15.3365 25.9564 15.4753 25.9564 C 15.696 25.9564 15.9133 25.8482 16.0495 25.6459 ZM 21.2977 22.4415 C 20.9809 22.2109 20.5443 22.2909 20.3224 22.6203 L 15.7059 29.4738 C 15.4841 29.8031 15.5611 30.257 15.8778 30.4877 C 16.0001 30.5768 16.1402 30.6195 16.2789 30.6195 C 16.4996 30.6195 16.7169 30.5113 16.8531 30.309 L 21.4697 23.4554 C 21.6915 23.126 21.6145 22.6721 21.2977 22.4415 ZM 28.3302 31.1547 C 27.9435 31.1547 27.63 31.4807 27.63 31.8827 L 27.63 33.5992 C 27.63 34.0013 27.9435 34.3272 28.3302 34.3272 C 28.717 34.3272 29.0305 34.0013 29.0305 33.5992 L 29.0305 31.8827 C 29.0305 31.4807 28.7171 31.1547 28.3302 31.1547 ZM 34.9519 25.8246 C 35.2687 25.594 34.8296 25.9136 34.9519 25.8246 ZM 37.9061 21.1292 L 37.9061 38.5439 L 37.2212 39.9998 C 37.216 39.9999 37.2109 40 37.2058 40 L 12.7945 40 C 12.7893 40 12.7841 39.9999 12.7791 39.9998 L 12.0941 38.5439 L 12.0941 21.1292 C 11.9397 21.1591 11.781 21.1748 11.6197 21.1748 C 10.3934 21.1748 9.3267 20.2725 9.063 19.0453 C 9.0226 18.9533 9 18.8509 9 18.7432 L 9 18.4517 C 9 18.3563 9.0181 18.2617 9.0531 18.1735 L 12.1262 10.4498 C 12.2344 10.1776 12.4899 10.0001 12.7733 10.0001 L 37.2057 10 C 37.4884 10 37.7435 10.1767 37.8521 10.4482 L 40.9462 18.1718 C 40.9817 18.2605 41 18.3556 41 18.4516 L 41 18.7431 C 41 18.8509 40.9775 18.9533 40.937 19.0452 C 40.6733 20.2724 39.6066 21.1747 38.3803 21.1747 C 38.219 21.1748 38.0605 21.1591 37.9061 21.1292 ZM 25.5641 11.1615 C 24.7595 12.2049 26.4439 10.02 25.5641 11.1615 ZM 21.6715 10.728 L 21.6715 10.728 ZM 24.3153 20.8547 C 23.9468 21.0593 23.5284 21.1749 23.0896 21.1749 C 22.3447 21.1749 21.6586 20.8418 21.1757 20.3053 C 20.6927 20.8418 20.0067 21.1749 19.2619 21.1749 C 18.5204 21.1749 17.8373 20.8449 17.3547 20.3127 C 16.872 20.8449 16.1888 21.1749 15.4474 21.1749 C 14.7025 21.1749 14.0164 20.8419 13.5336 20.3054 C 13.5208 20.3196 13.5079 20.3337 13.4948 20.3476 L 13.4948 38.544 L 24.2997 38.544 L 24.2997 21.0083 C 24.2996 20.9556 24.305 20.9042 24.3153 20.8547 ZM 36.5056 20.3478 C 36.4924 20.3338 36.4794 20.3196 36.4665 20.3052 C 35.9836 20.8417 35.2975 21.1748 34.5525 21.1748 C 33.8111 21.1748 33.128 20.8448 32.6453 20.3127 C 32.1626 20.8449 31.4795 21.1748 30.7381 21.1748 C 29.9932 21.1748 29.3071 20.8418 28.8242 20.3052 C 28.3413 20.8417 27.6553 21.1748 26.9105 21.1748 C 26.4715 21.1748 26.053 21.0591 25.6844 20.8544 C 25.6947 20.904 25.7 20.9555 25.7 21.0083 L 25.7 38.5439 L 36.5054 38.5439 L 36.5054 20.3566 C 36.5055 20.3537 36.5055 20.3507 36.5056 20.3478 ZM 38.3803 19.7189 C 38.981 19.7189 39.4994 19.2541 39.5861 18.6378 C 39.5885 18.6205 39.5916 18.6033 39.5951 18.5865 L 36.7387 11.456 L 13.2415 11.456 L 10.4047 18.586 C 10.4084 18.6031 10.4115 18.6204 10.4139 18.6379 C 10.5006 19.2541 11.019 19.7189 11.6197 19.7189 C 12.2204 19.7189 12.7389 19.2542 12.8256 18.6378 C 12.876 18.2803 13.171 18.0152 13.5186 18.0152 L 13.5488 18.0152 C 13.8963 18.0152 14.1914 18.2803 14.2417 18.6379 C 14.3283 19.2541 14.8467 19.7189 15.4474 19.7189 C 16.0482 19.7189 16.5667 19.2541 16.6536 18.6376 C 16.704 18.2802 16.9989 18.0152 17.3465 18.0152 L 17.3631 18.0152 C 17.7107 18.0152 18.0057 18.2803 18.056 18.6378 C 18.1428 19.2541 18.6612 19.7189 19.262 19.7189 C 19.8626 19.7189 20.3811 19.2541 20.4679 18.6376 C 20.5183 18.2802 20.8132 18.0152 21.1608 18.0152 L 21.191 18.0152 C 21.5386 18.0152 21.8337 18.2803 21.8839 18.6379 C 21.9706 19.2541 22.489 19.7189 23.0896 19.7189 C 23.6904 19.7189 24.2087 19.2542 24.2954 18.6379 C 24.3456 18.2803 24.6407 18.0152 24.9883 18.0152 L 25.0116 18.0152 C 25.3592 18.0152 25.6541 18.2802 25.7045 18.6377 C 25.7914 19.254 26.3099 19.7189 26.9106 19.7189 C 27.5113 19.7189 28.0297 19.2542 28.1164 18.6378 C 28.1667 18.2803 28.4617 18.0152 28.8093 18.0152 L 28.8395 18.0152 C 29.1871 18.0152 29.4821 18.2803 29.5324 18.6378 C 29.6192 19.2541 30.1376 19.7189 30.7384 19.7189 C 31.3391 19.7189 31.8576 19.2541 31.9445 18.6376 C 31.9949 18.2802 32.2898 18.0152 32.6374 18.0152 L 32.6539 18.0152 C 33.0015 18.0152 33.2964 18.2803 33.3468 18.6378 C 33.4335 19.2541 33.952 19.7189 34.5527 19.7189 C 35.1536 19.7189 35.672 19.2542 35.7586 18.6379 C 35.8088 18.2803 36.1039 18.0152 36.4515 18.0152 L 36.4819 18.0152 C 36.8295 18.0152 37.1245 18.2803 37.1748 18.6379 C 37.2613 19.2541 37.7796 19.7189 38.3803 19.7189 ZM 28.5563 23.4554 C 28.5563 23.4554 28.3345 23.126 28.5563 23.4554 Z" fill="#000000"/>
		<path id="centre%20ville" visibility="hidden" d="M 41.8636 39 L 8.1364 39 C 7.7849 39 7.5 38.7188 7.5 38.3719 C 7.5 38.025 7.7849 37.7437 8.1364 37.7437 L 8.7594 37.7437 L 8.7594 12.6281 C 8.7594 12.2812 9.0444 12 9.3958 12 L 18.3414 12 C 18.6928 12 18.9778 12.2812 18.9778 12.6281 L 18.9778 22.7045 L 40.6042 22.7045 C 40.9556 22.7045 41.2406 22.9858 41.2406 23.3327 L 41.2406 37.7437 L 41.8636 37.7437 C 42.215 37.7437 42.5 38.025 42.5 38.3719 C 42.5 38.7188 42.2151 39 41.8636 39 ZM 17.705 13.2563 L 10.0322 13.2563 L 10.0322 37.7437 L 11.9844 37.7437 L 11.9844 33.9847 C 11.9844 33.6378 12.2693 33.3566 12.6207 33.3566 L 17.705 33.3566 L 17.705 13.2563 ZM 20.9133 23.9608 L 18.9778 23.9608 L 18.9778 33.3567 L 20.9133 33.3567 L 20.9133 23.9608 ZM 24.0952 23.9608 L 22.1861 23.9608 L 22.1861 33.3566 L 24.0952 33.3566 L 24.0952 23.9608 ZM 27.277 23.9608 L 25.368 23.9608 L 25.368 33.3566 L 27.277 33.3566 L 27.277 23.9608 ZM 27.277 34.6129 L 13.2571 34.6129 L 13.2571 37.7437 L 14.5282 37.7437 L 14.5282 37.1647 C 14.5282 36.8178 14.8131 36.5365 15.1645 36.5365 C 15.516 36.5365 15.8009 36.8178 15.8009 37.1647 L 15.8009 37.7437 L 17.1134 37.7437 L 17.1134 37.1647 C 17.1134 36.8178 17.3983 36.5365 17.7497 36.5365 C 18.1012 36.5365 18.3861 36.8178 18.3861 37.1647 L 18.3861 37.7437 L 19.6588 37.7437 L 19.6588 37.1647 C 19.6588 36.8178 19.9438 36.5365 20.2952 36.5365 C 20.6466 36.5365 20.9316 36.8178 20.9316 37.1647 L 20.9316 37.7437 L 22.2043 37.7437 L 22.2043 37.1647 C 22.2043 36.8178 22.4892 36.5365 22.8407 36.5365 C 23.1921 36.5365 23.477 36.8178 23.477 37.1647 L 23.477 37.7437 L 24.7762 37.7437 L 24.7762 37.1647 C 24.7762 36.8178 25.0612 36.5365 25.4126 36.5365 C 25.764 36.5365 26.049 36.8178 26.049 37.1647 L 26.049 37.7437 L 27.277 37.7437 L 27.277 34.6129 ZM 30.4588 23.9608 L 28.5497 23.9608 L 28.5497 33.9847 L 28.5497 37.7438 L 30.4588 37.7438 L 30.4588 23.9608 ZM 33.6406 23.9608 L 31.7315 23.9608 L 31.7315 37.7438 L 33.6406 37.7438 L 33.6406 23.9608 ZM 36.8224 23.9608 L 34.9133 23.9608 L 34.9133 37.7438 L 36.8224 37.7438 L 36.8224 23.9608 ZM 39.9678 23.9608 L 38.0952 23.9608 L 38.0952 37.7437 L 39.9678 37.7437 L 39.9678 23.9608 ZM 11.9844 32.1003 L 11.9844 30.8637 C 11.9844 30.5168 12.2693 30.2355 12.6207 30.2355 C 12.9722 30.2355 13.2571 30.5168 13.2571 30.8637 L 13.2571 32.1003 C 13.2571 32.4472 12.9722 32.7285 12.6207 32.7285 C 12.2693 32.7285 11.9844 32.4473 11.9844 32.1003 ZM 15.1645 15.1799 C 15.516 15.1799 15.8009 15.4612 15.8009 15.8081 L 15.8009 17.0447 C 15.8009 17.3916 15.516 17.6728 15.1645 17.6728 C 14.8131 17.6728 14.5282 17.3917 14.5282 17.0447 L 14.5282 15.8081 C 14.5282 15.4612 14.8131 15.1799 15.1645 15.1799 ZM 15.1645 20.1854 C 15.516 20.1854 15.8009 20.4666 15.8009 20.8135 L 15.8009 22.0502 C 15.8009 22.397 15.516 22.6783 15.1645 22.6783 C 14.8131 22.6783 14.5282 22.3971 14.5282 22.0502 L 14.5282 20.8135 C 14.5282 20.4666 14.8131 20.1854 15.1645 20.1854 ZM 15.1645 25.2301 C 15.516 25.2301 15.8009 25.5113 15.8009 25.8582 L 15.8009 27.0949 C 15.8009 27.4418 15.516 27.723 15.1645 27.723 C 14.8131 27.723 14.5282 27.4418 14.5282 27.0949 L 14.5282 25.8582 C 14.5282 25.5113 14.8131 25.2301 15.1645 25.2301 ZM 15.1645 30.2355 C 15.516 30.2355 15.8009 30.5168 15.8009 30.8637 L 15.8009 32.1003 C 15.8009 32.4472 15.516 32.7285 15.1645 32.7285 C 14.8131 32.7285 14.5282 32.4473 14.5282 32.1003 L 14.5282 30.8637 C 14.5282 30.5168 14.8131 30.2355 15.1645 30.2355 ZM 12.6207 27.723 C 12.2693 27.723 11.9844 27.4418 11.9844 27.0949 L 11.9844 25.8582 C 11.9844 25.5113 12.2693 25.2301 12.6207 25.2301 C 12.9722 25.2301 13.2571 25.5113 13.2571 25.8582 L 13.2571 27.0949 C 13.2571 27.4418 12.9722 27.723 12.6207 27.723 ZM 12.6207 22.6783 C 12.2693 22.6783 11.9844 22.3971 11.9844 22.0502 L 11.9844 20.8135 C 11.9844 20.4666 12.2693 20.1854 12.6207 20.1854 C 12.9722 20.1854 13.2571 20.4666 13.2571 20.8135 L 13.2571 22.0502 C 13.2571 22.397 12.9722 22.6783 12.6207 22.6783 ZM 12.6207 17.6728 C 12.2693 17.6728 11.9844 17.3917 11.9844 17.0447 L 11.9844 15.8081 C 11.9844 15.4612 12.2693 15.1799 12.6207 15.1799 C 12.9722 15.1799 13.2571 15.4612 13.2571 15.8081 L 13.2571 17.0447 C 13.2571 17.3916 12.9722 17.6728 12.6207 17.6728 Z" fill="#000000"/>
		<path visibility="hidden" d="M 25.625 11.375 C 26.875 12.375 29.125 12.875 30.375 14.875 C 31.625 16.375 32.375 19.125 32.375 21.375 C 32.375 24.875 29.875 28.375 29.875 31.625 C 29.875 32.375 30.625 33.375 31.125 34.125 C 31.375 34.625 31.375 35.375 31.375 36.125 C 31.375 36.875 31.375 38.125 30.625 38.875 L 17.875 38.875 C 16.875 38.375 17.125 36.875 17.125 36.125 C 17.125 35.625 17.125 35.625 17.125 35.375 C 17.125 34.125 18.125 33.125 18.125 33.125 C 18.125 32.375 17.625 31.625 17.625 30.875 C 17.625 27.875 19.625 25.625 22.625 22.375 C 21.875 21.875 20.625 21.375 19.875 21.375 C 19.375 21.375 17.625 23.125 16.875 23.125 C 15.625 23.125 13.625 22.125 13.625 20.625 C 13.625 20.125 13.875 19.375 13.875 18.875 C 15.625 17.375 17.375 15.375 18.875 13.875 C 19.125 13.375 20.125 13.375 20.875 12.875 C 21.125 12.875 20.875 12.875 20.875 12.375 C 20.875 11.875 21.625 11.125 22.625 11.625 C 22.625 10.875 22.625 9.875 22.875 9.125 C 23.875 9.625 24.625 10.875 25.625 11.375 ZM 27.875 13.625 C 29.875 14.875 31.375 19.125 31.375 21.125 C 31.375 24.625 28.625 28.875 28.875 32.875 L 18.875 32.875 C 18.875 32.375 18.625 31.625 18.625 30.875 C 18.625 27.875 21.875 24.375 24.875 21.375 C 24.625 21.125 24.375 20.875 24.125 20.625 C 22.875 20.875 20.375 20.375 19.875 20.375 C 18.625 20.375 17.875 21.875 16.625 21.875 C 14.875 21.875 14.875 21.125 14.875 20.125 C 14.875 18.375 18.375 16.375 19.375 14.875 C 19.875 14.125 20.875 14.125 21.625 13.625 C 21.875 13.625 22.125 13.125 22.125 12.625 C 22.375 12.625 23.625 11.625 23.875 10.875 C 24.375 12.875 26.375 12.875 27.875 13.625 ZM 30.375 34.625 L 30.375 37.625 L 18.125 37.625 L 18.125 34.625 L 30.375 34.625 Z" stroke="#000000" stroke-width="1" fill="#000000"/>
		<path id="Forma%2012" visibility="hidden" d="M 34.3054 32.3902 C 34.147 31.8889 33.9688 31.3467 33.7747 30.7753 C 32.4451 26.8523 32.1651 22.6422 32.9616 18.5826 C 34.4179 17.5122 35.2794 15.8274 35.2794 14.0233 L 35.2761 10.55 L 33.9925 10.55 L 33.9925 11.871 L 32.7367 11.871 L 32.7367 10.55 L 31.453 10.55 L 31.453 11.871 L 30.1974 11.871 L 30.1974 10.55 L 28.9137 10.55 L 28.9137 11.871 L 27.658 11.871 L 27.658 10.55 L 26.3743 10.55 L 26.3743 11.871 L 25.1186 11.871 L 25.1186 10.55 L 23.8349 10.55 L 23.825 14.0234 C 23.825 15.8274 24.6865 17.5122 26.1429 18.5827 C 26.9394 22.643 26.6591 26.853 25.3285 30.7759 C 25.1319 31.3577 24.9541 31.8996 24.799 32.3902 C 24.4747 32.6258 24.1685 32.8853 23.8831 33.1661 C 23.4896 32.7851 23.0546 32.4419 22.5814 32.1456 C 22.0979 30.2766 21.8101 28.3604 21.7242 26.4389 C 21.717 26.278 21.7032 25.8183 21.7032 25.8183 C 22.7894 24.8656 23.4061 23.5163 23.4061 22.0678 L 23.4061 21.4318 L 22.4899 21.4318 C 22.8297 20.7803 23.0113 20.0523 23.0113 19.3094 C 23.0113 16.7597 20.9177 14.6855 18.3443 14.6855 C 15.7708 14.6855 13.6772 16.7597 13.6772 19.3094 C 13.6772 20.0523 13.8588 20.7804 14.1986 21.4318 L 13.2825 21.4318 L 13.2825 22.0678 C 13.2825 23.5232 13.9038 24.8767 14.9983 25.8299 C 14.9511 27.9522 14.6578 30.0714 14.1258 32.1338 C 11.8208 33.5681 10.4 36.0992 10.4 38.8042 L 10.4 39.45 L 37.6 39.45 L 37.6 38.824 C 37.6 36.2809 36.3725 33.8924 34.3054 32.3902 ZM 25.1088 14.0234 L 25.1088 13.1429 L 33.9958 13.1429 L 33.9958 14.0234 C 33.9958 15.4305 33.3185 16.743 32.177 17.5733 L 26.9277 17.5733 C 25.7861 16.743 25.1088 15.4305 25.1088 14.0234 ZM 27.4963 18.8451 L 31.6083 18.8451 C 30.8881 22.9635 31.2128 27.2115 32.5581 31.1805 C 32.6715 31.5145 32.779 31.8373 32.8804 32.1483 L 26.2241 32.1483 C 26.3244 31.8408 26.4318 31.5175 26.5457 31.1803 C 27.8914 27.2122 28.2165 22.9642 27.4963 18.8451 ZM 16.2729 26.1713 L 20.4301 26.1713 C 20.4945 28.0995 20.7529 30.0247 21.2009 31.9082 L 15.5033 31.9082 C 15.9507 30.0249 16.209 28.1004 16.2729 26.1713 ZM 14.9611 19.3093 C 14.9611 17.4609 16.4789 15.9572 18.3445 15.9572 C 20.2101 15.9572 21.7278 17.4609 21.7278 19.3093 C 21.7278 20.0837 21.4556 20.8355 20.9615 21.4317 L 15.7274 21.4317 C 15.2333 20.8355 14.9611 20.0837 14.9611 19.3093 ZM 14.6203 22.7037 L 22.0685 22.7037 C 21.9222 23.5544 21.4837 24.3264 20.8131 24.8994 L 15.8759 24.8994 C 15.2051 24.3263 14.7665 23.5548 14.6203 22.7037 ZM 14.8595 33.18 L 21.8288 33.18 C 23.6084 34.2652 24.7721 36.1264 24.9738 38.1683 L 11.715 38.1683 C 11.9165 36.1254 13.0796 34.2654 14.8595 33.18 ZM 26.2632 38.1881 C 26.1446 36.7081 25.6029 35.3023 24.7287 34.1281 C 24.9841 33.8706 25.2596 33.6335 25.5531 33.42 L 33.5476 33.42 C 35.1103 34.5569 36.1032 36.2942 36.2857 38.188 L 26.2632 38.188 L 26.2632 38.1881 Z" fill="#000000"/>
		<path id="Forma%2013" visibility="hidden" d="M 40.3217 22.292 C 38.2907 21.0573 36.2602 19.8231 34.2297 18.5885 C 31.7631 17.0891 29.297 15.5898 26.8307 14.0904 C 25.9599 13.561 25.2323 12.9985 24.1334 13.5042 C 23.6044 13.7475 23.1049 14.1293 22.6086 14.4312 C 18.2989 17.0516 13.9888 19.6716 9.6787 22.292 C 9.0622 22.6663 8.5021 21.6995 9.1154 21.3265 C 11.2718 20.0159 13.4282 18.7048 15.5846 17.3937 C 18.0333 15.9051 20.4816 14.4164 22.9304 12.9278 C 23.8111 12.3921 24.6735 11.9874 25.7581 12.2651 C 26.4223 12.435 27.028 12.9023 27.6052 13.2533 C 32.0318 15.9444 36.458 18.6355 40.8846 21.3265 C 41.4983 21.6999 40.9368 22.6663 40.3217 22.292 ZM 12.1703 35.707 C 13.2447 35.707 14.3191 35.707 15.3931 35.707 C 15.5618 35.707 15.731 35.707 15.8997 35.707 C 15.8443 35.6377 15.7926 35.5653 15.7502 35.4861 C 15.5082 35.035 15.5814 34.4742 15.5859 33.9765 C 14.836 33.723 14.291 33.0196 14.291 32.1834 L 14.291 28.2344 C 14.291 27.391 14.8454 26.6832 15.6055 26.435 L 17.6066 21.1714 C 17.9507 20.2667 18.9774 19.5584 19.9438 19.5584 L 30.0562 19.5584 C 31.0226 19.5584 32.0488 20.2672 32.3929 21.1714 L 34.3944 26.435 C 35.1546 26.6832 35.709 27.3915 35.709 28.2344 L 35.709 32.1834 C 35.709 33.0017 35.1872 33.6948 34.4618 33.9618 C 34.4645 34.463 34.5422 35.0305 34.298 35.4861 C 34.2556 35.5653 34.2038 35.6377 34.1485 35.707 C 35.4912 35.707 36.8338 35.707 38.1765 35.707 C 38.8956 35.707 38.8942 36.825 38.1765 36.825 C 37.1021 36.825 36.0277 36.825 34.9538 36.825 C 27.3592 36.825 19.7648 36.825 12.1703 36.825 C 11.4512 36.825 11.4521 35.707 12.1703 35.707 ZM 31.3502 21.5694 C 31.1694 21.0936 30.5646 20.6759 30.0562 20.6759 L 19.9438 20.6759 C 19.4358 20.6759 18.8305 21.0936 18.6493 21.5694 L 16.838 26.3335 L 17.8128 26.3335 L 19.018 22.8572 C 19.3372 21.936 20.3495 21.2143 21.3235 21.2143 L 28.6769 21.2143 C 29.6509 21.2143 30.6628 21.9365 30.981 22.8585 L 32.1809 26.3335 L 33.162 26.3335 L 31.3502 21.5694 ZM 18.9939 26.3335 L 30.9998 26.3335 L 29.9263 23.2239 C 29.7625 22.749 29.1787 22.3322 28.6769 22.3322 L 21.3235 22.3322 C 20.8213 22.3322 20.2366 22.749 20.0719 23.2239 L 18.9939 26.3335 ZM 32.9277 35.174 C 33.4705 35.174 33.3789 34.51 33.3517 34.0838 L 32.5036 34.0838 C 32.4764 34.5091 32.3858 35.174 32.9277 35.174 ZM 31.7073 35.707 C 31.6519 35.6377 31.6002 35.5653 31.5578 35.4861 C 31.3328 35.0671 31.3806 34.5538 31.3917 34.0838 L 18.6569 34.0838 C 18.6681 34.5533 18.7154 35.0667 18.4908 35.4861 C 18.4485 35.5653 18.3967 35.6377 18.3418 35.707 C 22.7969 35.707 27.2521 35.707 31.7073 35.707 ZM 17.1205 35.174 C 17.6633 35.174 17.5722 34.51 17.5445 34.0838 L 16.6964 34.0838 C 16.6692 34.5095 16.5786 35.174 17.1205 35.174 ZM 33.8119 32.9654 C 34.2426 32.9654 34.5931 32.6144 34.5931 32.1829 L 34.5931 28.234 C 34.5931 27.8024 34.2426 27.4514 33.8119 27.4514 L 16.188 27.4514 C 15.7573 27.4514 15.4069 27.8024 15.4069 28.234 L 15.4069 32.1829 C 15.4069 32.6144 15.7573 32.9654 16.188 32.9654 L 33.8119 32.9654 ZM 18.985 27.9263 C 20.1946 27.9263 21.0731 28.851 21.232 29.9878 C 21.2552 30.0517 21.2677 30.125 21.2632 30.2086 C 21.2664 30.2699 21.2588 30.324 21.2467 30.375 C 21.1057 31.5743 20.1576 32.5375 18.8912 32.4861 C 17.69 32.4373 16.7063 31.4151 16.7067 30.2086 C 16.7067 28.9695 17.7472 27.9263 18.985 27.9263 ZM 20.1473 30.2086 C 20.0669 28.716 17.8222 28.7026 17.8227 30.2086 C 17.8227 31.7134 20.0669 31.7008 20.1473 30.2086 ZM 31.0083 27.9263 C 32.218 27.9263 33.0964 28.851 33.2553 29.9878 C 33.2785 30.0517 33.291 30.125 33.2866 30.2086 C 33.2897 30.2699 33.2821 30.324 33.27 30.375 C 33.129 31.5743 32.1809 32.5375 30.9146 32.4861 C 29.7134 32.4373 28.7301 31.4151 28.7301 30.2086 C 28.7301 28.9695 29.7705 27.9263 31.0083 27.9263 ZM 32.1706 30.2086 C 32.0907 28.716 29.846 28.7026 29.846 30.2086 C 29.846 31.7134 32.0903 31.7008 32.1706 30.2086 ZM 21.2579 23.6357 C 20.9896 24.4089 20.7218 25.1825 20.4535 25.9556 C 20.3129 26.3616 19.6666 26.1859 19.8081 25.7772 C 20.0763 25.004 20.3442 24.2304 20.6124 23.4573 C 20.753 23.0513 21.3998 23.227 21.2579 23.6357 Z" fill="#000000"/>
		<path d="M 31.7516 26.0346 L 31.3527 26.0346 L 31.3527 24.166 C 31.3527 20.7099 28.6123 17.8228 25.187 17.7611 L 24.8129 17.7611 C 21.3876 17.8228 18.6472 20.7099 18.6472 24.166 L 18.6472 26.0346 L 18.2482 26.0346 C 17.6334 26.0346 17.1319 26.6695 17.1319 27.4537 L 17.1319 35.8258 C 17.1319 36.6091 17.6334 37.2499 18.2482 37.2499 L 31.7517 37.2499 C 32.3665 37.2499 32.868 36.6091 32.868 35.8258 L 32.868 27.4537 C 32.868 26.6695 32.3665 26.0346 31.7516 26.0346 ZM 26.2651 32.1302 L 26.2651 33.9621 C 26.2651 34.2864 25.9938 34.5608 25.6695 34.5608 L 24.3305 34.5608 C 24.0061 34.5608 23.7349 34.2864 23.7349 33.9621 L 23.7349 32.1302 C 23.4204 31.8204 23.2373 31.392 23.2373 30.9181 C 23.2373 30.0199 23.9309 29.2482 24.8129 29.2126 L 25.1871 29.2126 C 26.069 29.2482 26.7627 30.0199 26.7627 30.9181 C 26.7627 31.392 26.5795 31.8204 26.2651 32.1302 ZM 28.7234 26.0346 L 25.187 26.0346 L 24.8129 26.0346 L 21.2765 26.0346 L 21.2765 24.166 C 21.2765 22.1072 22.9483 20.405 24.9999 20.405 C 27.0516 20.405 28.7234 22.1072 28.7234 24.166 L 28.7234 26.0346 ZM 40.3217 22.292 C 40.9368 22.6663 41.4983 21.6999 40.8846 21.3265 L 27.6052 13.2533 C 27.028 12.9023 26.4223 12.435 25.7581 12.2651 C 24.6735 11.9874 23.8111 12.3921 22.9304 12.9278 L 15.5846 17.3937 L 9.1154 21.3265 C 8.5021 21.6995 9.0622 22.6663 9.6787 22.292 L 22.6086 14.4312 C 23.1049 14.1293 23.6044 13.7475 24.1334 13.5042 C 25.2323 12.9985 25.9599 13.561 26.8307 14.0904 L 34.2297 18.5885 L 40.3217 22.292 Z" fill="#000000"/>
	</g>
</svg>