<?xml version="1.0" standalone="no"?>
<!-- Generator: Adobe Fireworks 10, Export SVG Extension by Aaron Beall (http://fireworks.abeall.com) . Version: 0.6.1  -->
<!DOCTYPE svg PUBLIC "-//W3C//DTD SVG 1.1//EN" "http://www.w3.org/Graphics/SVG/1.1/DTD/svg11.dtd">
<svg id="pictos-areli.fw-pictos" viewBox="0 0 50 50" style="background-color:#ffffff00" version="1.1"
	xmlns="http://www.w3.org/2000/svg" xmlns:xlink="http://www.w3.org/1999/xlink" xml:space="preserve"
	x="0px" y="0px" width="50px" height="50px"
>
	<path id="esp.velo" d="M 34.4301 23.7632 C 33.7895 23.7632 33.148 23.8739 32.5236 24.0923 L 32.3933 24.1379 L 30.2949 20.3268 L 30.2949 18.6717 L 32.809 18.6717 C 33.2922 18.6717 33.6852 18.2787 33.6852 17.7957 C 33.6852 17.3126 33.2922 16.9197 32.809 16.9197 L 29.4776 16.9197 C 28.9944 16.9197 28.6013 17.3126 28.6013 17.7957 C 28.6013 17.8664 28.611 17.94 28.63 18.0142 L 28.6352 18.0342 L 28.6352 19.7105 L 20.991 19.7105 L 20.3615 18.3092 L 22.1824 18.3092 C 22.6399 18.3092 23.012 17.937 23.012 17.4795 C 23.012 17.0221 22.6399 16.65 22.1824 16.65 L 15.976 16.65 C 15.5184 16.65 15.1462 17.0221 15.1462 17.4795 C 15.1462 17.937 15.5184 18.3092 15.976 18.3092 L 18.5427 18.3092 L 19.0969 19.5651 L 16.6068 24.139 L 16.4758 24.0931 C 15.852 23.8745 15.2108 23.7637 14.5699 23.7637 C 11.3746 23.7637 8.775 26.3625 8.775 29.557 C 8.775 32.7512 11.3746 35.3499 14.5699 35.3499 C 17.4051 35.3499 19.8052 33.3198 20.277 30.5226 L 20.2999 30.3865 L 22.7664 30.3865 L 22.8136 30.4313 C 23.1907 30.789 23.6841 30.986 24.2029 30.986 C 25.3162 30.986 26.2219 30.0805 26.2219 28.9676 C 26.2219 28.7754 26.1944 28.5839 26.14 28.3987 L 26.1209 28.3336 L 29.465 22.2601 L 30.9399 24.9389 L 30.8321 25.0246 C 29.4359 26.1338 28.6352 27.7858 28.6352 29.557 C 28.6352 32.7513 31.2348 35.35 34.4301 35.35 C 37.6254 35.35 40.225 32.7513 40.225 29.557 C 40.225 26.3623 37.6254 23.7632 34.4301 23.7632 ZM 17.25 26.4086 L 17.4034 26.5533 C 17.9714 27.0893 18.3747 27.7701 18.5696 28.5224 L 18.6225 28.7264 L 15.9739 28.7264 L 17.25 26.4086 ZM 18.5696 30.5906 C 18.0961 32.4154 16.4514 33.6899 14.5701 33.6899 C 12.2898 33.6899 10.4348 31.8354 10.4348 29.5559 C 10.4348 27.2765 12.2899 25.422 14.5701 25.422 C 14.903 25.422 15.2471 25.4668 15.593 25.5551 L 15.7972 25.6073 L 13.8436 29.1572 C 13.8386 29.1702 13.8333 29.183 13.8267 29.1956 C 13.8131 29.2237 13.803 29.248 13.7948 29.2716 C 13.7834 29.3018 13.7756 29.3263 13.7699 29.3497 C 13.7634 29.3741 13.7588 29.3974 13.7543 29.4276 C 13.7487 29.4605 13.7461 29.4879 13.7457 29.5119 L 13.7454 29.5206 C 13.7446 29.5316 13.7432 29.5427 13.7415 29.5538 L 13.741 29.5574 L 13.7414 29.5601 C 13.7427 29.5695 13.7437 29.5788 13.7443 29.5879 C 13.7461 29.6208 13.7496 29.652 13.7538 29.6827 C 13.7573 29.7052 13.7613 29.7303 13.7677 29.7555 C 13.7739 29.7801 13.7813 29.8045 13.7908 29.8307 C 13.8006 29.8601 13.81 29.8835 13.8211 29.9073 C 13.8313 29.9299 13.8432 29.9504 13.857 29.9741 L 13.8603 29.9799 C 13.8743 30.0045 13.8869 30.0238 13.9002 30.0415 C 13.9151 30.0619 13.9314 30.0819 13.9533 30.1064 C 13.9705 30.125 13.9882 30.1446 14.0077 30.1625 C 14.028 30.1808 14.0494 30.1978 14.0711 30.2149 C 14.0919 30.2305 14.1151 30.2477 14.1382 30.261 L 14.1478 30.267 C 14.1544 30.2713 14.1609 30.2762 14.1675 30.2812 L 14.1735 30.2856 C 14.1867 30.2898 14.1996 30.2953 14.2126 30.3023 C 14.2348 30.313 14.2609 30.3241 14.2847 30.3322 C 14.3148 30.3433 14.3403 30.3513 14.3668 30.3582 C 14.3875 30.3637 14.409 30.368 14.4398 30.373 C 14.4724 30.3784 14.5026 30.3815 14.533 30.3827 C 14.5419 30.3821 14.5556 30.384 14.5699 30.3859 L 18.6225 30.3864 L 18.5696 30.5906 ZM 22.6482 27.6799 C 22.4304 27.9425 22.282 28.2584 22.2191 28.5933 L 22.1941 28.7264 L 20.2999 28.7264 L 20.277 28.5903 C 20.0396 27.183 19.2907 25.9163 18.1679 25.0236 L 18.0601 24.9379 L 19.965 21.4781 L 22.7131 27.6018 L 22.6482 27.6799 ZM 24.919 27.0754 L 24.7923 27.0368 C 24.6458 26.9921 24.4925 26.9644 24.3368 26.9541 L 24.2387 26.9477 L 21.736 21.369 L 28.0615 21.369 L 24.919 27.0754 ZM 34.4301 33.6899 C 32.1499 33.6899 30.2948 31.8354 30.2948 29.5559 C 30.2948 28.4111 30.7571 27.3447 31.5965 26.5532 L 31.7498 26.4086 L 33.7033 29.9561 C 33.8486 30.221 34.1275 30.3855 34.431 30.3855 C 34.5727 30.3855 34.7071 30.3509 34.8307 30.2827 C 35.025 30.176 35.1657 30.0001 35.2273 29.7872 C 35.2889 29.5743 35.2641 29.3497 35.157 29.1551 L 33.2037 25.6073 L 33.4078 25.5551 C 33.7531 25.4667 34.0973 25.422 34.431 25.422 C 36.7113 25.422 38.5664 27.2764 38.5664 29.5559 C 38.5653 31.8354 36.7099 33.6899 34.4301 33.6899 Z" fill="#000000"/>
</svg>