<?xml version="1.0" standalone="no"?>
<!-- Generator: Adobe Fireworks 10, Export SVG Extension by Aaron Beall (http://fireworks.abeall.com) . Version: 0.6.1  -->
<!DOCTYPE svg PUBLIC "-//W3C//DTD SVG 1.1//EN" "http://www.w3.org/Graphics/SVG/1.1/DTD/svg11.dtd">
<svg id="pictos-areli.fw-pictos" viewBox="0 0 50 50" style="background-color:#ffffff00" version="1.1"
	xmlns="http://www.w3.org/2000/svg" xmlns:xlink="http://www.w3.org/1999/xlink" xml:space="preserve"
	x="0px" y="0px" width="50px" height="50px"
>
	<path id="parking" d="M 33.1296 38.9009 L 16.8706 38.9009 C 13.6882 38.9009 11.0991 36.3115 11.0991 33.1288 L 11.0991 16.8705 C 11.0991 13.6881 13.6882 11.0991 16.8706 11.0991 L 33.1296 11.0991 C 36.3119 11.0991 38.9009 13.6881 38.9009 16.8705 L 38.9009 33.1288 C 38.9009 36.3115 36.3119 38.9009 33.1296 38.9009 ZM 37.8452 16.8705 C 37.8452 14.2703 35.7295 12.1549 33.1296 12.1549 L 16.8706 12.1549 C 14.2705 12.1549 12.1548 14.2703 12.1548 16.8705 L 12.1548 33.1288 C 12.1548 35.7295 14.2705 37.8452 16.8706 37.8452 L 33.1296 37.8452 C 35.7295 37.8452 37.8452 35.7295 37.8452 33.1288 L 37.8452 16.8705 ZM 25.5709 27.6031 L 21.826 27.6031 L 21.826 32.7422 C 21.826 33.5933 21.1362 34.2831 20.2854 34.2831 C 19.4343 34.2831 18.7445 33.5933 18.7445 32.7422 L 18.7445 17.2578 C 18.7445 16.4067 19.4343 15.7169 20.2854 15.7169 L 25.5709 15.7169 C 28.7053 15.7169 31.2554 18.267 31.2554 21.4014 L 31.2554 21.9188 C 31.2554 25.0532 28.7053 27.6031 25.5709 27.6031 ZM 28.174 21.4014 C 28.174 19.9662 27.0063 18.7986 25.571 18.7986 L 21.8262 18.7986 L 21.8262 24.5217 L 25.571 24.5217 C 27.0062 24.5217 28.174 23.3541 28.174 21.9189 L 28.174 21.4014 Z" fill="#000000"/>
</svg>