<?xml version="1.0" standalone="no"?>
<!-- Generator: Adobe Fireworks 10, Export SVG Extension by Aaron Beall (http://fireworks.abeall.com) . Version: 0.6.1  -->
<!DOCTYPE svg PUBLIC "-//W3C//DTD SVG 1.1//EN" "http://www.w3.org/Graphics/SVG/1.1/DTD/svg11.dtd">
<svg id="pictos-areli.fw-pictos" viewBox="0 0 50 50" style="background-color:#ffffff00" version="1.1"
	xmlns="http://www.w3.org/2000/svg" xmlns:xlink="http://www.w3.org/1999/xlink" xml:space="preserve"
	x="0px" y="0px" width="50px" height="50px"
>
	<path id="Forma%201" d="M 34.3054 32.3902 C 34.147 31.8889 33.9688 31.3467 33.7747 30.7753 C 32.4451 26.8523 32.1651 22.6422 32.9616 18.5826 C 34.4179 17.5122 35.2794 15.8274 35.2794 14.0233 L 35.2761 10.55 L 33.9925 10.55 L 33.9925 11.871 L 32.7367 11.871 L 32.7367 10.55 L 31.453 10.55 L 31.453 11.871 L 30.1974 11.871 L 30.1974 10.55 L 28.9137 10.55 L 28.9137 11.871 L 27.658 11.871 L 27.658 10.55 L 26.3743 10.55 L 26.3743 11.871 L 25.1186 11.871 L 25.1186 10.55 L 23.8349 10.55 L 23.825 14.0234 C 23.825 15.8274 24.6865 17.5122 26.1429 18.5827 C 26.9394 22.643 26.6591 26.853 25.3285 30.7759 C 25.1319 31.3577 24.9541 31.8996 24.799 32.3902 C 24.4747 32.6258 24.1685 32.8853 23.8831 33.1661 C 23.4896 32.7851 23.0546 32.4419 22.5814 32.1456 C 22.0979 30.2766 21.8101 28.3604 21.7242 26.4389 C 21.717 26.278 21.7032 25.8183 21.7032 25.8183 C 22.7894 24.8656 23.4061 23.5163 23.4061 22.0678 L 23.4061 21.4318 L 22.4899 21.4318 C 22.8297 20.7803 23.0113 20.0523 23.0113 19.3094 C 23.0113 16.7597 20.9177 14.6855 18.3443 14.6855 C 15.7708 14.6855 13.6772 16.7597 13.6772 19.3094 C 13.6772 20.0523 13.8588 20.7804 14.1986 21.4318 L 13.2825 21.4318 L 13.2825 22.0678 C 13.2825 23.5232 13.9038 24.8767 14.9983 25.8299 C 14.9511 27.9522 14.6578 30.0714 14.1258 32.1338 C 11.8208 33.5681 10.4 36.0992 10.4 38.8042 L 10.4 39.45 L 37.6 39.45 L 37.6 38.824 C 37.6 36.2809 36.3725 33.8924 34.3054 32.3902 ZM 25.1088 14.0234 L 25.1088 13.1429 L 33.9958 13.1429 L 33.9958 14.0234 C 33.9958 15.4305 33.3185 16.743 32.177 17.5733 L 26.9277 17.5733 C 25.7861 16.743 25.1088 15.4305 25.1088 14.0234 ZM 27.4963 18.8451 L 31.6083 18.8451 C 30.8881 22.9635 31.2128 27.2115 32.5581 31.1805 C 32.6715 31.5145 32.779 31.8373 32.8804 32.1483 L 26.2241 32.1483 C 26.3244 31.8408 26.4318 31.5175 26.5457 31.1803 C 27.8914 27.2122 28.2165 22.9642 27.4963 18.8451 ZM 16.2729 26.1713 L 20.4301 26.1713 C 20.4945 28.0995 20.7529 30.0247 21.2009 31.9082 L 15.5033 31.9082 C 15.9507 30.0249 16.209 28.1004 16.2729 26.1713 ZM 14.9611 19.3093 C 14.9611 17.4609 16.4789 15.9572 18.3445 15.9572 C 20.2101 15.9572 21.7278 17.4609 21.7278 19.3093 C 21.7278 20.0837 21.4556 20.8355 20.9615 21.4317 L 15.7274 21.4317 C 15.2333 20.8355 14.9611 20.0837 14.9611 19.3093 ZM 14.6203 22.7037 L 22.0685 22.7037 C 21.9222 23.5544 21.4837 24.3264 20.8131 24.8994 L 15.8759 24.8994 C 15.2051 24.3263 14.7665 23.5548 14.6203 22.7037 ZM 14.8595 33.18 L 21.8288 33.18 C 23.6084 34.2652 24.7721 36.1264 24.9738 38.1683 L 11.715 38.1683 C 11.9165 36.1254 13.0796 34.2654 14.8595 33.18 ZM 26.2632 38.1881 C 26.1446 36.7081 25.6029 35.3023 24.7287 34.1281 C 24.9841 33.8706 25.2596 33.6335 25.5531 33.42 L 33.5476 33.42 C 35.1103 34.5569 36.1032 36.2942 36.2857 38.188 L 26.2632 38.188 L 26.2632 38.1881 Z" fill="#000000"/>
</svg>