<?xml version="1.0" standalone="no"?>
<!-- Generator: Adobe Fireworks 10, Export SVG Extension by Aaron Beall (http://fireworks.abeall.com) . Version: 0.6.1  -->
<!DOCTYPE svg PUBLIC "-//W3C//DTD SVG 1.1//EN" "http://www.w3.org/Graphics/SVG/1.1/DTD/svg11.dtd">
<svg id="pictos-areli.fw-pictos" viewBox="0 0 50 50" style="background-color:#ffffff00" version="1.1"
	xmlns="http://www.w3.org/2000/svg" xmlns:xlink="http://www.w3.org/1999/xlink" xml:space="preserve"
	x="0px" y="0px" width="50px" height="50px"
>
	<path id="laverie" d="M 36.8197 39.025 L 13.1803 39.025 C 12.7218 39.025 12.35 38.6498 12.35 38.1871 L 12.35 11.8129 C 12.35 11.3502 12.7218 10.975 13.1803 10.975 L 36.8197 10.975 C 37.2782 10.975 37.65 11.3502 37.65 11.8129 L 37.65 38.1871 C 37.65 38.6498 37.2782 39.025 36.8197 39.025 ZM 35.9894 12.6506 L 14.0106 12.6506 L 14.0106 16.7976 L 35.9894 16.7976 L 35.9894 12.6506 ZM 35.9894 18.4733 L 14.0106 18.4733 L 14.0106 37.3494 L 35.9894 37.3494 L 35.9894 18.4733 ZM 25 22.2458 C 28.4285 22.2458 31.2177 25.0603 31.2177 28.5197 C 31.2177 31.9791 28.4283 34.7935 25 34.7935 C 21.5716 34.7935 18.7823 31.9791 18.7823 28.5197 C 18.7823 25.0603 21.5715 22.2458 25 22.2458 ZM 25 33.1179 C 27.5128 33.1179 29.5571 31.0551 29.5571 28.5197 C 29.5571 25.9843 27.5127 23.9215 25 23.9215 C 22.4873 23.9215 20.4429 25.9843 20.4429 28.5197 C 20.4429 31.0551 22.4872 33.1179 25 33.1179 ZM 21.2369 15.4983 L 15.2917 15.4983 L 15.2917 13.8226 L 21.2369 13.8226 L 21.2369 15.4983 ZM 31.6443 15.6864 L 29.9836 15.6864 L 29.9836 13.6343 L 31.6443 13.6343 L 31.6443 15.6864 ZM 34.6272 15.6864 L 32.9666 15.6864 L 32.9666 13.6343 L 34.6272 13.6343 L 34.6272 15.6864 Z" fill="#000000"/>
</svg>