<?xml version="1.0" standalone="no"?>
<!-- Generator: Adobe Fireworks 10, Export SVG Extension by Aaron Beall (http://fireworks.abeall.com) . Version: 0.6.1  -->
<!DOCTYPE svg PUBLIC "-//W3C//DTD SVG 1.1//EN" "http://www.w3.org/Graphics/SVG/1.1/DTD/svg11.dtd">
<svg id="pictos-areli.fw-pictos" viewBox="0 0 50 50" style="background-color:#ffffff00" version="1.1"
	xmlns="http://www.w3.org/2000/svg" xmlns:xlink="http://www.w3.org/1999/xlink" xml:space="preserve"
	x="0px" y="0px" width="50px" height="50px"
>
	<path id="esp.%20verts" d="M 26.3262 9.9097 C 25.9541 9.3613 25.0459 9.3613 24.6738 9.9097 C 24.3599 10.3687 17 21.2866 17 30.9937 C 17 35.3462 20.2832 38.938 24.5 39.436 L 24.5 40.5005 C 24.5 41.0532 24.9482 41.5015 25.5 41.5015 C 26.0518 41.5015 26.5 41.0532 26.5 40.5005 L 26.5 39.436 C 30.7168 38.938 34 35.3442 34 30.9937 C 34 21.2866 26.6406 10.3687 26.3262 9.9097 ZM 26.5 37.4146 L 26.5 33.9097 L 29.207 31.2007 C 29.5977 30.8071 29.5977 30.1763 29.207 29.7847 C 28.8164 29.3931 28.1836 29.3931 27.793 29.7847 L 26.5 31.0796 L 26.5 26.9009 L 29.207 24.1924 C 29.5977 23.8003 29.5977 23.1694 29.207 22.7764 C 28.8164 22.3858 28.1836 22.3858 27.793 22.7764 L 26.5 24.0728 L 26.5 18.4785 C 26.5 17.9253 26.0518 17.4776 25.5 17.4776 C 24.9482 17.4776 24.5 17.9253 24.5 18.4785 L 24.5 24.0728 L 23.207 22.7764 C 22.8159 22.3858 22.1841 22.3858 21.793 22.7764 C 21.4019 23.1694 21.4019 23.8003 21.793 24.1924 L 24.5 26.9009 L 24.5 31.0796 L 23.207 29.7847 C 22.8159 29.3931 22.1841 29.3931 21.793 29.7847 C 21.4019 30.1763 21.4019 30.8071 21.793 31.2007 L 24.5 33.9097 L 24.5 37.4146 C 21.3901 36.9321 19 34.2398 19 30.9937 C 19 23.7705 23.584 15.4888 25.5 12.3413 C 27.416 15.4888 32 23.7705 32 30.9937 C 32 34.2398 29.6094 36.9321 26.5 37.4146 Z" fill="#000000"/>
</svg>