<?xml version="1.0" encoding="utf-8"?>
<!-- Generator: Adobe Illustrator 19.2.1, SVG Export Plug-In . SVG Version: 6.00 Build 0)  -->
<svg version="1.1" id="Wifi" xmlns="http://www.w3.org/2000/svg" xmlns:xlink="http://www.w3.org/1999/xlink" x="0px" y="0px"
	 viewBox="0 0 50 50" style="enable-background:new 0 0 50 50;" xml:space="preserve">
<title>Wifi</title>
<path d="M19.4,28.8l1.8,1.8c2-2.1,5.3-2.2,7.4-0.2c0.1,0.1,0.2,0.2,0.2,0.2l1.8-1.8c-2.9-3.1-7.8-3.2-10.9-0.2
	C19.6,28.6,19.5,28.7,19.4,28.8z M25,31.6c-0.7,0-1.4,0.3-1.9,0.9l1.9,1.9l1.9-1.9C26.4,31.9,25.7,31.6,25,31.6L25,31.6z M38,21.1
	c-7.2-7.2-18.9-7.2-26,0l-0.1,0.1l1.8,1.8c6.1-6.2,16.2-6.4,22.4-0.2c0.1,0.1,0.2,0.2,0.2,0.2l1.8-1.8L38,21.1z M25,21
	c-3.5,0-6.8,1.4-9.3,3.8l-0.1,0.1l1.9,1.9c4-4.1,10.6-4.2,14.8-0.2c0.1,0.1,0.2,0.2,0.2,0.2l1.9-1.9l-0.1-0.1
	C31.8,22.3,28.5,21,25,21L25,21z"/>
</svg>
