<svg xmlns="http://www.w3.org/2000/svg" width="74" height="74" viewBox="0 0 74 74">
    <path fill="#F6F5F6" fill-rule="evenodd" d="M63.468 41.5c0-2.9-.4-5.772-1.192-8.537a.766.766 0 0 1 1.473-.422A32.558 32.558 0 0 1 65 41.5C65 59.42 50.42 74 32.501 74 14.581 74 0 59.42 0 41.5S14.58 9 32.501 9c3.05 0 6.07.423 8.975 1.257a.766.766 0 1 1-.423 1.472 30.985 30.985 0 0 0-8.552-1.197c-17.077 0-30.97 13.891-30.97 30.968 0 17.077 13.893 30.968 30.97 30.968 17.076 0 30.967-13.891 30.967-30.968zM41.291 20.08a1.272 1.272 0 0 1-.94 2.364c-2.335-.93-4.809-1.4-7.35-1.4-11.005 0-19.957 8.952-19.957 19.956S21.996 60.956 33 60.956c11.004 0 19.955-8.952 19.955-19.956 0-2.533-.468-5.002-1.391-7.337a1.272 1.272 0 0 1 2.365-.936A22.407 22.407 0 0 1 55.5 41c0 12.406-10.093 22.5-22.499 22.5C20.594 63.5 10.5 53.406 10.5 41s10.094-22.5 22.501-22.5c2.866 0 5.655.532 8.29 1.58zm-8.79 11.996c-5.197 0-9.425 4.228-9.425 9.425 0 5.196 4.228 9.423 9.425 9.423 5.196 0 9.423-4.227 9.423-9.423 0-.273-.013-.548-.037-.818a1.288 1.288 0 0 1 2.566-.23c.031.345.047.698.047 1.048 0 6.616-5.383 11.999-11.999 11.999-6.617 0-12.001-5.383-12.001-11.999 0-6.617 5.384-12.001 12.001-12.001.37 0 .734.016 1.083.048a1.289 1.289 0 0 1-.237 2.566 9.232 9.232 0 0 0-.846-.038zm27.817-8.802a1.759 1.759 0 0 1-1.236.511h-6.395L63.382 13.09h7.12L60.317 23.275zm-9.592-9.592L60.91 3.5v7.118L50.214 21.313v-6.396c0-.466.182-.905.512-1.235zm23.006-1.93a3.487 3.487 0 0 0-3.23-2.158h-6.096V3.499c0-1.42-.847-2.688-2.159-3.231a3.485 3.485 0 0 0-3.81.758L48.255 11.21a5.208 5.208 0 0 0-1.536 3.707v9.892L32.512 39.016a1.748 1.748 0 0 0 2.472 2.472L49.191 27.28h9.891c1.401 0 2.718-.545 3.708-1.535l10.184-10.184a3.485 3.485 0 0 0 .758-3.81z"/>
</svg>
