<?xml version="1.0" standalone="no"?>
<!-- Generator: Adobe Fireworks 10, Export SVG Extension by Aaron Beall (http://fireworks.abeall.com) . Version: 0.6.1  -->
<!DOCTYPE svg PUBLIC "-//W3C//DTD SVG 1.1//EN" "http://www.w3.org/Graphics/SVG/1.1/DTD/svg11.dtd">
<svg id="pictos.fw-pictos" viewBox="0 0 50 50" style="background-color:none" version="1.1"
	xmlns="http://www.w3.org/2000/svg" xmlns:xlink="http://www.w3.org/1999/xlink" xml:space="preserve"
	x="0px" y="0px" width="90px" height="90px"
>
	<path id="video" d="M 48.875 24.875 C 48.875 11.625 38.125 1.125 24.875 1.125 C 14.625 1.125 2.875 8.125 1.125 22.375 L 1.125 27.375 C 1.125 27.875 1.625 30.875 2.125 32.375 C 6.375 43.875 16.125 48.875 24.875 48.875 C 37.375 48.875 48.875 38.625 48.875 24.875 ZM 47.875 24.875 C 47.875 37.875 37.375 47.875 24.875 47.875 C 11.625 47.875 2.125 37.375 2.125 24.875 C 2.125 11.875 12.375 2.125 24.875 2.125 C 37.875 2.125 47.875 12.375 47.875 24.875 ZM 21.8019 15.4983 C 21.7488 15.6423 21.7483 15.757 21.7483 15.757 L 21.7056 23.8881 L 21.6557 33.2598 L 21.6421 35.832 C 21.6421 35.832 21.6341 36.3462 22.1534 36.5845 C 22.6751 36.8243 23.0411 36.4303 23.0411 36.4303 L 33.3826 26.3773 C 33.3826 26.3773 33.5023 26.2827 33.5722 26.0939 C 33.6012 26.0153 33.6216 25.9203 33.6213 25.8092 C 33.62 25.4314 33.3607 25.2169 33.3607 25.2169 L 23.1275 15.1906 C 23.1275 15.1906 22.7852 14.8107 22.2671 15.0209 C 21.9919 15.1324 21.8625 15.334 21.8019 15.4983 Z" fill="#FFFFFF"/>
</svg>
